g Button Frame
v -0.4620705 -0.2878433 0.07568291
v -0.422082 -0.359162 0.07989731
v -0.4504436 -0.3692315 0.07568291
v -0.398487 -0.398487 0.07989731
v -0.4199891 -0.4199891 0.07568291
v -0.470702 -0.376424 0.06303978
v -0.4831425 -0.2893408 0.06303978
v -0.4353477 -0.4353478 0.06303978
v -0.376424 -0.470702 0.06303978
v -0.3692315 -0.4504437 0.07568291
v -0.2893408 -0.4831425 0.06303978
v -0.3591619 -0.422082 0.07989731
v -0.2878433 -0.4620706 0.07568291
v -0.4831425 -0.2893408 0.06303978
v -0.4620705 -0.2878433 0.07568291
v -0.4504436 -0.3692315 0.07568291
v -0.4831425 0.2893408 0.06303978
v -0.4620705 0.2878433 0.07568291
v -0.4504436 0.3692315 0.07568291
v -0.470702 0.376424 0.06303978
v -0.4199891 0.4199891 0.07568291
v -0.422082 0.3591619 0.07989731
v -0.398487 0.398487 0.07989731
v -0.4325699 0.2857468 0.07989731
v -0.4325699 -0.2857467 0.07989731
v -0.422082 -0.359162 0.07989731
v -0.2857468 -0.2857467 0.07989731
v -0.398487 -0.398487 0.07989731
v -0.3591619 -0.422082 0.07989731
v -0.2857468 -0.4325699 0.07989731
v -0.2878433 -0.4620706 0.07568291
v 0.2857467 -0.4325699 0.07989731
v 0.2878433 -0.4620706 0.07568291
v 0.359162 -0.422082 0.07989731
v -0.2893408 -0.4831425 0.06303978
v -0.3692315 -0.4504437 0.07568291
v 0.2893408 -0.4831425 0.06303978
v 0.3692315 -0.4504437 0.07568291
v 0.398487 -0.398487 0.07989731
v 0.376424 -0.470702 0.06303978
v 0.4199891 -0.4199891 0.07568291
v 0.398487 -0.398487 0.07989731
v 0.4199891 -0.4199891 0.07568291
v 0.3692315 -0.4504437 0.07568291
v 0.4504437 -0.3692315 0.07568291
v 0.470702 -0.376424 0.06303978
v 0.4353478 -0.4353478 0.06303978
v 0.376424 -0.470702 0.06303978
v 0.4831425 -0.2893408 0.06303978
v 0.4620706 -0.2878433 0.07568291
v 0.4831425 0.2893408 0.06303978
v 0.4620706 0.2878433 0.07568291
v 0.4504437 0.3692315 0.07568291
v 0.422082 -0.359162 0.07989731
v 0.2857468 -0.2857467 0.07989731
v 0.359162 -0.422082 0.07989731
v 0.2857467 -0.4325699 0.07989731
v 0.4325699 -0.2857467 0.07989731
v 0.4325699 0.2857468 0.07989731
v 0.4620706 0.2878433 0.07568291
v 0.2857467 0.2857467 0.07989731
v 0.2857467 -0.2857467 0.07989731
v -0.2857468 -0.4325699 0.07989731
v -0.2857468 -0.2857467 0.07989731
v -0.2857468 0.2857467 0.07989731
v -0.4325699 -0.2857467 0.07989731
v 0.2857467 0.4325699 0.07989731
v -0.4325699 0.2857468 0.07989731
v -0.422082 0.3591619 0.07989731
v -0.2857468 0.4325699 0.07989731
v -0.398487 0.398487 0.07989731
v -0.359162 0.422082 0.07989731
v -0.2878433 0.4620705 0.07568291
v -0.3692315 0.4504436 0.07568291
v -0.4199891 0.4199891 0.07568291
v -0.4504436 0.3692315 0.07568291
v -0.376424 0.470702 0.06303978
v -0.4353477 0.4353477 0.06303978
v -0.470702 0.376424 0.06303978
v -0.2893408 0.4831425 0.06303978
v 0.2878433 0.4620705 0.07568291
v -0.2857468 0.4325699 0.07989731
v 0.2893408 0.4831425 0.06303978
v 0.3692315 0.4504436 0.07568291
v 0.2857467 0.4325699 0.07989731
v 0.359162 0.422082 0.07989731
v 0.2857467 0.2857467 0.07989731
v 0.398487 0.398487 0.07989731
v 0.422082 0.359162 0.07989731
v 0.4325699 0.2857468 0.07989731
v 0.4620706 0.2878433 0.07568291
v 0.4620706 0.2878433 0.07568291
v 0.422082 0.359162 0.07989731
v 0.4504437 0.3692315 0.07568291
v 0.398487 0.398487 0.07989731
v 0.4199891 0.4199891 0.07568291
v 0.470702 0.376424 0.06303978
v 0.4831425 0.2893408 0.06303978
v 0.4353478 0.4353477 0.06303978
v 0.376424 0.470702 0.06303978
v 0.3692315 0.4504436 0.07568291
v 0.2893408 0.4831425 0.06303978
v 0.359162 0.422082 0.07989731
v 0.2878433 0.4620705 0.07568291
v 0.444563 -0.444563 0.04196785
v 0.4476348 -0.4476348 0
v 0.3821782 -0.4869088 0
v 0.3807396 -0.482857 0.04196785
v 0.4353478 -0.4353478 0.06303978
v 0.2905388 -0.5 0
v 0.376424 -0.470702 0.06303978
v 0.2902393 -0.4957856 0.04196785
v 0.2893408 -0.4831425 0.06303978
v -0.2893408 -0.4831425 0.06303978
v -0.2905388 -0.5 0
v -0.2902393 -0.4957856 0.04196785
v -0.376424 -0.470702 0.06303978
v -0.3807395 -0.482857 0.04196785
v -0.4353477 -0.4353478 0.06303978
v -0.3821781 -0.4869088 0
v -0.444563 -0.444563 0.04196785
v -0.4476347 -0.4476348 0
v 0.444563 0.444563 0.04196785
v 0.4476348 0.4476347 0
v 0.4869088 0.3821781 0
v 0.482857 0.3807395 0.04196785
v 0.4353478 0.4353477 0.06303978
v 0.470702 0.376424 0.06303978
v 0.5 0.2905388 0
v 0.4957856 0.2902393 0.04196785
v 0.4831425 0.2893408 0.06303978
v 0.4957856 -0.2902393 0.04196785
v 0.4831425 -0.2893408 0.06303978
v 0.5 -0.2905388 0
v 0.470702 -0.376424 0.06303978
v 0.482857 -0.3807396 0.04196785
v 0.4353478 -0.4353478 0.06303978
v 0.4869088 -0.3821782 0
v 0.444563 -0.444563 0.04196785
v 0.4476348 -0.4476348 0
v -0.444563 0.444563 0.04196785
v -0.4476347 0.4476347 0
v -0.3821781 0.4869088 0
v -0.3807395 0.482857 0.04196785
v -0.4353477 0.4353477 0.06303978
v -0.376424 0.470702 0.06303978
v -0.2905388 0.5 0
v -0.2902393 0.4957856 0.04196785
v -0.2893408 0.4831425 0.06303978
v 0.2902393 0.4957856 0.04196785
v 0.2893408 0.4831425 0.06303978
v 0.2905388 0.5 0
v 0.376424 0.470702 0.06303978
v 0.3807396 0.482857 0.04196785
v 0.4353478 0.4353477 0.06303978
v 0.3821782 0.4869088 0
v 0.444563 0.444563 0.04196785
v 0.4476348 0.4476347 0
v -0.444563 -0.444563 0.04196785
v -0.4476347 -0.4476348 0
v -0.4869088 -0.3821782 0
v -0.482857 -0.3807396 0.04196785
v -0.4353477 -0.4353478 0.06303978
v -0.5 -0.2905388 0
v -0.470702 -0.376424 0.06303978
v -0.4957856 -0.2902393 0.04196785
v -0.4831425 -0.2893408 0.06303978
v -0.4831425 0.2893408 0.06303978
v -0.5 0.2905388 0
v -0.4957856 0.2902393 0.04196785
v -0.470702 0.376424 0.06303978
v -0.482857 0.3807395 0.04196785
v -0.4353477 0.4353477 0.06303978
v -0.4869088 0.3821781 0
v -0.444563 0.444563 0.04196785
v -0.4476347 0.4476347 0
vt 0 0.1781404
vt 0.0982955 0.1612155
vt 0.04914775 0.132973
vt 0.196591 0.196591
vt 0.09829549 0.09829549
vt 0 0.1047306
vt 0 0.2094612
vt 0 0
vt 0.1047306 0
vt 0.132973 0.04914775
vt 0.2094612 0
vt 0.1612155 0.09829551
vt 0.1781421 0
vt 0 0.2094612
vt 0 0.1781404
vt 0.04914775 0.132973
vt 0 0.7905388
vt 0 0.7881427
vt 0 0.9161747
vt 0 0.8952694
vt 2.654269E-08 1
vt 0 0.93708
vt 5.308539E-08 1
vt 0 0.7857466
vt 0 0.1468196
vt 0.0982955 0.1612155
vt 0.1582666 0.1697104
vt 0.196591 0.196591
vt 0.1612155 0.09829551
vt 0.1468231 0
vt 0.1781421 0
vt 0.7857471 0
vt 0.7881429 0
vt 0.93708 0
vt 0.2094612 0
vt 0.132973 0.04914775
vt 0.7905388 0
vt 0.9161747 0
vt 1 4.377216E-08
vt 0.8952694 0
vt 1 2.188608E-08
vt 1 4.377216E-08
vt 1 2.188608E-08
vt 0.9161747 0
vt 1 0.08382533
vt 1 0.1047306
vt 1 0
vt 0.8952694 0
vt 1 0.2094612
vt 1 0.2118573
vt 1 0.7905388
vt 1 0.8218596
vt 0.9508523 0.8670269
vt 1 0.06292009
vt 0.7971906 0.1697104
vt 0.93708 0
vt 0.7857471 0
vt 1 0.2142535
vt 1 0.8531803
vt 1 0.8218596
vt 0.8417332 0.8302896
vt 0.7971905 0.1697103
vt 0.1468231 0
vt 0.1582666 0.1697104
vt 0.2028093 0.8302897
vt 0 0.1468196
vt 0.8531767 1
vt 0 0.7857466
vt 0 0.93708
vt 0.2142529 1
vt 5.308539E-08 1
vt 0.06292008 1
vt 0.211857 1
vt 0.08382533 1
vt 2.654269E-08 1
vt 0 0.9161747
vt 0.1047306 1
vt 0 1
vt 0 0.8952694
vt 0.2094612 1
vt 0.8218578 1
vt 0.2142529 1
vt 0.7905388 1
vt 0.8670269 0.9508522
vt 0.8531767 1
vt 0.8387843 0.9017044
vt 0.8417332 0.8302896
vt 0.803409 0.803409
vt 0.9017045 0.8387844
vt 1 0.8531803
vt 1 0.8218596
vt 1 0.8218596
vt 0.9017045 0.8387844
vt 0.9508523 0.8670269
vt 0.803409 0.803409
vt 0.9017045 0.9017045
vt 1 0.8952694
vt 1 0.7905388
vt 1 1
vt 0.8952694 1
vt 0.8670269 0.9508522
vt 0.7905388 1
vt 0.8387843 0.9017044
vt 0.8218578 1
vt 1 0.9325699
vt 1 0.8651397
vt 0.8952694 0.8651397
vt 0.8952694 0.9325699
vt 1 1
vt 0.7905388 0.8651397
vt 0.8952694 1
vt 0.7905388 0.9325699
vt 0.7905388 1
vt 0.2094612 1
vt 0.2094612 0.8651397
vt 0.2094612 0.9325699
vt 0.1047306 1
vt 0.1047306 0.9325699
vt 0 1
vt 0.1047306 0.8651397
vt 0 0.9325699
vt 0 0.8651397
vt 1 0.9325699
vt 1 0.8651397
vt 0.8952694 0.8651397
vt 0.8952694 0.9325699
vt 1 1
vt 0.8952694 1
vt 0.7905388 0.8651397
vt 0.7905388 0.9325699
vt 0.7905388 1
vt 0.2094612 0.9325699
vt 0.2094612 1
vt 0.2094612 0.8651397
vt 0.1047306 1
vt 0.1047306 0.9325699
vt 0 1
vt 0.1047306 0.8651397
vt 0 0.9325699
vt 0 0.8651397
vt 1 0.9325699
vt 1 0.8651397
vt 0.8952694 0.8651397
vt 0.8952694 0.9325699
vt 1 1
vt 0.8952694 1
vt 0.7905388 0.8651397
vt 0.7905388 0.9325699
vt 0.7905388 1
vt 0.2094612 0.9325699
vt 0.2094612 1
vt 0.2094612 0.8651397
vt 0.1047306 1
vt 0.1047306 0.9325699
vt 0 1
vt 0.1047306 0.8651397
vt 0 0.9325699
vt 0 0.8651397
vt 1 0.9325699
vt 1 0.8651397
vt 0.8952694 0.8651397
vt 0.8952694 0.9325699
vt 1 1
vt 0.7905388 0.8651397
vt 0.8952694 1
vt 0.7905388 0.9325699
vt 0.7905388 1
vt 0.2094612 1
vt 0.2094612 0.8651397
vt 0.2094612 0.9325699
vt 0.1047306 1
vt 0.1047306 0.9325699
vt 0 1
vt 0.1047306 0.8651397
vt 0 0.9325699
vt 0 0.8651397
vn -0.3409111 -0.02422782 0.9397833
vn -0.07375946 -0.02618762 0.9969321
vn -0.3305956 -0.1173749 0.9364452
vn -0.05619071 -0.05619072 0.9968376
vn -0.249423 -0.2494229 0.9357224
vn -0.6745498 -0.2394926 0.6983022
vn -0.709934 -0.05045351 0.7024586
vn -0.5062442 -0.5062442 0.6981645
vn -0.2394927 -0.6745501 0.6983018
vn -0.1173749 -0.3305955 0.9364452
vn -0.05045355 -0.7099345 0.7024582
vn -0.02618759 -0.07375937 0.9969321
vn -0.02422785 -0.3409111 0.9397833
vn -0.709934 -0.05045351 0.7024586
vn -0.3409111 -0.02422782 0.9397833
vn -0.3305956 -0.1173749 0.9364452
vn -0.709934 0.05045351 0.7024586
vn -0.3409111 0.02422784 0.9397833
vn -0.3305957 0.1173749 0.9364452
vn -0.6745498 0.2394927 0.6983022
vn -0.2494231 0.2494231 0.9357223
vn -0.07375944 0.02618758 0.9969321
vn -0.05619074 0.05619074 0.9968376
vn -0.07370434 0.005238002 0.9972664
vn -0.07370435 -0.005237998 0.9972664
vn -0.07375946 -0.02618762 0.9969321
vn 0 0 1
vn -0.05619071 -0.05619072 0.9968376
vn -0.02618759 -0.07375937 0.9969321
vn -0.00523801 -0.07370433 0.9972664
vn -0.02422785 -0.3409111 0.9397833
vn 0.005238004 -0.07370433 0.9972664
vn 0.02422783 -0.340911 0.9397834
vn 0.02618763 -0.07375939 0.9969321
vn -0.05045355 -0.7099345 0.7024582
vn -0.1173749 -0.3305955 0.9364452
vn 0.05045354 -0.7099345 0.7024582
vn 0.1173749 -0.3305955 0.9364452
vn 0.05619071 -0.0561907 0.9968376
vn 0.2394926 -0.6745501 0.6983019
vn 0.2494228 -0.2494228 0.9357225
vn 0.05619071 -0.0561907 0.9968376
vn 0.2494228 -0.2494228 0.9357225
vn 0.1173749 -0.3305955 0.9364452
vn 0.3305955 -0.1173749 0.9364454
vn 0.6745501 -0.2394926 0.6983019
vn 0.5062442 -0.5062442 0.6981645
vn 0.2394926 -0.6745501 0.6983019
vn 0.7099345 -0.05045354 0.7024582
vn 0.3409111 -0.02422783 0.9397833
vn 0.7099345 0.05045355 0.7024582
vn 0.3409111 0.02422785 0.9397833
vn 0.3305955 0.1173749 0.9364452
vn 0.07375938 -0.0261876 0.9969321
vn 0 0 1
vn 0.02618763 -0.07375939 0.9969321
vn 0.005238004 -0.07370433 0.9972664
vn 0.07370433 -0.005238005 0.9972664
vn 0.07370434 0.005238006 0.9972664
vn 0.3409111 0.02422785 0.9397833
vn 0 0 1
vn 0 0 1
vn -0.00523801 -0.07370433 0.9972664
vn 0 0 1
vn 0 0 1
vn -0.07370435 -0.005237998 0.9972664
vn 0.005237998 0.07370435 0.9972664
vn -0.07370434 0.005238002 0.9972664
vn -0.07375944 0.02618758 0.9969321
vn -0.005238 0.07370435 0.9972664
vn -0.05619074 0.05619074 0.9968376
vn -0.02618764 0.07375948 0.9969321
vn -0.02422784 0.3409111 0.9397833
vn -0.1173749 0.3305956 0.9364452
vn -0.2494231 0.2494231 0.9357223
vn -0.3305957 0.1173749 0.9364452
vn -0.2394927 0.6745498 0.6983022
vn -0.5062442 0.5062442 0.6981645
vn -0.6745498 0.2394927 0.6983022
vn -0.05045351 0.709934 0.7024586
vn 0.02422782 0.3409111 0.9397833
vn -0.005238 0.07370435 0.9972664
vn 0.05045351 0.709934 0.7024586
vn 0.1173749 0.3305956 0.9364452
vn 0.005237998 0.07370435 0.9972664
vn 0.02618759 0.07375944 0.9969321
vn 0 0 1
vn 0.05619072 0.05619073 0.9968376
vn 0.07375941 0.02618764 0.9969321
vn 0.07370434 0.005238006 0.9972664
vn 0.3409111 0.02422785 0.9397833
vn 0.3409111 0.02422785 0.9397833
vn 0.07375941 0.02618764 0.9969321
vn 0.3305955 0.1173749 0.9364452
vn 0.05619072 0.05619073 0.9968376
vn 0.2494229 0.249423 0.9357224
vn 0.6745501 0.2394927 0.6983018
vn 0.7099345 0.05045355 0.7024582
vn 0.5062442 0.5062441 0.6981645
vn 0.2394926 0.6745498 0.6983022
vn 0.1173749 0.3305956 0.9364452
vn 0.05045351 0.709934 0.7024586
vn 0.02618759 0.07375944 0.9969321
vn 0.02422782 0.3409111 0.9397833
vn 0.6716803 -0.6716803 0.3125561
vn 0.7033488 -0.7033488 0.1029607
vn 0.3328366 -0.9374612 0.1019139
vn 0.3179005 -0.8953927 0.3117872
vn 0.5062442 -0.5062442 0.6981645
vn 0.07053231 -0.9924676 0.1001669
vn 0.2394926 -0.6745501 0.6983019
vn 0.06733774 -0.9475167 0.3125344
vn 0.05045354 -0.7099345 0.7024582
vn -0.05045355 -0.7099345 0.7024582
vn -0.07053229 -0.9924676 0.1001668
vn -0.06733783 -0.9475167 0.3125344
vn -0.2394927 -0.6745501 0.6983018
vn -0.3179006 -0.8953928 0.311787
vn -0.5062442 -0.5062442 0.6981645
vn -0.3328366 -0.9374612 0.1019136
vn -0.6716802 -0.6716804 0.3125559
vn -0.7033485 -0.7033491 0.1029603
vn 0.6716804 0.6716802 0.3125559
vn 0.7033491 0.7033485 0.1029603
vn 0.9374612 0.3328366 0.1019136
vn 0.8953928 0.3179006 0.311787
vn 0.5062442 0.5062441 0.6981645
vn 0.6745501 0.2394927 0.6983018
vn 0.9924676 0.07053229 0.1001668
vn 0.9475167 0.06733783 0.3125344
vn 0.7099345 0.05045355 0.7024582
vn 0.9475167 -0.06733776 0.3125345
vn 0.7099345 -0.05045354 0.7024582
vn 0.9924676 -0.07053232 0.1001669
vn 0.6745501 -0.2394926 0.6983019
vn 0.8953927 -0.3179005 0.3117872
vn 0.5062442 -0.5062442 0.6981645
vn 0.9374612 -0.3328366 0.1019139
vn 0.6716803 -0.6716803 0.3125561
vn 0.7033488 -0.7033488 0.1029607
vn -0.6716803 0.6716804 0.3125559
vn -0.7033489 0.7033489 0.1029598
vn -0.3328368 0.9374611 0.1019134
vn -0.3179007 0.8953925 0.3117874
vn -0.5062442 0.5062442 0.6981645
vn -0.2394927 0.6745498 0.6983022
vn -0.07053229 0.9924676 0.1001668
vn -0.06733782 0.9475165 0.312535
vn -0.05045351 0.709934 0.7024586
vn 0.06733774 0.9475165 0.312535
vn 0.05045351 0.709934 0.7024586
vn 0.07053232 0.9924676 0.1001669
vn 0.2394926 0.6745498 0.6983022
vn 0.3179006 0.8953925 0.3117875
vn 0.5062442 0.5062441 0.6981645
vn 0.3328369 0.937461 0.1019137
vn 0.6716804 0.6716802 0.3125559
vn 0.7033491 0.7033485 0.1029603
vn -0.6716802 -0.6716804 0.3125559
vn -0.7033485 -0.7033491 0.1029603
vn -0.9374611 -0.332837 0.1019137
vn -0.8953925 -0.3179006 0.3117875
vn -0.5062442 -0.5062442 0.6981645
vn -0.9924676 -0.07053231 0.1001669
vn -0.6745498 -0.2394926 0.6983022
vn -0.9475165 -0.06733773 0.312535
vn -0.709934 -0.05045351 0.7024586
vn -0.709934 0.05045351 0.7024586
vn -0.9924676 0.07053229 0.1001668
vn -0.9475165 0.0673378 0.312535
vn -0.6745498 0.2394927 0.6983022
vn -0.8953925 0.3179007 0.3117874
vn -0.5062442 0.5062442 0.6981645
vn -0.9374611 0.3328368 0.1019134
vn -0.6716803 0.6716804 0.3125559
vn -0.7033489 0.7033489 0.1029598
g Button Frame_0
f 3/3/3 2/2/2 1/1/1
f 4/4/4 2/2/2 3/3/3
f 5/5/5 4/4/4 3/3/3
f 5/5/5 3/3/3 6/6/6
f 6/6/6 3/3/3 7/7/7
f 8/8/8 5/5/5 6/6/6
f 5/5/5 8/8/8 9/9/9
f 4/4/4 5/5/5 10/10/10
f 9/9/9 10/10/10 5/5/5
f 10/10/10 9/9/9 11/11/11
f 10/10/10 12/12/12 4/4/4
f 12/12/12 10/10/10 13/13/13
f 16/16/16 15/15/15 14/14/14
f 17/17/17 14/14/14 15/15/15
f 15/15/15 18/18/18 17/17/17
f 17/17/17 18/18/18 19/19/19
f 19/19/19 20/20/20 17/17/17
f 20/20/20 19/19/19 21/21/21
f 22/22/22 19/19/19 18/18/18
f 19/19/19 22/22/22 23/23/23
f 18/18/18 24/24/24 22/22/22
f 25/25/25 24/24/24 18/18/18
f 18/18/18 15/15/15 25/25/25
f 26/26/26 25/25/25 15/15/15
f 27/27/27 25/25/25 26/26/26
f 26/26/26 28/28/28 27/27/27
f 27/27/27 28/28/28 29/29/29
f 29/29/29 30/30/30 27/27/27
f 31/31/31 30/30/30 29/29/29
f 32/32/32 30/30/30 31/31/31
f 31/31/31 33/33/33 32/32/32
f 34/34/34 32/32/32 33/33/33
f 31/31/31 35/35/35 33/33/33
f 35/35/35 31/31/31 36/36/36
f 35/35/35 37/37/37 33/33/33
f 33/33/33 38/38/38 34/34/34
f 38/38/38 33/33/33 37/37/37
f 39/39/39 34/34/34 38/38/38
f 37/37/37 40/40/40 38/38/38
f 41/41/41 38/38/38 40/40/40
f 44/44/44 43/43/43 42/42/42
f 42/42/42 43/43/43 45/45/45
f 46/46/46 45/45/45 43/43/43
f 43/43/43 47/47/47 46/46/46
f 48/48/48 47/47/47 43/43/43
f 45/45/45 46/46/46 49/49/49
f 49/49/49 50/50/50 45/45/45
f 50/50/50 49/49/49 51/51/51
f 51/51/51 52/52/52 50/50/50
f 52/52/52 51/51/51 53/53/53
f 45/45/45 54/54/54 42/42/42
f 54/54/54 45/45/45 50/50/50
f 55/55/55 42/42/42 54/54/54
f 56/56/56 42/42/42 55/55/55
f 55/55/55 57/57/57 56/56/56
f 50/50/50 58/58/58 54/54/54
f 54/54/54 58/58/58 55/55/55
f 58/58/58 50/50/50 59/59/59
f 60/60/60 59/59/59 50/50/50
f 58/58/58 59/59/59 61/61/61
f 61/61/61 55/55/55 58/58/58
f 55/55/55 62/62/62 57/57/57
f 61/61/61 62/62/62 55/55/55
f 63/63/63 57/57/57 62/62/62
f 64/64/64 63/63/63 62/62/62
f 64/64/64 62/62/62 61/61/61
f 64/64/64 61/61/61 65/65/65
f 66/66/66 64/64/64 65/65/65
f 65/65/65 61/61/61 67/67/67
f 66/66/66 65/65/65 68/68/68
f 69/69/69 68/68/68 65/65/65
f 67/67/67 70/70/70 65/65/65
f 65/65/65 71/71/71 69/69/69
f 65/65/65 70/70/70 72/72/72
f 72/72/72 71/71/71 65/65/65
f 72/72/72 70/70/70 73/73/73
f 72/72/72 74/74/74 71/71/71
f 74/74/74 72/72/72 73/73/73
f 75/75/75 71/71/71 74/74/74
f 71/71/71 75/75/75 76/76/76
f 74/74/74 77/77/77 75/75/75
f 78/78/78 75/75/75 77/77/77
f 75/75/75 78/78/78 79/79/79
f 77/77/77 74/74/74 80/80/80
f 74/74/74 73/73/73 80/80/80
f 80/80/80 73/73/73 81/81/81
f 73/73/73 82/82/82 81/81/81
f 81/81/81 83/83/83 80/80/80
f 83/83/83 81/81/81 84/84/84
f 82/82/82 85/85/85 81/81/81
f 81/81/81 85/85/85 86/86/86
f 86/86/86 85/85/85 87/87/87
f 87/87/87 88/88/88 86/86/86
f 89/89/89 88/88/88 87/87/87
f 87/87/87 90/90/90 89/89/89
f 90/90/90 91/91/91 89/89/89
f 94/94/94 93/93/93 92/92/92
f 95/95/95 93/93/93 94/94/94
f 94/94/94 96/96/96 95/95/95
f 96/96/96 94/94/94 97/97/97
f 97/97/97 94/94/94 98/98/98
f 97/97/97 99/99/99 96/96/96
f 96/96/96 99/99/99 100/100/100
f 95/95/95 96/96/96 101/101/101
f 100/100/100 101/101/101 96/96/96
f 101/101/101 100/100/100 102/102/102
f 101/101/101 103/103/103 95/95/95
f 103/103/103 101/101/101 104/104/104
f 107/107/107 106/106/106 105/105/105
f 108/108/108 107/107/107 105/105/105
f 105/105/105 109/109/109 108/108/108
f 110/110/110 107/107/107 108/108/108
f 111/111/111 108/108/108 109/109/109
f 112/112/112 110/110/110 108/108/108
f 112/112/112 108/108/108 111/111/111
f 113/113/113 112/112/112 111/111/111
f 112/112/112 113/113/113 114/114/114
f 115/115/115 110/110/110 112/112/112
f 114/114/114 116/116/116 112/112/112
f 116/116/116 115/115/115 112/112/112
f 116/116/116 114/114/114 117/117/117
f 115/115/115 116/116/116 118/118/118
f 117/117/117 118/118/118 116/116/116
f 118/118/118 117/117/117 119/119/119
f 118/118/118 120/120/120 115/115/115
f 119/119/119 121/121/121 118/118/118
f 120/120/120 118/118/118 121/121/121
f 121/121/121 122/122/122 120/120/120
f 125/125/125 124/124/124 123/123/123
f 126/126/126 125/125/125 123/123/123
f 123/123/123 127/127/127 126/126/126
f 128/128/128 126/126/126 127/127/127
f 129/129/129 125/125/125 126/126/126
f 130/130/130 126/126/126 128/128/128
f 130/130/130 129/129/129 126/126/126
f 131/131/131 130/130/130 128/128/128
f 129/129/129 130/130/130 132/132/132
f 132/132/132 130/130/130 131/131/131
f 133/133/133 132/132/132 131/131/131
f 132/132/132 134/134/134 129/129/129
f 132/132/132 133/133/133 135/135/135
f 134/134/134 132/132/132 136/136/136
f 135/135/135 136/136/136 132/132/132
f 136/136/136 135/135/135 137/137/137
f 136/136/136 138/138/138 134/134/134
f 137/137/137 139/139/139 136/136/136
f 138/138/138 136/136/136 139/139/139
f 139/139/139 140/140/140 138/138/138
f 143/143/143 142/142/142 141/141/141
f 144/144/144 143/143/143 141/141/141
f 141/141/141 145/145/145 144/144/144
f 146/146/146 144/144/144 145/145/145
f 147/147/147 143/143/143 144/144/144
f 148/148/148 144/144/144 146/146/146
f 148/148/148 147/147/147 144/144/144
f 149/149/149 148/148/148 146/146/146
f 147/147/147 148/148/148 150/150/150
f 150/150/150 148/148/148 149/149/149
f 151/151/151 150/150/150 149/149/149
f 150/150/150 152/152/152 147/147/147
f 150/150/150 151/151/151 153/153/153
f 152/152/152 150/150/150 154/154/154
f 153/153/153 154/154/154 150/150/150
f 154/154/154 153/153/153 155/155/155
f 154/154/154 156/156/156 152/152/152
f 155/155/155 157/157/157 154/154/154
f 156/156/156 154/154/154 157/157/157
f 157/157/157 158/158/158 156/156/156
f 161/161/161 160/160/160 159/159/159
f 162/162/162 161/161/161 159/159/159
f 159/159/159 163/163/163 162/162/162
f 164/164/164 161/161/161 162/162/162
f 165/165/165 162/162/162 163/163/163
f 166/166/166 164/164/164 162/162/162
f 166/166/166 162/162/162 165/165/165
f 167/167/167 166/166/166 165/165/165
f 166/166/166 167/167/167 168/168/168
f 169/169/169 164/164/164 166/166/166
f 168/168/168 170/170/170 166/166/166
f 170/170/170 169/169/169 166/166/166
f 170/170/170 168/168/168 171/171/171
f 169/169/169 170/170/170 172/172/172
f 171/171/171 172/172/172 170/170/170
f 172/172/172 171/171/171 173/173/173
f 172/172/172 174/174/174 169/169/169
f 173/173/173 175/175/175 172/172/172
f 174/174/174 172/172/172 175/175/175
f 175/175/175 176/176/176 174/174/174
