g Button
v 0.4476347 -0.4476347 0.4325699
v 0.4476347 -0.4476347 0
v 0.3821781 -0.4869087 0
v 0.3821781 -0.4869087 0.4325699
v 0.444563 -0.444563 0.4620705
v 0.2905388 -0.5 0
v 0.3807395 -0.482857 0.4620705
v 0.4353477 -0.4353477 0.4831425
v 0.376424 -0.470702 0.4831425
v 0.2905388 -0.5 0.4325699
v -0.2905388 -0.5 0.4325699
v -0.2905388 -0.5 0
v -0.3821781 -0.4869087 0
v 0.2902393 -0.4957856 0.4620705
v 0.2893408 -0.4831425 0.4831425
v -0.2902393 -0.4957856 0.4620705
v -0.2893408 -0.4831425 0.4831425
v -0.376424 -0.470702 0.4831425
v -0.3807395 -0.482857 0.4620705
v -0.4353477 -0.4353477 0.4831425
v -0.444563 -0.444563 0.4620705
v -0.3821781 -0.4869087 0.4325699
v -0.4476347 -0.4476347 0
v -0.4476347 -0.4476347 0.4325699
v 0.4476347 0.4476347 0.4325699
v 0.4476347 0.4476347 0
v 0.4869087 0.3821781 0
v 0.4869087 0.3821781 0.4325699
v 0.444563 0.444563 0.4620705
v 0.5 0.2905388 0
v 0.482857 0.3807395 0.4620705
v 0.4353477 0.4353477 0.4831425
v 0.470702 0.376424 0.4831425
v 0.5 0.2905388 0.4325699
v 0.5 -0.2905388 0.4325699
v 0.5 -0.2905388 0
v 0.4869087 -0.3821781 0
v 0.4957856 0.2902393 0.4620705
v 0.4831425 0.2893408 0.4831425
v 0.4957856 -0.2902393 0.4620705
v 0.4831425 -0.2893408 0.4831425
v 0.470702 -0.376424 0.4831425
v 0.482857 -0.3807395 0.4620705
v 0.4353477 -0.4353477 0.4831425
v 0.444563 -0.444563 0.4620705
v 0.4869087 -0.3821781 0.4325699
v 0.4476347 -0.4476347 0
v 0.4476347 -0.4476347 0.4325699
v -0.4476347 0.4476347 0.4325699
v -0.4476347 0.4476347 0
v -0.3821781 0.4869087 0
v -0.3821781 0.4869087 0.4325699
v -0.444563 0.444563 0.4620705
v -0.2905388 0.5 0
v -0.3807395 0.482857 0.4620705
v -0.4353477 0.4353477 0.4831425
v -0.376424 0.470702 0.4831425
v -0.2905388 0.5 0.4325699
v 0.2905388 0.5 0.4325699
v 0.2905388 0.5 0
v 0.3821781 0.4869087 0
v -0.2902393 0.4957856 0.4620705
v -0.2893408 0.4831425 0.4831425
v 0.2902393 0.4957856 0.4620705
v 0.2893408 0.4831425 0.4831425
v 0.376424 0.470702 0.4831425
v 0.3807395 0.482857 0.4620705
v 0.4353477 0.4353477 0.4831425
v 0.444563 0.444563 0.4620705
v 0.3821781 0.4869087 0.4325699
v 0.4476347 0.4476347 0
v 0.4476347 0.4476347 0.4325699
v -0.4476347 -0.4476347 0.4325699
v -0.4476347 -0.4476347 0
v -0.4869087 -0.3821781 0
v -0.4869087 -0.3821781 0.4325699
v -0.444563 -0.444563 0.4620705
v -0.5 -0.2905388 0
v -0.482857 -0.3807395 0.4620705
v -0.4353477 -0.4353477 0.4831425
v -0.470702 -0.376424 0.4831425
v -0.5 -0.2905388 0.4325699
v -0.5 0.2905388 0.4325699
v -0.5 0.2905388 0
v -0.4869087 0.3821781 0
v -0.4957856 -0.2902393 0.4620705
v -0.4831425 -0.2893408 0.4831425
v -0.4957856 0.2902393 0.4620705
v -0.4831425 0.2893408 0.4831425
v -0.470702 0.376424 0.4831425
v -0.482857 0.3807395 0.4620705
v -0.4353477 0.4353477 0.4831425
v -0.444563 0.444563 0.4620705
v -0.4869087 0.3821781 0.4325699
v -0.4476347 0.4476347 0
v -0.4476347 0.4476347 0.4325699
v -0.4620705 -0.2878433 0.4957856
v -0.422082 -0.359162 0.5
v -0.4504436 -0.3692315 0.4957856
v -0.398487 -0.398487 0.5
v -0.419989 -0.419989 0.4957856
v -0.470702 -0.376424 0.4831425
v -0.4831425 -0.2893408 0.4831425
v -0.4353477 -0.4353477 0.4831425
v -0.376424 -0.470702 0.4831425
v -0.3692315 -0.4504436 0.4957856
v -0.2893408 -0.4831425 0.4831425
v -0.3591619 -0.422082 0.5
v -0.2878433 -0.4620705 0.4957856
v -0.4831425 -0.2893408 0.4831425
v -0.4620705 -0.2878433 0.4957856
v -0.4504436 -0.3692315 0.4957856
v -0.4620705 0.2878433 0.4957856
v -0.4831425 0.2893408 0.4831425
v -0.4325699 -0.2857467 0.5
v -0.422082 -0.359162 0.5
v -0.4325699 0.2857467 0.5
v -0.2857467 -0.2857467 0.5
v -0.398487 -0.398487 0.5
v -0.3591619 -0.422082 0.5
v -0.2857467 -0.4325699 0.5
v -0.2878433 -0.4620705 0.4957856
v -0.422082 0.3591619 0.5
v 0.2857467 -0.4325699 0.5
v -0.4504436 0.3692315 0.4957856
v -0.398487 0.398487 0.5
v -0.470702 0.376424 0.4831425
v -0.419989 0.419989 0.4957856
v 0.2878433 -0.4620705 0.4957856
v 0.359162 -0.422082 0.5
v 0.3692315 -0.4504436 0.4957856
v 0.398487 -0.398487 0.5
v 0.2893408 -0.4831425 0.4831425
v -0.2893408 -0.4831425 0.4831425
v -0.3692315 -0.4504436 0.4957856
v 0.376424 -0.470702 0.4831425
v 0.419989 -0.419989 0.4957856
v 0.398487 -0.398487 0.5
v 0.419989 -0.419989 0.4957856
v 0.3692315 -0.4504436 0.4957856
v 0.4504436 -0.3692315 0.4957856
v 0.470702 -0.376424 0.4831425
v 0.4353477 -0.4353477 0.4831425
v 0.376424 -0.470702 0.4831425
v 0.4831425 -0.2893408 0.4831425
v 0.4620705 -0.2878433 0.4957856
v 0.4831425 0.2893408 0.4831425
v 0.4620705 0.2878433 0.4957856
v 0.4504436 0.3692315 0.4957856
v 0.422082 -0.3591619 0.5
v 0.2857468 -0.2857467 0.5
v 0.359162 -0.422082 0.5
v 0.2857467 -0.4325699 0.5
v 0.4325699 -0.2857467 0.5
v 0.4325699 0.2857467 0.5
v 0.4620705 0.2878433 0.4957856
v 0.2857467 0.2857467 0.5
v 0.2857467 -0.2857467 0.5
v -0.2857467 -0.4325699 0.5
v -0.2857467 -0.2857467 0.5
v -0.2857467 0.2857467 0.5
v 0.2857467 0.4325699 0.5
v -0.2857467 0.4325699 0.5
v -0.4325699 0.2857467 0.5
v -0.4325699 -0.2857467 0.5
v -0.422082 0.3591619 0.5
v -0.398487 0.398487 0.5
v -0.359162 0.422082 0.5
v -0.2878433 0.4620705 0.4957856
v -0.3692315 0.4504436 0.4957856
v -0.419989 0.419989 0.4957856
v -0.4504436 0.3692315 0.4957856
v -0.376424 0.470702 0.4831425
v -0.4353477 0.4353477 0.4831425
v -0.470702 0.376424 0.4831425
v -0.2893408 0.4831425 0.4831425
v 0.2878433 0.4620705 0.4957856
v -0.2857467 0.4325699 0.5
v 0.2893408 0.4831425 0.4831425
v 0.3692315 0.4504436 0.4957856
v 0.2857467 0.4325699 0.5
v 0.3591619 0.422082 0.5
v 0.2857467 0.2857467 0.5
v 0.398487 0.398487 0.5
v 0.422082 0.359162 0.5
v 0.4325699 0.2857467 0.5
v 0.4620705 0.2878433 0.4957856
v 0.4620705 0.2878433 0.4957856
v 0.422082 0.359162 0.5
v 0.4504436 0.3692315 0.4957856
v 0.398487 0.398487 0.5
v 0.419989 0.419989 0.4957856
v 0.470702 0.376424 0.4831425
v 0.4831425 0.2893408 0.4831425
v 0.4353477 0.4353477 0.4831425
v 0.376424 0.470702 0.4831425
v 0.3692315 0.4504436 0.4957856
v 0.2893408 0.4831425 0.4831425
v 0.3591619 0.422082 0.5
v 0.2878433 0.4620705 0.4957856
vt 1 0.8651397
vt 1 0
vt 0.8952694 0
vt 0.8952694 0.8651397
vt 1 0.9325699
vt 0.7905388 0
vt 0.8952694 0.9325699
vt 1 1
vt 0.8952694 1
vt 0.7905388 0.8651397
vt 0.2094612 0.8651397
vt 0.2094612 0
vt 0.1047306 0
vt 0.7905388 0.9325699
vt 0.7905388 1
vt 0.2094612 0.9325699
vt 0.2094612 1
vt 0.1047306 1
vt 0.1047306 0.9325699
vt 0 1
vt 0 0.9325699
vt 0.1047306 0.8651397
vt 0 0
vt 0 0.8651397
vt 1 0.8651397
vt 1 0
vt 0.8952694 0
vt 0.8952694 0.8651397
vt 1 0.9325699
vt 0.7905388 0
vt 0.8952694 0.9325699
vt 1 1
vt 0.8952694 1
vt 0.7905388 0.8651397
vt 0.2094612 0.8651397
vt 0.2094612 0
vt 0.1047306 0
vt 0.7905388 0.9325699
vt 0.7905388 1
vt 0.2094612 0.9325699
vt 0.2094612 1
vt 0.1047306 1
vt 0.1047306 0.9325699
vt 0 1
vt 0 0.9325699
vt 0.1047306 0.8651397
vt 0 0
vt 0 0.8651397
vt 1 0.8651397
vt 1 0
vt 0.8952694 0
vt 0.8952694 0.8651397
vt 1 0.9325699
vt 0.7905388 0
vt 0.8952694 0.9325699
vt 1 1
vt 0.8952694 1
vt 0.7905388 0.8651397
vt 0.2094612 0.8651397
vt 0.2094612 0
vt 0.1047306 0
vt 0.7905388 0.9325699
vt 0.7905388 1
vt 0.2094612 0.9325699
vt 0.2094612 1
vt 0.1047306 1
vt 0.1047306 0.9325699
vt 0 1
vt 0 0.9325699
vt 0.1047306 0.8651397
vt 0 0
vt 0 0.8651397
vt 1 0.8651397
vt 1 0
vt 0.8952694 0
vt 0.8952694 0.8651397
vt 1 0.9325699
vt 0.7905388 0
vt 0.8952694 0.9325699
vt 1 1
vt 0.8952694 1
vt 0.7905388 0.8651397
vt 0.2094612 0.8651397
vt 0.2094612 0
vt 0.1047306 0
vt 0.7905388 0.9325699
vt 0.7905388 1
vt 0.2094612 0.9325699
vt 0.2094612 1
vt 0.1047306 1
vt 0.1047306 0.9325699
vt 0 1
vt 0 0.9325699
vt 0.1047306 0.8651397
vt 0 0
vt 0 0.8651397
vt 0 0.1781404
vt 0.0982955 0.1612155
vt 0.04914775 0.132973
vt 0.196591 0.196591
vt 0.09829549 0.09829549
vt 0 0.1047306
vt 0 0.2094612
vt 0 0
vt 0.1047306 0
vt 0.132973 0.04914775
vt 0.2094612 0
vt 0.1612155 0.09829551
vt 0.1781421 0
vt 0 0.2094612
vt 0 0.1781404
vt 0.04914775 0.132973
vt 0 0.7881427
vt 0 0.7905388
vt 0 0.1468196
vt 0.0982955 0.1612155
vt 0 0.7857466
vt 0.1582666 0.1697104
vt 0.196591 0.196591
vt 0.1612155 0.09829551
vt 0.1468231 0
vt 0.1781421 0
vt 0 0.93708
vt 0.7857471 0
vt 0 0.9161747
vt 5.308539E-08 1
vt 0 0.8952694
vt 2.654269E-08 1
vt 0.7881429 0
vt 0.93708 0
vt 0.9161747 0
vt 1 4.377216E-08
vt 0.7905388 0
vt 0.2094612 0
vt 0.132973 0.04914775
vt 0.8952694 0
vt 1 2.188608E-08
vt 1 4.377216E-08
vt 1 2.188608E-08
vt 0.9161747 0
vt 1 0.08382533
vt 1 0.1047306
vt 1 0
vt 0.8952694 0
vt 1 0.2094612
vt 1 0.2118573
vt 1 0.7905388
vt 1 0.8218596
vt 0.9508523 0.8670269
vt 1 0.06292009
vt 0.7971906 0.1697104
vt 0.93708 0
vt 0.7857471 0
vt 1 0.2142535
vt 1 0.8531803
vt 1 0.8218596
vt 0.8417332 0.8302896
vt 0.7971905 0.1697103
vt 0.1468231 0
vt 0.1582666 0.1697104
vt 0.2028093 0.8302897
vt 0.8531767 1
vt 0.2142529 1
vt 0 0.7857466
vt 0 0.1468196
vt 0 0.93708
vt 5.308539E-08 1
vt 0.06292008 1
vt 0.211857 1
vt 0.08382533 1
vt 2.654269E-08 1
vt 0 0.9161747
vt 0.1047306 1
vt 0 1
vt 0 0.8952694
vt 0.2094612 1
vt 0.8218578 1
vt 0.2142529 1
vt 0.7905388 1
vt 0.8670269 0.9508522
vt 0.8531767 1
vt 0.8387843 0.9017044
vt 0.8417332 0.8302896
vt 0.803409 0.803409
vt 0.9017045 0.8387844
vt 1 0.8531803
vt 1 0.8218596
vt 1 0.8218596
vt 0.9017045 0.8387844
vt 0.9508523 0.8670269
vt 0.803409 0.803409
vt 0.9017045 0.9017045
vt 1 0.8952694
vt 1 0.7905388
vt 1 1
vt 0.8952694 1
vt 0.8670269 0.9508522
vt 0.7905388 1
vt 0.8387843 0.9017044
vt 0.8218578 1
vn 0.7052599 -0.70526 0.07222812
vn 0.7071068 -0.7071068 0
vn 0.3345789 -0.9423677 0
vn 0.3337189 -0.9399458 0.07164954
vn 0.6666852 -0.6666852 0.3332592
vn 0.07088899 -0.9974842 0
vn 0.3155731 -0.8888372 0.3322379
vn 0.5062442 -0.5062442 0.6981645
vn 0.2394926 -0.6745501 0.6983019
vn 0.07071088 -0.9949782 0.07083913
vn -0.07071088 -0.9949782 0.07083913
vn -0.07088899 -0.9974842 0
vn -0.3345789 -0.9423677 0
vn 0.0668562 -0.9407394 0.3324749
vn 0.05045353 -0.7099345 0.7024582
vn -0.06685621 -0.9407394 0.3324749
vn -0.05045354 -0.7099344 0.7024582
vn -0.2394926 -0.6745501 0.6983019
vn -0.3155731 -0.8888372 0.3322379
vn -0.5062442 -0.5062442 0.6981645
vn -0.6666852 -0.6666852 0.3332593
vn -0.3337189 -0.9399458 0.07164954
vn -0.7071068 -0.7071068 0
vn -0.7052599 -0.7052599 0.0722281
vn 0.70526 0.7052599 0.07222812
vn 0.7071068 0.7071068 0
vn 0.9423677 0.3345789 0
vn 0.9399458 0.3337189 0.07164954
vn 0.6666852 0.6666852 0.3332592
vn 0.9974842 0.07088899 0
vn 0.8888372 0.3155731 0.3322379
vn 0.5062442 0.5062442 0.6981645
vn 0.6745501 0.2394926 0.6983019
vn 0.9949782 0.07071088 0.07083913
vn 0.9949782 -0.07071088 0.07083913
vn 0.9974842 -0.07088899 0
vn 0.9423677 -0.3345789 0
vn 0.9407394 0.0668562 0.3324749
vn 0.7099345 0.05045353 0.7024582
vn 0.9407394 -0.06685621 0.3324749
vn 0.7099344 -0.05045354 0.7024582
vn 0.6745501 -0.2394926 0.6983019
vn 0.8888372 -0.3155731 0.3322379
vn 0.5062442 -0.5062442 0.6981645
vn 0.6666852 -0.6666852 0.3332592
vn 0.9399458 -0.3337189 0.07164954
vn 0.7071068 -0.7071068 0
vn 0.7052599 -0.70526 0.07222812
vn -0.7052599 0.70526 0.07222812
vn -0.7071068 0.7071068 0
vn -0.3345789 0.9423677 0
vn -0.3337189 0.9399458 0.07164954
vn -0.6666852 0.6666852 0.3332592
vn -0.07088899 0.9974842 0
vn -0.3155731 0.8888372 0.3322379
vn -0.5062442 0.5062442 0.6981645
vn -0.2394926 0.6745501 0.6983019
vn -0.07071088 0.9949782 0.07083913
vn 0.07071088 0.9949782 0.07083913
vn 0.07088899 0.9974842 0
vn 0.3345789 0.9423677 0
vn -0.0668562 0.9407394 0.3324749
vn -0.05045353 0.7099345 0.7024582
vn 0.06685621 0.9407394 0.3324749
vn 0.05045354 0.7099344 0.7024582
vn 0.2394926 0.6745501 0.6983019
vn 0.3155731 0.8888372 0.3322379
vn 0.5062442 0.5062442 0.6981645
vn 0.6666852 0.6666852 0.3332592
vn 0.3337189 0.9399458 0.07164954
vn 0.7071068 0.7071068 0
vn 0.70526 0.7052599 0.07222812
vn -0.7052599 -0.7052599 0.0722281
vn -0.7071068 -0.7071068 0
vn -0.9423677 -0.3345789 0
vn -0.9399458 -0.3337189 0.07164954
vn -0.6666852 -0.6666852 0.3332593
vn -0.9974842 -0.07088899 0
vn -0.8888372 -0.3155731 0.3322379
vn -0.5062442 -0.5062442 0.6981645
vn -0.6745501 -0.2394926 0.6983019
vn -0.9949782 -0.07071088 0.07083913
vn -0.9949782 0.07071088 0.07083913
vn -0.9974842 0.07088899 0
vn -0.9423677 0.3345789 0
vn -0.9407394 -0.0668562 0.3324749
vn -0.7099345 -0.05045353 0.7024582
vn -0.9407394 0.06685621 0.3324749
vn -0.7099344 0.05045354 0.7024582
vn -0.6745501 0.2394926 0.6983019
vn -0.8888372 0.3155731 0.3322379
vn -0.5062442 0.5062442 0.6981645
vn -0.6666852 0.6666852 0.3332592
vn -0.9399458 0.3337189 0.07164954
vn -0.7071068 0.7071068 0
vn -0.7052599 0.70526 0.07222812
vn -0.3409111 -0.02422784 0.9397833
vn -0.07375939 -0.02618763 0.9969321
vn -0.3305955 -0.1173749 0.9364452
vn -0.0561907 -0.05619071 0.9968376
vn -0.2494228 -0.2494228 0.9357225
vn -0.6745501 -0.2394926 0.6983019
vn -0.7099345 -0.05045353 0.7024582
vn -0.5062442 -0.5062442 0.6981645
vn -0.2394926 -0.6745501 0.6983019
vn -0.1173749 -0.3305955 0.9364452
vn -0.05045354 -0.7099344 0.7024582
vn -0.02618761 -0.07375938 0.9969321
vn -0.02422784 -0.340911 0.9397834
vn -0.7099345 -0.05045353 0.7024582
vn -0.3409111 -0.02422784 0.9397833
vn -0.3305955 -0.1173749 0.9364452
vn -0.340911 0.02422784 0.9397834
vn -0.7099344 0.05045354 0.7024582
vn -0.07370432 -0.005238007 0.9972664
vn -0.07375939 -0.02618763 0.9969321
vn -0.07370432 0.005238007 0.9972664
vn 0 0 1
vn -0.0561907 -0.05619071 0.9968376
vn -0.02618761 -0.07375938 0.9969321
vn -0.005238007 -0.07370432 0.9972664
vn -0.02422784 -0.340911 0.9397834
vn -0.07375938 0.02618761 0.9969321
vn 0.005238007 -0.07370432 0.9972664
vn -0.3305955 0.1173749 0.9364452
vn -0.05619071 0.0561907 0.9968376
vn -0.6745501 0.2394926 0.6983019
vn -0.2494228 0.2494228 0.9357225
vn 0.02422785 -0.340911 0.9397834
vn 0.02618763 -0.07375939 0.9969321
vn 0.1173749 -0.3305955 0.9364452
vn 0.05619071 -0.0561907 0.9968376
vn 0.05045353 -0.7099345 0.7024582
vn -0.05045354 -0.7099344 0.7024582
vn -0.1173749 -0.3305955 0.9364452
vn 0.2394926 -0.6745501 0.6983019
vn 0.2494228 -0.2494228 0.9357225
vn 0.05619071 -0.0561907 0.9968376
vn 0.2494228 -0.2494228 0.9357225
vn 0.1173749 -0.3305955 0.9364452
vn 0.3305955 -0.1173749 0.9364452
vn 0.6745501 -0.2394926 0.6983019
vn 0.5062442 -0.5062442 0.6981645
vn 0.2394926 -0.6745501 0.6983019
vn 0.7099344 -0.05045354 0.7024582
vn 0.340911 -0.02422784 0.9397834
vn 0.7099345 0.05045353 0.7024582
vn 0.340911 0.02422785 0.9397834
vn 0.3305955 0.1173749 0.9364452
vn 0.07375938 -0.02618761 0.9969321
vn 0 0 1
vn 0.02618763 -0.07375939 0.9969321
vn 0.005238007 -0.07370432 0.9972664
vn 0.07370432 -0.005238007 0.9972664
vn 0.07370432 0.005238007 0.9972664
vn 0.340911 0.02422785 0.9397834
vn 0 0 1
vn 0 0 1
vn -0.005238007 -0.07370432 0.9972664
vn 0 0 1
vn 0 0 1
vn 0.005238007 0.07370432 0.9972664
vn -0.005238007 0.07370432 0.9972664
vn -0.07370432 0.005238007 0.9972664
vn -0.07370432 -0.005238007 0.9972664
vn -0.07375938 0.02618761 0.9969321
vn -0.05619071 0.0561907 0.9968376
vn -0.02618763 0.07375939 0.9969321
vn -0.02422785 0.340911 0.9397834
vn -0.1173749 0.3305955 0.9364452
vn -0.2494228 0.2494228 0.9357225
vn -0.3305955 0.1173749 0.9364452
vn -0.2394926 0.6745501 0.6983019
vn -0.5062442 0.5062442 0.6981645
vn -0.6745501 0.2394926 0.6983019
vn -0.05045353 0.7099345 0.7024582
vn 0.02422784 0.340911 0.9397834
vn -0.005238007 0.07370432 0.9972664
vn 0.05045354 0.7099344 0.7024582
vn 0.1173749 0.3305955 0.9364452
vn 0.005238007 0.07370432 0.9972664
vn 0.02618761 0.07375938 0.9969321
vn 0 0 1
vn 0.0561907 0.05619071 0.9968376
vn 0.07375939 0.02618763 0.9969321
vn 0.07370432 0.005238007 0.9972664
vn 0.340911 0.02422785 0.9397834
vn 0.340911 0.02422785 0.9397834
vn 0.07375939 0.02618763 0.9969321
vn 0.3305955 0.1173749 0.9364452
vn 0.0561907 0.05619071 0.9968376
vn 0.2494228 0.2494228 0.9357225
vn 0.6745501 0.2394926 0.6983019
vn 0.7099345 0.05045353 0.7024582
vn 0.5062442 0.5062442 0.6981645
vn 0.2394926 0.6745501 0.6983019
vn 0.1173749 0.3305955 0.9364452
vn 0.05045354 0.7099344 0.7024582
vn 0.02618761 0.07375938 0.9969321
vn 0.02422784 0.340911 0.9397834
g Button_0
f 3/3/3 2/2/2 1/1/1
f 3/3/3 1/1/1 4/4/4
f 4/4/4 1/1/1 5/5/5
f 6/6/6 3/3/3 4/4/4
f 7/7/7 4/4/4 5/5/5
f 5/5/5 8/8/8 7/7/7
f 9/9/9 7/7/7 8/8/8
f 6/6/6 4/4/4 10/10/10
f 10/10/10 4/4/4 7/7/7
f 6/6/6 10/10/10 11/11/11
f 11/11/11 12/12/12 6/6/6
f 13/13/13 12/12/12 11/11/11
f 14/14/14 7/7/7 9/9/9
f 14/14/14 10/10/10 7/7/7
f 11/11/11 10/10/10 14/14/14
f 15/15/15 14/14/14 9/9/9
f 16/16/16 14/14/14 15/15/15
f 16/16/16 11/11/11 14/14/14
f 17/17/17 16/16/16 15/15/15
f 16/16/16 17/17/17 18/18/18
f 18/18/18 19/19/19 16/16/16
f 11/11/11 16/16/16 19/19/19
f 19/19/19 18/18/18 20/20/20
f 20/20/20 21/21/21 19/19/19
f 11/11/11 22/22/22 13/13/13
f 19/19/19 22/22/22 11/11/11
f 22/22/22 19/19/19 21/21/21
f 23/23/23 13/13/13 22/22/22
f 21/21/21 24/24/24 22/22/22
f 23/23/23 22/22/22 24/24/24
f 27/27/27 26/26/26 25/25/25
f 27/27/27 25/25/25 28/28/28
f 28/28/28 25/25/25 29/29/29
f 30/30/30 27/27/27 28/28/28
f 31/31/31 28/28/28 29/29/29
f 29/29/29 32/32/32 31/31/31
f 33/33/33 31/31/31 32/32/32
f 30/30/30 28/28/28 34/34/34
f 34/34/34 28/28/28 31/31/31
f 30/30/30 34/34/34 35/35/35
f 35/35/35 36/36/36 30/30/30
f 37/37/37 36/36/36 35/35/35
f 38/38/38 31/31/31 33/33/33
f 38/38/38 34/34/34 31/31/31
f 35/35/35 34/34/34 38/38/38
f 39/39/39 38/38/38 33/33/33
f 40/40/40 38/38/38 39/39/39
f 40/40/40 35/35/35 38/38/38
f 41/41/41 40/40/40 39/39/39
f 40/40/40 41/41/41 42/42/42
f 42/42/42 43/43/43 40/40/40
f 35/35/35 40/40/40 43/43/43
f 43/43/43 42/42/42 44/44/44
f 44/44/44 45/45/45 43/43/43
f 35/35/35 46/46/46 37/37/37
f 43/43/43 46/46/46 35/35/35
f 46/46/46 43/43/43 45/45/45
f 47/47/47 37/37/37 46/46/46
f 45/45/45 48/48/48 46/46/46
f 47/47/47 46/46/46 48/48/48
f 51/51/51 50/50/50 49/49/49
f 51/51/51 49/49/49 52/52/52
f 52/52/52 49/49/49 53/53/53
f 54/54/54 51/51/51 52/52/52
f 55/55/55 52/52/52 53/53/53
f 53/53/53 56/56/56 55/55/55
f 57/57/57 55/55/55 56/56/56
f 54/54/54 52/52/52 58/58/58
f 58/58/58 52/52/52 55/55/55
f 54/54/54 58/58/58 59/59/59
f 59/59/59 60/60/60 54/54/54
f 61/61/61 60/60/60 59/59/59
f 62/62/62 55/55/55 57/57/57
f 62/62/62 58/58/58 55/55/55
f 59/59/59 58/58/58 62/62/62
f 63/63/63 62/62/62 57/57/57
f 64/64/64 62/62/62 63/63/63
f 64/64/64 59/59/59 62/62/62
f 65/65/65 64/64/64 63/63/63
f 64/64/64 65/65/65 66/66/66
f 66/66/66 67/67/67 64/64/64
f 59/59/59 64/64/64 67/67/67
f 67/67/67 66/66/66 68/68/68
f 68/68/68 69/69/69 67/67/67
f 59/59/59 70/70/70 61/61/61
f 67/67/67 70/70/70 59/59/59
f 70/70/70 67/67/67 69/69/69
f 71/71/71 61/61/61 70/70/70
f 69/69/69 72/72/72 70/70/70
f 71/71/71 70/70/70 72/72/72
f 75/75/75 74/74/74 73/73/73
f 75/75/75 73/73/73 76/76/76
f 76/76/76 73/73/73 77/77/77
f 78/78/78 75/75/75 76/76/76
f 79/79/79 76/76/76 77/77/77
f 77/77/77 80/80/80 79/79/79
f 81/81/81 79/79/79 80/80/80
f 78/78/78 76/76/76 82/82/82
f 82/82/82 76/76/76 79/79/79
f 78/78/78 82/82/82 83/83/83
f 83/83/83 84/84/84 78/78/78
f 85/85/85 84/84/84 83/83/83
f 86/86/86 79/79/79 81/81/81
f 86/86/86 82/82/82 79/79/79
f 83/83/83 82/82/82 86/86/86
f 87/87/87 86/86/86 81/81/81
f 88/88/88 86/86/86 87/87/87
f 88/88/88 83/83/83 86/86/86
f 89/89/89 88/88/88 87/87/87
f 88/88/88 89/89/89 90/90/90
f 90/90/90 91/91/91 88/88/88
f 83/83/83 88/88/88 91/91/91
f 91/91/91 90/90/90 92/92/92
f 92/92/92 93/93/93 91/91/91
f 83/83/83 94/94/94 85/85/85
f 91/91/91 94/94/94 83/83/83
f 94/94/94 91/91/91 93/93/93
f 95/95/95 85/85/85 94/94/94
f 93/93/93 96/96/96 94/94/94
f 95/95/95 94/94/94 96/96/96
f 99/99/99 98/98/98 97/97/97
f 100/100/100 98/98/98 99/99/99
f 101/101/101 100/100/100 99/99/99
f 101/101/101 99/99/99 102/102/102
f 102/102/102 99/99/99 103/103/103
f 104/104/104 101/101/101 102/102/102
f 101/101/101 104/104/104 105/105/105
f 100/100/100 101/101/101 106/106/106
f 105/105/105 106/106/106 101/101/101
f 106/106/106 105/105/105 107/107/107
f 106/106/106 108/108/108 100/100/100
f 108/108/108 106/106/106 109/109/109
f 112/112/112 111/111/111 110/110/110
f 110/110/110 111/111/111 113/113/113
f 113/113/113 114/114/114 110/110/110
f 113/113/113 111/111/111 115/115/115
f 116/116/116 115/115/115 111/111/111
f 115/115/115 117/117/117 113/113/113
f 118/118/118 115/115/115 116/116/116
f 116/116/116 119/119/119 118/118/118
f 118/118/118 119/119/119 120/120/120
f 120/120/120 121/121/121 118/118/118
f 122/122/122 121/121/121 120/120/120
f 113/113/113 117/117/117 123/123/123
f 121/121/121 122/122/122 124/124/124
f 114/114/114 113/113/113 125/125/125
f 123/123/123 125/125/125 113/113/113
f 125/125/125 123/123/123 126/126/126
f 125/125/125 127/127/127 114/114/114
f 127/127/127 125/125/125 128/128/128
f 122/122/122 129/129/129 124/124/124
f 130/130/130 124/124/124 129/129/129
f 129/129/129 131/131/131 130/130/130
f 132/132/132 130/130/130 131/131/131
f 133/133/133 129/129/129 122/122/122
f 131/131/131 129/129/129 133/133/133
f 122/122/122 134/134/134 133/133/133
f 134/134/134 122/122/122 135/135/135
f 133/133/133 136/136/136 131/131/131
f 137/137/137 131/131/131 136/136/136
f 140/140/140 139/139/139 138/138/138
f 138/138/138 139/139/139 141/141/141
f 142/142/142 141/141/141 139/139/139
f 139/139/139 143/143/143 142/142/142
f 144/144/144 143/143/143 139/139/139
f 141/141/141 142/142/142 145/145/145
f 145/145/145 146/146/146 141/141/141
f 146/146/146 145/145/145 147/147/147
f 147/147/147 148/148/148 146/146/146
f 148/148/148 147/147/147 149/149/149
f 141/141/141 150/150/150 138/138/138
f 150/150/150 141/141/141 146/146/146
f 151/151/151 138/138/138 150/150/150
f 152/152/152 138/138/138 151/151/151
f 151/151/151 153/153/153 152/152/152
f 146/146/146 154/154/154 150/150/150
f 150/150/150 154/154/154 151/151/151
f 154/154/154 146/146/146 155/155/155
f 156/156/156 155/155/155 146/146/146
f 154/154/154 155/155/155 157/157/157
f 157/157/157 151/151/151 154/154/154
f 151/151/151 158/158/158 153/153/153
f 157/157/157 158/158/158 151/151/151
f 159/159/159 153/153/153 158/158/158
f 160/160/160 159/159/159 158/158/158
f 160/160/160 158/158/158 157/157/157
f 160/160/160 157/157/157 161/161/161
f 161/161/161 157/157/157 162/162/162
f 163/163/163 161/161/161 162/162/162
f 160/160/160 161/161/161 164/164/164
f 164/164/164 165/165/165 160/160/160
f 166/166/166 164/164/164 161/161/161
f 161/161/161 167/167/167 166/166/166
f 161/161/161 163/163/163 168/168/168
f 168/168/168 167/167/167 161/161/161
f 168/168/168 163/163/163 169/169/169
f 168/168/168 170/170/170 167/167/167
f 170/170/170 168/168/168 169/169/169
f 171/171/171 167/167/167 170/170/170
f 167/167/167 171/171/171 172/172/172
f 170/170/170 173/173/173 171/171/171
f 174/174/174 171/171/171 173/173/173
f 171/171/171 174/174/174 175/175/175
f 173/173/173 170/170/170 176/176/176
f 170/170/170 169/169/169 176/176/176
f 176/176/176 169/169/169 177/177/177
f 169/169/169 178/178/178 177/177/177
f 177/177/177 179/179/179 176/176/176
f 179/179/179 177/177/177 180/180/180
f 178/178/178 181/181/181 177/177/177
f 177/177/177 181/181/181 182/182/182
f 182/182/182 181/181/181 183/183/183
f 183/183/183 184/184/184 182/182/182
f 185/185/185 184/184/184 183/183/183
f 183/183/183 186/186/186 185/185/185
f 186/186/186 187/187/187 185/185/185
f 190/190/190 189/189/189 188/188/188
f 191/191/191 189/189/189 190/190/190
f 190/190/190 192/192/192 191/191/191
f 192/192/192 190/190/190 193/193/193
f 193/193/193 190/190/190 194/194/194
f 193/193/193 195/195/195 192/192/192
f 192/192/192 195/195/195 196/196/196
f 191/191/191 192/192/192 197/197/197
f 196/196/196 197/197/197 192/192/192
f 197/197/197 196/196/196 198/198/198
f 197/197/197 199/199/199 191/191/191
f 199/199/199 197/197/197 200/200/200
