g ClownHead
v -0.01244887 0.01150038 -0.09537199
v 0.1409336 0.1223675 -0.04294606
v -0.07103541 0.1893814 -0.04527639
v -0.2020484 0.008607178 -0.0352924
v -0.260635 0.1858528 0.07842977
v -0.337192 0.003868341 0.1134556
v -0.355784 0.1131188 0.2786506
v -0.3648561 -0.0389698 0.285381
v -0.3195756 -0.009429417 0.4788636
v 0.08234598 0.2952677 0.07826026
v -0.1126655 0.3108648 0.1072122
v -0.2244211 0.2932528 0.2784929
v -0.2748299 0.1898084 0.4497744
v -0.01244887 0.3599947 0.2784916
v 0.2499239 0.1955442 0.1073543
v 0.2944017 0.006462517 0.08572043
v -0.1658348 0.1061113 0.602523
v -0.16584 -0.136998 0.6025922
v -0.01244895 -0.01376726 0.6614898
v -0.1072438 0.2920354 0.4787535
v 0.04613759 0.1781661 0.6025223
v 0.1771432 -0.01353775 0.6025451
v 0.1995199 0.293253 0.2784929
v 0.3306102 0.1131469 0.2786659
v 0.3328047 -0.03893382 0.2853809
v 0.3119639 -0.008450739 0.4498999
v 0.08776763 0.3087337 0.449773
v 0.2357297 0.1789129 0.4787548
v 0.04752411 -0.3342336 0.09568036
v 0.04752408 -0.2892223 0.1397011
v 0.06575808 -0.2888215 0.09568036
v 0.04752411 -0.2883882 0.05165956
v 0.003503275 -0.334366 0.1397011
v 0.003503354 -0.2893788 0.1579352
v -0.04051756 -0.2892223 0.1397011
v 0.003503275 -0.3340904 0.0516596
v 0.003503275 -0.2881992 0.03342557
v -0.04051751 -0.2883882 0.05165959
v 0.003503301 -0.3532343 0.09568036
v -0.04051753 -0.3342336 0.09568036
v -0.05875153 -0.2888214 0.09568036
v -0.16584 -0.136998 0.6025922
v -0.2752548 -0.2176511 0.4520744
v -0.3195756 -0.009429417 0.4788636
v -0.3648561 -0.0389698 0.285381
v -0.1072536 -0.3368196 0.4824356
v -0.2247806 -0.2251088 0.3343081
v 0.04613859 -0.2152195 0.6026387
v -0.01244895 -0.01376726 0.6614898
v 0.1771432 -0.01353775 0.6025451
v 0.2358155 -0.2074589 0.4806801
v 0.3119639 -0.008450739 0.4498999
v 0.3328047 -0.03893382 0.2853809
v 0.0877702 -0.3549773 0.4541755
v 0.1996069 -0.2250929 0.334284
v -0.01245223 -0.3053493 0.3361302
v -0.2609891 -0.07999727 0.2193708
v -0.337192 0.003868341 0.1134556
v -0.2020484 0.008607178 -0.0352924
v 0.2500267 -0.09025897 0.2474458
v 0.2944017 0.006462517 0.08572043
v 0.08234828 -0.1990712 0.228279
v -0.112676 -0.218097 0.2586159
v -0.07103974 -0.07623371 0.1011922
v -0.01244887 0.01150038 -0.09537199
v 0.1409348 -0.02715321 0.02847318
v 0.1409336 0.1223675 -0.04294606
v 0.003503354 -0.2446946 0.1397012
v 0.04752408 -0.2892223 0.1397011
v 0.003503354 -0.2893788 0.1579352
v -0.04051756 -0.2892223 0.1397011
v 0.04752408 -0.2440592 0.09568039
v 0.06575808 -0.2888215 0.09568036
v 0.04752411 -0.2883882 0.05165956
v -0.04051753 -0.2440592 0.09568039
v -0.05875153 -0.2888214 0.09568036
v -0.04051751 -0.2883882 0.05165959
v 0.003503354 -0.2257085 0.09568039
v 0.003503301 -0.2433724 0.05165956
v 0.003503275 -0.2881992 0.03342557
vt 0.5051262 1.788139E-07
vt 0.7249789 0.06926763
vt 0.4211505 0.06618869
vt 0.2333611 0.07938004
vt 0.1493854 0.2296348
vt 0.03965122 0.2759126
vt 0.01300222 0.4941755
vt -1.370907E-06 0.5030681
vt 0.06490204 0.758706
vt 0.6410017 0.2294108
vt 0.3614795 0.2676634
vt 0.2012929 0.4939672
vt 0.1290389 0.7202719
vt 0.5051262 0.4939654
vt 0.8812017 0.2678512
vt 0.9449546 0.2392676
vt 0.2852685 0.9220904
vt 0.2852609 0.9221818
vt 0.5051261 1
vt 0.3692507 0.7585605
vt 0.5891019 0.9220896
vt 0.7768806 0.9221196
vt 0.8089546 0.4939671
vt 0.9968545 0.4941958
vt 1 0.503068
vt 0.9701276 0.7204379
vt 0.648773 0.7202702
vt 0.8608563 0.7585623
vt 0.9687461 0.9165862
vt 0.9687461 0.9572426
vt 0.9850147 0.9165862
vt 0.9687461 0.8759298
vt 0.9294703 0.9572427
vt 0.9294703 0.9740831
vt 0.8901944 0.9572426
vt 0.9294703 0.8759298
vt 0.9294703 0.8590894
vt 0.8901944 0.8759298
vt 0.9294703 0.9165862
vt 0.8901944 0.9165862
vt 0.8739258 0.9165862
vt 0.2852609 0.9221818
vt 0.1284297 0.7233111
vt 0.06490204 0.758706
vt -1.370907E-06 0.5030681
vt 0.3692366 0.7634255
vt 0.2007776 0.567713
vt 0.5891033 0.9222434
vt 0.5051261 1
vt 0.7768806 0.9221196
vt 0.8609791 0.7611061
vt 0.9701276 0.7204379
vt 1 0.503068
vt 0.6487765 0.7260871
vt 0.8090792 0.567681
vt 0.5051214 0.5701202
vt 0.1488778 0.4158526
vt 0.03965122 0.2759126
vt 0.2333611 0.07938004
vt 0.8813491 0.4529464
vt 0.9449546 0.2392676
vt 0.641005 0.4276225
vt 0.3614643 0.4677048
vt 0.4211441 0.2597096
vt 0.5051262 1.788139E-07
vt 0.7249807 0.16363
vt 0.7249789 0.06926763
vt 0.9294703 0.9572427
vt 0.9687461 0.9572426
vt 0.9294703 0.9740831
vt 0.8901944 0.9572426
vt 0.9687461 0.9165862
vt 0.9850147 0.9165862
vt 0.9687461 0.8759298
vt 0.8901944 0.9165862
vt 0.8739258 0.9165862
vt 0.8901944 0.8759298
vt 0.9294703 0.9165862
vt 0.9294703 0.8759298
vt 0.9294703 0.8590894
vn 0.0435392 -0.406651 -0.9125454
vn 0.4585165 0.1937978 -0.8672976
vn -0.1721832 0.5067181 -0.8447424
vn -0.4861604 -0.3801481 -0.7868516
vn -0.6990538 0.4998889 -0.5113071
vn -0.8279842 -0.3149601 -0.4639421
vn -0.9446689 0.3280117 0.002980904
vn -0.9391486 -0.3264721 -0.1068448
vn -0.8591658 1.155462E-05 0.5116972
vn 0.2645062 0.8264834 -0.4969523
vn -0.2767093 0.8657756 -0.4169709
vn -0.5843903 0.8114331 0.008015607
vn -0.7294787 0.5237386 0.439953
vn -0.0003914855 0.9999782 0.006590407
vn 0.7328771 0.5289339 -0.4279252
vn 0.7645791 -0.3327847 -0.5519722
vn -0.4382217 0.3111575 0.8432928
vn -0.4445364 -0.2938761 0.8461821
vn -0.0001093067 0.005501121 0.9999849
vn -0.2658608 0.8147002 0.5153461
vn 0.1680006 0.5054454 0.8463455
vn 0.5427605 0.005299884 0.8398708
vn 0.5848377 0.8110995 0.009083517
vn 0.9501717 0.3117034 0.003823623
vn 0.9304361 -0.3437992 -0.1268496
vn 0.9089697 -0.01941197 0.4164099
vn 0.2782224 0.8561265 0.4354765
vn 0.6963401 0.4972328 0.5175615
vn 0.7147743 -0.6993498 -0.002728132
vn 0.7067156 0.0008647197 0.7074972
vn 0.9999975 0.002231666 1.496373E-05
vn 0.7075329 0.005144027 -0.7066617
vn 0 -0.7014554 0.7127133
vn 8.698732E-07 0.0003887367 1
vn -0.7067153 0.0008648976 0.7074975
vn 0 -0.6970785 -0.7169948
vn -4.821023E-07 0.004566425 -0.9999896
vn -0.7075328 0.005143984 -0.7066618
vn 0 -0.9999971 -0.002408319
vn -0.7147743 -0.6993499 -0.002728388
vn -0.9999975 0.00223166 1.416728E-05
vn -0.4445364 -0.2938761 0.8461821
vn -0.7670393 -0.5908645 0.2500595
vn -0.8591658 1.155462E-05 0.5116972
vn -0.9391486 -0.3264721 -0.1068448
vn -0.3211653 -0.9049747 0.2790583
vn -0.5239508 -0.7364147 -0.4279824
vn 0.1732991 -0.4814859 0.85915
vn -0.0001093067 0.005501121 0.9999849
vn 0.5427605 0.005299884 0.8398708
vn 0.7574683 -0.5279087 0.3841279
vn 0.9089697 -0.01941197 0.4164099
vn 0.9304361 -0.3437992 -0.1268496
vn 0.3122506 -0.9425509 0.118732
vn 0.589579 -0.7045897 -0.394905
vn -0.03778695 -0.8512232 -0.5234417
vn -0.4576702 -0.7384725 -0.4951732
vn -0.8279842 -0.3149601 -0.4639421
vn -0.4861604 -0.3801481 -0.7868516
vn 0.5451441 -0.6888806 -0.4777672
vn 0.7645791 -0.3327847 -0.5519722
vn 0.2167406 -0.7486724 -0.6265086
vn -0.2482911 -0.7222713 -0.6455043
vn -0.1325193 -0.8308249 -0.5405263
vn 0.0435392 -0.406651 -0.9125454
vn 0.3257824 -0.6790605 -0.6578318
vn 0.4585165 0.1937978 -0.8672976
vn 8.708547E-07 0.7000294 0.714114
vn 0.7067156 0.0008647197 0.7074972
vn 8.698732E-07 0.0003887367 1
vn -0.7067153 0.0008648976 0.7074975
vn 0.7100772 0.704098 0.00603477
vn 0.9999975 0.002231666 1.496373E-05
vn 0.7075329 0.005144027 -0.7066617
vn -0.7100766 0.7040985 0.006034687
vn -0.9999975 0.00223166 1.416728E-05
vn -0.7075328 0.005143984 -0.7066618
vn 9.361927E-07 0.9999311 0.01173986
vn 0 0.7087145 -0.7054955
vn -4.821023E-07 0.004566425 -0.9999896
g ClownHead_0
f 3/3/3 2/2/2 1/1/1
f 4/4/4 3/3/3 1/1/1
f 5/5/5 3/3/3 4/4/4
f 6/6/6 5/5/5 4/4/4
f 5/5/5 6/6/6 7/7/7
f 8/8/8 7/7/7 6/6/6
f 9/9/9 7/7/7 8/8/8
f 10/10/10 2/2/2 3/3/3
f 5/5/5 11/11/11 3/3/3
f 11/11/11 10/10/10 3/3/3
f 5/5/5 7/7/7 12/12/12
f 11/11/11 5/5/5 12/12/12
f 9/9/9 13/13/13 7/7/7
f 12/12/12 7/7/7 13/13/13
f 12/12/12 14/14/14 11/11/11
f 10/10/10 11/11/11 14/14/14
f 10/10/10 15/15/15 2/2/2
f 15/15/15 16/16/16 2/2/2
f 13/13/13 9/9/9 17/17/17
f 9/9/9 18/18/18 17/17/17
f 17/17/17 18/18/18 19/19/19
f 13/13/13 20/20/20 12/12/12
f 20/20/20 13/13/13 17/17/17
f 20/20/20 14/14/14 12/12/12
f 21/21/21 17/17/17 19/19/19
f 20/20/20 17/17/17 21/21/21
f 22/22/22 21/21/21 19/19/19
f 15/15/15 10/10/10 23/23/23
f 10/10/10 14/14/14 23/23/23
f 16/16/16 15/15/15 24/24/24
f 23/23/23 24/24/24 15/15/15
f 16/16/16 24/24/24 25/25/25
f 25/25/25 24/24/24 26/26/26
f 20/20/20 27/27/27 14/14/14
f 27/27/27 20/20/20 21/21/21
f 23/23/23 14/14/14 27/27/27
f 26/26/26 28/28/28 22/22/22
f 28/28/28 26/26/26 24/24/24
f 28/28/28 21/21/21 22/22/22
f 28/28/28 27/27/27 21/21/21
f 27/27/27 28/28/28 23/23/23
f 28/28/28 24/24/24 23/23/23
f 31/31/31 30/30/30 29/29/29
f 32/32/32 31/31/31 29/29/29
f 30/30/30 33/33/33 29/29/29
f 30/30/30 34/34/34 33/33/33
f 34/34/34 35/35/35 33/33/33
f 32/32/32 29/29/29 36/36/36
f 37/37/37 32/32/32 36/36/36
f 38/38/38 37/37/37 36/36/36
f 29/29/29 33/33/33 39/39/39
f 36/36/36 29/29/29 39/39/39
f 35/35/35 40/40/40 33/33/33
f 33/33/33 40/40/40 39/39/39
f 40/40/40 36/36/36 39/39/39
f 38/38/38 36/36/36 40/40/40
f 35/35/35 41/41/41 40/40/40
f 41/41/41 38/38/38 40/40/40
f 44/44/44 43/43/43 42/42/42
f 43/43/43 44/44/44 45/45/45
f 43/43/43 46/46/46 42/42/42
f 45/45/45 47/47/47 43/43/43
f 46/46/46 43/43/43 47/47/47
f 46/46/46 48/48/48 42/42/42
f 42/42/42 48/48/48 49/49/49
f 48/48/48 50/50/50 49/49/49
f 51/51/51 50/50/50 48/48/48
f 51/51/51 52/52/52 50/50/50
f 52/52/52 51/51/51 53/53/53
f 46/46/46 54/54/54 48/48/48
f 54/54/54 51/51/51 48/48/48
f 51/51/51 55/55/55 53/53/53
f 51/51/51 54/54/54 55/55/55
f 54/54/54 46/46/46 56/56/56
f 46/46/46 47/47/47 56/56/56
f 56/56/56 55/55/55 54/54/54
f 57/57/57 47/47/47 45/45/45
f 58/58/58 57/57/57 45/45/45
f 57/57/57 58/58/58 59/59/59
f 53/53/53 55/55/55 60/60/60
f 60/60/60 61/61/61 53/53/53
f 62/62/62 55/55/55 56/56/56
f 62/62/62 60/60/60 55/55/55
f 56/56/56 47/47/47 63/63/63
f 57/57/57 63/63/63 47/47/47
f 63/63/63 62/62/62 56/56/56
f 57/57/57 59/59/59 64/64/64
f 63/63/63 57/57/57 64/64/64
f 62/62/62 63/63/63 64/64/64
f 64/64/64 59/59/59 65/65/65
f 61/61/61 60/60/60 66/66/66
f 60/60/60 62/62/62 66/66/66
f 62/62/62 64/64/64 66/66/66
f 66/66/66 64/64/64 65/65/65
f 61/61/61 66/66/66 67/67/67
f 67/67/67 66/66/66 65/65/65
f 70/70/70 69/69/69 68/68/68
f 71/71/71 70/70/70 68/68/68
f 69/69/69 72/72/72 68/68/68
f 69/69/69 73/73/73 72/72/72
f 73/73/73 74/74/74 72/72/72
f 71/71/71 68/68/68 75/75/75
f 76/76/76 71/71/71 75/75/75
f 77/77/77 76/76/76 75/75/75
f 68/68/68 72/72/72 78/78/78
f 75/75/75 68/68/68 78/78/78
f 74/74/74 79/79/79 72/72/72
f 72/72/72 79/79/79 78/78/78
f 79/79/79 75/75/75 78/78/78
f 77/77/77 75/75/75 79/79/79
f 74/74/74 80/80/80 79/79/79
f 80/80/80 77/77/77 79/79/79
