g Cylinder
v 11.08656 4.592185 0
v 8.485292 8.485271 0
v 9.977644 6.666829 0
v 12 0 0
v 11.76943 2.341066 0
v 1.158719E-05 12 0
v -12 3.910096E-06 0
v 4.592214 11.08655 0
v 6.666855 9.977627 0
v 2.341096 11.76942 0
v -8.485276 8.485287 0
v -4.592192 11.08656 0
v -2.341074 11.76943 0
v -6.666836 9.97764 0
v -11.08655 4.592206 0
v -9.977632 6.666849 0
v -11.76942 2.341089 0
v 9.059748E-07 -12 0
v -8.485281 -8.485281 0
v -11.08656 -4.592199 0
v -11.76942 -2.341081 0
v -9.977636 -6.666842 0
v -4.592199 -11.08655 0
v -6.666842 -9.977636 0
v -2.341083 -11.76942 0
v 8.485281 -8.485281 0
v 4.592201 -11.08655 0
v 2.341084 -11.76942 0
v 6.666842 -9.977636 0
v 11.08655 -4.592201 0
v 9.977635 -6.666843 0
v 11.76942 -2.341084 0
v 8.485281 -8.485281 0
v 6.666842 -9.977636 -1
v 6.666842 -9.977636 0
v 8.485281 -8.485281 -1
v 9.977635 -6.666843 0
v 9.977635 -6.666843 -1
v 11.08655 -4.592201 0
v 11.08655 -4.592201 -1
v 11.76942 -2.341084 0
v 11.76942 -2.341084 -1
v 12 0 0
v 12 0 -1
v 11.76943 2.341066 0
v 11.76943 2.341066 -1
v 11.08656 4.592185 0
v 11.08656 4.592185 -1
v 9.977644 6.666829 0
v 9.977644 6.666829 -1
v 4.592201 -11.08655 -1
v 6.666842 -9.977636 0
v 6.666842 -9.977636 -1
v 4.592201 -11.08655 0
v 2.341084 -11.76942 -1
v 2.341084 -11.76942 0
v 9.059748E-07 -12 -1
v 9.059748E-07 -12 0
v -2.341083 -11.76942 -1
v -2.341083 -11.76942 0
v -4.592199 -11.08655 -1
v -4.592199 -11.08655 0
v -6.666842 -9.977636 -1
v -6.666842 -9.977636 0
v -8.485281 -8.485281 -1
v -8.485281 -8.485281 0
v -9.977636 -6.666842 -1
v -9.977636 -6.666842 0
v -11.08656 -4.592199 -1
v -9.977636 -6.666842 0
v -9.977636 -6.666842 -1
v -11.08656 -4.592199 0
v -11.76942 -2.341081 -1
v -11.76942 -2.341081 0
v -12 3.910096E-06 -1
v -12 3.910096E-06 0
v -11.76942 2.341089 -1
v -11.76942 2.341089 0
v -11.08655 4.592206 -1
v -11.08655 4.592206 0
v -9.977632 6.666849 -1
v -9.977632 6.666849 0
v -8.485276 8.485287 -1
v -8.485276 8.485287 0
v -6.666836 9.97764 -1
v -6.666836 9.97764 0
v -4.592192 11.08656 -1
v -6.666836 9.97764 0
v -6.666836 9.97764 -1
v -4.592192 11.08656 0
v -2.341074 11.76943 -1
v -2.341074 11.76943 0
v 1.158719E-05 12 -1
v 1.158719E-05 12 0
v 2.341096 11.76942 -1
v 1.158719E-05 12 0
v 1.158719E-05 12 -1
v 2.341096 11.76942 0
v 4.592214 11.08655 -1
v 4.592214 11.08655 0
v 6.666855 9.977627 -1
v 6.666855 9.977627 0
v 8.485292 8.485271 -1
v 8.485292 8.485271 0
v 9.977644 6.666829 -1
v 9.977644 6.666829 0
v 12 0 -1
v 11.08655 -4.592201 -1
v 11.76942 -2.341084 -1
v 11.08656 4.592185 -1
v 11.76943 2.341066 -1
v 4.592201 -11.08655 -1
v -11.08656 -4.592199 -1
v 8.485281 -8.485281 -1
v 9.977635 -6.666843 -1
v 6.666842 -9.977636 -1
v -4.592199 -11.08655 -1
v 9.059748E-07 -12 -1
v 2.341084 -11.76942 -1
v -2.341083 -11.76942 -1
v -8.485281 -8.485281 -1
v -6.666842 -9.977636 -1
v -9.977636 -6.666842 -1
v -4.592192 11.08656 -1
v -11.08655 4.592206 -1
v -12 3.910096E-06 -1
v -11.76942 -2.341081 -1
v -11.76942 2.341089 -1
v -8.485276 8.485287 -1
v -9.977632 6.666849 -1
v -6.666836 9.97764 -1
v 4.592214 11.08655 -1
v 1.158719E-05 12 -1
v -2.341074 11.76943 -1
v 2.341096 11.76942 -1
v 8.485292 8.485271 -1
v 6.666855 9.977627 -1
v 9.977644 6.666829 -1
vt 23.08656 7.407815
vt 20.48529 3.514729
vt 21.97764 5.333171
vt 24 12
vt 23.76943 9.658934
vt 12.00001 0
vt 0 12
vt 16.59221 0.9134512
vt 18.66685 2.022373
vt 14.3411 0.2305794
vt 3.514724 3.514713
vt 7.407808 0.9134417
vt 9.658926 0.2305746
vt 5.333164 2.02236
vt 0.9134483 7.407794
vt 2.022368 5.333151
vt 0.2305775 9.658911
vt 12 24
vt 3.514719 20.48528
vt 0.9134445 16.5922
vt 0.2305765 14.34108
vt 2.022364 18.66684
vt 7.407801 23.08656
vt 5.333158 21.97764
vt 9.658917 23.76942
vt 20.48528 20.48528
vt 16.5922 23.08655
vt 14.34108 23.76942
vt 18.66684 21.97764
vt 23.08655 16.5922
vt 21.97763 18.66684
vt 23.76942 14.34108
vt 47.12389 0
vt 44.7677 -1
vt 44.7677 0
vt 47.12389 -1
vt 49.48008 0
vt 49.48008 -1
vt 51.83628 0
vt 51.83628 -1
vt 54.19247 0
vt 54.19247 -1
vt 56.54867 0
vt 56.54867 -1
vt 58.90485 0
vt 58.90485 -1
vt 61.26104 0
vt 61.26104 -1
vt 63.61723 0
vt 63.61723 -1
vt 42.4115 -1
vt 44.7677 0
vt 44.7677 -1
vt 42.4115 0
vt 40.05531 -1
vt 40.05531 0
vt 37.69911 -1
vt 37.69911 0
vt 35.34292 -1
vt 35.34292 0
vt 32.98672 -1
vt 32.98672 0
vt 30.63053 -1
vt 30.63053 0
vt 28.27434 -1
vt 28.27434 0
vt 25.91814 -1
vt 25.91814 0
vt 23.56194 -1
vt 25.91814 0
vt 25.91814 -1
vt 23.56194 0
vt 21.20575 -1
vt 21.20575 0
vt 18.84955 -1
vt 18.84955 0
vt 16.49336 -1
vt 16.49336 0
vt 14.13716 -1
vt 14.13716 0
vt 11.78097 -1
vt 11.78097 0
vt 9.424773 -1
vt 9.424773 0
vt 7.068579 -1
vt 7.068579 0
vt 4.71238 -1
vt 7.068579 0
vt 7.068579 -1
vt 4.71238 0
vt 2.356185 -1
vt 2.356185 0
vt -8.988169E-06 -1
vt -8.988169E-06 0
vt 73.04202 -1
vt 75.39822 0
vt 75.39822 -1
vt 73.04202 0
vt 70.68582 -1
vt 70.68582 0
vt 68.32963 -1
vt 68.32963 0
vt 65.97343 -1
vt 65.97343 0
vt 63.61723 -1
vt 63.61723 0
vt 24 12
vt 23.08655 7.407799
vt 23.76942 9.658916
vt 23.08656 16.59219
vt 23.76943 14.34107
vt 16.5922 0.9134464
vt 0.9134445 7.407801
vt 20.48528 3.514719
vt 21.97763 5.333157
vt 18.66684 2.022364
vt 7.407801 0.9134455
vt 12 0
vt 14.34108 0.2305775
vt 9.658917 0.2305765
vt 3.514719 3.514719
vt 5.333158 2.022364
vt 2.022364 5.333158
vt 7.407808 23.08656
vt 0.9134483 16.59221
vt 0 12
vt 0.2305765 9.658918
vt 0.2305775 14.34109
vt 3.514724 20.48529
vt 2.022368 18.66685
vt 5.333164 21.97764
vt 16.59221 23.08655
vt 12.00001 24
vt 9.658926 23.76942
vt 14.3411 23.76942
vt 20.48529 20.48527
vt 18.66685 21.97763
vt 21.97764 18.66683
vn 0 0 1
vn 0 0 1
vn 0 0 1
vn 0 0 1
vn 0 0 1
vn 0 0 1
vn 0 0 1
vn 0 0 1
vn 0 0 1
vn 0 0 1
vn 0 0 1
vn 0 0 1
vn 0 0 1
vn 0 0 1
vn 0 0 1
vn 0 0 1
vn 0 0 1
vn 0 0 1
vn 0 0 1
vn 0 0 1
vn 0 0 1
vn 0 0 1
vn 0 0 1
vn 0 0 1
vn 0 0 1
vn 0 0 1
vn 0 0 1
vn 0 0 1
vn 0 0 1
vn 0 0 1
vn 0 0 1
vn 0 0 1
vn 0.7071068 -0.7071066 0
vn 0.5555702 -0.8314697 0
vn 0.5555702 -0.8314696 0
vn 0.7071068 -0.7071066 0
vn 0.8314696 -0.5555702 0
vn 0.8314696 -0.5555702 0
vn 0.9238796 -0.3826833 0
vn 0.9238796 -0.3826833 0
vn 0.9807853 -0.1950905 0
vn 0.9807853 -0.1950905 0
vn 1 0 0
vn 1 0 0
vn 0.9807854 0.1950892 0
vn 0.9807854 0.1950892 0
vn 0.92388 0.3826821 0
vn 0.9238801 0.3826821 0
vn 0.8314704 0.5555691 0
vn 0.8314704 0.5555691 0
vn 0.3826832 -0.9238796 0
vn 0.5555702 -0.8314696 0
vn 0.5555702 -0.8314697 0
vn 0.3826832 -0.9238796 0
vn 0.1950905 -0.9807853 0
vn 0.1950906 -0.9807853 0
vn 0 -1 0
vn 0 -1 0
vn -0.1950903 -0.9807853 0
vn -0.1950903 -0.9807853 0
vn -0.3826832 -0.9238796 0
vn -0.3826832 -0.9238796 0
vn -0.5555702 -0.8314696 0
vn -0.5555702 -0.8314697 0
vn -0.7071068 -0.7071068 0
vn -0.7071068 -0.7071068 0
vn -0.8314695 -0.5555704 0
vn -0.8314695 -0.5555704 0
vn -0.9238797 -0.3826831 0
vn -0.8314695 -0.5555704 0
vn -0.8314695 -0.5555704 0
vn -0.9238797 -0.3826831 0
vn -0.9807854 -0.19509 0
vn -0.9807854 -0.19509 0
vn -1 0 0
vn -1 0 0
vn -0.9807851 0.1950908 0
vn -0.9807851 0.1950908 0
vn -0.9238793 0.3826839 0
vn -0.9238793 0.3826839 0
vn -0.8314694 0.5555706 0
vn -0.8314694 0.5555705 0
vn -0.7071063 0.7071072 0
vn -0.7071063 0.7071072 0
vn -0.5555696 0.83147 0
vn -0.5555696 0.83147 0
vn -0.3826827 0.9238798 0
vn -0.5555696 0.83147 0
vn -0.5555696 0.83147 0
vn -0.3826826 0.9238798 0
vn -0.1950894 0.9807854 0
vn -0.1950894 0.9807854 0
vn 0 1 0
vn 0 1 0
vn 0.1950914 0.980785 0
vn 0 1 0
vn 0 1 0
vn 0.1950914 0.980785 0
vn 0.3826845 0.9238791 0
vn 0.3826845 0.9238791 0
vn 0.5555711 0.8314691 0
vn 0.5555711 0.8314691 0
vn 0.7071076 0.7071059 0
vn 0.7071077 0.7071058 0
vn 0.8314704 0.5555691 0
vn 0.8314704 0.5555691 0
vn 0 0 -1
vn 0 0 -1
vn 0 0 -1
vn 0 0 -1
vn 0 0 -1
vn 0 0 -1
vn 0 0 -1
vn 0 0 -1
vn 0 0 -1
vn 0 0 -1
vn 0 0 -1
vn 0 0 -1
vn 0 0 -1
vn 0 0 -1
vn 0 0 -1
vn 0 0 -1
vn 0 0 -1
vn 0 0 -1
vn 0 0 -1
vn 0 0 -1
vn 0 0 -1
vn 0 0 -1
vn 0 0 -1
vn 0 0 -1
vn 0 0 -1
vn 0 0 -1
vn 0 0 -1
vn 0 0 -1
vn 0 0 -1
vn 0 0 -1
vn 0 0 -1
vn 0 0 -1
g Cylinder_0
f 3/3/3 2/2/2 1/1/1
f 2/2/2 4/4/4 1/1/1
f 1/1/1 4/4/4 5/5/5
f 6/6/6 4/4/4 2/2/2
f 7/7/7 4/4/4 6/6/6
f 8/8/8 6/6/6 2/2/2
f 9/9/9 8/8/8 2/2/2
f 10/10/10 6/6/6 8/8/8
f 11/11/11 7/7/7 6/6/6
f 12/12/12 11/11/11 6/6/6
f 13/13/13 12/12/12 6/6/6
f 14/14/14 11/11/11 12/12/12
f 15/15/15 7/7/7 11/11/11
f 16/16/16 15/15/15 11/11/11
f 17/17/17 7/7/7 15/15/15
f 18/18/18 4/4/4 7/7/7
f 19/19/19 18/18/18 7/7/7
f 20/20/20 19/19/19 7/7/7
f 21/21/21 20/20/20 7/7/7
f 22/22/22 19/19/19 20/20/20
f 23/23/23 18/18/18 19/19/19
f 24/24/24 23/23/23 19/19/19
f 25/25/25 18/18/18 23/23/23
f 26/26/26 4/4/4 18/18/18
f 27/27/27 26/26/26 18/18/18
f 28/28/28 27/27/27 18/18/18
f 29/29/29 26/26/26 27/27/27
f 30/30/30 4/4/4 26/26/26
f 31/31/31 30/30/30 26/26/26
f 32/32/32 4/4/4 30/30/30
f 35/35/35 34/34/34 33/33/33
f 36/36/36 33/33/33 34/34/34
f 33/33/33 36/36/36 37/37/37
f 38/38/38 37/37/37 36/36/36
f 37/37/37 38/38/38 39/39/39
f 40/40/40 39/39/39 38/38/38
f 39/39/39 40/40/40 41/41/41
f 42/42/42 41/41/41 40/40/40
f 41/41/41 42/42/42 43/43/43
f 44/44/44 43/43/43 42/42/42
f 43/43/43 44/44/44 45/45/45
f 46/46/46 45/45/45 44/44/44
f 45/45/45 46/46/46 47/47/47
f 48/48/48 47/47/47 46/46/46
f 47/47/47 48/48/48 49/49/49
f 50/50/50 49/49/49 48/48/48
f 53/53/53 52/52/52 51/51/51
f 54/54/54 51/51/51 52/52/52
f 51/51/51 54/54/54 55/55/55
f 56/56/56 55/55/55 54/54/54
f 55/55/55 56/56/56 57/57/57
f 58/58/58 57/57/57 56/56/56
f 57/57/57 58/58/58 59/59/59
f 60/60/60 59/59/59 58/58/58
f 59/59/59 60/60/60 61/61/61
f 62/62/62 61/61/61 60/60/60
f 61/61/61 62/62/62 63/63/63
f 64/64/64 63/63/63 62/62/62
f 63/63/63 64/64/64 65/65/65
f 66/66/66 65/65/65 64/64/64
f 65/65/65 66/66/66 67/67/67
f 68/68/68 67/67/67 66/66/66
f 71/71/71 70/70/70 69/69/69
f 72/72/72 69/69/69 70/70/70
f 69/69/69 72/72/72 73/73/73
f 74/74/74 73/73/73 72/72/72
f 73/73/73 74/74/74 75/75/75
f 76/76/76 75/75/75 74/74/74
f 75/75/75 76/76/76 77/77/77
f 78/78/78 77/77/77 76/76/76
f 77/77/77 78/78/78 79/79/79
f 80/80/80 79/79/79 78/78/78
f 79/79/79 80/80/80 81/81/81
f 82/82/82 81/81/81 80/80/80
f 81/81/81 82/82/82 83/83/83
f 84/84/84 83/83/83 82/82/82
f 83/83/83 84/84/84 85/85/85
f 86/86/86 85/85/85 84/84/84
f 89/89/89 88/88/88 87/87/87
f 90/90/90 87/87/87 88/88/88
f 87/87/87 90/90/90 91/91/91
f 92/92/92 91/91/91 90/90/90
f 91/91/91 92/92/92 93/93/93
f 94/94/94 93/93/93 92/92/92
f 97/97/97 96/96/96 95/95/95
f 98/98/98 95/95/95 96/96/96
f 95/95/95 98/98/98 99/99/99
f 100/100/100 99/99/99 98/98/98
f 99/99/99 100/100/100 101/101/101
f 102/102/102 101/101/101 100/100/100
f 101/101/101 102/102/102 103/103/103
f 104/104/104 103/103/103 102/102/102
f 103/103/103 104/104/104 105/105/105
f 106/106/106 105/105/105 104/104/104
f 109/109/109 108/108/108 107/107/107
f 108/108/108 110/110/110 107/107/107
f 107/107/107 110/110/110 111/111/111
f 112/112/112 110/110/110 108/108/108
f 113/113/113 110/110/110 112/112/112
f 114/114/114 112/112/112 108/108/108
f 115/115/115 114/114/114 108/108/108
f 116/116/116 112/112/112 114/114/114
f 117/117/117 113/113/113 112/112/112
f 118/118/118 117/117/117 112/112/112
f 119/119/119 118/118/118 112/112/112
f 120/120/120 117/117/117 118/118/118
f 121/121/121 113/113/113 117/117/117
f 122/122/122 121/121/121 117/117/117
f 123/123/123 113/113/113 121/121/121
f 124/124/124 110/110/110 113/113/113
f 125/125/125 124/124/124 113/113/113
f 126/126/126 125/125/125 113/113/113
f 127/127/127 126/126/126 113/113/113
f 128/128/128 125/125/125 126/126/126
f 129/129/129 124/124/124 125/125/125
f 130/130/130 129/129/129 125/125/125
f 131/131/131 124/124/124 129/129/129
f 132/132/132 110/110/110 124/124/124
f 133/133/133 132/132/132 124/124/124
f 134/134/134 133/133/133 124/124/124
f 135/135/135 132/132/132 133/133/133
f 136/136/136 110/110/110 132/132/132
f 137/137/137 136/136/136 132/132/132
f 138/138/138 110/110/110 136/136/136
