g FiremanHelmet
v 0.1449038 0.2592291 0.2253474
v 0.250859 0.1547001 0.2497225
v 0.2595708 0.3052965 0.1305012
v 0.1686327 0.4252709 0.1072678
v 0.000167565 0.2978063 0.2211219
v 0.1686327 0.4265409 0.134498
v 0.2595708 0.3099073 0.1573683
v 0.0001675274 0.4692675 0.105216
v 0.0001675274 0.4705369 0.1324458
v -0.1682986 0.4252709 0.1072678
v -0.1445701 0.259229 0.2253479
v -0.2592357 0.3052968 0.1305016
v -0.2505238 0.1546999 0.2497233
v -0.1682986 0.4265409 0.134498
v -0.2592357 0.3099076 0.1573686
v 0.0001676022 0.4537746 0.1443509
v 0.1719782 0.4020911 0.1497911
v 0.0001682812 0.3016259 0.2524125
v -0.1714137 0.403775 0.1487379
v 0.2517952 0.2975822 0.1713979
v 0.1979554 0.2122417 0.2685405
v 0.3127311 0.01830936 0.2888871
v 0.3127311 0.01369857 0.2620197
v 0.2595708 0.3052965 0.1305012
v 0.250859 0.1547001 0.2497225
v 0.2896399 0.01204921 0.2742035
v 0.250859 -0.1306023 0.2986851
v 0.2919572 -0.2085974 0.2910091
v 0.1449038 -0.2357653 0.3196322
v 0.1686327 -0.3282286 0.319423
v 0.2919572 -0.2051992 0.3180558
v 0.1686327 -0.3214242 0.3458195
v 0.2998489 0.01779612 0.2983193
v 0.2751892 -0.2002373 0.3220432
v 0.2901552 0.0174099 0.3054169
v 0.1718483 -0.3058003 0.3452244
v 0.1939574 0.2117335 0.2924873
v 0.1982598 -0.1774725 0.3403364
v 0.0001677758 -0.2665784 0.3597121
v 0.1941782 -0.1692035 0.3620263
v 0.0001675743 -0.3456938 0.3573597
v 0.2840122 0.02131807 0.3281941
v 0.0001680788 0.2989573 0.2766842
v 0.1838067 0.2104433 0.3532865
v 0.1838153 -0.148209 0.4170955
v 0.0001677162 -0.2561473 0.3803807
v 0.2684157 0.03124065 0.3860237
v 0.0001675274 -0.364074 0.3568132
v 0.0001675274 -0.3708781 0.3304169
v 0.1686327 -0.3282286 0.319423
v -0.1682986 -0.3214242 0.3458197
v 0.000167565 -0.2734865 0.328822
v 0.1449038 -0.2357653 0.3196322
v -0.1682986 -0.3282286 0.3194234
v -0.1445701 -0.2357653 0.319633
v -0.1726409 -0.3003257 0.3450161
v -0.2916234 -0.2051995 0.3180576
v -0.1682986 -0.3282286 0.3194234
v -0.2916234 -0.2085974 0.2910103
v -0.3123966 0.01369878 0.2620218
v -0.1445701 -0.2357653 0.319633
v -0.2505238 -0.130602 0.2986861
v -0.2893062 0.01204883 0.2742053
v -0.2505238 0.1546999 0.2497233
v -0.2592357 0.3052968 0.1305016
v -0.3123966 0.01830936 0.2888884
v -0.2779051 -0.20114 0.3213195
v -0.1979255 -0.1774725 0.3403372
v -0.2521079 0.2986093 0.1702293
v -0.1938444 -0.1692034 0.362027
v -0.2898208 0.01741003 0.3054175
v -0.3033935 0.01795071 0.2954801
v -0.1976209 0.212241 0.2685408
v -0.1936257 0.211734 0.2924795
v -0.2836799 0.02131725 0.3281901
v -0.1834826 -0.1482088 0.4170962
v -0.1834821 0.2104469 0.3532579
v 0.0001675649 -0.2296633 0.4328569
v -0.2680883 0.03123741 0.386008
v 0.0001675649 0.2921818 0.3383085
v 0.1595918 -0.1127751 0.489498
v -0.1592573 -0.112775 0.4894985
v -0.1592654 0.2015147 0.4355424
v 0.1596004 0.2015145 0.4355417
v 0.0001675228 -0.1851557 0.501895
v -0.2326173 0.04438375 0.462624
v 0.0001673544 0.2739194 0.4230396
v 0.2329535 0.0443838 0.462623
v 0.0001673544 -0.108538 0.5603426
v -0.1144886 -0.05670964 0.5514145
v -0.114489 0.1692992 0.5126284
v 0.1148235 0.1692994 0.5126276
v 0.1148231 -0.05670959 0.5514142
v 0.0001675651 -0.02237379 0.5803449
v -0.16708 0.05630022 0.5320542
v 0.1674151 0.0563003 0.532054
v -0.05879781 0.003983756 0.575811
v 0.000167565 0.06364928 0.5748757
v 0.05912983 0.003983797 0.575811
v -0.08554029 0.06210006 0.5658476
v 0.08587594 0.06209986 0.5658474
v -0.05879781 0.1202128 0.5558641
v 0.05912983 0.1202128 0.5558639
v 0.0001673544 0.2211391 0.503765
v 0.0001675651 0.146574 0.5513502
v -0.08647024 -0.2368953 0.4458815
v -0.06648873 -0.2669617 0.3807436
v -0.1064519 -0.2537312 0.4094068
v -0.02652584 -0.1875794 0.5527233
v -0.08647024 -0.2200593 0.4823566
v -0.08647024 -0.1923232 0.5424466
v -0.1064519 -0.2032231 0.5188316
v -0.006544204 -0.1875794 0.5527233
v -0.006544204 -0.2735769 0.3664117
v 0.05340045 -0.2669617 0.3807436
v 0.01343743 -0.1875794 0.5527233
v 0.07338183 -0.2368953 0.4458815
v 0.09336334 -0.2537312 0.4094068
v 0.07338183 -0.2200593 0.4823566
v 0.07338183 -0.1923232 0.5424466
v 0.09336334 -0.2032231 0.5188316
v -0.2505238 0.1546999 0.2497233
v -0.2893062 0.01204883 0.2742053
v -0.1806729 0.01209053 0.3538217
v -0.2505238 -0.130602 0.2986861
v -0.1564446 0.1012076 0.3385274
v -0.1445701 0.259229 0.2253479
v -0.1564446 -0.07702639 0.3691154
v -0.1445701 -0.2357653 0.319633
v -0.09025328 0.166509 0.3232995
v 0.000167565 0.2978063 0.2211219
v 0.04247118 -0.006259617 0.4093213
v -0.09025328 -0.142724 0.3822012
v 0.0001673123 0.190609 0.3206595
v 0.000167565 -0.2734865 0.328822
v 0.09058701 0.1665091 0.3232993
v 0.1449038 0.2592291 0.2253474
v 0.1567794 0.1012077 0.3385268
v 0.250859 0.1547001 0.2497225
v 0.1810066 0.01209078 0.3538205
v 0.2896399 0.01204921 0.2742035
v 0.250859 -0.1306023 0.2986851
v 0.1567794 -0.0770266 0.3691146
v 0.1449038 -0.2357653 0.3196322
v 0.09058701 -0.142724 0.3822007
v 0.0001673123 -0.1662892 0.387942
vt 0.2196369 0.04759789
vt 0.1161886 0.03897306
vt 0.1525473 0.2064191
vt 0.2469409 0.1838332
vt 0.3624765 0.01970667
vt 0.2449781 0.2013205
vt 0.1509657 0.2390605
vt 0.360306 0.1802173
vt 0.3602064 0.1966111
vt 0.4729326 0.1875757
vt 0.5047752 0.05214354
vt 0.5662277 0.2131162
vt 0.6086182 0.04788202
vt 0.4741108 0.2053698
vt 0.5661528 0.2453686
vt 0.3598179 0.2107008
vt 0.2397298 0.2222515
vt 0.3562919 0.3385906
vt 0.4784895 0.2247723
vt 0.1570247 0.2574496
vt 0.1989779 0.3847781
vt 0.07662833 0.5396079
vt 0.05839688 0.5365976
vt 0.1311539 0.2314565
vt 0.02045169 0.4084524
vt 0.01757425 0.53762
vt 0.01853257 0.6781185
vt 0.09644353 0.7286127
vt 0.03393477 0.811559
vt 0.167233 0.8524106
vt 0.1140023 0.7265067
vt 0.1943801 0.8460538
vt 0.1014075 0.5406708
vt 0.1282358 0.7229996
vt 0.1200535 0.5414705
vt 0.1942887 0.8309518
vt 0.2067303 0.3953761
vt 0.1935374 0.7069097
vt 0.3504222 0.7782456
vt 0.2024379 0.6979684
vt 0.3499292 0.8463033
vt 0.1335165 0.542679
vt 0.3562668 0.3495621
vt 0.2264131 0.4222837
vt 0.2250355 0.6752672
vt 0.3505219 0.7660495
vt 0.1676982 0.545747
vt 0.3498147 0.8621145
vt 0.349683 0.8795172
vt 0.1994311 0.8704796
vt 0.5055654 0.8494213
vt 0.3489551 0.9760513
vt 0.2315676 0.9781001
vt 0.5001316 0.8735887
vt 0.4663194 0.9802934
vt 0.5059844 0.8291714
vt 0.5885595 0.7319726
vt 0.5326381 0.8564811
vt 0.606055 0.734574
vt 0.6488066 0.5450435
vt 0.6670216 0.8185825
vt 0.6851084 0.6861984
vt 0.6896235 0.5474355
vt 0.6911829 0.4193982
vt 0.5863359 0.2385845
vt 0.6305382 0.5475929
vt 0.5768269 0.72894
vt 0.5084237 0.7112592
vt 0.5602733 0.2618697
vt 0.4997344 0.7021046
vt 0.5858611 0.5480515
vt 0.6127212 0.5477757
vt 0.5153288 0.3880092
vt 0.5069371 0.3982463
vt 0.5725521 0.5488528
vt 0.4776728 0.6788616
vt 0.4856313 0.4242376
vt 0.3507747 0.7350842
vt 0.5387615 0.5508873
vt 0.3562032 0.3774179
vt 0.2558237 0.6457762
vt 0.4479727 0.6484689
vt 0.4530202 0.4565545
vt 0.2579742 0.4550897
vt 0.3512156 0.6933469
vt 0.4960282 0.5517364
vt 0.3561285 0.4164089
vt 0.2109349 0.5482125
vt 0.3521989 0.6445694
vt 0.4152957 0.6145217
vt 0.4182402 0.4905512
vt 0.2917712 0.4894611
vt 0.2899627 0.6129414
vt 0.3529759 0.5992749
vt 0.4475176 0.5522912
vt 0.2599465 0.5501856
vt 0.385711 0.5842387
vt 0.353882 0.552119
vt 0.3207808 0.5835187
vt 0.4018868 0.5523229
vt 0.3058153 0.5513126
vt 0.3871228 0.5204743
vt 0.3218474 0.5198463
vt 0.3555858 0.4618439
vt 0.3548272 0.5055357
vt 0.7132438 0.09234002
vt 0.7298254 0.03280553
vt 0.6966624 0.05900291
vt 0.7629882 0.1899906
vt 0.7132438 0.1256771
vt 0.7132438 0.1805978
vt 0.6966624 0.1590143
vt 0.7795696 0.1899906
vt 0.7795696 0.01970667
vt 0.829314 0.03280553
vt 0.7961512 0.1899906
vt 0.8458954 0.09234002
vt 0.8624767 0.05900291
vt 0.8458954 0.1256771
vt 0.8458954 0.1805978
vt 0.8624767 0.1590143
vt 0.2326939 0.6160047
vt 0.2141357 0.5468289
vt 0.2661189 0.5468491
vt 0.2326939 0.4776532
vt 0.2777126 0.5900646
vt 0.2833948 0.666694
vt 0.2777126 0.5036336
vt 0.2833948 0.4266564
vt 0.3093865 0.6217313
vt 0.3526546 0.6854013
vt 0.3728977 0.5379506
vt 0.3093865 0.4717749
vt 0.3526545 0.6334181
vt 0.3526546 0.4083643
vt 0.3959221 0.6217313
vt 0.4219137 0.666694
vt 0.4275964 0.5900647
vt 0.4726154 0.6160048
vt 0.4391896 0.5468493
vt 0.4911728 0.5468291
vt 0.4726154 0.477653
vt 0.4275964 0.5036335
vt 0.4219137 0.4266564
vt 0.3959221 0.4717749
vt 0.3526545 0.4603474
vn -0.2871698 -0.5758165 -0.7654861
vn -0.571452 -0.4253142 -0.7018194
vn 0.5530385 -0.06090812 -0.8309264
vn 0.380537 0.3908782 -0.8380966
vn -1.233744E-06 -0.6153866 -0.7882254
vn 0.4709544 0.7983702 0.3752427
vn 0.8179983 0.4745929 0.3250235
vn 0 0.5428664 -0.839819
vn -1.946687E-05 0.9085729 0.4177263
vn -0.3805389 0.390877 -0.8380962
vn 0.2871702 -0.5758165 -0.765486
vn -0.5530378 -0.06091134 -0.8309266
vn 0.5714474 -0.4253183 -0.7018206
vn -0.4709179 0.7984937 0.3750254
vn -0.8182968 0.4744196 0.324525
vn -3.845845E-05 0.5599723 0.8285114
vn 0.3201769 0.5408496 0.7777973
vn 4.253102E-05 0.8112729 0.5846677
vn -0.3201112 0.5409507 0.777754
vn 0.5195937 0.4673146 0.7152898
vn 0.5892321 0.6230785 0.5143722
vn 0.8565205 0.1757975 0.4852504
vn 0.5834885 -0.1915072 -0.7892187
vn 0.5530385 -0.06090812 -0.8309264
vn -0.571452 -0.4253142 -0.7018194
vn -0.5672562 -0.1858154 -0.8023049
vn -0.4111946 0.03197785 -0.9109865
vn 0.6319576 -0.3970149 -0.665589
vn -0.2223832 0.1562101 -0.9623638
vn 0.3405948 -0.7442229 -0.5745671
vn 0.7849181 -0.2694092 0.5579625
vn 0.3971389 -0.5768895 0.7137781
vn 0.4813723 0.2459147 0.8413125
vn 0.2966999 0.02492381 0.9546455
vn 0.7269198 0.1681335 0.6658219
vn 0.154146 -0.005463253 0.9880329
vn 0.6806981 0.7202485 0.1337619
vn 0.4758546 -0.2935239 0.8290995
vn -0.0001694126 -0.4232067 0.9060332
vn 0.6828026 -0.6280227 0.3733203
vn 0.000137021 -0.001280505 0.9999992
vn 0.9664778 0.04595722 0.2526034
vn 2.662399E-06 0.9947938 0.1019074
vn 0.6695809 0.7161969 0.1967826
vn 0.6697238 -0.6040089 0.4320223
vn 1.867683E-06 -0.8983445 0.4392916
vn 0.944698 0.05722076 0.3229108
vn 0.0001723678 -0.655178 0.7554744
vn -3.909132E-07 -0.8458558 -0.5334117
vn 0.3405948 -0.7442229 -0.5745671
vn -0.3973281 -0.5757199 0.7146166
vn -2.68178E-06 0.2042146 -0.9789261
vn -0.2223832 0.1562101 -0.9623638
vn -0.3405946 -0.7442222 -0.5745682
vn 0.2223801 0.1562099 -0.9623646
vn -0.1542625 -0.0049014 0.9880177
vn -0.782945 -0.2684308 0.5611969
vn -0.3405946 -0.7442222 -0.5745682
vn -0.6319602 -0.3970118 -0.6655885
vn -0.5834921 -0.191508 -0.7892159
vn 0.2223801 0.1562099 -0.9623646
vn 0.4111892 0.03198089 -0.9109888
vn 0.5672476 -0.1858164 -0.8023106
vn 0.5714474 -0.4253183 -0.7018206
vn -0.5530378 -0.06091134 -0.8309266
vn -0.8555275 0.1774477 0.4864002
vn -0.296025 0.02631018 0.9548178
vn -0.4788472 -0.2934729 0.8273929
vn -0.5209695 0.4672896 0.7143047
vn -0.6828035 -0.6280289 0.373308
vn -0.7292261 0.1678142 0.6633759
vn -0.4807048 0.2474135 0.8412547
vn -0.5883234 0.6233445 0.5150895
vn -0.6807045 0.7202501 0.1337203
vn -0.9664876 0.04594894 0.2525673
vn -0.6697251 -0.6040077 0.432022
vn -0.6695869 0.716197 0.196762
vn 1.908918E-06 -0.8723472 0.4888869
vn -0.944703 0.05721407 0.3228978
vn 3.792893E-06 0.9877607 0.1559768
vn 0.6008415 -0.5078827 0.6172881
vn -0.6008388 -0.5078803 0.6172929
vn -0.6017777 0.6868585 0.4075402
vn 0.6017807 0.6868589 0.4075353
vn 1.949604E-06 -0.7490343 0.6625312
vn -0.8458445 0.0910828 0.5255959
vn 1.806419E-06 0.9302536 0.3669172
vn 0.8458483 0.09108119 0.5255901
vn 1.293444E-06 -0.4662881 0.8846329
vn -0.4342098 -0.2944756 0.8513201
vn -0.434219 0.5614933 0.7043998
vn 0.4342186 0.5614951 0.7043987
vn 0.4342101 -0.2944761 0.8513198
vn 2.345879E-06 -0.1200285 0.9927704
vn -0.6091748 0.1341427 0.7816085
vn 0.609172 0.1341437 0.7816104
vn -0.2037743 -0.0388665 0.9782461
vn 1.923906E-06 0.1691454 0.9855911
vn 0.2037711 -0.03886747 0.9782468
vn -0.2862171 0.1620662 0.9443592
vn 0.2862187 0.1620674 0.9443585
vn -0.2037709 0.3628001 0.9093149
vn 0.2037691 0.3628025 0.9093143
vn 1.898497E-06 0.7345982 0.6785024
vn 3.711092E-06 0.4441607 0.8959472
vn -9.35855E-07 -0.9079455 0.4190884
vn 0 -0.9079455 0.4190883
vn -3.829841E-06 -0.9079453 0.4190887
vn 1.460797E-06 -0.9079458 0.4190877
vn 0 -0.9079458 0.4190876
vn 1.234549E-06 -0.9079465 0.4190863
vn 1.234549E-06 -0.9079465 0.4190862
vn 0 -0.9079455 0.4190882
vn 0 -0.9079455 0.4190883
vn 0 -0.9079455 0.4190885
vn -1.460796E-06 -0.9079456 0.4190878
vn 9.358563E-07 -0.9079455 0.4190884
vn 3.829865E-06 -0.9079453 0.4190888
vn 0 -0.9079458 0.4190877
vn -1.234551E-06 -0.9079465 0.4190863
vn -1.234551E-06 -0.9079465 0.4190863
vn 0.5714474 -0.4253183 -0.7018206
vn 0.5672476 -0.1858164 -0.8023106
vn 0.440589 -0.1464598 -0.8856811
vn 0.4111892 0.03198089 -0.9109888
vn 0.3590675 -0.3709745 -0.856416
vn 0.2871702 -0.5758165 -0.765486
vn 0.403458 0.0726679 -0.912108
vn 0.2223801 0.1562099 -0.9623646
vn 0.2083538 -0.5226315 -0.8267073
vn -1.233744E-06 -0.6153866 -0.7882254
vn -0.06919305 -0.1375851 -0.9880702
vn 0.2536142 0.2496869 -0.9345247
vn 0.003467046 -0.5717058 -0.8204513
vn -2.68178E-06 0.2042146 -0.9789261
vn -0.2142706 -0.5376752 -0.8154713
vn -0.2871698 -0.5758165 -0.7654861
vn -0.3852477 -0.3891908 -0.8367285
vn -0.571452 -0.4253142 -0.7018194
vn -0.4885437 -0.1444146 -0.8605053
vn -0.5672562 -0.1858154 -0.8023049
vn -0.4111946 0.03197785 -0.9109865
vn -0.4445373 0.1030945 -0.8898079
vn -0.2223832 0.1562101 -0.9623638
vn -0.2632456 0.2839926 -0.9219816
vn 0.005476686 0.3357784 -0.9419251
g FiremanHelmet_0
f 3/3/3 2/2/2 1/1/1
f 1/1/1 4/4/4 3/3/3
f 4/4/4 1/1/1 5/5/5
f 3/3/3 4/4/4 6/6/6
f 7/7/7 3/3/3 6/6/6
f 5/5/5 8/8/8 4/4/4
f 4/4/4 8/8/8 9/9/9
f 6/6/6 4/4/4 9/9/9
f 10/10/10 8/8/8 5/5/5
f 9/9/9 8/8/8 10/10/10
f 10/10/10 5/5/5 11/11/11
f 11/11/11 12/12/12 10/10/10
f 13/13/13 12/12/12 11/11/11
f 14/14/14 10/10/10 12/12/12
f 10/10/10 14/14/14 9/9/9
f 12/12/12 15/15/15 14/14/14
f 9/9/9 16/16/16 6/6/6
f 16/16/16 9/9/9 14/14/14
f 7/7/7 6/6/6 17/17/17
f 17/17/17 6/6/6 16/16/16
f 16/16/16 18/18/18 17/17/17
f 16/16/16 14/14/14 19/19/19
f 15/15/15 19/19/19 14/14/14
f 18/18/18 16/16/16 19/19/19
f 17/17/17 20/20/20 7/7/7
f 21/21/21 17/17/17 18/18/18
f 20/20/20 17/17/17 21/21/21
f 7/7/7 20/20/20 22/22/22
f 22/22/22 23/23/23 7/7/7
f 23/23/23 24/24/24 7/7/7
f 25/25/25 24/24/24 23/23/23
f 23/23/23 26/26/26 25/25/25
f 26/26/26 23/23/23 27/27/27
f 28/28/28 27/27/27 23/23/23
f 29/29/29 27/27/27 28/28/28
f 28/28/28 30/30/30 29/29/29
f 31/31/31 28/28/28 23/23/23
f 30/30/30 28/28/28 31/31/31
f 23/23/23 22/22/22 31/31/31
f 32/32/32 30/30/30 31/31/31
f 20/20/20 33/33/33 22/22/22
f 20/20/20 21/21/21 33/33/33
f 34/34/34 31/31/31 22/22/22
f 22/22/22 33/33/33 34/34/34
f 35/35/35 33/33/33 21/21/21
f 33/33/33 35/35/35 34/34/34
f 31/31/31 34/34/34 36/36/36
f 31/31/31 36/36/36 32/32/32
f 35/35/35 21/21/21 37/37/37
f 37/37/37 21/21/21 18/18/18
f 36/36/36 34/34/34 38/38/38
f 38/38/38 34/34/34 35/35/35
f 39/39/39 36/36/36 38/38/38
f 40/40/40 38/38/38 35/35/35
f 39/39/39 38/38/38 40/40/40
f 41/41/41 32/32/32 36/36/36
f 36/36/36 39/39/39 41/41/41
f 42/42/42 35/35/35 37/37/37
f 35/35/35 42/42/42 40/40/40
f 18/18/18 43/43/43 37/37/37
f 42/42/42 37/37/37 44/44/44
f 44/44/44 37/37/37 43/43/43
f 45/45/45 40/40/40 42/42/42
f 46/46/46 39/39/39 40/40/40
f 46/46/46 40/40/40 45/45/45
f 47/47/47 42/42/42 44/44/44
f 42/42/42 47/47/47 45/45/45
f 32/32/32 41/41/41 48/48/48
f 48/48/48 49/49/49 32/32/32
f 49/49/49 50/50/50 32/32/32
f 51/51/51 48/48/48 41/41/41
f 49/49/49 48/48/48 51/51/51
f 49/49/49 52/52/52 50/50/50
f 52/52/52 53/53/53 50/50/50
f 52/52/52 49/49/49 54/54/54
f 51/51/51 54/54/54 49/49/49
f 54/54/54 55/55/55 52/52/52
f 56/56/56 51/51/51 41/41/41
f 56/56/56 41/41/41 39/39/39
f 57/57/57 51/51/51 56/56/56
f 58/58/58 51/51/51 57/57/57
f 57/57/57 59/59/59 58/58/58
f 60/60/60 59/59/59 57/57/57
f 61/61/61 58/58/58 59/59/59
f 59/59/59 62/62/62 61/61/61
f 62/62/62 59/59/59 60/60/60
f 60/60/60 63/63/63 62/62/62
f 63/63/63 60/60/60 64/64/64
f 65/65/65 64/64/64 60/60/60
f 15/15/15 65/65/65 60/60/60
f 66/66/66 60/60/60 57/57/57
f 60/60/60 66/66/66 15/15/15
f 56/56/56 67/67/67 57/57/57
f 57/57/57 67/67/67 66/66/66
f 68/68/68 56/56/56 39/39/39
f 67/67/67 56/56/56 68/68/68
f 66/66/66 69/69/69 15/15/15
f 19/19/19 15/15/15 69/69/69
f 70/70/70 68/68/68 39/39/39
f 39/39/39 46/46/46 70/70/70
f 67/67/67 68/68/68 71/71/71
f 68/68/68 70/70/70 71/71/71
f 72/72/72 66/66/66 67/67/67
f 66/66/66 72/72/72 69/69/69
f 67/67/67 71/71/71 72/72/72
f 19/19/19 69/69/69 73/73/73
f 72/72/72 73/73/73 69/69/69
f 72/72/72 71/71/71 73/73/73
f 73/73/73 18/18/18 19/19/19
f 18/18/18 73/73/73 74/74/74
f 74/74/74 73/73/73 71/71/71
f 74/74/74 43/43/43 18/18/18
f 75/75/75 71/71/71 70/70/70
f 71/71/71 75/75/75 74/74/74
f 76/76/76 70/70/70 46/46/46
f 70/70/70 76/76/76 75/75/75
f 43/43/43 74/74/74 77/77/77
f 77/77/77 74/74/74 75/75/75
f 46/46/46 78/78/78 76/76/76
f 78/78/78 46/46/46 45/45/45
f 79/79/79 75/75/75 76/76/76
f 75/75/75 79/79/79 77/77/77
f 77/77/77 80/80/80 43/43/43
f 43/43/43 80/80/80 44/44/44
f 78/78/78 45/45/45 81/81/81
f 81/81/81 45/45/45 47/47/47
f 78/78/78 82/82/82 76/76/76
f 79/79/79 76/76/76 82/82/82
f 79/79/79 83/83/83 77/77/77
f 80/80/80 77/77/77 83/83/83
f 47/47/47 44/44/44 84/84/84
f 44/44/44 80/80/80 84/84/84
f 81/81/81 85/85/85 78/78/78
f 82/82/82 78/78/78 85/85/85
f 83/83/83 79/79/79 86/86/86
f 82/82/82 86/86/86 79/79/79
f 83/83/83 87/87/87 80/80/80
f 84/84/84 80/80/80 87/87/87
f 84/84/84 88/88/88 47/47/47
f 47/47/47 88/88/88 81/81/81
f 81/81/81 89/89/89 85/85/85
f 82/82/82 85/85/85 89/89/89
f 86/86/86 82/82/82 90/90/90
f 89/89/89 90/90/90 82/82/82
f 86/86/86 91/91/91 83/83/83
f 87/87/87 83/83/83 91/91/91
f 84/84/84 87/87/87 92/92/92
f 84/84/84 92/92/92 88/88/88
f 81/81/81 93/93/93 89/89/89
f 81/81/81 88/88/88 93/93/93
f 90/90/90 89/89/89 94/94/94
f 93/93/93 94/94/94 89/89/89
f 90/90/90 95/95/95 86/86/86
f 91/91/91 86/86/86 95/95/95
f 93/93/93 88/88/88 96/96/96
f 96/96/96 88/88/88 92/92/92
f 95/95/95 90/90/90 97/97/97
f 94/94/94 97/97/97 90/90/90
f 98/98/98 97/97/97 94/94/94
f 93/93/93 99/99/99 94/94/94
f 96/96/96 99/99/99 93/93/93
f 98/98/98 94/94/94 99/99/99
f 97/97/97 100/100/100 95/95/95
f 91/91/91 95/95/95 100/100/100
f 98/98/98 100/100/100 97/97/97
f 101/101/101 99/99/99 96/96/96
f 101/101/101 96/96/96 92/92/92
f 98/98/98 99/99/99 101/101/101
f 100/100/100 102/102/102 91/91/91
f 98/98/98 102/102/102 100/100/100
f 92/92/92 103/103/103 101/101/101
f 98/98/98 101/101/101 103/103/103
f 104/104/104 91/91/91 102/102/102
f 104/104/104 103/103/103 92/92/92
f 91/91/91 104/104/104 87/87/87
f 92/92/92 87/87/87 104/104/104
f 98/98/98 103/103/103 105/105/105
f 98/98/98 105/105/105 102/102/102
f 104/104/104 105/105/105 103/103/103
f 102/102/102 105/105/105 104/104/104
f 108/108/108 107/107/107 106/106/106
f 109/109/109 106/106/106 107/107/107
f 109/109/109 110/110/110 106/106/106
f 110/110/110 109/109/109 111/111/111
f 111/111/111 112/112/112 110/110/110
f 113/113/113 109/109/109 107/107/107
f 107/107/107 114/114/114 113/113/113
f 113/113/113 114/114/114 115/115/115
f 115/115/115 116/116/116 113/113/113
f 115/115/115 117/117/117 116/116/116
f 115/115/115 118/118/118 117/117/117
f 116/116/116 117/117/117 119/119/119
f 120/120/120 116/116/116 119/119/119
f 119/119/119 121/121/121 120/120/120
f 124/124/124 123/123/123 122/122/122
f 123/123/123 124/124/124 125/125/125
f 122/122/122 126/126/126 124/124/124
f 126/126/126 122/122/122 127/127/127
f 128/128/128 125/125/125 124/124/124
f 129/129/129 125/125/125 128/128/128
f 127/127/127 130/130/130 126/126/126
f 130/130/130 127/127/127 131/131/131
f 126/126/126 132/132/132 124/124/124
f 124/124/124 132/132/132 128/128/128
f 130/130/130 132/132/132 126/126/126
f 128/128/128 132/132/132 133/133/133
f 128/128/128 133/133/133 129/129/129
f 134/134/134 132/132/132 130/130/130
f 131/131/131 134/134/134 130/130/130
f 135/135/135 129/129/129 133/133/133
f 134/134/134 131/131/131 136/136/136
f 136/136/136 132/132/132 134/134/134
f 137/137/137 136/136/136 131/131/131
f 138/138/138 136/136/136 137/137/137
f 138/138/138 132/132/132 136/136/136
f 139/139/139 138/138/138 137/137/137
f 140/140/140 138/138/138 139/139/139
f 140/140/140 132/132/132 138/138/138
f 139/139/139 141/141/141 140/140/140
f 140/140/140 141/141/141 142/142/142
f 142/142/142 143/143/143 140/140/140
f 143/143/143 132/132/132 140/140/140
f 143/143/143 142/142/142 144/144/144
f 144/144/144 145/145/145 143/143/143
f 145/145/145 144/144/144 135/135/135
f 145/145/145 132/132/132 143/143/143
f 133/133/133 146/146/146 135/135/135
f 133/133/133 132/132/132 146/146/146
f 135/135/135 146/146/146 145/145/145
f 146/146/146 132/132/132 145/145/145
