g FlashEars
v 0.2439376 0.06809496 0.2094213
v 0.3484028 0.3248239 0.3802049
v 0.3302383 0.3363751 0.3777187
v 0.3253095 0.3220409 0.3721053
v 0.2051181 -0.07796639 0.2357476
v 0.2395467 0.05157361 0.2127492
v 0.2094122 -0.06180834 0.2308703
v 0.2183293 -0.02821581 0.1623522
v 0.2227927 -0.01142317 0.1611708
v 0.2503198 0.09214021 0.1574764
v 0.1955224 -0.1139464 0.05349208
v 0.2546715 0.1085143 0.1534437
v 0.2838893 0.05749005 0.2094872
v 0.2450636 -0.08859476 0.2357055
v 0.1918897 -0.1276063 0.04331754
v 0.2946195 0.09789526 0.1534344
v 0.2318362 -0.1382311 0.04331956
v 0.2582774 -0.03883427 0.1623452
v 0.344003 0.3114225 0.3720983
v 0.2354705 -0.1245649 0.05348502
v 0.2493603 -0.07242684 0.2308633
v 0.2794948 0.04095514 0.2127422
v 0.290268 0.08152171 0.1574695
v 0.2627408 -0.02204164 0.1611638
v -0.2439376 0.06809496 0.2094213
v -0.3302383 0.3363751 0.3777187
v -0.3484028 0.3248239 0.380205
v -0.3255953 0.3220409 0.3721053
v -0.2051183 -0.0779657 0.2357501
v -0.2395467 0.05157361 0.2127492
v -0.2094122 -0.06180835 0.2308703
v -0.2183294 -0.02821581 0.1623522
v -0.2227928 -0.01142317 0.1611708
v -0.2503198 0.09214021 0.1574764
v -0.1955224 -0.1139464 0.05349208
v -0.254671 0.1085125 0.1534359
v -0.2838894 0.05749005 0.2094872
v -0.2450636 -0.08859476 0.2357055
v -0.1918897 -0.1276063 0.04331755
v -0.2318362 -0.1382311 0.04331956
v -0.2946196 0.09789578 0.1534367
v -0.2582774 -0.03883427 0.1623452
v -0.3442887 0.3114225 0.3720983
v -0.2354705 -0.1245649 0.05348502
v -0.2493603 -0.07242684 0.2308633
v -0.290268 0.08152171 0.1574695
v -0.2627408 -0.02204164 0.1611638
v -0.2794948 0.04095514 0.2127422
vt 1 1
vt 1 1
vt 1 1
vt 1 1
vt 0 1
vt 1 1
vt 0 1
vt 0 1
vt 0 1
vt 1 0
vt 0 0
vt 1 0
vt 1 1
vt 0 1
vt 0 0
vt 1 0
vt 0 0
vt 0 1
vt 1 1
vt 0 0
vt 0 1
vt 1 1
vt 1 0
vt 0 1
vt 1 1
vt 1 1
vt 1 1
vt 1 1
vt 0 1
vt 1 1
vt 0 1
vt 0 1
vt 0 1
vt 1 0
vt 0 0
vt 1 0
vt 1 1
vt 0 1
vt 0 0
vt 0 0
vt 1 0
vt 0 1
vt 1 1
vt 0 0
vt 0 1
vt 1 0
vt 0 1
vt 1 1
vn -0.7724834 0.6326506 -0.05497876
vn 0.7592418 0.5007061 0.4157467
vn -0.3086383 0.9244776 0.2237936
vn -0.9604241 0.2702578 0.06742594
vn -0.7688153 -0.5821046 0.2647212
vn -0.9640614 0.2640322 0.02954046
vn -0.9653534 0.2567991 0.04633685
vn -0.9695739 -0.2435604 0.02459151
vn -0.9664416 0.2568864 0.0001696522
vn -0.9664416 0.2568865 0.0001698612
vn -0.9664415 0.2568865 0.0001700653
vn -0.3430092 0.9164349 -0.2061354
vn 0.9927139 0.1186343 -0.02109378
vn 0.3139127 -0.9169457 0.2463115
vn -0.6953273 -0.5131578 -0.5031788
vn 0.7525015 0.6254069 -0.2064164
vn 0.3484631 -0.7908208 -0.5031658
vn 0.7206078 -0.6929169 0.0243001
vn 0.964842 -0.2610111 0.03087362
vn 0.9664415 -0.2568868 -0.000169466
vn 0.969927 -0.2426203 -0.01941589
vn 0.9653929 -0.2594476 0.02652282
vn 0.9664415 -0.2568868 -0.0001694249
vn 0.9664416 -0.2568864 -0.000169608
vn 0.775392 0.6297412 -0.04683143
vn 0.2871416 0.9296218 0.2309827
vn -0.7405061 0.5195171 0.4263248
vn 0.9607518 0.2700107 0.06364207
vn 0.7711313 -0.5815325 0.2591846
vn 0.9642546 0.2630315 0.0320556
vn 0.9648309 0.2603201 0.03653389
vn 0.9695738 -0.2435607 0.02459429
vn 0.9664418 0.2568861 0.0001699482
vn 0.9664416 0.2568865 0.000170051
vn 0.9664415 0.2568865 0.0001703325
vn 0.3430311 0.9164014 -0.2062475
vn -0.9919257 0.1231385 -0.0303397
vn -0.3127033 -0.9160715 0.2510571
vn 0.6952255 -0.5132523 -0.5032232
vn -0.3485973 -0.7907934 -0.503116
vn -0.7524989 0.625437 -0.2063352
vn -0.7206039 -0.6929209 0.02430317
vn -0.9654789 -0.2587259 0.03019098
vn -0.9664415 -0.2568867 -0.0001694273
vn -0.9693309 -0.245488 -0.01153996
vn -0.9664415 -0.2568868 -0.0001697195
vn -0.9664415 -0.2568866 -0.0001695924
vn -0.9657886 -0.2582499 0.02365197
g FlashEars_0
f 3/3/3 2/2/2 1/1/1
f 1/1/1 4/4/4 3/3/3
f 2/2/2 3/3/3 5/5/5
f 3/3/3 4/4/4 5/5/5
f 4/4/4 1/1/1 6/6/6
f 4/4/4 7/7/7 5/5/5
f 4/4/4 6/6/6 7/7/7
f 5/5/5 7/7/7 8/8/8
f 6/6/6 9/9/9 7/7/7
f 9/9/9 8/8/8 7/7/7
f 6/6/6 10/10/10 9/9/9
f 6/6/6 1/1/1 10/10/10
f 11/11/11 9/9/9 10/10/10
f 11/11/11 8/8/8 9/9/9
f 1/1/1 12/12/12 10/10/10
f 11/11/11 10/10/10 12/12/12
f 2/2/2 13/13/13 1/1/1
f 1/1/1 13/13/13 12/12/12
f 5/5/5 14/14/14 2/2/2
f 14/14/14 5/5/5 8/8/8
f 15/15/15 11/11/11 12/12/12
f 8/8/8 11/11/11 15/15/15
f 15/15/15 12/12/12 16/16/16
f 16/16/16 12/12/12 13/13/13
f 8/8/8 15/15/15 17/17/17
f 16/16/16 17/17/17 15/15/15
f 17/17/17 18/18/18 8/8/8
f 8/8/8 18/18/18 14/14/14
f 14/14/14 19/19/19 2/2/2
f 2/2/2 19/19/19 13/13/13
f 16/16/16 20/20/20 17/17/17
f 17/17/17 20/20/20 18/18/18
f 21/21/21 14/14/14 18/18/18
f 14/14/14 21/21/21 19/19/19
f 22/22/22 13/13/13 19/19/19
f 19/19/19 21/21/21 22/22/22
f 23/23/23 16/16/16 13/13/13
f 16/16/16 23/23/23 20/20/20
f 13/13/13 22/22/22 23/23/23
f 18/18/18 24/24/24 21/21/21
f 24/24/24 18/18/18 20/20/20
f 20/20/20 23/23/23 24/24/24
f 24/24/24 22/22/22 21/21/21
f 24/24/24 23/23/23 22/22/22
f 27/27/27 26/26/26 25/25/25
f 26/26/26 28/28/28 25/25/25
f 29/29/29 26/26/26 27/27/27
f 29/29/29 28/28/28 26/26/26
f 30/30/30 25/25/25 28/28/28
f 29/29/29 31/31/31 28/28/28
f 30/30/30 28/28/28 31/31/31
f 31/31/31 29/29/29 32/32/32
f 31/31/31 33/33/33 30/30/30
f 32/32/32 33/33/33 31/31/31
f 34/34/34 30/30/30 33/33/33
f 25/25/25 30/30/30 34/34/34
f 33/33/33 35/35/35 34/34/34
f 33/33/33 32/32/32 35/35/35
f 34/34/34 36/36/36 25/25/25
f 36/36/36 34/34/34 35/35/35
f 27/27/27 25/25/25 37/37/37
f 36/36/36 37/37/37 25/25/25
f 27/27/27 38/38/38 29/29/29
f 32/32/32 29/29/29 38/38/38
f 36/36/36 35/35/35 39/39/39
f 39/39/39 35/35/35 32/32/32
f 36/36/36 39/39/39 40/40/40
f 39/39/39 32/32/32 40/40/40
f 36/36/36 41/41/41 37/37/37
f 40/40/40 41/41/41 36/36/36
f 40/40/40 32/32/32 42/42/42
f 38/38/38 42/42/42 32/32/32
f 27/27/27 43/43/43 38/38/38
f 37/37/37 43/43/43 27/27/27
f 40/40/40 44/44/44 41/41/41
f 42/42/42 44/44/44 40/40/40
f 38/38/38 45/45/45 42/42/42
f 43/43/43 45/45/45 38/38/38
f 37/37/37 41/41/41 46/46/46
f 44/44/44 46/46/46 41/41/41
f 44/44/44 42/42/42 47/47/47
f 47/47/47 42/42/42 45/45/45
f 46/46/46 44/44/44 47/47/47
f 45/45/45 43/43/43 48/48/48
f 43/43/43 37/37/37 48/48/48
f 48/48/48 47/47/47 45/45/45
f 46/46/46 47/47/47 48/48/48
f 48/48/48 37/37/37 46/46/46
