g Hexagon
v -0.25 -0.5100001 -0.4330126
v 0.25 -0.5100001 -0.4330126
v -0.25 0.5100001 -0.4330126
v 0.25 0.5100001 -0.4330126
v -0.5 0.51 1.268009E-07
v -0.5 -0.51 1.268009E-07
v -0.25 -0.5100001 -0.4330126
v -0.25 0.5100001 -0.4330126
v -0.25 -0.5099999 0.4330128
v 0.2500002 -0.5099999 0.4330127
v 0.5 -0.51 8.308955E-08
v -0.5 -0.51 1.268009E-07
v -0.25 -0.5100001 -0.4330126
v 0.25 -0.5100001 -0.4330126
v 0.25 -0.5100001 -0.4330126
v 0.5 -0.51 8.308955E-08
v 0.5 0.51 8.308955E-08
v 0.25 0.5100001 -0.4330126
v -0.25 0.5099999 0.4330128
v -0.25 -0.5099999 0.4330128
v -0.5 -0.51 1.268009E-07
v -0.5 0.51 1.268009E-07
v 0.2500002 -0.5099999 0.4330127
v -0.25 0.5099999 0.4330128
v 0.2500002 0.5099999 0.4330127
v -0.25 -0.5099999 0.4330128
v 0.2500002 0.5099999 0.4330127
v 0.5 -0.51 8.308955E-08
v 0.2500002 -0.5099999 0.4330127
v 0.5 0.51 8.308955E-08
v -0.25 0.5100001 -0.4330126
v 0.25 0.5100001 -0.4330126
v 0.5 0.51 8.308955E-08
v -0.5 0.51 1.268009E-07
v -0.25 0.5099999 0.4330128
v 0.2500002 0.5099999 0.4330127
vn 0 0 -1
vn 0 0 -1
vn 0 0 -1
vn 0 0 -1
vn -0.8660254 0 -0.5
vn -0.8660254 0 -0.5
vn -0.8660254 0 -0.5
vn -0.8660254 0 -0.5
vn 0 -1 0
vn 0 -1 0
vn 0 -1 0
vn 0 -1 0
vn 0 -1 0
vn 0 -1 0
vn 0.8660253 0 -0.5000001
vn 0.8660253 0 -0.5000001
vn 0.8660253 0 -0.5000001
vn 0.8660253 0 -0.5000001
vn -0.8660253 0 0.5000001
vn -0.8660253 0 0.5000001
vn -0.8660253 0 0.5000001
vn -0.8660253 0 0.5000001
vn 0 0 1
vn 0 0 1
vn 0 0 1
vn 0 0 1
vn 0.8660255 0 0.4999999
vn 0.8660255 0 0.4999998
vn 0.8660255 0 0.4999999
vn 0.8660255 0 0.4999998
vn 0 1 0
vn 0 1 0
vn 0 1 0
vn 0 1 0
vn 0 1 0
vn 0 1 0
g Hexagon_0
f 3/3/3 2/2/2 1/1/1
f 3/3/3 4/4/4 2/2/2
f 7/7/7 6/6/6 5/5/5
f 5/5/5 8/8/8 7/7/7
f 11/11/11 10/10/10 9/9/9
f 9/9/9 12/12/12 11/11/11
f 13/13/13 11/11/11 12/12/12
f 13/13/13 14/14/14 11/11/11
f 17/17/17 16/16/16 15/15/15
f 15/15/15 18/18/18 17/17/17
f 21/21/21 20/20/20 19/19/19
f 19/19/19 22/22/22 21/21/21
f 25/25/25 24/24/24 23/23/23
f 26/26/26 23/23/23 24/24/24
f 29/29/29 28/28/28 27/27/27
f 28/28/28 30/30/30 27/27/27
f 33/33/33 32/32/32 31/31/31
f 33/33/33 31/31/31 34/34/34
f 34/34/34 35/35/35 33/33/33
f 35/35/35 36/36/36 33/33/33
