g InflatedTriangle-Wall_Collision
v -9.567742E-07 18.30705 3.392108
v -5.535624 14.23772 9.261328E-08
v -8.702915E-07 18.30705 0
v -5.535624 14.23771 3.392108
v -10.24019 9.989516 3.392108
v -10.24019 9.989517 3.021624E-08
v -12.67316 6.703204 3.392108
v -12.67316 6.703206 -1.805401E-08
v -14.3027 2.953042 3.392108
v -14.3027 2.953043 5.641339E-08
v -15.62947 -3.245336 3.392108
v -15.62947 -3.245334 2.163333E-08
v -16.3858 -10.07399 3.392108
v -16.3858 -10.07399 -9.834765E-08
v -10.09384 -12.83331 3.392108
v -16.3858 -10.07399 -9.834765E-08
v -16.3858 -10.07399 3.392108
v -10.09384 -12.83331 -1.496805E-07
v -4.062509 -14.78349 3.392108
v -4.062509 -14.78349 -1.291569E-07
v 7.344706E-07 -15.24734 3.392108
v 1.820546E-06 -15.24734 -7.281312E-10
v 4.06251 -14.78349 3.392108
v 4.062512 -14.78349 -1.326426E-08
v 10.09385 -12.83331 3.392108
v 10.09385 -12.83331 -1.10867E-07
v 16.38581 -10.07399 3.392108
v 16.38581 -10.07399 1.027466E-08
v 15.62947 -3.24533 3.392108
v 16.38581 -10.07399 1.027466E-08
v 16.38581 -10.07399 3.392108
v 15.62947 -3.24533 1.35667E-08
v 14.3027 2.953046 3.392108
v 14.3027 2.953046 2.995118E-08
v 12.67316 6.703209 3.392108
v 12.67316 6.703211 5.184075E-08
v 10.24019 9.989517 3.392108
v 10.24019 9.989517 0
v 5.535622 14.23772 3.392108
v 5.535622 14.23772 0
v -9.567742E-07 18.30705 3.392108
v -8.702915E-07 18.30705 0
v -5.232752 13.86357 0
v -8.012183E-07 17.71609 3.392108
v -8.012183E-07 17.71609 0
v -5.232752 13.86357 3.392108
v -9.876884 9.671212 3.392108
v -9.876884 9.671213 0
v -12.25355 6.460944 3.392108
v -12.25355 6.460946 0
v -13.84539 2.79756 3.392108
v -13.84539 2.797561 0
v -15.15401 -3.320558 3.392108
v -15.15401 -3.320556 0
v -15.87402 -9.778515 3.392108
v -15.87402 -9.778515 0
v -15.87402 -9.778515 0
v -9.921262 -12.38395 3.392108
v -15.87402 -9.778515 3.392108
v -9.921262 -12.38395 0
v -3.968504 -14.3097 3.392108
v -3.968503 -14.3097 0
v 6.914911E-07 -14.76283 3.392108
v 1.786651E-06 -14.76283 0
v 3.968505 -14.3097 3.392108
v 3.968506 -14.3097 0
v 9.921262 -12.38395 3.392108
v 9.921264 -12.38395 0
v 15.87402 -9.778507 3.392108
v 15.87402 -9.778507 0
v 15.87402 -9.778507 0
v 15.15401 -3.320553 3.392108
v 15.87402 -9.778507 3.392108
v 15.15401 -3.320552 0
v 13.84539 2.797564 3.392108
v 13.84539 2.797565 0
v 12.25355 6.460949 3.392108
v 12.25355 6.46095 0
v 9.876884 9.671213 3.392108
v 9.876884 9.671213 0
v 5.232751 13.86358 3.392108
v 5.232751 13.86358 0
v -8.012183E-07 17.71609 3.392108
v -8.012183E-07 17.71609 0
v -10.24019 9.989516 3.392108
v -9.876884 9.671212 3.392108
v -12.25355 6.460944 3.392108
v -12.67316 6.703204 3.392108
v -5.535624 14.23771 3.392108
v -13.84539 2.79756 3.392108
v -5.232752 13.86357 3.392108
v -14.3027 2.953042 3.392108
v -9.567742E-07 18.30705 3.392108
v -15.15401 -3.320558 3.392108
v -8.012183E-07 17.71609 3.392108
v -15.62947 -3.245336 3.392108
v 5.535622 14.23772 3.392108
v -15.87402 -9.778515 3.392108
v 5.232751 13.86358 3.392108
v -16.3858 -10.07399 3.392108
v 10.24019 9.989517 3.392108
v -9.921262 -12.38395 3.392108
v 9.876884 9.671213 3.392108
v -10.09384 -12.83331 3.392108
v 12.67316 6.703209 3.392108
v -3.968504 -14.3097 3.392108
v 12.25355 6.460949 3.392108
v -4.062509 -14.78349 3.392108
v 14.3027 2.953046 3.392108
v 6.914911E-07 -14.76283 3.392108
v 13.84539 2.797564 3.392108
v 7.344706E-07 -15.24734 3.392108
v 15.62947 -3.24533 3.392108
v 3.968505 -14.3097 3.392108
v 15.15401 -3.320553 3.392108
v 4.06251 -14.78349 3.392108
v 16.38581 -10.07399 3.392108
v 9.921262 -12.38395 3.392108
v 15.87402 -9.778507 3.392108
v 10.09385 -12.83331 3.392108
v -12.67316 6.703206 -1.805401E-08
v -12.25355 6.460946 0
v -9.876884 9.671213 0
v -10.24019 9.989517 3.021624E-08
v -14.3027 2.953043 5.641339E-08
v -5.232752 13.86357 0
v -13.84539 2.797561 0
v -5.535624 14.23772 9.261328E-08
v -15.62947 -3.245334 2.163333E-08
v -8.012183E-07 17.71609 0
v -15.15401 -3.320556 0
v -8.702915E-07 18.30705 0
v -16.3858 -10.07399 -9.834765E-08
v 5.232751 13.86358 0
v -15.87402 -9.778515 0
v 5.535622 14.23772 0
v -10.09384 -12.83331 -1.496805E-07
v 9.876884 9.671213 0
v -9.921262 -12.38395 0
v 10.24019 9.989517 0
v -4.062509 -14.78349 -1.291569E-07
v 12.25355 6.46095 0
v -3.968503 -14.3097 0
v 12.67316 6.703211 5.184075E-08
v 1.820546E-06 -15.24734 -7.281312E-10
v 13.84539 2.797565 0
v 1.786651E-06 -14.76283 0
v 14.3027 2.953046 2.995118E-08
v 4.062512 -14.78349 -1.326426E-08
v 15.15401 -3.320552 0
v 3.968506 -14.3097 0
v 15.62947 -3.24533 1.35667E-08
v 10.09385 -12.83331 -1.10867E-07
v 15.87402 -9.778507 0
v 9.921264 -12.38395 0
v 16.38581 -10.07399 1.027466E-08
vn -0.5922987 0.8057185 0
vn -0.6320438 0.7749326 0
vn -0.5922987 0.8057185 0
vn -0.6320438 0.7749326 0
vn -0.7406176 0.6719267 0
vn -0.7406176 0.6719267 0
vn -0.8660254 0.5 0
vn -0.8660254 0.5 0
vn -0.9522145 0.3054301 0
vn -0.9522145 0.3054302 0
vn -0.9871334 0.1598995 0
vn -0.9871334 0.1598995 0
vn -0.9939221 0.1100862 0
vn -0.9939221 0.1100862 0
vn -0.3550894 -0.9348323 0
vn -0.4016233 -0.915805 0
vn -0.4016233 -0.915805 0
vn -0.3550894 -0.9348323 0
vn -0.2115968 -0.9773571 0
vn -0.2115968 -0.9773571 0
vn 0 -1 0
vn 0 -1 0
vn 0.2115969 -0.977357 0
vn 0.211597 -0.977357 0
vn 0.3550898 -0.9348322 0
vn 0.3550898 -0.9348322 0
vn 0.4016239 -0.9158047 0
vn 0.4016239 -0.9158047 0
vn 0.9871333 0.1598997 0
vn 0.9939221 0.1100862 0
vn 0.9939221 0.1100862 0
vn 0.9871333 0.1598997 0
vn 0.9522144 0.3054303 0
vn 0.9522144 0.3054303 0
vn 0.8660253 0.5000003 0
vn 0.8660253 0.5000003 0
vn 0.7406173 0.671927 0
vn 0.7406173 0.671927 0
vn 0.6320438 0.7749327 0
vn 0.6320438 0.7749327 0
vn 0.5922984 0.8057186 0
vn 0.5922984 0.8057186 0
vn 0.6322656 -0.7747517 0
vn 0.5928804 -0.8052906 0
vn 0.5928804 -0.8052906 0
vn 0.6322656 -0.7747517 0
vn 0.7405671 -0.6719823 0
vn 0.7405671 -0.6719823 0
vn 0.8660254 -0.5 0
vn 0.8660254 -0.5 0
vn 0.9522374 -0.3053586 0
vn 0.9522374 -0.3053586 0
vn 0.9870875 -0.1601822 0
vn 0.9870875 -0.1601822 0
vn 0.9938422 -0.1108044 0
vn 0.9938422 -0.1108044 0
vn 0.4009613 0.916095 0
vn 0.3548216 0.934934 0
vn 0.4009613 0.916095 0
vn 0.3548216 0.934934 0
vn 0.2116704 0.9773412 0
vn 0.2116703 0.9773412 0
vn 0 1 0
vn 0 1 0
vn -0.2116704 0.9773411 0
vn -0.2116705 0.9773411 0
vn -0.3548221 0.9349338 0
vn -0.3548222 0.9349338 0
vn -0.4009622 0.9160947 0
vn -0.4009622 0.9160947 0
vn -0.9938422 -0.1108045 0
vn -0.9870875 -0.1601823 0
vn -0.9938422 -0.1108045 0
vn -0.9870875 -0.1601823 0
vn -0.9522374 -0.3053586 0
vn -0.9522374 -0.3053587 0
vn -0.8660253 -0.5000002 0
vn -0.8660253 -0.5000003 0
vn -0.7405669 -0.6719826 0
vn -0.7405669 -0.6719826 0
vn -0.6322654 -0.7747518 0
vn -0.6322654 -0.7747518 0
vn -0.5928801 -0.8052906 0
vn -0.5928801 -0.8052906 0
vn 0 0 1
vn 0 0 1
vn 0 0 1
vn 0 0 1
vn 0 0 1
vn 0 0 1
vn 0 0 1
vn 0 0 1
vn 0 0 1
vn 0 0 1
vn 0 0 1
vn 0 0 1
vn 0 0 1
vn 0 0 1
vn 0 0 1
vn 0 0 1
vn 0 0 1
vn 0 0 1
vn 0 0 1
vn 0 0 1
vn 0 0 1
vn 0 0 1
vn 0 0 1
vn 0 0 1
vn 0 0 1
vn 0 0 1
vn 0 0 1
vn 0 0 1
vn 0 0 1
vn 0 0 1
vn 0 0 1
vn 0 0 1
vn 0 0 1
vn 0 0 1
vn 0 0 1
vn 0 0 1
vn 0 0 -1
vn 0 0 -1
vn 0 0 -1
vn 0 0 -1
vn 0 0 -1
vn 0 0 -1
vn 0 0 -1
vn 0 0 -1
vn 0 0 -1
vn 0 0 -1
vn 0 0 -1
vn 0 0 -1
vn 0 0 -1
vn 0 0 -1
vn 0 0 -1
vn 0 0 -1
vn 0 0 -1
vn 0 0 -1
vn 0 0 -1
vn 0 0 -1
vn 0 0 -1
vn 0 0 -1
vn 0 0 -1
vn 0 0 -1
vn 0 0 -1
vn 0 0 -1
vn 0 0 -1
vn 0 0 -1
vn 0 0 -1
vn 0 0 -1
vn 0 0 -1
vn 0 0 -1
vn 0 0 -1
vn 0 0 -1
vn 0 0 -1
vn 0 0 -1
g InflatedTriangle-Wall_Collision_0
f 3/3/3 2/2/2 1/1/1
f 2/2/2 4/4/4 1/1/1
f 4/4/4 2/2/2 5/5/5
f 2/2/2 6/6/6 5/5/5
f 5/5/5 6/6/6 7/7/7
f 6/6/6 8/8/8 7/7/7
f 7/7/7 8/8/8 9/9/9
f 8/8/8 10/10/10 9/9/9
f 9/9/9 10/10/10 11/11/11
f 10/10/10 12/12/12 11/11/11
f 11/11/11 12/12/12 13/13/13
f 12/12/12 14/14/14 13/13/13
f 17/17/17 16/16/16 15/15/15
f 16/16/16 18/18/18 15/15/15
f 15/15/15 18/18/18 19/19/19
f 18/18/18 20/20/20 19/19/19
f 19/19/19 20/20/20 21/21/21
f 20/20/20 22/22/22 21/21/21
f 21/21/21 22/22/22 23/23/23
f 22/22/22 24/24/24 23/23/23
f 23/23/23 24/24/24 25/25/25
f 24/24/24 26/26/26 25/25/25
f 25/25/25 26/26/26 27/27/27
f 26/26/26 28/28/28 27/27/27
f 31/31/31 30/30/30 29/29/29
f 30/30/30 32/32/32 29/29/29
f 29/29/29 32/32/32 33/33/33
f 32/32/32 34/34/34 33/33/33
f 33/33/33 34/34/34 35/35/35
f 34/34/34 36/36/36 35/35/35
f 35/35/35 36/36/36 37/37/37
f 36/36/36 38/38/38 37/37/37
f 37/37/37 38/38/38 39/39/39
f 38/38/38 40/40/40 39/39/39
f 39/39/39 40/40/40 41/41/41
f 40/40/40 42/42/42 41/41/41
f 45/45/45 44/44/44 43/43/43
f 44/44/44 46/46/46 43/43/43
f 46/46/46 47/47/47 43/43/43
f 47/47/47 48/48/48 43/43/43
f 47/47/47 49/49/49 48/48/48
f 49/49/49 50/50/50 48/48/48
f 49/49/49 51/51/51 50/50/50
f 51/51/51 52/52/52 50/50/50
f 51/51/51 53/53/53 52/52/52
f 53/53/53 54/54/54 52/52/52
f 53/53/53 55/55/55 54/54/54
f 55/55/55 56/56/56 54/54/54
f 59/59/59 58/58/58 57/57/57
f 58/58/58 60/60/60 57/57/57
f 58/58/58 61/61/61 60/60/60
f 61/61/61 62/62/62 60/60/60
f 61/61/61 63/63/63 62/62/62
f 63/63/63 64/64/64 62/62/62
f 63/63/63 65/65/65 64/64/64
f 65/65/65 66/66/66 64/64/64
f 65/65/65 67/67/67 66/66/66
f 67/67/67 68/68/68 66/66/66
f 67/67/67 69/69/69 68/68/68
f 69/69/69 70/70/70 68/68/68
f 73/73/73 72/72/72 71/71/71
f 72/72/72 74/74/74 71/71/71
f 72/72/72 75/75/75 74/74/74
f 75/75/75 76/76/76 74/74/74
f 75/75/75 77/77/77 76/76/76
f 77/77/77 78/78/78 76/76/76
f 77/77/77 79/79/79 78/78/78
f 79/79/79 80/80/80 78/78/78
f 79/79/79 81/81/81 80/80/80
f 81/81/81 82/82/82 80/80/80
f 81/81/81 83/83/83 82/82/82
f 83/83/83 84/84/84 82/82/82
f 87/87/87 86/86/86 85/85/85
f 88/88/88 87/87/87 85/85/85
f 85/85/85 86/86/86 89/89/89
f 90/90/90 87/87/87 88/88/88
f 86/86/86 91/91/91 89/89/89
f 92/92/92 90/90/90 88/88/88
f 89/89/89 91/91/91 93/93/93
f 94/94/94 90/90/90 92/92/92
f 91/91/91 95/95/95 93/93/93
f 96/96/96 94/94/94 92/92/92
f 93/93/93 95/95/95 97/97/97
f 98/98/98 94/94/94 96/96/96
f 95/95/95 99/99/99 97/97/97
f 100/100/100 98/98/98 96/96/96
f 97/97/97 99/99/99 101/101/101
f 102/102/102 98/98/98 100/100/100
f 99/99/99 103/103/103 101/101/101
f 104/104/104 102/102/102 100/100/100
f 101/101/101 103/103/103 105/105/105
f 106/106/106 102/102/102 104/104/104
f 103/103/103 107/107/107 105/105/105
f 108/108/108 106/106/106 104/104/104
f 105/105/105 107/107/107 109/109/109
f 110/110/110 106/106/106 108/108/108
f 107/107/107 111/111/111 109/109/109
f 112/112/112 110/110/110 108/108/108
f 109/109/109 111/111/111 113/113/113
f 114/114/114 110/110/110 112/112/112
f 111/111/111 115/115/115 113/113/113
f 116/116/116 114/114/114 112/112/112
f 113/113/113 115/115/115 117/117/117
f 118/118/118 114/114/114 116/116/116
f 115/115/115 119/119/119 117/117/117
f 120/120/120 118/118/118 116/116/116
f 117/117/117 119/119/119 120/120/120
f 119/119/119 118/118/118 120/120/120
f 123/123/123 122/122/122 121/121/121
f 124/124/124 123/123/123 121/121/121
f 121/121/121 122/122/122 125/125/125
f 126/126/126 123/123/123 124/124/124
f 122/122/122 127/127/127 125/125/125
f 128/128/128 126/126/126 124/124/124
f 125/125/125 127/127/127 129/129/129
f 130/130/130 126/126/126 128/128/128
f 127/127/127 131/131/131 129/129/129
f 132/132/132 130/130/130 128/128/128
f 129/129/129 131/131/131 133/133/133
f 134/134/134 130/130/130 132/132/132
f 131/131/131 135/135/135 133/133/133
f 136/136/136 134/134/134 132/132/132
f 133/133/133 135/135/135 137/137/137
f 138/138/138 134/134/134 136/136/136
f 135/135/135 139/139/139 137/137/137
f 140/140/140 138/138/138 136/136/136
f 137/137/137 139/139/139 141/141/141
f 142/142/142 138/138/138 140/140/140
f 139/139/139 143/143/143 141/141/141
f 144/144/144 142/142/142 140/140/140
f 141/141/141 143/143/143 145/145/145
f 146/146/146 142/142/142 144/144/144
f 143/143/143 147/147/147 145/145/145
f 148/148/148 146/146/146 144/144/144
f 145/145/145 147/147/147 149/149/149
f 150/150/150 146/146/146 148/148/148
f 147/147/147 151/151/151 149/149/149
f 152/152/152 150/150/150 148/148/148
f 149/149/149 151/151/151 153/153/153
f 154/154/154 150/150/150 152/152/152
f 151/151/151 155/155/155 153/153/153
f 156/156/156 154/154/154 152/152/152
f 153/153/153 155/155/155 156/156/156
f 155/155/155 154/154/154 156/156/156
