g InflatedSquare-Pillar
v 16.70108 -2.490361 5.433938E-07
v 16.72826 2.472983 5.433938E-07
v 17.68676 -6.367896E-09 5.433938E-07
v 13.49398 -9.072845 5.433938E-07
v 9.072845 13.49399 5.433938E-07
v -9.072845 -13.49399 5.433938E-07
v 15.0828 -6.276614 5.433938E-07
v 13.49398 9.072846 5.433938E-07
v 15.0828 6.276614 5.433938E-07
v 11.52689 11.52689 5.433938E-07
v 3.260892 -16.42027 5.433938E-07
v 9.072845 -13.49398 5.433938E-07
v 11.52689 -11.52689 5.433938E-07
v 6.276614 -15.0828 5.433938E-07
v -2.47614 -16.64865 5.433938E-07
v 2.738196E-07 -17.68676 5.433938E-07
v -6.276614 -15.08281 5.433938E-07
v -13.49398 9.072845 5.433938E-07
v -3.260893 16.42027 5.433938E-07
v 2.475096 16.69162 5.433938E-07
v 6.276612 15.08281 5.433938E-07
v -7.683929E-07 17.68676 5.433938E-07
v -9.072845 13.49398 5.433938E-07
v -6.276614 15.0828 5.433938E-07
v -11.52689 11.52689 5.433938E-07
v -16.70658 -2.448191 5.433938E-07
v -16.42027 3.260891 5.433938E-07
v -15.0828 6.276612 5.433938E-07
v -17.68676 -1.515559E-06 5.433938E-07
v -13.49398 -9.072847 5.433938E-07
v -15.0828 -6.276615 5.433938E-07
v -11.52689 -11.52689 5.433938E-07
v 16.72826 2.472983 -0.9002671
v 16.70108 -2.490361 -0.9002671
v 17.68676 -6.367896E-09 -0.9002671
v 13.49398 -9.072845 -0.9002671
v 9.072845 13.49399 -0.9002671
v -9.072845 -13.49399 -0.9002671
v 15.0828 -6.276614 -0.9002671
v 13.49398 9.072846 -0.9002671
v 15.0828 6.276614 -0.9002671
v 11.52689 11.52689 -0.9002671
v 3.260892 -16.42027 -0.9002671
v 9.072845 -13.49398 -0.9002671
v 11.52689 -11.52689 -0.9002671
v 6.276614 -15.0828 -0.9002671
v -2.47614 -16.64865 -0.9002671
v 2.738196E-07 -17.68676 -0.9002671
v -6.276614 -15.08281 -0.9002671
v -13.49398 9.072845 -0.9002671
v -16.70658 -2.448191 -0.9002671
v -13.49398 -9.072847 -0.9002671
v -11.52689 -11.52689 -0.9002671
v -15.0828 -6.276615 -0.9002671
v -16.42027 3.260891 -0.9002671
v -17.68676 -1.515559E-06 -0.9002671
v -15.0828 6.276612 -0.9002671
v -3.260893 16.42027 -0.9002671
v -9.072845 13.49398 -0.9002671
v -11.52689 11.52689 -0.9002671
v -6.276614 15.0828 -0.9002671
v 2.475096 16.69162 -0.9002671
v -7.683929E-07 17.68676 -0.9002671
v 6.276612 15.08281 -0.9002671
v 13.49398 9.072846 -0.9002671
v 11.52689 11.52689 5.433938E-07
v 11.52689 11.52689 -0.9002671
v 13.49398 9.072846 5.433938E-07
v 9.072845 13.49399 5.433938E-07
v 15.0828 6.276614 -0.9002671
v 9.072845 13.49399 -0.9002671
v 15.0828 6.276614 5.433938E-07
v 6.276612 15.08281 5.433938E-07
v 16.72826 2.472983 -0.9002671
v 6.276612 15.08281 -0.9002671
v 16.72826 2.472983 5.433938E-07
v 2.475096 16.69162 5.433938E-07
v 17.68676 -6.367896E-09 -0.9002671
v 2.475096 16.69162 -0.9002671
v 17.68676 -6.367896E-09 5.433938E-07
v -7.683929E-07 17.68676 5.433938E-07
v 16.70108 -2.490361 -0.9002671
v -7.683929E-07 17.68676 -0.9002671
v 16.70108 -2.490361 5.433938E-07
v -3.260893 16.42027 5.433938E-07
v 15.0828 -6.276614 -0.9002671
v -3.260893 16.42027 -0.9002671
v 15.0828 -6.276614 5.433938E-07
v -6.276614 15.0828 5.433938E-07
v 13.49398 -9.072845 -0.9002671
v -6.276614 15.0828 -0.9002671
v 13.49398 -9.072845 5.433938E-07
v -9.072845 13.49398 5.433938E-07
v 11.52689 -11.52689 -0.9002671
v -9.072845 13.49398 -0.9002671
v 11.52689 -11.52689 5.433938E-07
v -11.52689 11.52689 5.433938E-07
v 9.072845 -13.49398 -0.9002671
v -11.52689 11.52689 -0.9002671
v 9.072845 -13.49398 5.433938E-07
v -13.49398 9.072845 5.433938E-07
v 6.276614 -15.0828 -0.9002671
v -13.49398 9.072845 -0.9002671
v 6.276614 -15.0828 5.433938E-07
v -15.0828 6.276612 5.433938E-07
v 3.260892 -16.42027 -0.9002671
v -15.0828 6.276612 -0.9002671
v 3.260892 -16.42027 5.433938E-07
v -16.42027 3.260891 5.433938E-07
v 2.738196E-07 -17.68676 -0.9002671
v -16.42027 3.260891 -0.9002671
v 2.738196E-07 -17.68676 5.433938E-07
v -17.68676 -1.515559E-06 5.433938E-07
v -2.47614 -16.64865 -0.9002671
v -17.68676 -1.515559E-06 -0.9002671
v -2.47614 -16.64865 5.433938E-07
v -16.70658 -2.448191 5.433938E-07
v -6.276614 -15.08281 -0.9002671
v -16.70658 -2.448191 -0.9002671
v -6.276614 -15.08281 5.433938E-07
v -15.0828 -6.276615 5.433938E-07
v -9.072845 -13.49399 -0.9002671
v -15.0828 -6.276615 -0.9002671
v -9.072845 -13.49399 5.433938E-07
v -13.49398 -9.072847 5.433938E-07
v -11.52689 -11.52689 -0.9002671
v -13.49398 -9.072847 -0.9002671
v -11.52689 -11.52689 5.433938E-07
vn 0 0 1
vn 0 0 1
vn 0 0 1
vn 0 0 1
vn 0 0 1
vn 0 0 1
vn 0 0 1
vn 0 0 1
vn 0 0 1
vn 0 0 1
vn 0 0 1
vn 0 0 1
vn 0 0 1
vn 0 0 1
vn 0 0 1
vn 0 0 1
vn 0 0 1
vn 0 0 1
vn 0 0 1
vn 0 0 1
vn 0 0 1
vn 0 0 1
vn 0 0 1
vn 0 0 1
vn 0 0 1
vn 0 0 1
vn 0 0 1
vn 0 0 1
vn 0 0 1
vn 0 0 1
vn 0 0 1
vn 0 0 1
vn 0 0 -1
vn 0 0 -1
vn 0 0 -1
vn 0 0 -1
vn 0 0 -1
vn 0 0 -1
vn 0 0 -1
vn 0 0 -1
vn 0 0 -1
vn 0 0 -1
vn 0 0 -1
vn 0 0 -1
vn 0 0 -1
vn 0 0 -1
vn 0 0 -1
vn 0 0 -1
vn 0 0 -1
vn 0 0 -1
vn 0 0 -1
vn 0 0 -1
vn 0 0 -1
vn 0 0 -1
vn 0 0 -1
vn 0 0 -1
vn 0 0 -1
vn 0 0 -1
vn 0 0 -1
vn 0 0 -1
vn 0 0 -1
vn 0 0 -1
vn 0 0 -1
vn 0 0 -1
vn 0.8274724 0.5615063 0
vn 0.7071066 0.7071068 0
vn 0.7071067 0.7071068 0
vn 0.8274724 0.5615063 0
vn 0.5615065 0.8274724 0
vn 0.8949399 0.4461867 0
vn 0.5615065 0.8274724 0
vn 0.89494 0.4461867 0
vn 0.4426292 0.8967048 0
vn 0.9252786 0.3792883 0
vn 0.4426292 0.8967047 0
vn 0.9252786 0.3792883 0
vn 0.3814045 0.9244083 0
vn 0.9999937 -0.003557375 0
vn 0.3814045 0.9244083 0
vn 0.9999937 -0.003557364 0
vn 0.005912489 0.9999826 0
vn 0.9247593 -0.3805525 0
vn 0.005912439 0.9999826 0
vn 0.9247593 -0.3805526 0
vn -0.3838342 0.9234021 0
vn 0.8959151 -0.4442253 0
vn -0.3838342 0.9234021 0
vn 0.8959151 -0.4442254 0
vn -0.4502726 0.892891 0
vn 0.8274724 -0.5615063 0
vn -0.4502726 0.892891 0
vn 0.8274724 -0.5615063 0
vn -0.5615063 0.8274724 0
vn 0.7071067 -0.7071068 0
vn -0.5615063 0.8274724 0
vn 0.7071068 -0.7071068 0
vn -0.7071068 0.7071066 0
vn 0.5615063 -0.8274724 0
vn -0.7071068 0.7071066 0
vn 0.5615063 -0.8274724 0
vn -0.8274726 0.5615063 0
vn 0.4502727 -0.8928912 0
vn -0.8274724 0.5615063 0
vn 0.4502726 -0.892891 0
vn -0.892891 0.4502726 0
vn 0.3838341 -0.9234021 0
vn -0.892891 0.4502726 0
vn 0.383834 -0.9234021 0
vn -0.9234021 0.3838341 0
vn -0.01326477 -0.999912 0
vn -0.9234021 0.3838341 0
vn -0.01326474 -0.999912 0
vn -0.9999865 -0.005184714 0
vn -0.3837955 -0.9234181 0
vn -0.9999866 -0.005184654 0
vn -0.3837955 -0.9234181 0
vn -0.924535 -0.381097 0
vn -0.4383515 -0.8988037 0
vn -0.924535 -0.3810971 0
vn -0.4383515 -0.8988037 0
vn -0.8965298 -0.4429835 0
vn -0.5615063 -0.8274724 0
vn -0.8965298 -0.4429834 0
vn -0.5615063 -0.8274724 0
vn -0.8274724 -0.5615063 0
vn -0.7071068 -0.7071066 0
vn -0.8274724 -0.5615063 0
vn -0.7071068 -0.7071066 0
g InflatedSquare-Pillar_0
f 3/3/3 2/2/2 1/1/1
f 2/2/2 4/4/4 1/1/1
f 5/5/5 4/4/4 2/2/2
f 6/6/6 4/4/4 5/5/5
f 4/4/4 7/7/7 1/1/1
f 8/8/8 5/5/5 2/2/2
f 9/9/9 8/8/8 2/2/2
f 10/10/10 5/5/5 8/8/8
f 11/11/11 4/4/4 6/6/6
f 12/12/12 4/4/4 11/11/11
f 13/13/13 4/4/4 12/12/12
f 14/14/14 12/12/12 11/11/11
f 15/15/15 11/11/11 6/6/6
f 16/16/16 11/11/11 15/15/15
f 17/17/17 15/15/15 6/6/6
f 18/18/18 6/6/6 5/5/5
f 19/19/19 18/18/18 5/5/5
f 20/20/20 19/19/19 5/5/5
f 21/21/21 20/20/20 5/5/5
f 22/22/22 19/19/19 20/20/20
f 23/23/23 18/18/18 19/19/19
f 24/24/24 23/23/23 19/19/19
f 25/25/25 18/18/18 23/23/23
f 26/26/26 6/6/6 18/18/18
f 27/27/27 26/26/26 18/18/18
f 28/28/28 27/27/27 18/18/18
f 29/29/29 26/26/26 27/27/27
f 30/30/30 6/6/6 26/26/26
f 31/31/31 30/30/30 26/26/26
f 32/32/32 6/6/6 30/30/30
f 35/35/35 34/34/34 33/33/33
f 34/34/34 36/36/36 33/33/33
f 36/36/36 37/37/37 33/33/33
f 38/38/38 37/37/37 36/36/36
f 39/39/39 36/36/36 34/34/34
f 37/37/37 40/40/40 33/33/33
f 40/40/40 41/41/41 33/33/33
f 42/42/42 40/40/40 37/37/37
f 43/43/43 38/38/38 36/36/36
f 44/44/44 43/43/43 36/36/36
f 45/45/45 44/44/44 36/36/36
f 46/46/46 43/43/43 44/44/44
f 47/47/47 38/38/38 43/43/43
f 48/48/48 47/47/47 43/43/43
f 49/49/49 38/38/38 47/47/47
f 50/50/50 37/37/37 38/38/38
f 51/51/51 50/50/50 38/38/38
f 52/52/52 51/51/51 38/38/38
f 53/53/53 52/52/52 38/38/38
f 54/54/54 51/51/51 52/52/52
f 55/55/55 50/50/50 51/51/51
f 56/56/56 55/55/55 51/51/51
f 57/57/57 50/50/50 55/55/55
f 58/58/58 37/37/37 50/50/50
f 59/59/59 58/58/58 50/50/50
f 60/60/60 59/59/59 50/50/50
f 61/61/61 58/58/58 59/59/59
f 62/62/62 37/37/37 58/58/58
f 63/63/63 62/62/62 58/58/58
f 64/64/64 37/37/37 62/62/62
f 67/67/67 66/66/66 65/65/65
f 68/68/68 65/65/65 66/66/66
f 66/66/66 67/67/67 69/69/69
f 65/65/65 68/68/68 70/70/70
f 71/71/71 69/69/69 67/67/67
f 72/72/72 70/70/70 68/68/68
f 69/69/69 71/71/71 73/73/73
f 70/70/70 72/72/72 74/74/74
f 75/75/75 73/73/73 71/71/71
f 76/76/76 74/74/74 72/72/72
f 73/73/73 75/75/75 77/77/77
f 74/74/74 76/76/76 78/78/78
f 79/79/79 77/77/77 75/75/75
f 80/80/80 78/78/78 76/76/76
f 77/77/77 79/79/79 81/81/81
f 78/78/78 80/80/80 82/82/82
f 83/83/83 81/81/81 79/79/79
f 84/84/84 82/82/82 80/80/80
f 81/81/81 83/83/83 85/85/85
f 82/82/82 84/84/84 86/86/86
f 87/87/87 85/85/85 83/83/83
f 88/88/88 86/86/86 84/84/84
f 85/85/85 87/87/87 89/89/89
f 86/86/86 88/88/88 90/90/90
f 91/91/91 89/89/89 87/87/87
f 92/92/92 90/90/90 88/88/88
f 89/89/89 91/91/91 93/93/93
f 90/90/90 92/92/92 94/94/94
f 95/95/95 93/93/93 91/91/91
f 96/96/96 94/94/94 92/92/92
f 93/93/93 95/95/95 97/97/97
f 94/94/94 96/96/96 98/98/98
f 99/99/99 97/97/97 95/95/95
f 100/100/100 98/98/98 96/96/96
f 97/97/97 99/99/99 101/101/101
f 98/98/98 100/100/100 102/102/102
f 103/103/103 101/101/101 99/99/99
f 104/104/104 102/102/102 100/100/100
f 101/101/101 103/103/103 105/105/105
f 102/102/102 104/104/104 106/106/106
f 107/107/107 105/105/105 103/103/103
f 108/108/108 106/106/106 104/104/104
f 105/105/105 107/107/107 109/109/109
f 106/106/106 108/108/108 110/110/110
f 111/111/111 109/109/109 107/107/107
f 112/112/112 110/110/110 108/108/108
f 109/109/109 111/111/111 113/113/113
f 110/110/110 112/112/112 114/114/114
f 115/115/115 113/113/113 111/111/111
f 116/116/116 114/114/114 112/112/112
f 113/113/113 115/115/115 117/117/117
f 114/114/114 116/116/116 118/118/118
f 119/119/119 117/117/117 115/115/115
f 120/120/120 118/118/118 116/116/116
f 117/117/117 119/119/119 121/121/121
f 118/118/118 120/120/120 122/122/122
f 123/123/123 121/121/121 119/119/119
f 124/124/124 122/122/122 120/120/120
f 121/121/121 123/123/123 125/125/125
f 122/122/122 124/124/124 126/126/126
f 127/127/127 125/125/125 123/123/123
f 128/128/128 126/126/126 124/124/124
f 125/125/125 127/127/127 128/128/128
f 126/126/126 128/128/128 127/127/127
