g InflatedTriangle-Ground
v 3.659404 15.64236 0
v -3.659406 15.64236 0
v -8.315114E-07 18.24807 0
v -7.116779 12.92001 0
v 7.116777 12.92001 0
v 10.17009 9.964368 0
v -10.17009 9.964368 0
v -12.61731 6.6588 0
v 12.61731 6.658804 0
v -14.2564 2.886665 0
v 14.2564 2.886667 0
v -15.28941 -1.235401 0
v 15.28941 -1.235397 0
v -15.91834 -5.590751 0
v 15.91835 -5.590747 0
v -16.34525 -10.06275 0
v 16.34526 -10.06274 0
v -12.25894 -11.92903 0
v 12.25894 -11.92902 0
v -8.172626 -13.56202 0
v 8.172629 -13.56202 0
v -4.086312 -14.72845 0
v 4.086315 -14.72845 0
v 1.833181E-06 -15.19502 0
v -8.315114E-07 18.24807 0
v -8.315114E-07 18.24807 -0.7931813
v 3.659404 15.64236 -0.7931813
v 3.659404 15.64236 0
v 7.116777 12.92001 -0.7931812
v 7.116777 12.92001 0
v 10.17009 9.964368 -0.7931813
v 10.17009 9.964368 0
v 12.61731 6.658804 -0.7931813
v 12.61731 6.658804 0
v 14.2564 2.886667 -0.7931813
v 14.2564 2.886667 0
v 15.28941 -1.235397 -0.7931813
v 15.28941 -1.235397 0
v 15.91835 -5.590747 -0.7931813
v 15.91835 -5.590747 0
v 16.34526 -10.06274 -0.7931813
v 16.34526 -10.06274 0
v -3.659406 15.64236 0
v -8.315114E-07 18.24807 -0.7931813
v -8.315114E-07 18.24807 0
v -3.659406 15.64236 -0.7931813
v -7.116779 12.92001 0
v -7.116779 12.92001 -0.7931813
v -10.17009 9.964368 0
v -10.17009 9.964368 -0.7931813
v -12.61731 6.6588 0
v -12.61731 6.6588 -0.7931813
v -14.2564 2.886665 0
v -14.2564 2.886665 -0.7931813
v -15.28941 -1.235401 0
v -15.28941 -1.235401 -0.7931812
v -15.91834 -5.590751 0
v -15.91834 -5.590751 -0.7931813
v -16.34525 -10.06275 0
v -16.34525 -10.06275 -0.7931813
v 16.34526 -10.06274 0
v 16.34526 -10.06274 -0.7931813
v 12.25894 -11.92902 -0.7931813
v 12.25894 -11.92902 0
v 8.172629 -13.56202 -0.7931813
v 8.172629 -13.56202 0
v 4.086315 -14.72845 -0.7931813
v 4.086315 -14.72845 0
v 1.833181E-06 -15.19502 -0.7931812
v 1.833181E-06 -15.19502 0
v -4.086312 -14.72845 -0.7931813
v -4.086312 -14.72845 0
v -8.172626 -13.56202 -0.7931813
v -8.172626 -13.56202 0
v -12.25894 -11.92903 -0.7931813
v -12.25894 -11.92903 0
v -16.34525 -10.06275 -0.7931813
v -16.34525 -10.06275 0
vn 0 0 1
vn 0 0 1
vn 0 0 1
vn 0 0 1
vn 0 0 1
vn 0 0 1
vn 0 0 1
vn 0 0 1
vn 0 0 1
vn 0 0 1
vn 0 0 1
vn 0 0 1
vn 0 0 1
vn 0 0 1
vn 0 0 1
vn 0 0 1
vn 0 0 1
vn 0 0 1
vn 0 0 1
vn 0 0 1
vn 0 0 1
vn 0 0 1
vn 0 0 1
vn 0 0 1
vn 0.5800362 0.8145907 0
vn 0.5800362 0.8145907 0
vn 0.5995138 0.8003645 0
vn 0.5995138 0.8003645 0
vn 0.6579394 0.7530709 0
vn 0.6579394 0.7530709 0
vn 0.752156 0.6589851 0
vn 0.752156 0.6589851 0
vn 0.8660254 0.5 0
vn 0.8660254 0.5 0
vn 0.9467757 0.321894 0
vn 0.9467757 0.321894 0
vn 0.9811482 0.1932571 0
vn 0.9811482 0.1932571 0
vn 0.9928929 0.1190119 0
vn 0.9928929 0.1190119 0
vn 0.9954743 0.09503112 0
vn 0.9954743 0.09503112 0
vn -0.5995138 0.8003644 0
vn -0.5800362 0.8145907 0
vn -0.5800362 0.8145907 0
vn -0.5995138 0.8003644 0
vn -0.6579395 0.7530708 0
vn -0.6579395 0.7530708 0
vn -0.7521564 0.6589846 0
vn -0.7521564 0.6589846 0
vn -0.8660255 0.4999997 0
vn -0.8660255 0.4999997 0
vn -0.9467757 0.3218941 0
vn -0.9467757 0.3218941 0
vn -0.9811482 0.1932568 0
vn -0.9811482 0.1932568 0
vn -0.9928929 0.1190119 0
vn -0.9928929 0.1190119 0
vn -0.9954743 0.09503101 0
vn -0.9954743 0.09503101 0
vn 0.4154386 -0.9096212 0
vn 0.4154386 -0.9096212 0
vn 0.3933795 -0.9193762 0
vn 0.3933795 -0.9193762 0
vn 0.323209 -0.9463277 0
vn 0.323209 -0.9463277 0
vn 0.1946197 -0.9808788 0
vn 0.1946197 -0.9808788 0
vn 0 -1 0
vn 0 -1 0
vn -0.1946197 -0.9808788 0
vn -0.1946197 -0.9808788 0
vn -0.3232084 -0.9463277 0
vn -0.3232084 -0.9463277 0
vn -0.3933785 -0.9193766 0
vn -0.3933785 -0.9193766 0
vn -0.4154378 -0.9096215 0
vn -0.4154378 -0.9096215 0
g InflatedTriangle-Ground_0
f 3/3/3 2/2/2 1/1/1
f 2/2/2 4/4/4 1/1/1
f 4/4/4 5/5/5 1/1/1
f 5/5/5 4/4/4 6/6/6
f 4/4/4 7/7/7 6/6/6
f 6/6/6 7/7/7 8/8/8
f 9/9/9 6/6/6 8/8/8
f 9/9/9 8/8/8 10/10/10
f 11/11/11 9/9/9 10/10/10
f 11/11/11 10/10/10 12/12/12
f 13/13/13 11/11/11 12/12/12
f 13/13/13 12/12/12 14/14/14
f 15/15/15 13/13/13 14/14/14
f 15/15/15 14/14/14 16/16/16
f 17/17/17 15/15/15 16/16/16
f 17/17/17 16/16/16 18/18/18
f 19/19/19 17/17/17 18/18/18
f 19/19/19 18/18/18 20/20/20
f 21/21/21 19/19/19 20/20/20
f 21/21/21 20/20/20 22/22/22
f 23/23/23 21/21/21 22/22/22
f 24/24/24 23/23/23 22/22/22
f 27/27/27 26/26/26 25/25/25
f 28/28/28 27/27/27 25/25/25
f 29/29/29 27/27/27 28/28/28
f 30/30/30 29/29/29 28/28/28
f 31/31/31 29/29/29 30/30/30
f 32/32/32 31/31/31 30/30/30
f 33/33/33 31/31/31 32/32/32
f 34/34/34 33/33/33 32/32/32
f 35/35/35 33/33/33 34/34/34
f 36/36/36 35/35/35 34/34/34
f 37/37/37 35/35/35 36/36/36
f 38/38/38 37/37/37 36/36/36
f 39/39/39 37/37/37 38/38/38
f 40/40/40 39/39/39 38/38/38
f 41/41/41 39/39/39 40/40/40
f 42/42/42 41/41/41 40/40/40
f 45/45/45 44/44/44 43/43/43
f 44/44/44 46/46/46 43/43/43
f 43/43/43 46/46/46 47/47/47
f 46/46/46 48/48/48 47/47/47
f 47/47/47 48/48/48 49/49/49
f 48/48/48 50/50/50 49/49/49
f 49/49/49 50/50/50 51/51/51
f 50/50/50 52/52/52 51/51/51
f 51/51/51 52/52/52 53/53/53
f 52/52/52 54/54/54 53/53/53
f 53/53/53 54/54/54 55/55/55
f 54/54/54 56/56/56 55/55/55
f 55/55/55 56/56/56 57/57/57
f 56/56/56 58/58/58 57/57/57
f 57/57/57 58/58/58 59/59/59
f 58/58/58 60/60/60 59/59/59
f 63/63/63 62/62/62 61/61/61
f 64/64/64 63/63/63 61/61/61
f 65/65/65 63/63/63 64/64/64
f 66/66/66 65/65/65 64/64/64
f 67/67/67 65/65/65 66/66/66
f 68/68/68 67/67/67 66/66/66
f 69/69/69 67/67/67 68/68/68
f 70/70/70 69/69/69 68/68/68
f 71/71/71 69/69/69 70/70/70
f 72/72/72 71/71/71 70/70/70
f 73/73/73 71/71/71 72/72/72
f 74/74/74 73/73/73 72/72/72
f 75/75/75 73/73/73 74/74/74
f 76/76/76 75/75/75 74/74/74
f 77/77/77 75/75/75 76/76/76
f 78/78/78 77/77/77 76/76/76
