g InflatedSquare-Sill
v 16.20347 2.260303 2.029963
v 17.07528 -0.02251346 0.2326576
v 17.09252 0.01977064 -0.2267713
v 16.18826 2.241488 2.49029
v 14.57644 6.022009 2.029663
v 14.56013 6.005949 2.490048
v 13.02441 8.754106 2.029381
v 13.0081 8.738015 2.489766
v 11.12477 11.12477 2.029233
v 11.10855 11.10855 2.489617
v 8.754107 13.02441 2.029381
v 8.738016 13.0081 2.489766
v 6.022601 14.57614 2.029673
v 6.006556 14.55983 2.49006
v 2.261713 16.1671 2.029947
v 2.243637 16.15161 2.490291
v 0.01817458 17.09234 -0.2268338
v -0.02427095 17.07536 0.2325984
v 17.09252 0.01977064 -0.2267713
v 17.07528 -0.02251346 0.2326576
v 16.16162 -2.289629 0.235568
v 16.17779 -2.273528 -0.224821
v 14.55999 -6.038314 0.2361231
v 14.57595 -6.022601 -0.2242869
v 13.00821 -8.769941 0.237227
v 13.02397 -8.754404 -0.2231968
v 11.10881 -11.14043 0.2388067
v 11.12421 -11.12503 -0.2216346
v 8.738183 -13.0402 0.2403689
v 8.753719 -13.02444 -0.220055
v 6.005327 -14.5927 0.2414033
v 6.021101 -14.5767 -0.2190035
v 3.027357 -15.91339 0.2419692
v 3.043365 -15.89726 -0.2184245
v -0.03673445 -17.10883 0.243914
v 0.01003543 -17.09169 -0.2153603
v 0.01003543 -17.09169 -0.2153603
v -0.03673445 -17.10883 0.243914
v -2.278867 -16.14039 -2.000689
v -2.26123 -16.12473 -2.461041
v -6.039536 -14.59201 -2.000429
v -6.023509 -14.57569 -2.460816
v -8.770329 -13.04063 -2.000125
v -8.754237 -13.02432 -2.46051
v -11.14099 -11.14099 -1.999977
v -11.12477 -11.12477 -2.46036
v -13.04063 -8.770328 -2.000125
v -13.02432 -8.754236 -2.46051
v -14.59239 -6.038765 -2.000416
v -14.57608 -6.02272 -2.460802
v -16.19794 -2.25191 -2.00071
v -16.18271 -2.233141 -2.461038
v -17.10899 -0.03800078 0.2438637
v -17.09159 0.008365764 -0.2154157
v -17.09159 0.008365764 -0.2154157
v -17.10899 -0.03800078 0.2438637
v -15.91339 3.027356 0.2419692
v -15.89726 3.043364 -0.2184245
v -14.5927 6.005325 0.2414033
v -14.57671 6.0211 -0.2190035
v -13.0402 8.738183 0.2403689
v -13.02444 8.753719 -0.220055
v -11.14043 11.10881 0.2388067
v -11.12503 11.12421 -0.2216346
v -8.769942 13.00821 0.237227
v -8.754406 13.02397 -0.2231968
v -6.037325 14.56048 0.2361755
v -6.02155 14.57648 -0.2242312
v -3.059589 15.88103 0.2355966
v -3.04358 15.89717 -0.2247971
v -0.02427095 17.07536 0.2325984
v 0.01817458 17.09234 -0.2268338
v 2.243637 16.15161 2.490291
v 2.382344 16.49124 2.49796
v 6.170485 14.8883 2.49796
v 6.006556 14.55983 2.49006
v 8.944289 13.31222 2.497959
v 8.738016 13.0081 2.489766
v 11.36879 11.36879 2.497959
v 11.10855 11.10855 2.489617
v 13.31222 8.944288 2.497959
v 13.0081 8.738015 2.489766
v 14.8883 6.170483 2.497959
v 14.56013 6.005949 2.490048
v 16.52787 2.380237 2.49796
v 16.18826 2.241488 2.49029
v -0.02427095 17.07536 0.2325984
v -0.01635984 17.45661 0.238773
v 2.382344 16.49124 2.49796
v 2.243637 16.15161 2.490291
v -3.200568 16.21989 0.2387776
v -0.01635984 17.45661 0.238773
v -0.02427095 17.07536 0.2325984
v -3.059589 15.88103 0.2355966
v -6.037325 14.56048 0.2361755
v -6.202925 14.8883 0.2387777
v -8.769942 13.00821 0.237227
v -8.976734 13.31222 0.2387774
v -11.14043 11.10881 0.2388067
v -11.40124 11.36879 0.2387774
v -13.0402 8.738183 0.2403689
v -13.34467 8.944289 0.2387774
v -14.5927 6.005325 0.2414033
v -14.92074 6.170479 0.2387774
v -15.91339 3.027356 0.2419692
v -16.25234 3.168122 0.2387776
v -17.10899 -0.03800078 0.2438637
v -17.48912 -0.01681896 0.238754
v -16.5386 -2.387983 -2.008322
v -17.48912 -0.01681896 0.238754
v -17.10899 -0.03800078 0.2438637
v -16.19794 -2.25191 -2.00071
v -14.59239 -6.038765 -2.000416
v -16.5386 -2.387983 -2.008322
v -16.19794 -2.25191 -2.00071
v -14.92074 -6.202929 -2.00832
v -13.04063 -8.770328 -2.000125
v -13.34467 -8.976733 -2.00832
v -11.14099 -11.14099 -1.999977
v -11.40124 -11.40124 -2.00832
v -8.770329 -13.04063 -2.000125
v -8.976734 -13.34467 -2.00832
v -6.039536 -14.59201 -2.000429
v -6.202932 -14.92074 -2.00832
v -2.415877 -16.48069 -2.008322
v -2.278867 -16.14039 -2.000689
v -0.03673445 -17.10883 0.243914
v -0.0167879 -17.48912 0.2387553
v -2.415877 -16.48069 -2.008322
v -2.278867 -16.14039 -2.000689
v 3.168124 -16.25234 0.2387776
v -0.0167879 -17.48912 0.2387553
v -0.03673445 -17.10883 0.243914
v 3.027357 -15.91339 0.2419692
v 6.005327 -14.5927 0.2414033
v 6.17048 -14.92074 0.2387774
v 8.738183 -13.0402 0.2403689
v 8.944289 -13.34467 0.2387776
v 11.10881 -11.14043 0.2388067
v 11.36879 -11.40124 0.2387776
v 13.00821 -8.769941 0.237227
v 13.31222 -8.976733 0.2387776
v 14.55999 -6.038314 0.2361231
v 14.8883 -6.202928 0.2387774
v 16.16162 -2.289629 0.235568
v 16.50072 -2.430025 0.2387781
v 17.07528 -0.02251346 0.2326576
v 17.45661 -0.0163035 0.2387749
v 16.52787 2.380237 2.49796
v 17.45661 -0.0163035 0.2387749
v 17.07528 -0.02251346 0.2326576
v 16.18826 2.241488 2.49029
vn -0.9350565 -0.3507749 -0.05124843
vn -0.9463614 -0.3184734 -0.05454279
vn -0.9463614 -0.3184733 -0.05454278
vn -0.928054 -0.3691649 -0.04932627
vn -0.8937376 -0.4460922 -0.04727166
vn -0.8942142 -0.4451381 -0.04725599
vn -0.8262957 -0.5611116 -0.04888011
vn -0.8268113 -0.5603523 -0.04887163
vn -0.7062311 -0.7062311 -0.04975346
vn -0.7062311 -0.7062311 -0.04975346
vn -0.5611164 -0.8262924 -0.0488799
vn -0.5603572 -0.826808 -0.04887143
vn -0.4425513 -0.895501 -0.04718363
vn -0.4415143 -0.8960137 -0.04716582
vn -0.3550152 -0.9334441 -0.05144329
vn -0.3687163 -0.9282306 -0.04935857
vn -0.3310022 -0.9420233 -0.05504196
vn -0.3310022 -0.9420233 -0.05504196
vn -0.9281362 0.3721039 -0.01009586
vn -0.9281362 0.3721039 -0.01009586
vn -0.9237188 0.3827993 -0.01443404
vn -0.9239754 0.3821888 -0.01418582
vn -0.8951129 0.4455593 -0.0158049
vn -0.8965834 0.4425873 -0.01596153
vn -0.8261531 0.5633705 -0.009206139
vn -0.8288484 0.5593936 -0.009442186
vn -0.7047447 0.709461 0.0001655071
vn -0.7094614 0.7047444 -0.0001628073
vn -0.5593859 0.8288535 0.00944065
vn -0.5633624 0.8261587 0.009204911
vn -0.4488561 0.8934673 0.01563533
vn -0.4514749 0.8921492 0.0154959
vn -0.3846221 0.9229796 0.01321152
vn -0.3858068 0.9224811 0.01347885
vn -0.3648981 0.9310061 0.008779265
vn -0.3648981 0.9310061 0.008779264
vn 0.344535 0.9370072 0.05755828
vn 0.344535 0.9370074 0.05755829
vn 0.3592819 0.9317328 0.05282455
vn 0.3676525 0.9286118 0.05011744
vn 0.438298 0.8975952 0.04709312
vn 0.4371592 0.8981515 0.04707302
vn 0.561123 0.8262879 0.04888085
vn 0.5603635 0.8268036 0.04887233
vn 0.7062309 0.7062311 0.04975675
vn 0.7062309 0.7062309 0.04975676
vn 0.8262925 0.5611162 0.04888026
vn 0.8268083 0.5603568 0.04887176
vn 0.8953244 0.4429062 0.04720365
vn 0.8958335 0.4418775 0.04718633
vn 0.933929 0.3535916 0.05243872
vn 0.9284105 0.3681805 0.04997289
vn 0.9429606 0.3280421 0.05669062
vn 0.9429606 0.3280421 0.05669062
vn 0.9310588 -0.364753 0.009209626
vn 0.9310588 -0.364753 0.009209625
vn 0.9230074 -0.3845476 0.01343256
vn 0.9225075 -0.3857363 0.01368721
vn 0.8934674 -0.4488558 0.01563478
vn 0.8921494 -0.4514745 0.01549539
vn 0.8288535 -0.5593859 0.009440672
vn 0.8261586 -0.5633624 0.009204926
vn 0.7094609 -0.7047448 0.0001648781
vn 0.7047445 -0.7094612 -0.0001634676
vn 0.5633624 -0.8261587 -0.009203644
vn 0.5593858 -0.8288536 -0.009439398
vn 0.4514749 -0.8921492 -0.01549423
vn 0.4488562 -0.8934673 -0.01563363
vn 0.3857871 -0.922478 -0.01423301
vn 0.3846013 -0.9229764 -0.01401133
vn 0.3648601 -0.9310049 -0.0103353
vn 0.3648601 -0.9310049 -0.0103353
vn -0.008246063 -0.01956287 0.9997746
vn -0.008246064 -0.01956287 0.9997746
vn -0.009529115 -0.01933648 0.9997676
vn -0.009521872 -0.01933777 0.9997677
vn -0.01245338 -0.0183734 0.9997537
vn -0.01245373 -0.01837325 0.9997537
vn -0.01586875 -0.0158688 0.9997482
vn -0.01586875 -0.0158688 0.9997482
vn -0.01837846 -0.01245725 0.9997535
vn -0.01837831 -0.01245759 0.9997535
vn -0.01931504 -0.009611236 0.9997672
vn -0.01931561 -0.009607725 0.9997672
vn -0.01950888 -0.008406286 0.9997744
vn -0.01950888 -0.008406285 0.9997744
vn -0.6646448 0.1210218 0.737293
vn -0.6646448 0.1210218 0.7372929
vn -0.6646448 0.1210218 0.7372929
vn -0.6646448 0.1210218 0.737293
vn 0.004230673 -0.009599752 0.999945
vn 0.005185903 -0.01203245 0.9999142
vn 0.005185903 -0.01203245 0.9999142
vn 0.004229735 -0.009597363 0.999945
vn 0.003108112 -0.006004209 0.9999772
vn 0.003107957 -0.006003135 0.9999772
vn 0.002219032 -0.003149218 0.9999926
vn 0.00221793 -0.003146635 0.9999926
vn -3.245303E-05 6.018279E-05 1
vn -3.558434E-05 6.328858E-05 1
vn -0.003239899 0.002280229 0.9999921
vn -0.0032422 0.002281191 0.9999921
vn -0.006063916 0.003137184 0.9999768
vn -0.00606486 0.003137312 0.9999768
vn -0.008880395 0.003848892 0.9999532
vn -0.00888178 0.003849353 0.9999532
vn -0.01055155 0.004405592 0.9999347
vn -0.01055155 0.004405591 0.9999347
vn 0.09497358 -0.6766851 0.7301214
vn 0.09497358 -0.6766852 0.7301214
vn 0.09497358 -0.6766851 0.7301214
vn 0.09497358 -0.6766851 0.7301214
vn -0.0193076 -0.009514688 0.9997683
vn -0.0194962 -0.008227984 0.9997761
vn -0.0194962 -0.008227985 0.9997761
vn -0.01930645 -0.009522516 0.9997683
vn -0.01837714 -0.01245588 0.9997535
vn -0.01837688 -0.01245645 0.9997535
vn -0.01586969 -0.01586964 0.9997482
vn -0.01586969 -0.01586964 0.9997482
vn -0.0124506 -0.01836978 0.9997538
vn -0.01245116 -0.01836953 0.9997538
vn -0.009409434 -0.01934822 0.9997686
vn -0.009422864 -0.01934585 0.9997684
vn -0.008033245 -0.01959068 0.9997758
vn -0.008033244 -0.01959068 0.9997758
vn -0.6708292 0.09592591 0.7353818
vn -0.6708293 0.09592593 0.7353818
vn -0.6708293 0.09592591 0.7353818
vn -0.6708292 0.09592591 0.7353818
vn 0.003866579 -0.008914615 0.9999528
vn 0.004440033 -0.0106172 0.9999338
vn 0.004440032 -0.0106172 0.9999338
vn 0.003866086 -0.008913152 0.9999528
vn 0.003137137 -0.006063847 0.9999768
vn 0.003137266 -0.006064794 0.9999768
vn 0.002280079 -0.003239703 0.9999921
vn 0.002281042 -0.003242007 0.9999921
vn 5.995647E-05 -3.222734E-05 1
vn 6.305503E-05 -3.535136E-05 1
vn -0.003178535 0.002240566 0.9999925
vn -0.003175917 0.002239435 0.9999925
vn -0.006113692 0.003093278 0.9999765
vn -0.006106711 0.003092646 0.9999766
vn -0.009630926 0.004296783 0.9999444
vn -0.009629169 0.00429595 0.9999444
vn -0.01194154 0.005391945 0.9999142
vn -0.01194154 0.005391945 0.9999142
vn 0.1199278 -0.6664365 0.7358531
vn 0.1199278 -0.6664365 0.7358531
vn 0.1199278 -0.6664365 0.7358531
vn 0.1199278 -0.6664366 0.7358531
g InflatedSquare-Sill_0
f 3/3/3 2/2/2 1/1/1
f 2/2/2 4/4/4 1/1/1
f 1/1/1 4/4/4 5/5/5
f 4/4/4 6/6/6 5/5/5
f 5/5/5 6/6/6 7/7/7
f 6/6/6 8/8/8 7/7/7
f 7/7/7 8/8/8 9/9/9
f 8/8/8 10/10/10 9/9/9
f 9/9/9 10/10/10 11/11/11
f 10/10/10 12/12/12 11/11/11
f 11/11/11 12/12/12 13/13/13
f 12/12/12 14/14/14 13/13/13
f 13/13/13 14/14/14 15/15/15
f 14/14/14 16/16/16 15/15/15
f 15/15/15 16/16/16 17/17/17
f 16/16/16 18/18/18 17/17/17
f 21/21/21 20/20/20 19/19/19
f 22/22/22 21/21/21 19/19/19
f 23/23/23 21/21/21 22/22/22
f 24/24/24 23/23/23 22/22/22
f 25/25/25 23/23/23 24/24/24
f 26/26/26 25/25/25 24/24/24
f 27/27/27 25/25/25 26/26/26
f 28/28/28 27/27/27 26/26/26
f 29/29/29 27/27/27 28/28/28
f 30/30/30 29/29/29 28/28/28
f 31/31/31 29/29/29 30/30/30
f 32/32/32 31/31/31 30/30/30
f 33/33/33 31/31/31 32/32/32
f 34/34/34 33/33/33 32/32/32
f 35/35/35 33/33/33 34/34/34
f 36/36/36 35/35/35 34/34/34
f 39/39/39 38/38/38 37/37/37
f 40/40/40 39/39/39 37/37/37
f 41/41/41 39/39/39 40/40/40
f 42/42/42 41/41/41 40/40/40
f 43/43/43 41/41/41 42/42/42
f 44/44/44 43/43/43 42/42/42
f 45/45/45 43/43/43 44/44/44
f 46/46/46 45/45/45 44/44/44
f 47/47/47 45/45/45 46/46/46
f 48/48/48 47/47/47 46/46/46
f 49/49/49 47/47/47 48/48/48
f 50/50/50 49/49/49 48/48/48
f 51/51/51 49/49/49 50/50/50
f 52/52/52 51/51/51 50/50/50
f 53/53/53 51/51/51 52/52/52
f 54/54/54 53/53/53 52/52/52
f 57/57/57 56/56/56 55/55/55
f 58/58/58 57/57/57 55/55/55
f 59/59/59 57/57/57 58/58/58
f 60/60/60 59/59/59 58/58/58
f 61/61/61 59/59/59 60/60/60
f 62/62/62 61/61/61 60/60/60
f 63/63/63 61/61/61 62/62/62
f 64/64/64 63/63/63 62/62/62
f 65/65/65 63/63/63 64/64/64
f 66/66/66 65/65/65 64/64/64
f 67/67/67 65/65/65 66/66/66
f 68/68/68 67/67/67 66/66/66
f 69/69/69 67/67/67 68/68/68
f 70/70/70 69/69/69 68/68/68
f 71/71/71 69/69/69 70/70/70
f 72/72/72 71/71/71 70/70/70
f 75/75/75 74/74/74 73/73/73
f 76/76/76 75/75/75 73/73/73
f 77/77/77 75/75/75 76/76/76
f 78/78/78 77/77/77 76/76/76
f 79/79/79 77/77/77 78/78/78
f 80/80/80 79/79/79 78/78/78
f 81/81/81 79/79/79 80/80/80
f 82/82/82 81/81/81 80/80/80
f 83/83/83 81/81/81 82/82/82
f 84/84/84 83/83/83 82/82/82
f 85/85/85 83/83/83 84/84/84
f 86/86/86 85/85/85 84/84/84
f 89/89/89 88/88/88 87/87/87
f 90/90/90 89/89/89 87/87/87
f 93/93/93 92/92/92 91/91/91
f 94/94/94 93/93/93 91/91/91
f 94/94/94 91/91/91 95/95/95
f 91/91/91 96/96/96 95/95/95
f 95/95/95 96/96/96 97/97/97
f 96/96/96 98/98/98 97/97/97
f 97/97/97 98/98/98 99/99/99
f 98/98/98 100/100/100 99/99/99
f 99/99/99 100/100/100 101/101/101
f 100/100/100 102/102/102 101/101/101
f 101/101/101 102/102/102 103/103/103
f 102/102/102 104/104/104 103/103/103
f 103/103/103 104/104/104 105/105/105
f 104/104/104 106/106/106 105/105/105
f 105/105/105 106/106/106 107/107/107
f 106/106/106 108/108/108 107/107/107
f 111/111/111 110/110/110 109/109/109
f 112/112/112 111/111/111 109/109/109
f 115/115/115 114/114/114 113/113/113
f 114/114/114 116/116/116 113/113/113
f 113/113/113 116/116/116 117/117/117
f 116/116/116 118/118/118 117/117/117
f 117/117/117 118/118/118 119/119/119
f 118/118/118 120/120/120 119/119/119
f 119/119/119 120/120/120 121/121/121
f 120/120/120 122/122/122 121/121/121
f 121/121/121 122/122/122 123/123/123
f 122/122/122 124/124/124 123/123/123
f 123/123/123 124/124/124 125/125/125
f 126/126/126 123/123/123 125/125/125
f 129/129/129 128/128/128 127/127/127
f 130/130/130 129/129/129 127/127/127
f 133/133/133 132/132/132 131/131/131
f 134/134/134 133/133/133 131/131/131
f 134/134/134 131/131/131 135/135/135
f 131/131/131 136/136/136 135/135/135
f 135/135/135 136/136/136 137/137/137
f 136/136/136 138/138/138 137/137/137
f 137/137/137 138/138/138 139/139/139
f 138/138/138 140/140/140 139/139/139
f 139/139/139 140/140/140 141/141/141
f 140/140/140 142/142/142 141/141/141
f 141/141/141 142/142/142 143/143/143
f 142/142/142 144/144/144 143/143/143
f 143/143/143 144/144/144 145/145/145
f 144/144/144 146/146/146 145/145/145
f 145/145/145 146/146/146 147/147/147
f 146/146/146 148/148/148 147/147/147
f 151/151/151 150/150/150 149/149/149
f 152/152/152 151/151/151 149/149/149
