g Ramp
v 0 0.5 1
v 0 -0.5 0.9673524
v 0 0.4691943 1
v 0 0.4999998 0
v 0 0.5 0.9665273
v -0.9694391 0.5 0
v 0 0.4999998 0
v -0.9703839 -0.5 0
v 0 -0.5000005 0
v -1 -0.5 0
v -0.9694391 0.5 0
v -1 -0.4617487 0
v -1 0.4691943 0
v -1 0.5 0
v 0 0.4691943 1
v -1 0.5 0
v 0 0.5 1
v -1 0.4691943 0
v -1 -0.4617487 0
v 0 -0.4617487 1
v -1 -0.5 0
v 0 -0.5 1
v 0 -0.5 1
v -0.9703839 -0.5 0
v -1 -0.5 0
v 0 -0.5 0.9673524
v 0 -0.5000005 0
v 0 -0.4617487 1
v 0 -0.5 0.9673524
v 0 -0.5 1
v 0 0.4691943 1
v 0 0.5 1
v 0 -0.5000005 0
v 0 -0.5 0.9673524
v 0 0.5 0.9665273
v 0 0.4999998 0
v -0.9694391 0.5 0
v 0 0.5 1
v -1 0.5 0
v 0 0.5 0.9665273
vt -1.192093E-07 0.9999999
vt 0.9999993 1
vt 0.03080553 0.9999999
vt 5.960464E-08 0.9999999
vt -1.192093E-07 0.9999999
vt -1.192093E-07 0.03056078
vt 5.960464E-08 0.9999999
vt 0.9999994 0.02961609
vt 0.9999998 1
vt 0.9999994 -2.980234E-08
vt -1.192093E-07 0.03056078
vt 0.9617481 -3.147436E-08
vt 0.03080559 -7.216715E-08
vt -1.192093E-07 -7.351371E-08
vt 0.03080553 0.9999999
vt -1.192093E-07 -7.351371E-08
vt -1.192093E-07 0.9999999
vt 0.03080559 -7.216715E-08
vt 0.9617481 -3.147436E-08
vt 0.9617481 1
vt 0.9999994 -2.980234E-08
vt 0.9999993 1
vt 0.9999993 1
vt 0.9999994 0.02961609
vt 0.9999994 -2.980234E-08
vt 0.9999993 1
vt 0.9999998 1
vt 0.9617481 1
vt 0.9999993 1
vt 0.9999993 1
vt 0.03080553 0.9999999
vt -1.192093E-07 0.9999999
vt 0.9999998 1
vt 0.9999993 1
vt -1.192093E-07 0.9999999
vt 5.960464E-08 0.9999999
vt -1.192093E-07 0.03056078
vt -1.192093E-07 0.9999999
vt -1.192093E-07 -7.351371E-08
vt -1.192093E-07 0.9999999
vn 1 0 0
vn 1 0 0
vn 1 0 0
vn 0 1 0
vn 0 1 0
vn 0 1 0
vn 0 0 -1
vn 0 0 -1
vn 0 0 -1
vn 0 0 -1
vn 0 0 -1
vn 0 0 -1
vn 0 0 -1
vn 0 0 -1
vn -0.7071068 0 0.7071068
vn -0.6324555 0.4472136 0.6324555
vn -0.6324565 0.4472108 0.6324565
vn -0.7071068 0 0.7071068
vn -0.7071068 0 0.7071068
vn -0.7071068 0 0.7071068
vn -0.6324556 -0.4472134 0.6324556
vn -0.6324548 -0.4472157 0.6324548
vn -0.6324548 -0.4472157 0.6324548
vn 0 -1 0
vn -0.6324556 -0.4472134 0.6324556
vn 0 -1 0
vn 0 -1 0
vn 1 0 0
vn 1 0 0
vn 1 0 0
vn 1 0 0
vn 1 0 0
vn 1 0 0
vn 1 0 0
vn 1 0 0
vn 1 0 0
vn 0 1 0
vn -0.6324565 0.4472108 0.6324565
vn -0.6324555 0.4472136 0.6324555
vn 0 1 0
g Ramp_0
f 3/3/3 2/2/2 1/1/1
f 6/6/6 5/5/5 4/4/4
f 9/9/9 8/8/8 7/7/7
f 8/8/8 10/10/10 7/7/7
f 10/10/10 11/11/11 7/7/7
f 12/12/12 11/11/11 10/10/10
f 13/13/13 11/11/11 12/12/12
f 14/14/14 11/11/11 13/13/13
f 17/17/17 16/16/16 15/15/15
f 18/18/18 15/15/15 16/16/16
f 18/18/18 19/19/19 15/15/15
f 20/20/20 15/15/15 19/19/19
f 19/19/19 21/21/21 20/20/20
f 22/22/22 20/20/20 21/21/21
f 25/25/25 24/24/24 23/23/23
f 26/26/26 23/23/23 24/24/24
f 27/27/27 26/26/26 24/24/24
f 30/30/30 29/29/29 28/28/28
f 28/28/28 29/29/29 31/31/31
f 34/34/34 33/33/33 32/32/32
f 33/33/33 35/35/35 32/32/32
f 36/36/36 35/35/35 33/33/33
f 39/39/39 38/38/38 37/37/37
f 40/40/40 37/37/37 38/38/38
