g Ramp-Collision
v -1 -0.5 0
v 0 -0.5 1
v 0 -0.5000005 0
v 0 0.4999998 0
v 0 0.5 1
v -1 0.5 0
v 0 0.4999998 0
v -1 0.5 0
v -1 -0.5 0
v 0 -0.5000005 0
v 0 0.5 1
v 0 -0.5 1
v -1 -0.5 0
v -1 0.5 0
v 0 0.5 1
v 0 0.4999998 0
v 0 -0.5000005 0
v 0 -0.5 1
vn 0 -1 0
vn 0 -1 0
vn 0 -1 0
vn 0 1 0
vn 0 1 0
vn 0 1 0
vn 0 0 -1
vn 0 0 -1
vn 0 0 -1
vn 0 0 -1
vn -0.7071068 0 0.7071068
vn -0.7071068 0 0.7071068
vn -0.7071068 0 0.7071068
vn -0.7071068 0 0.7071068
vn 1 0 0
vn 1 0 0
vn 1 0 0
vn 1 0 0
g Ramp-Collision_0
f 3/3/3 2/2/2 1/1/1
f 6/6/6 5/5/5 4/4/4
f 9/9/9 8/8/8 7/7/7
f 10/10/10 9/9/9 7/7/7
f 13/13/13 12/12/12 11/11/11
f 14/14/14 13/13/13 11/11/11
f 17/17/17 16/16/16 15/15/15
f 18/18/18 17/17/17 15/15/15
