g Robe
v -0.2268552 0.09346735 -0.6746665
v -0.3291173 0.101442 -0.6804157
v -0.3280497 0.1006921 -0.671065
v -0.2260545 0.09271747 -0.6655736
v -0.3053114 0.08472002 -0.4718988
v -0.1640249 0.1643985 -0.6655736
v -0.1645586 0.1651483 -0.6746665
v -0.08227932 0.1397993 -0.6649305
v -0.2090008 0.07674536 -0.4718988
v -0.2767294 0.06199166 -0.3008875
v -0.1526557 0.1484264 -0.4718988
v -0.207547 0.08945595 -0.3008875
v -0.2469166 0.03993392 -0.1726289
v -0.08201243 0.1390494 -0.6562741
v -0.1234583 0.07731506 -0.172629
v -0.2038493 0.01694871 -0.06789067
v -0.1383647 0.1169202 -0.3008875
v -0.07632789 0.1230773 -0.4718988
v -0.007493802 0.1791456 -0.6760768
v -0.006767873 0.1798955 -0.6856629
v -0.1019247 0.03578693 -0.06625971
v 2.980232E-08 0.07842827 -0.1726289
v -0.1201394 0.005232841 -0.001617759
v -0.06006968 0.0183266 -0.0016177
v -0.08360963 0.1067013 -0.3008875
v 0 0.05462676 -0.06462875
v -2.980232E-08 0.03142038 -0.0016177
v 0.06006959 0.01832661 -0.0016177
v 0.1019246 0.03578693 -0.06625965
v 0.1201393 0.005232856 -0.0016177
v 0.2038493 0.01694871 -0.06789067
v 0.1234583 0.07441103 -0.172629
v 0.2469167 0.03993393 -0.172629
v -0.02295566 0.118771 -0.3008875
v 0.1383647 0.09933504 -0.3008875
v 0.2767294 0.06199166 -0.3008875
v 0.08080326 0.08141845 -0.3008875
v -0.02295572 0.1631735 -0.4718988
v 0.08267922 0.100541 -0.4718988
v 0.2186585 0.04360779 -0.4718988
v 0.3053114 0.08472002 -0.4718988
v 0.3280497 0.1006921 -0.646798
v 0.07329331 0.1248491 -0.6848717
v 0.07285265 0.1259904 -0.6948707
v 0.1645586 0.1387854 -0.6588455
v 0.1526557 0.1220634 -0.4718988
v 0.1640248 0.1380355 -0.650462
v 0.2357122 0.05957988 -0.6724793
v 0.3291173 0.101442 -0.6550094
v 0.2365129 0.06032977 -0.6818964
v -0.2038493 0.02740017 -0.0678905
v -0.2038493 0.01694871 -0.06789067
v -0.2469166 0.03993392 -0.1726289
v -0.1201394 0.01568425 -0.001617759
v -0.1201394 0.005232841 -0.001617759
v -0.1201394 0.01568425 -0.001617759
v -0.06006968 0.0183266 -0.0016177
v -0.06006968 0.028778 -0.001617759
v -2.980232E-08 0.03142038 -0.0016177
v -0.1019247 0.04645683 -0.06713167
v -0.2038493 0.02740017 -0.0678905
v -2.980232E-08 0.04187177 -0.0016177
v -2.980232E-08 0.06551385 -0.06637272
v 0 0.08887967 -0.172629
v 0.06006962 0.028778 -0.001617759
v 0.06006959 0.01832661 -0.0016177
v -0.1234583 0.08776647 -0.1726291
v 0.1019247 0.0464568 -0.06713173
v 0.1201393 0.01568423 -0.001617759
v 0.1201393 0.005232856 -0.0016177
v 0.2038493 0.01694871 -0.06789067
v 0.2038494 0.02740012 -0.06789067
v 0.2469167 0.03993393 -0.172629
v 0.1234583 0.08486244 -0.172629
v 0.2469167 0.05038533 -0.172629
v 0.2767294 0.06199166 -0.3008875
v 0.2767293 0.07244307 -0.3008875
v 0.3053114 0.08472002 -0.4718988
v 0.1383646 0.1097865 -0.3008875
v 0.3053114 0.09517144 -0.4718987
v 0.3280497 0.1006921 -0.646798
v 0.2186585 0.05405919 -0.4718988
v 0.3280497 0.1111435 -0.646798
v 0.3291173 0.101442 -0.6550094
v 0.08080319 0.09186986 -0.3008875
v 0.3291173 0.1118934 -0.6550094
v 0.2357122 0.07003129 -0.6724793
v 0.2365129 0.07078117 -0.6818964
v 0.2365129 0.06032977 -0.6818964
v 0.1645586 0.1387854 -0.6588455
v 0.1645586 0.1492368 -0.6588455
v 0.1640248 0.1484869 -0.650462
v 0.1526557 0.1325148 -0.4718988
v 0.08267927 0.1109924 -0.4718988
v 0.07285265 0.1364418 -0.6948707
v 0.07285265 0.1259904 -0.6948707
v -0.006767873 0.1798955 -0.6856629
v 0.07329331 0.1353005 -0.6848717
v -0.006767873 0.1903469 -0.6856629
v -0.08227931 0.1502507 -0.6649305
v -0.08227932 0.1397993 -0.6649305
v -0.1645586 0.1651483 -0.6746665
v -0.007493799 0.189597 -0.6760768
v -0.02295566 0.1736249 -0.4718988
v -0.08201241 0.1495008 -0.6562741
v -0.02295569 0.1292225 -0.3008875
v -0.07632784 0.1335287 -0.4718988
v -0.08360965 0.1171527 -0.3008875
v -0.1383647 0.1273716 -0.3008876
v -0.1526557 0.1588778 -0.4718987
v -0.1640248 0.1748499 -0.6655736
v -0.207547 0.09990734 -0.3008876
v -0.1645586 0.1755998 -0.6746665
v -0.2268552 0.1039188 -0.6746665
v -0.2268552 0.09346735 -0.6746665
v -0.3291173 0.101442 -0.6804157
v -0.2260545 0.1031689 -0.6655736
v -0.2469166 0.05038533 -0.172629
v -0.2469166 0.03993392 -0.1726289
v -0.2767294 0.06199166 -0.3008875
v -0.2767294 0.07244307 -0.3008876
v -0.2090008 0.0871968 -0.4718988
v -0.3053114 0.09517144 -0.4718988
v -0.3053114 0.08472002 -0.4718988
v -0.3280497 0.1006921 -0.671065
v -0.3280497 0.1111435 -0.671065
v -0.3291173 0.1118934 -0.6804157
v -0.2767294 0.06199166 -0.3008875
v -0.2767294 0.07244307 -0.3008876
v -0.2469166 0.05038533 -0.172629
v -0.3053114 0.08472002 -0.4718988
vt 0.5728805 0.01800517
vt 0.5140294 0.01800517
vt 0.514793 0.03152759
vt 0.5734532 0.03152759
vt 0.5310569 0.3195481
vt 0.6321133 0.03152759
vt 0.6317315 0.01800517
vt 0.6905825 0.01800517
vt 0.585651 0.3195481
vt 0.5515004 0.5607823
vt 0.6402452 0.3195481
vt 0.6009837 0.5607823
vt 0.5728242 0.7417082
vt 0.6907734 0.03152759
vt 0.6611289 0.7417082
vt 0.6036285 0.8894557
vt 0.650467 0.5607823
vt 0.6948394 0.3195481
vt 0.7494336 0.03152759
vt 0.7494336 0.01800517
vt 0.6765311 0.8917563
vt 0.7494336 0.7417082
vt 0.6635028 0.9829424
vt 0.7064682 0.9829424
vt 0.6999503 0.5607823
vt 0.7494336 0.8940569
vt 0.7494335 0.9829424
vt 0.7923989 0.9829424
vt 0.8223362 0.8917563
vt 0.8353644 0.9829424
vt 0.8952388 0.8894557
vt 0.8377383 0.7417082
vt 0.926043 0.7417082
vt 0.7494336 0.5607823
vt 0.8484002 0.5607823
vt 0.9473668 0.5607824
vt 0.7989169 0.5607823
vt 0.7494336 0.3195481
vt 0.8040278 0.3195481
vt 0.9132162 0.3195481
vt 0.9678104 0.3195481
vt 0.9840741 0.03152759
vt 0.8080937 0.03152759
vt 0.8082846 0.01800517
vt 0.8671356 0.01800517
vt 0.858622 0.3195481
vt 0.8667539 0.03152759
vt 0.925414 0.03152759
vt 0.9848377 0.01800517
vt 0.9259866 0.01800517
vt 0.1009707 0.8894557
vt 0.1009707 0.8894557
vt 0.07016647 0.7417082
vt 0.1608451 0.9829424
vt 0.1608451 0.9829424
vt 0.1608451 0.9829424
vt 0.2038105 0.9829424
vt 0.2038105 0.9829424
vt 0.2467758 0.9829424
vt 0.1738733 0.8905263
vt 0.1009707 0.8894557
vt 0.2467758 0.9829424
vt 0.2467759 0.8915968
vt 0.2467759 0.7417082
vt 0.2897412 0.9829424
vt 0.2897412 0.9829424
vt 0.1584712 0.7417082
vt 0.3196784 0.8905262
vt 0.3327066 0.9829424
vt 0.3327066 0.9829424
vt 0.392581 0.8894557
vt 0.392581 0.8894557
vt 0.4233853 0.7417082
vt 0.3350806 0.7417082
vt 0.4233853 0.7417082
vt 0.4447091 0.5607824
vt 0.444709 0.5607824
vt 0.4651526 0.3195481
vt 0.3457424 0.5607823
vt 0.4651526 0.319548
vt 0.4814164 0.03152759
vt 0.4105584 0.319548
vt 0.4814164 0.03152759
vt 0.48218 0.01800517
vt 0.2962591 0.5607823
vt 0.48218 0.01800517
vt 0.4227563 0.03152759
vt 0.423329 0.01800517
vt 0.423329 0.01800517
vt 0.3644779 0.01800517
vt 0.3644779 0.01800517
vt 0.3640961 0.03152759
vt 0.3559642 0.319548
vt 0.3013701 0.319548
vt 0.3056269 0.01800517
vt 0.3056269 0.01800517
vt 0.2467759 0.01800517
vt 0.305436 0.03152759
vt 0.2467759 0.01800517
vt 0.1879248 0.01800517
vt 0.1879248 0.01800517
vt 0.1290738 0.01800517
vt 0.2467759 0.03152759
vt 0.2467759 0.319548
vt 0.1881157 0.03152759
vt 0.2467759 0.5607823
vt 0.1921817 0.319548
vt 0.1972925 0.5607823
vt 0.1478092 0.5607823
vt 0.1375875 0.319548
vt 0.1294556 0.03152759
vt 0.09832593 0.5607823
vt 0.1290738 0.01800517
vt 0.07022275 0.01800517
vt 0.07022275 0.01800517
vt 0.01137171 0.01800517
vt 0.07079543 0.03152759
vt 0.07016647 0.7417082
vt 0.07016647 0.7417082
vt 0.04884263 0.5607823
vt 0.04884262 0.5607823
vt 0.08299328 0.319548
vt 0.0283991 0.319548
vt 0.0283991 0.3195481
vt 0.01213529 0.03152759
vt 0.01213529 0.03152759
vt 0.01137171 0.01800517
vt 0.04884263 0.5607823
vt 0.04884262 0.5607823
vt 0.07016647 0.7417082
vt 0.0283991 0.3195481
vn 0.2938012 -0.7052487 -0.6452171
vn -0.61978 -0.5214774 -0.5864589
vn -0.7319288 -0.6808245 0.02753525
vn 0.3830574 -0.9180771 -0.1019875
vn -0.7127605 -0.6986769 0.06183018
vn 0.2785219 -0.9546424 -0.1052778
vn 0.1896754 -0.4472871 -0.8740466
vn 0.04654782 -0.7878962 -0.6140464
vn 0.3881311 -0.9182205 -0.07890149
vn -0.6313746 -0.7732236 0.05908906
vn 0.2396494 -0.9647999 -0.1083022
vn 0.3582833 -0.9186871 -0.1662744
vn -0.61981 -0.7844272 0.02257376
vn 0.1097978 -0.9915797 -0.06865995
vn 0.1466906 -0.9444366 -0.2941452
vn -0.562156 -0.7741702 0.2909316
vn 0.1316041 -0.9706439 -0.2013226
vn 0.1087314 -0.9879413 -0.1102238
vn -0.0368977 -0.9955799 -0.08636684
vn -0.2291506 -0.4818953 -0.8457346
vn 0.1678794 -0.9231468 -0.3458562
vn -0.03599461 -0.9703068 -0.239184
vn -0.1708439 -0.7950944 0.5819255
vn 0.1626496 -0.8087869 0.5651628
vn 0.02887484 -0.9756968 -0.2172143
vn -0.003204377 -0.945458 -0.3257286
vn 0 -0.781245 0.6242246
vn -0.1626496 -0.8087864 0.5651633
vn -0.1687897 -0.9252739 -0.3396738
vn 0.1708446 -0.7950928 0.5819274
vn 0.5630214 -0.7714507 0.2964302
vn -0.1295944 -0.9649346 -0.2282681
vn 0.6312225 -0.7737951 0.0529063
vn -0.02721529 -0.9719249 -0.2337121
vn -0.0345419 -0.9939415 -0.1043416
vn 0.6539711 -0.7446055 0.1337326
vn -0.03465773 -0.9882406 -0.1489277
vn 0.005183304 -0.9916061 -0.129192
vn -0.1089876 -0.986257 -0.124172
vn -0.2101472 -0.9758947 -0.05888559
vn 0.8451782 -0.5303695 0.06619638
vn 0.8392812 -0.540687 0.05713632
vn -0.1893496 -0.9766591 -0.1014092
vn -0.07438351 -0.687318 -0.7225381
vn -0.2061279 -0.5634786 -0.800002
vn -0.2940384 -0.9461349 -0.1355367
vn -0.3151906 -0.9411671 -0.1218997
vn -0.2087432 -0.9738131 -0.09007958
vn 0.7810879 -0.4117675 -0.4694137
vn -0.1123198 -0.7240729 -0.6805165
vn -0.6488059 0.4990609 0.5744468
vn -0.562156 -0.7741702 0.2909316
vn -0.61981 -0.7844272 0.02257376
vn -0.308639 0.4549229 0.8353365
vn -0.1708439 -0.7950944 0.5819255
vn -0.308639 0.4549229 0.8353365
vn 0.1626496 -0.8087869 0.5651628
vn -0.1111589 0.5549396 0.8244305
vn 0 -0.781245 0.6242246
vn -0.1675633 0.9234408 0.345224
vn -0.6488059 0.4990609 0.5744468
vn 0 0.6156921 0.7879867
vn 0.003232816 0.9458131 0.3246954
vn 0.03600673 0.9702312 0.2394894
vn 0.1111591 0.5549402 0.82443
vn -0.1626496 -0.8087864 0.5651633
vn -0.1465383 0.9443823 0.2943953
vn 0.1684726 0.9255808 0.3389942
vn 0.3086382 0.4549257 0.8353354
vn 0.1708446 -0.7950928 0.5819274
vn 0.5630214 -0.7714507 0.2964302
vn 0.6475163 0.5041384 0.5714607
vn 0.6312225 -0.7737951 0.0529063
vn 0.1294639 0.9649014 0.2284828
vn 0.7470041 0.5666338 0.3477224
vn 0.6539711 -0.7446055 0.1337326
vn 0.7487931 0.6463739 0.1466613
vn 0.8451782 -0.5303695 0.06619638
vn 0.03454169 0.9939415 0.1043417
vn 0.523903 0.8344052 0.1711536
vn 0.8392812 -0.540687 0.05713632
vn 0.2101471 0.9758947 0.05888572
vn 0.5283393 0.8358495 0.1490407
vn 0.7810879 -0.4117675 -0.4694137
vn 0.03465783 0.9882405 0.1489278
vn 0.5306568 0.7351856 -0.4217885
vn 0.2087432 0.9738132 0.09007914
vn 0.05653445 0.4819052 -0.8743976
vn -0.1123198 -0.7240729 -0.6805165
vn -0.2061279 -0.5634786 -0.800002
vn 0.350048 0.8145935 -0.4624974
vn 0.3151908 0.9411669 0.1218995
vn 0.2940386 0.9461348 0.1355368
vn 0.1089875 0.9862571 0.124172
vn 0.2403925 0.5583391 -0.7940207
vn -0.07438351 -0.687318 -0.7225381
vn -0.2291506 -0.4818953 -0.8457346
vn 0.1893496 0.9766591 0.101409
vn -0.005243522 0.8074571 -0.5899029
vn -0.1336704 0.6673797 -0.732623
vn 0.04654782 -0.7878962 -0.6140464
vn 0.1896754 -0.4472871 -0.8740466
vn 0.03689777 0.9955799 0.08636671
vn -0.005183126 0.9916061 0.129192
vn -0.1097977 0.9915797 0.06865978
vn 0.02721515 0.9719248 0.2337124
vn -0.1087315 0.9879413 0.1102239
vn -0.02887506 0.9756967 0.2172144
vn -0.1316042 0.9706439 0.2013227
vn -0.2396493 0.9647999 0.1083023
vn -0.2785216 0.9546425 0.1052776
vn -0.3582831 0.9186871 0.1662744
vn -0.2085978 0.7864076 -0.5814208
vn -0.2024514 0.5748835 -0.792794
vn 0.2938012 -0.7052487 -0.6452171
vn -0.61978 -0.5214774 -0.5864589
vn -0.3830573 0.9180771 0.1019876
vn -0.757396 0.5424536 0.3634492
vn -0.61981 -0.7844272 0.02257376
vn -0.6313746 -0.7732236 0.05908906
vn -0.7695554 0.6044716 0.2059089
vn -0.388131 0.9182205 0.07890154
vn -0.7033224 0.6975166 0.1371434
vn -0.7127605 -0.6986769 0.06183018
vn -0.7319288 -0.6808245 0.02753525
vn -0.6719381 0.7278979 0.1366156
vn -0.5740086 0.6152715 -0.5403287
vn -0.6313746 -0.7732236 0.05908906
vn -0.7695554 0.6044716 0.2059089
vn -0.757396 0.5424536 0.3634492
vn -0.7127605 -0.6986769 0.06183018
g Robe_0
f 3/3/3 2/2/2 1/1/1
f 1/1/1 4/4/4 3/3/3
f 5/5/5 3/3/3 4/4/4
f 6/6/6 4/4/4 1/1/1
f 1/1/1 7/7/7 6/6/6
f 8/8/8 6/6/6 7/7/7
f 4/4/4 9/9/9 5/5/5
f 5/5/5 9/9/9 10/10/10
f 4/4/4 6/6/6 11/11/11
f 4/4/4 11/11/11 9/9/9
f 12/12/12 10/10/10 9/9/9
f 9/9/9 11/11/11 12/12/12
f 10/10/10 12/12/12 13/13/13
f 8/8/8 14/14/14 6/6/6
f 11/11/11 6/6/6 14/14/14
f 15/15/15 13/13/13 12/12/12
f 13/13/13 15/15/15 16/16/16
f 17/17/17 12/12/12 11/11/11
f 12/12/12 17/17/17 15/15/15
f 11/11/11 18/18/18 17/17/17
f 14/14/14 18/18/18 11/11/11
f 14/14/14 8/8/8 19/19/19
f 8/8/8 20/20/20 19/19/19
f 16/16/16 15/15/15 21/21/21
f 15/15/15 22/22/22 21/21/21
f 16/16/16 21/21/21 23/23/23
f 24/24/24 23/23/23 21/21/21
f 17/17/17 25/25/25 15/15/15
f 25/25/25 17/17/17 18/18/18
f 15/15/15 25/25/25 22/22/22
f 24/24/24 21/21/21 26/26/26
f 21/21/21 22/22/22 26/26/26
f 26/26/26 27/27/27 24/24/24
f 26/26/26 28/28/28 27/27/27
f 26/26/26 29/29/29 28/28/28
f 22/22/22 29/29/29 26/26/26
f 29/29/29 30/30/30 28/28/28
f 29/29/29 31/31/31 30/30/30
f 32/32/32 31/31/31 29/29/29
f 22/22/22 32/32/32 29/29/29
f 32/32/32 33/33/33 31/31/31
f 34/34/34 25/25/25 18/18/18
f 25/25/25 34/34/34 22/22/22
f 35/35/35 33/33/33 32/32/32
f 35/35/35 36/36/36 33/33/33
f 22/22/22 37/37/37 32/32/32
f 34/34/34 37/37/37 22/22/22
f 37/37/37 35/35/35 32/32/32
f 18/18/18 38/38/38 34/34/34
f 38/38/38 37/37/37 34/34/34
f 14/14/14 38/38/38 18/18/18
f 14/14/14 19/19/19 38/38/38
f 38/38/38 39/39/39 37/37/37
f 39/39/39 38/38/38 19/19/19
f 39/39/39 35/35/35 37/37/37
f 35/35/35 40/40/40 36/36/36
f 36/36/36 40/40/40 41/41/41
f 42/42/42 41/41/41 40/40/40
f 19/19/19 43/43/43 39/39/39
f 19/19/19 20/20/20 43/43/43
f 20/20/20 44/44/44 43/43/43
f 45/45/45 43/43/43 44/44/44
f 39/39/39 46/46/46 35/35/35
f 46/46/46 40/40/40 35/35/35
f 43/43/43 47/47/47 39/39/39
f 47/47/47 46/46/46 39/39/39
f 45/45/45 47/47/47 43/43/43
f 40/40/40 46/46/46 47/47/47
f 40/40/40 48/48/48 42/42/42
f 47/47/47 48/48/48 40/40/40
f 47/47/47 45/45/45 48/48/48
f 49/49/49 42/42/42 48/48/48
f 45/45/45 50/50/50 48/48/48
f 49/49/49 48/48/48 50/50/50
f 53/53/53 52/52/52 51/51/51
f 51/51/51 52/52/52 54/54/54
f 55/55/55 54/54/54 52/52/52
f 57/57/57 56/56/56 55/55/55
f 57/57/57 58/58/58 56/56/56
f 59/59/59 58/58/58 57/57/57
f 60/60/60 56/56/56 58/58/58
f 60/60/60 61/61/61 56/56/56
f 59/59/59 62/62/62 58/58/58
f 63/63/63 58/58/58 62/62/62
f 63/63/63 60/60/60 58/58/58
f 64/64/64 60/60/60 63/63/63
f 62/62/62 59/59/59 65/65/65
f 65/65/65 63/63/63 62/62/62
f 59/59/59 66/66/66 65/65/65
f 67/67/67 61/61/61 60/60/60
f 64/64/64 67/67/67 60/60/60
f 68/68/68 63/63/63 65/65/65
f 68/68/68 64/64/64 63/63/63
f 65/65/65 66/66/66 69/69/69
f 65/65/65 69/69/69 68/68/68
f 66/66/66 70/70/70 69/69/69
f 69/69/69 70/70/70 71/71/71
f 71/71/71 72/72/72 69/69/69
f 72/72/72 68/68/68 69/69/69
f 73/73/73 72/72/72 71/71/71
f 72/72/72 74/74/74 68/68/68
f 74/74/74 64/64/64 68/68/68
f 73/73/73 75/75/75 72/72/72
f 75/75/75 74/74/74 72/72/72
f 76/76/76 75/75/75 73/73/73
f 76/76/76 77/77/77 75/75/75
f 78/78/78 77/77/77 76/76/76
f 75/75/75 79/79/79 74/74/74
f 77/77/77 79/79/79 75/75/75
f 78/78/78 80/80/80 77/77/77
f 81/81/81 80/80/80 78/78/78
f 80/80/80 82/82/82 77/77/77
f 77/77/77 82/82/82 79/79/79
f 81/81/81 83/83/83 80/80/80
f 82/82/82 80/80/80 83/83/83
f 81/81/81 84/84/84 83/83/83
f 74/74/74 85/85/85 64/64/64
f 79/79/79 85/85/85 74/74/74
f 84/84/84 86/86/86 83/83/83
f 83/83/83 86/86/86 87/87/87
f 83/83/83 87/87/87 82/82/82
f 88/88/88 86/86/86 84/84/84
f 86/86/86 88/88/88 87/87/87
f 84/84/84 89/89/89 88/88/88
f 90/90/90 88/88/88 89/89/89
f 91/91/91 87/87/87 88/88/88
f 88/88/88 90/90/90 91/91/91
f 82/82/82 87/87/87 92/92/92
f 91/91/91 92/92/92 87/87/87
f 82/82/82 93/93/93 79/79/79
f 92/92/92 93/93/93 82/82/82
f 93/93/93 94/94/94 79/79/79
f 94/94/94 93/93/93 92/92/92
f 85/85/85 79/79/79 94/94/94
f 95/95/95 91/91/91 90/90/90
f 96/96/96 95/95/95 90/90/90
f 95/95/95 96/96/96 97/97/97
f 92/92/92 91/91/91 98/98/98
f 91/91/91 95/95/95 98/98/98
f 94/94/94 92/92/92 98/98/98
f 97/97/97 99/99/99 95/95/95
f 98/98/98 95/95/95 99/99/99
f 100/100/100 99/99/99 97/97/97
f 97/97/97 101/101/101 100/100/100
f 100/100/100 101/101/101 102/102/102
f 99/99/99 103/103/103 98/98/98
f 94/94/94 98/98/98 103/103/103
f 100/100/100 103/103/103 99/99/99
f 94/94/94 104/104/104 85/85/85
f 103/103/103 104/104/104 94/94/94
f 100/100/100 105/105/105 103/103/103
f 104/104/104 103/103/103 105/105/105
f 85/85/85 104/104/104 106/106/106
f 85/85/85 106/106/106 64/64/64
f 106/106/106 104/104/104 107/107/107
f 105/105/105 107/107/107 104/104/104
f 106/106/106 108/108/108 64/64/64
f 107/107/107 108/108/108 106/106/106
f 64/64/64 108/108/108 67/67/67
f 107/107/107 109/109/109 108/108/108
f 108/108/108 109/109/109 67/67/67
f 105/105/105 110/110/110 107/107/107
f 107/107/107 110/110/110 109/109/109
f 105/105/105 100/100/100 111/111/111
f 105/105/105 111/111/111 110/110/110
f 67/67/67 109/109/109 112/112/112
f 110/110/110 112/112/112 109/109/109
f 100/100/100 113/113/113 111/111/111
f 111/111/111 113/113/113 114/114/114
f 100/100/100 102/102/102 113/113/113
f 114/114/114 113/113/113 102/102/102
f 115/115/115 114/114/114 102/102/102
f 114/114/114 115/115/115 116/116/116
f 110/110/110 111/111/111 117/117/117
f 114/114/114 117/117/117 111/111/111
f 112/112/112 118/118/118 67/67/67
f 67/67/67 118/118/118 61/61/61
f 61/61/61 118/118/118 119/119/119
f 120/120/120 119/119/119 118/118/118
f 118/118/118 112/112/112 121/121/121
f 110/110/110 122/122/122 112/112/112
f 122/122/122 121/121/121 112/112/112
f 117/117/117 122/122/122 110/110/110
f 122/122/122 123/123/123 121/121/121
f 117/117/117 123/123/123 122/122/122
f 121/121/121 123/123/123 124/124/124
f 125/125/125 124/124/124 123/123/123
f 117/117/117 126/126/126 123/123/123
f 123/123/123 126/126/126 125/125/125
f 117/117/117 114/114/114 126/126/126
f 116/116/116 125/125/125 126/126/126
f 116/116/116 127/127/127 114/114/114
f 126/126/126 127/127/127 116/116/116
f 114/114/114 127/127/127 126/126/126
f 130/130/130 129/129/129 128/128/128
f 131/131/131 128/128/128 129/129/129
