g RockHaricut
v -0.03151903 -0.1913014 0.39728
v -0.03157063 -0.1038117 0.4544737
v -0.03662873 -0.30997 0.5169705
v -0.0367306 -0.1578873 0.61561
v -0.03746309 -0.3293472 0.5365146
v 0.03570914 -0.3293472 0.5365146
v -0.03757316 -0.1667173 0.6419216
v -0.03699884 -0.01882877 0.6378607
v -0.03170679 -0.01408063 0.4683105
v -0.03153107 0.09548479 0.4419425
v -0.03786297 -0.01960408 0.6655463
v 0.03600783 -0.01960408 0.6655463
v -0.03665211 0.1746198 0.5995771
v -0.02837186 0.1814878 0.368983
v -0.03748831 0.1875417 0.625317
v 0.03572837 0.1875417 0.625317
v -0.03747799 0.3523473 0.4649613
v -0.03619979 0.3283641 0.4514891
v -0.0316099 0.2187711 0.2989964
v -0.03680683 0.3901912 0.2971929
v -0.03765543 0.418182 0.2968984
v 0.03585356 0.418182 0.2968983
v 0.03522099 0.3901911 0.2971928
v 0.03134702 0.2187711 0.2989963
v -0.03747799 0.3523473 0.4649613
v -0.03765543 0.418182 0.2968984
v 0.03585356 0.418182 0.2968983
v 0.03572153 0.3523473 0.4649613
v 0.03522099 0.3901911 0.2971928
v 0.03572837 0.1875417 0.625317
v -0.03748831 0.1875417 0.625317
v 0.03509882 0.3286637 0.4509204
v 0.03134702 0.2187711 0.2989963
v 0.03128528 0.183622 0.3649316
v 0.03510518 0.1746199 0.5995771
v 0.03128869 0.09548479 0.4419425
v 0.03600783 -0.01960408 0.6655463
v 0.03536379 -0.01882877 0.6378607
v 0.03141966 -0.01408063 0.4683105
v 0.03131797 -0.1038117 0.4544737
v 0.0351631 -0.1578873 0.61561
v 0.03579097 -0.1667173 0.6419216
v -0.03757316 -0.1667173 0.6419216
v -0.03746309 -0.3293472 0.5365146
v 0.03570914 -0.3293472 0.5365146
v 0.03508739 -0.30997 0.5169705
v 0.03127972 -0.1913014 0.39728
v -0.03662873 -0.30997 0.5169705
v -0.03151903 -0.1913014 0.39728
v 0.1867103 -0.2657939 0.2432848
v 0.04837191 -0.2657939 0.2406923
v 0.03096039 -0.2657939 0.2323367
v 0.2117304 -0.2657939 0.2323367
v 0.2164105 -0.2657939 0.2032116
v 0.2241524 -0.2657939 0.2091907
v 0.2241524 -0.2657939 0.2263575
v 0.2463183 -0.007096487 0.190611
v 0.2463183 0.0009184116 0.2016109
v 0.02269761 -0.2657939 0.1953986
v 0.1906406 -0.2657939 0.1358243
v 0.02687327 -0.2657939 0.1669896
v 0.1700954 -0.2657939 0.1246835
v 0.03731864 -0.2657939 0.1431505
v 0.12791 -0.2657939 0.1216673
v 0.05528221 -0.2657939 0.1306386
v -5.323063E-05 -0.2657939 0.2035866
v -5.323063E-05 -0.2657939 0.2323367
v -0.03106685 -0.2657939 0.2323367
v -0.02280407 -0.2657939 0.1953986
v 0.2463183 0.02164396 0.1665485
v 0.2561632 0.02164396 0.1665485
v 0.2463183 0.03150053 0.1755266
v 0.2561632 0.03150053 0.1755266
v 0.2463183 0.04223318 0.1260946
v 0.2463183 0.03661871 0.122756
v 0.2561632 0.03661871 0.122756
v 0.2561632 0.04223318 0.1260946
v 0.2561556 0.0006057823 0.2018387
v 0.2463183 0.0009184116 0.2016109
v 0.2241524 -0.2657939 0.2263575
v 0.256149 -0.007529246 0.1909157
v 0.2463183 -0.007096487 0.190611
v 0.2241524 -0.2657939 0.2091907
v 0.2297256 -0.2739095 0.2263671
v 0.229748 -0.2738941 0.2091907
v 0.2164105 -0.2756389 0.2032116
v 0.2164105 -0.2657939 0.2032116
v 0.1906406 -0.2657939 0.1358243
v 0.2117304 -0.2756389 0.2323367
v 0.2117304 -0.2657939 0.2323367
v 0.03096039 -0.2756389 0.2323367
v 0.1867103 -0.2756389 0.2432848
v 0.1867103 -0.2657939 0.2432848
v 0.04837191 -0.2756389 0.2406923
v 0.04837191 -0.2657939 0.2406923
v 0.03096039 -0.2657939 0.2323367
v 0.1906406 -0.2756389 0.1358243
v 0.1700954 -0.2657939 0.1246835
v 0.02269761 -0.2756389 0.1953986
v -5.323063E-05 -0.2756389 0.2323367
v -5.323063E-05 -0.2657939 0.2323367
v -0.03106685 -0.2756389 0.2323367
v -0.03106685 -0.2657939 0.2323367
v -5.323063E-05 -0.2756389 0.2035866
v 0.1700954 -0.2756389 0.1246835
v 0.12791 -0.2657939 0.1216673
v -0.04847837 -0.2756389 0.2406923
v -0.04847837 -0.2657939 0.2406923
v -0.1868168 -0.2756389 0.2432848
v -0.1868168 -0.2657939 0.2432848
v -0.2118369 -0.2756389 0.2323367
v -0.216517 -0.2756389 0.2032116
v -0.2118369 -0.2657939 0.2323367
v -0.2242589 -0.2657939 0.2263575
v -0.2298321 -0.2739095 0.2263671
v -0.02280407 -0.2756389 0.1953986
v 0.12791 -0.2756389 0.1216673
v 0.05528221 -0.2657939 0.1306386
v 0.05528221 -0.2756389 0.1306386
v 0.03731864 -0.2657939 0.1431505
v 0.03731864 -0.2756389 0.1431505
v 0.02687327 -0.2657939 0.1669896
v 0.02687327 -0.2756389 0.1669896
v 0.02269761 -0.2657939 0.1953986
v -5.323063E-05 -0.2657939 0.2035866
v -0.02280407 -0.2657939 0.1953986
v -0.02697973 -0.2657939 0.1669896
v -0.02697973 -0.2756389 0.1669896
v -0.0374251 -0.2657939 0.1431505
v -0.1907471 -0.2756389 0.1358243
v -0.0374251 -0.2756389 0.1431505
v -0.05538866 -0.2657939 0.1306386
v -0.1702019 -0.2756389 0.1246835
v -0.05538866 -0.2756389 0.1306386
v -0.1280165 -0.2657939 0.1216673
v -0.1280165 -0.2756389 0.1216673
v -0.1702019 -0.2657939 0.1246835
v -0.1907471 -0.2657939 0.1358243
v -0.216517 -0.2657939 0.2032116
v -0.2242589 -0.2657939 0.2091907
v -0.2298545 -0.2738941 0.2091907
v -0.2562554 -0.007529245 0.1909157
v -0.2464247 -0.007096487 0.190611
v -0.2562697 0.02164396 0.1665485
v -0.2562621 0.0006057826 0.2018387
v -0.2464247 0.0009184116 0.2016109
v -0.2562697 0.03150053 0.1755266
v -0.2562697 0.04223318 0.1260946
v -0.2464247 0.03150053 0.1755266
v -0.2464247 0.0009184116 0.2016109
v -0.2464247 0.04223318 0.1260946
v -0.2464247 0.02164396 0.1665485
v -0.2562697 0.03661871 0.122756
v -0.2464247 0.03661871 0.122756
v -0.2464247 -0.007096487 0.190611
v -0.2242589 -0.2657939 0.2263575
v -0.2242589 -0.2657939 0.2091907
v -0.2118369 -0.2657939 0.2323367
v -0.216517 -0.2657939 0.2032116
v -0.1868168 -0.2657939 0.2432848
v -0.04847837 -0.2657939 0.2406923
v -0.1907471 -0.2657939 0.1358243
v -0.02697973 -0.2657939 0.1669896
v -0.1702019 -0.2657939 0.1246835
v -0.0374251 -0.2657939 0.1431505
v -0.1280165 -0.2657939 0.1216673
v -0.05538866 -0.2657939 0.1306386
vt 0.7805645 0.2907145
vt 0.6712963 0.3638878
vt 0.928773 0.4438458
vt 0.7388328 0.5700446
vt 0.9529737 0.4688504
vt 0.9529737 0.4688504
vt 0.7498608 0.6037076
vt 0.5651587 0.5985121
vt 0.5592286 0.3815905
vt 0.4223893 0.3478554
vt 0.566127 0.6339328
vt 0.566127 0.6339328
vt 0.3235554 0.5495323
vt 0.3149778 0.2545115
vt 0.3074169 0.5824638
vt 0.3074169 0.5824638
vt 0.1015866 0.3773056
vt 0.1315399 0.3600692
vt 0.2684137 0.1649711
vt 0.05432244 0.1626637
vt 0.01936385 0.1622869
vt 0.01936385 0.1622868
vt 0.05432245 0.1626635
vt 0.2684137 0.1649709
vt 0.1015866 0.3773056
vt 0.01936385 0.1622869
vt 0.01936385 0.1622868
vt 0.1015866 0.3773056
vt 0.05432245 0.1626635
vt 0.3074169 0.5824638
vt 0.3074169 0.5824638
vt 0.1311658 0.3593417
vt 0.2684137 0.1649709
vt 0.3123123 0.2493282
vt 0.3235554 0.5495323
vt 0.4223893 0.3478554
vt 0.566127 0.6339328
vt 0.5651587 0.598512
vt 0.5592286 0.3815905
vt 0.6712963 0.3638878
vt 0.7388328 0.5700446
vt 0.7498608 0.6037076
vt 0.7498608 0.6037076
vt 0.9529737 0.4688504
vt 0.9529737 0.4688504
vt 0.928773 0.4438458
vt 0.7805645 0.2907145
vt 0.928773 0.4438458
vt 0.7805645 0.2907145
vt 0.6590466 0.9568936
vt 0.4619216 0.9522508
vt 0.4371111 0.9372877
vt 0.694699 0.9372877
vt 0.701368 0.8851303
vt 0.7123997 0.8958377
vt 0.7123997 0.9265803
vt 0.7439849 0.9024354
vt 0.7439849 0.9199823
vt 0.4253371 0.8711387
vt 0.6646472 0.7644526
vt 0.4312871 0.8202637
vt 0.6353713 0.7445017
vt 0.4461713 0.7775725
vt 0.5752593 0.7391001
vt 0.4717685 0.7551659
vt 0.3929183 0.8858019
vt 0.3929183 0.9372877
vt 0.3487254 0.9372877
vt 0.3604996 0.8711387
vt 0.7439849 0.8640522
vt 0.7439849 0.8640522
vt 0.7439849 0.8783735
vt 0.7439849 0.8783735
vt 0.7439849 0.7995218
vt 0.7439849 0.7941965
vt 0.7439849 0.7941965
vt 0.7439849 0.7995218
vt 0.7439849 0.9199823
vt 0.7439849 0.9199823
vt 0.7123997 0.9265803
vt 0.7439849 0.9024354
vt 0.7439849 0.9024354
vt 0.7123997 0.8958377
vt 0.7123997 0.9265803
vt 0.7123997 0.8958377
vt 0.701368 0.8851303
vt 0.701368 0.8851303
vt 0.6646472 0.7644526
vt 0.694699 0.9372877
vt 0.694699 0.9372877
vt 0.4371111 0.9372877
vt 0.6590466 0.9568936
vt 0.6590466 0.9568936
vt 0.4619216 0.9522508
vt 0.4619216 0.9522508
vt 0.4371111 0.9372877
vt 0.6646472 0.7644526
vt 0.6353713 0.7445017
vt 0.4253371 0.8711387
vt 0.3929183 0.9372877
vt 0.3929183 0.9372877
vt 0.3487254 0.9372877
vt 0.3487254 0.9372877
vt 0.3929183 0.8858019
vt 0.6353713 0.7445017
vt 0.5752593 0.7391001
vt 0.3239149 0.9522508
vt 0.3239149 0.9522508
vt 0.1267899 0.9568936
vt 0.1267899 0.9568936
vt 0.09113756 0.9372877
vt 0.08446856 0.8851303
vt 0.09113756 0.9372877
vt 0.07343675 0.9265803
vt 0.07343675 0.9265803
vt 0.3604996 0.8711387
vt 0.5752593 0.7391001
vt 0.4717685 0.7551659
vt 0.4717685 0.7551659
vt 0.4461713 0.7775725
vt 0.4461713 0.7775725
vt 0.4312871 0.8202637
vt 0.4312871 0.8202637
vt 0.4253371 0.8711387
vt 0.3929183 0.8858019
vt 0.3604996 0.8711387
vt 0.3545494 0.8202637
vt 0.3545494 0.8202637
vt 0.3396653 0.7775725
vt 0.1211893 0.7644526
vt 0.3396653 0.7775725
vt 0.3140681 0.7551659
vt 0.1504652 0.7445017
vt 0.3140681 0.7551659
vt 0.2105773 0.7391001
vt 0.2105773 0.7391001
vt 0.1504652 0.7445017
vt 0.1211893 0.7644526
vt 0.08446856 0.8851303
vt 0.07343675 0.8958377
vt 0.07343675 0.8958377
vt 0.04185166 0.9024354
vt 0.04185166 0.9024354
vt 0.04185166 0.8640522
vt 0.04185166 0.9199823
vt 0.04185166 0.9199823
vt 0.04185166 0.8783735
vt 0.04185166 0.7995218
vt 0.04185166 0.8783735
vt 0.04185166 0.9199823
vt 0.04185166 0.7995218
vt 0.04185166 0.8640522
vt 0.04185166 0.7941965
vt 0.04185166 0.7941965
vt 0.04185166 0.9024354
vt 0.07343675 0.9265803
vt 0.07343675 0.8958377
vt 0.09113756 0.9372877
vt 0.08446856 0.8851303
vt 0.1267899 0.9568936
vt 0.3239149 0.9522508
vt 0.1211893 0.7644526
vt 0.3545494 0.8202637
vt 0.1504652 0.7445017
vt 0.3396653 0.7775725
vt 0.2105773 0.7391001
vt 0.3140681 0.7551659
vn -0.7392607 -0.4621343 -0.4898219
vn -0.9995395 0.009984967 -0.02865701
vn -0.7043433 -0.4888005 -0.5147567
vn -0.9995394 0.009780567 -0.0287282
vn -0.5759558 -0.8131981 0.08356909
vn 0.5737576 -0.8146273 0.08476143
vn -0.6732248 -0.2662147 0.6898538
vn -0.9995217 -0.0007107515 -0.03091695
vn -0.9995229 -0.00100731 -0.03086793
vn -0.9993675 -0.01170285 -0.03358049
vn -0.6805155 0.01195476 0.7326362
vn 0.6778099 0.01199022 0.7351395
vn -0.9994112 -0.01389672 -0.03136998
vn -0.9993852 -0.02856264 -0.02032753
vn -0.6585059 0.3487804 0.666875
vn 0.6549054 0.3505082 0.6695095
vn -0.6748759 0.6143534 0.4087941
vn -0.9993223 -0.03118043 -0.01956598
vn -0.790071 -0.03859062 -0.6117994
vn -0.7035484 -0.03474602 -0.7097974
vn -0.5697259 0.672778 -0.471998
vn 0.566195 0.6771891 -0.4699344
vn 0.7039145 -0.02295315 -0.7099138
vn 0.7888959 -0.02370004 -0.6140696
vn -0.6748759 0.6143534 0.4087941
vn -0.5697259 0.672778 -0.471998
vn 0.566195 0.6771891 -0.4699344
vn 0.6698443 0.6183554 0.4110294
vn 0.7039145 -0.02295315 -0.7099138
vn 0.6549054 0.3505082 0.6695095
vn -0.6585059 0.3487804 0.666875
vn 0.9997415 -0.01897126 -0.01252866
vn 0.7888959 -0.02370004 -0.6140696
vn 0.9997409 -0.01857004 -0.01316083
vn 0.9997572 -0.009614359 -0.01982405
vn 0.9997558 -0.009682561 -0.01986647
vn 0.6778099 0.01199022 0.7351395
vn 0.9997342 -0.0005319386 -0.02304652
vn 0.9997349 -0.0007526732 -0.0230099
vn 0.9997441 0.007440762 -0.02135999
vn 0.9997441 0.00728789 -0.02141318
vn 0.6707487 -0.2668192 0.6920287
vn -0.6732248 -0.2662147 0.6898538
vn -0.5759558 -0.8131981 0.08356909
vn 0.5737576 -0.8146273 0.08476143
vn 0.7051097 -0.4921877 -0.5104622
vn 0.7416723 -0.4643558 -0.484041
vn -0.7043433 -0.4888005 -0.5147567
vn -0.7392607 -0.4621343 -0.4898219
vn 0.146605 0.6619746 0.7350488
vn -0.1730755 0.6622173 0.7290494
vn -0.1440279 0.7606164 0.6330234
vn 0.2628015 0.7234108 0.6384451
vn 0.4528494 0.8008323 -0.3919121
vn -0.1418117 0.5024476 -0.8528985
vn -0.1251663 0.5069327 0.8528497
vn -0.7778375 -0.200613 -0.5955864
vn -0.6248292 0.321521 0.7114863
vn -0.4165379 0.8428485 -0.3407385
vn 0.5799281 0.6367137 -0.5082117
vn -0.706248 0.6783366 -0.2026657
vn 0.2099717 0.6625257 -0.7190074
vn -0.5866575 0.6508393 -0.4819142
vn -0.0187445 0.6859147 -0.7274404
vn -0.2696173 0.6567953 -0.7042205
vn 0 0.7918355 -0.6107343
vn 0 0.7071068 0.7071067
vn 0.1440279 0.7606165 0.6330233
vn 0.4165378 0.8428485 -0.3407384
vn -0.7732227 -0.5226873 -0.3590609
vn 0.7727134 -0.5232523 -0.3593342
vn -0.6413986 0.6582829 0.3940451
vn 0.6420802 0.6577659 0.3937981
vn -0.5962421 0.7361836 -0.3202016
vn -0.5672401 -0.2842696 -0.7729356
vn 0.5672401 -0.2842696 -0.7729356
vn 0.5962421 0.7361836 -0.3202016
vn 0.6656716 0.2658794 0.6972728
vn -0.6248292 0.321521 0.7114863
vn -0.1251663 0.5069327 0.8528497
vn 0.7874606 -0.2708511 -0.5536656
vn -0.7778375 -0.200613 -0.5955864
vn -0.1418117 0.5024476 -0.8528985
vn 0.6344536 -0.555899 0.5370707
vn 0.6781772 -0.57165 -0.4618354
vn 0.4886034 -0.7844346 -0.3820067
vn 0.4528494 0.8008323 -0.3919121
vn 0.5799281 0.6367137 -0.5082117
vn 0.2936261 -0.7030472 0.6476946
vn 0.2628015 0.7234108 0.6384451
vn -0.1440279 -0.7606164 0.6330234
vn 0.146605 -0.6619746 0.7350488
vn 0.146605 0.6619746 0.7350488
vn -0.1730755 -0.6622173 0.7290494
vn -0.1730755 0.6622173 0.7290494
vn -0.1440279 0.7606164 0.6330234
vn 0.5799281 -0.6367137 -0.5082117
vn 0.2099717 0.6625257 -0.7190074
vn -0.4165379 -0.8428485 -0.3407385
vn 0 -0.7071068 0.7071067
vn 0 0.7071068 0.7071067
vn 0.1440279 -0.7606165 0.6330233
vn 0.1440279 0.7606165 0.6330233
vn 0 -0.7918355 -0.6107343
vn 0.2099717 -0.6625257 -0.7190074
vn -0.0187445 0.6859147 -0.7274404
vn 0.1730756 -0.6622173 0.7290494
vn 0.1730756 0.6622173 0.7290494
vn -0.1466051 -0.6619745 0.7350488
vn -0.1466051 0.6619745 0.7350488
vn -0.2936263 -0.7030472 0.6476945
vn -0.4886037 -0.7844344 -0.3820066
vn -0.2628016 0.7234108 0.6384451
vn 0.1251663 0.5069329 0.8528497
vn -0.6344538 -0.5558989 0.5370707
vn 0.4165378 -0.8428485 -0.3407384
vn -0.0187445 -0.6859147 -0.7274404
vn -0.2696173 0.6567953 -0.7042205
vn -0.2696173 -0.6567953 -0.7042205
vn -0.5866575 0.6508393 -0.4819142
vn -0.5866575 -0.6508393 -0.4819142
vn -0.706248 0.6783366 -0.2026657
vn -0.706248 -0.6783366 -0.2026657
vn -0.4165379 0.8428485 -0.3407385
vn 0 0.7918355 -0.6107343
vn 0.4165378 0.8428485 -0.3407384
vn 0.7062479 0.6783365 -0.2026658
vn 0.7062479 -0.6783365 -0.2026658
vn 0.5866573 0.6508394 -0.4819142
vn -0.579928 -0.6367136 -0.5082118
vn 0.5866573 -0.6508394 -0.4819142
vn 0.2696174 0.6567953 -0.7042205
vn -0.2099716 -0.6625258 -0.7190074
vn 0.2696174 -0.6567953 -0.7042205
vn 0.01874448 0.6859148 -0.7274404
vn 0.01874448 -0.6859148 -0.7274404
vn -0.2099716 0.6625258 -0.7190074
vn -0.579928 0.6367136 -0.5082118
vn -0.4528498 0.8008321 -0.391912
vn 0.1418114 0.5024479 -0.8528983
vn -0.6781774 -0.5716498 -0.4618352
vn -0.7874606 -0.2708511 -0.5536656
vn 0.7778376 -0.2006131 -0.5955864
vn -0.7727134 -0.5232522 -0.3593342
vn -0.6656716 0.2658794 0.6972728
vn 0.6248293 0.3215209 0.7114863
vn -0.6420802 0.6577659 0.3937981
vn -0.5962421 0.7361836 -0.3202016
vn 0.6413986 0.6582829 0.3940451
vn 0.6248293 0.3215209 0.7114863
vn 0.5962421 0.7361836 -0.3202016
vn 0.7732227 -0.5226873 -0.3590609
vn -0.56724 -0.2842697 -0.7729356
vn 0.5672401 -0.2842697 -0.7729356
vn 0.7778376 -0.2006131 -0.5955864
vn 0.1251663 0.5069329 0.8528497
vn 0.1418114 0.5024479 -0.8528983
vn -0.2628016 0.7234108 0.6384451
vn -0.4528498 0.8008321 -0.391912
vn -0.1466051 0.6619745 0.7350488
vn 0.1730756 0.6622173 0.7290494
vn -0.579928 0.6367136 -0.5082118
vn 0.7062479 0.6783365 -0.2026658
vn -0.2099716 0.6625258 -0.7190074
vn 0.5866573 0.6508394 -0.4819142
vn 0.01874448 0.6859148 -0.7274404
vn 0.2696174 0.6567953 -0.7042205
g RockHaricut_0
f 3/3/3 2/2/2 1/1/1
f 4/4/4 2/2/2 3/3/3
f 3/3/3 5/5/5 4/4/4
f 5/5/5 3/3/3 6/6/6
f 7/7/7 4/4/4 5/5/5
f 4/4/4 8/8/8 2/2/2
f 9/9/9 2/2/2 8/8/8
f 10/10/10 9/9/9 8/8/8
f 4/4/4 7/7/7 11/11/11
f 11/11/11 8/8/8 4/4/4
f 12/12/12 11/11/11 7/7/7
f 8/8/8 13/13/13 10/10/10
f 13/13/13 8/8/8 11/11/11
f 14/14/14 10/10/10 13/13/13
f 11/11/11 12/12/12 15/15/15
f 11/11/11 15/15/15 13/13/13
f 16/16/16 15/15/15 12/12/12
f 13/13/13 15/15/15 17/17/17
f 13/13/13 18/18/18 14/14/14
f 17/17/17 18/18/18 13/13/13
f 18/18/18 19/19/19 14/14/14
f 18/18/18 17/17/17 20/20/20
f 20/20/20 19/19/19 18/18/18
f 21/21/21 20/20/20 17/17/17
f 20/20/20 21/21/21 22/22/22
f 22/22/22 23/23/23 20/20/20
f 19/19/19 20/20/20 23/23/23
f 23/23/23 24/24/24 19/19/19
f 27/27/27 26/26/26 25/25/25
f 25/25/25 28/28/28 27/27/27
f 28/28/28 29/29/29 27/27/27
f 28/28/28 25/25/25 30/30/30
f 31/31/31 30/30/30 25/25/25
f 29/29/29 28/28/28 32/32/32
f 33/33/33 29/29/29 32/32/32
f 32/32/32 34/34/34 33/33/33
f 30/30/30 35/35/35 28/28/28
f 32/32/32 28/28/28 35/35/35
f 34/34/34 32/32/32 35/35/35
f 35/35/35 36/36/36 34/34/34
f 37/37/37 35/35/35 30/30/30
f 38/38/38 36/36/36 35/35/35
f 37/37/37 38/38/38 35/35/35
f 39/39/39 36/36/36 38/38/38
f 40/40/40 39/39/39 38/38/38
f 41/41/41 38/38/38 37/37/37
f 38/38/38 41/41/41 40/40/40
f 37/37/37 42/42/42 41/41/41
f 43/43/43 42/42/42 37/37/37
f 42/42/42 43/43/43 44/44/44
f 44/44/44 45/45/45 42/42/42
f 42/42/42 45/45/45 41/41/41
f 40/40/40 41/41/41 46/46/46
f 41/41/41 45/45/45 46/46/46
f 46/46/46 47/47/47 40/40/40
f 48/48/48 46/46/46 45/45/45
f 49/49/49 47/47/47 46/46/46
f 46/46/46 48/48/48 49/49/49
f 52/52/52 51/51/51 50/50/50
f 52/52/52 50/50/50 53/53/53
f 53/53/53 54/54/54 52/52/52
f 55/55/55 54/54/54 53/53/53
f 56/56/56 55/55/55 53/53/53
f 57/57/57 55/55/55 56/56/56
f 58/58/58 57/57/57 56/56/56
f 54/54/54 59/59/59 52/52/52
f 54/54/54 60/60/60 59/59/59
f 60/60/60 61/61/61 59/59/59
f 61/61/61 60/60/60 62/62/62
f 62/62/62 63/63/63 61/61/61
f 62/62/62 64/64/64 63/63/63
f 64/64/64 65/65/65 63/63/63
f 52/52/52 59/59/59 66/66/66
f 66/66/66 67/67/67 52/52/52
f 68/68/68 67/67/67 66/66/66
f 66/66/66 69/69/69 68/68/68
f 70/70/70 57/57/57 58/58/58
f 57/57/57 70/70/70 71/71/71
f 58/58/58 72/72/72 70/70/70
f 73/73/73 72/72/72 58/58/58
f 74/74/74 70/70/70 72/72/72
f 72/72/72 73/73/73 74/74/74
f 74/74/74 75/75/75 70/70/70
f 70/70/70 75/75/75 76/76/76
f 76/76/76 71/71/71 70/70/70
f 75/75/75 74/74/74 77/77/77
f 77/77/77 76/76/76 75/75/75
f 77/77/77 74/74/74 73/73/73
f 76/76/76 77/77/77 71/71/71
f 73/73/73 71/71/71 77/77/77
f 71/71/71 73/73/73 78/78/78
f 79/79/79 78/78/78 73/73/73
f 78/78/78 79/79/79 80/80/80
f 78/78/78 81/81/81 71/71/71
f 71/71/71 81/81/81 82/82/82
f 83/83/83 82/82/82 81/81/81
f 80/80/80 84/84/84 78/78/78
f 84/84/84 81/81/81 78/78/78
f 85/85/85 83/83/83 81/81/81
f 81/81/81 84/84/84 85/85/85
f 83/83/83 85/85/85 86/86/86
f 86/86/86 85/85/85 84/84/84
f 86/86/86 87/87/87 83/83/83
f 87/87/87 86/86/86 88/88/88
f 84/84/84 80/80/80 89/89/89
f 84/84/84 89/89/89 86/86/86
f 90/90/90 89/89/89 80/80/80
f 86/86/86 89/89/89 91/91/91
f 89/89/89 92/92/92 91/91/91
f 92/92/92 89/89/89 90/90/90
f 93/93/93 92/92/92 90/90/90
f 94/94/94 92/92/92 93/93/93
f 92/92/92 94/94/94 91/91/91
f 95/95/95 94/94/94 93/93/93
f 91/91/91 94/94/94 95/95/95
f 96/96/96 91/91/91 95/95/95
f 97/97/97 88/88/88 86/86/86
f 98/98/98 88/88/88 97/97/97
f 91/91/91 99/99/99 86/86/86
f 97/97/97 86/86/86 99/99/99
f 100/100/100 91/91/91 96/96/96
f 101/101/101 100/100/100 96/96/96
f 102/102/102 100/100/100 101/101/101
f 103/103/103 102/102/102 101/101/101
f 91/91/91 100/100/100 104/104/104
f 104/104/104 99/99/99 91/91/91
f 104/104/104 100/100/100 102/102/102
f 97/97/97 105/105/105 98/98/98
f 106/106/106 98/98/98 105/105/105
f 107/107/107 102/102/102 103/103/103
f 108/108/108 107/107/107 103/103/103
f 109/109/109 107/107/107 108/108/108
f 102/102/102 107/107/107 109/109/109
f 110/110/110 109/109/109 108/108/108
f 111/111/111 109/109/109 110/110/110
f 102/102/102 109/109/109 111/111/111
f 111/111/111 112/112/112 102/102/102
f 113/113/113 111/111/111 110/110/110
f 111/111/111 113/113/113 114/114/114
f 114/114/114 115/115/115 111/111/111
f 112/112/112 111/111/111 115/115/115
f 102/102/102 116/116/116 104/104/104
f 112/112/112 116/116/116 102/102/102
f 117/117/117 106/106/106 105/105/105
f 118/118/118 106/106/106 117/117/117
f 119/119/119 118/118/118 117/117/117
f 120/120/120 118/118/118 119/119/119
f 121/121/121 119/119/119 117/117/117
f 121/121/121 120/120/120 119/119/119
f 121/121/121 117/117/117 105/105/105
f 122/122/122 120/120/120 121/121/121
f 123/123/123 121/121/121 105/105/105
f 121/121/121 123/123/123 122/122/122
f 123/123/123 105/105/105 97/97/97
f 124/124/124 122/122/122 123/123/123
f 99/99/99 123/123/123 97/97/97
f 123/123/123 99/99/99 124/124/124
f 125/125/125 124/124/124 99/99/99
f 99/99/99 104/104/104 125/125/125
f 126/126/126 125/125/125 104/104/104
f 116/116/116 126/126/126 104/104/104
f 126/126/126 116/116/116 127/127/127
f 128/128/128 127/127/127 116/116/116
f 127/127/127 128/128/128 129/129/129
f 130/130/130 128/128/128 116/116/116
f 112/112/112 130/130/130 116/116/116
f 131/131/131 129/129/129 128/128/128
f 132/132/132 129/129/129 131/131/131
f 130/130/130 133/133/133 128/128/128
f 133/133/133 131/131/131 128/128/128
f 131/131/131 134/134/134 132/132/132
f 135/135/135 132/132/132 134/134/134
f 136/136/136 134/134/134 131/131/131
f 134/134/134 136/136/136 135/135/135
f 133/133/133 136/136/136 131/131/131
f 137/137/137 135/135/135 136/136/136
f 133/133/133 137/137/137 136/136/136
f 138/138/138 137/137/137 133/133/133
f 130/130/130 138/138/138 133/133/133
f 139/139/139 138/138/138 130/130/130
f 130/130/130 112/112/112 139/139/139
f 140/140/140 139/139/139 112/112/112
f 112/112/112 141/141/141 140/140/140
f 115/115/115 141/141/141 112/112/112
f 140/140/140 141/141/141 142/142/142
f 142/142/142 141/141/141 115/115/115
f 142/142/142 143/143/143 140/140/140
f 143/143/143 142/142/142 144/144/144
f 115/115/115 145/145/145 142/142/142
f 144/144/144 142/142/142 145/145/145
f 115/115/115 114/114/114 145/145/145
f 146/146/146 145/145/145 114/114/114
f 145/145/145 146/146/146 147/147/147
f 145/145/145 147/147/147 144/144/144
f 148/148/148 144/144/144 147/147/147
f 148/148/148 147/147/147 149/149/149
f 149/149/149 147/147/147 150/150/150
f 149/149/149 151/151/151 148/148/148
f 152/152/152 149/149/149 150/150/150
f 149/149/149 152/152/152 151/151/151
f 151/151/151 153/153/153 148/148/148
f 144/144/144 148/148/148 153/153/153
f 153/153/153 151/151/151 154/154/154
f 153/153/153 154/154/154 144/144/144
f 154/154/154 151/151/151 152/152/152
f 152/152/152 144/144/144 154/154/154
f 144/144/144 152/152/152 155/155/155
f 150/150/150 155/155/155 152/152/152
f 156/156/156 155/155/155 150/150/150
f 156/156/156 157/157/157 155/155/155
f 157/157/157 156/156/156 158/158/158
f 159/159/159 157/157/157 158/158/158
f 68/68/68 159/159/159 158/158/158
f 158/158/158 160/160/160 68/68/68
f 160/160/160 161/161/161 68/68/68
f 159/159/159 68/68/68 69/69/69
f 69/69/69 162/162/162 159/159/159
f 162/162/162 69/69/69 163/163/163
f 163/163/163 164/164/164 162/162/162
f 163/163/163 165/165/165 164/164/164
f 165/165/165 166/166/166 164/164/164
f 165/165/165 167/167/167 166/166/166
