g RoundedSquare-Ground
v -8.81217E-06 18.34719 0
v -5.436211 15.96885 0
v -2.71811 17.66766 0
v -15.96885 5.436196 0
v -2.718092 -17.66766 0
v -10.87242 10.8724 0
v -8.154312 13.59051 0
v -13.59051 8.154298 0
v -15.96885 -5.436213 0
v -18.34719 -8.812171E-06 0
v -17.66767 2.718093 0
v -17.66766 -2.71811 0
v -8.524366 -13.22045 0
v -12.50031 -9.244505 0
v -5.436194 -15.96885 0
v 18.34719 8.81217E-06 0
v 10.8724 10.87241 0
v 5.436195 15.96885 0
v 2.718094 17.66766 0
v 8.154301 13.59051 0
v 15.96885 5.436211 0
v 13.59051 8.154313 0
v 17.66766 2.718111 0
v 8.4832 -13.26162 0
v 2.718112 -17.66766 0
v 1.045994E-05 -18.34719 0
v 5.436214 -15.96885 0
v 15.96885 -5.436195 0
v 12.45377 -9.29104 0
v 17.66766 -2.718093 0
v -5.436211 15.96885 -0.9002677
v -8.81217E-06 18.34719 -0.9002677
v -2.71811 17.66766 -0.9002677
v -15.96885 5.436196 -0.9002677
v -2.718092 -17.66766 -0.9002677
v -10.87242 10.8724 -0.9002677
v -8.154312 13.59051 -0.9002677
v -13.59051 8.154298 -0.9002677
v -15.96885 -5.436213 -0.9002677
v -18.34719 -8.812171E-06 -0.9002677
v -17.66767 2.718093 -0.9002677
v -17.66766 -2.71811 -0.9002677
v -8.524366 -13.22045 -0.9002677
v -12.50031 -9.244505 -0.9002677
v -5.436194 -15.96885 -0.9002677
v 18.34719 8.81217E-06 -0.9002677
v 10.8724 10.87241 -0.9002677
v 5.436195 15.96885 -0.9002677
v 2.718094 17.66766 -0.9002677
v 8.154301 13.59051 -0.9002677
v 15.96885 5.436211 -0.9002677
v 13.59051 8.154313 -0.9002677
v 17.66766 2.718111 -0.9002677
v 8.4832 -13.26162 -0.9002677
v 15.96885 -5.436195 -0.9002677
v 17.66766 -2.718093 -0.9002677
v 12.45377 -9.29104 -0.9002677
v 2.718112 -17.66766 -0.9002677
v 5.436214 -15.96885 -0.9002677
v 1.045994E-05 -18.34719 -0.9002677
v -10.87242 10.8724 -0.9002677
v -13.59051 8.154298 0
v -13.59051 8.154298 -0.9002677
v -10.87242 10.8724 0
v -15.96885 5.436196 0
v -8.154312 13.59051 -0.9002677
v -15.96885 5.436196 -0.9002677
v -8.154312 13.59051 0
v -17.66767 2.718093 0
v -5.436211 15.96885 -0.9002677
v -17.66767 2.718093 -0.9002677
v -5.436211 15.96885 0
v -18.34719 -8.812171E-06 0
v -2.71811 17.66766 -0.9002677
v -18.34719 -8.812171E-06 -0.9002677
v -2.71811 17.66766 0
v -17.66766 -2.71811 0
v -8.81217E-06 18.34719 -0.9002677
v -17.66766 -2.71811 -0.9002677
v -8.81217E-06 18.34719 0
v -15.96885 -5.436213 0
v 2.718094 17.66766 -0.9002677
v -15.96885 -5.436213 -0.9002677
v 2.718094 17.66766 0
v -12.50031 -9.244505 0
v 5.436195 15.96885 -0.9002677
v -12.50031 -9.244505 -0.9002677
v 5.436195 15.96885 0
v -8.524366 -13.22045 0
v 8.154301 13.59051 -0.9002677
v -8.524366 -13.22045 -0.9002677
v 8.154301 13.59051 0
v -5.436194 -15.96885 0
v 10.8724 10.87241 -0.9002677
v -5.436194 -15.96885 -0.9002677
v 10.8724 10.87241 0
v -2.718092 -17.66766 0
v 13.59051 8.154313 -0.9002677
v -2.718092 -17.66766 -0.9002677
v 13.59051 8.154313 0
v 1.045994E-05 -18.34719 0
v 15.96885 5.436211 -0.9002677
v 1.045994E-05 -18.34719 -0.9002677
v 15.96885 5.436211 0
v 2.718112 -17.66766 0
v 17.66766 2.718111 -0.9002677
v 2.718112 -17.66766 -0.9002677
v 17.66766 2.718111 0
v 5.436214 -15.96885 0
v 18.34719 8.81217E-06 -0.9002677
v 5.436214 -15.96885 -0.9002677
v 18.34719 8.81217E-06 0
v 8.4832 -13.26162 0
v 17.66766 -2.718093 -0.9002677
v 8.4832 -13.26162 -0.9002677
v 17.66766 -2.718093 0
v 12.45377 -9.29104 0
v 15.96885 -5.436195 -0.9002677
v 12.45377 -9.29104 -0.9002677
v 15.96885 -5.436195 0
vn 0 0 1
vn 0 0 1
vn 0 0 1
vn 0 0 1
vn 0 0 1
vn 0 0 1
vn 0 0 1
vn 0 0 1
vn 0 0 1
vn 0 0 1
vn 0 0 1
vn 0 0 1
vn 0 0 1
vn 0 0 1
vn 0 0 1
vn 0 0 1
vn 0 0 1
vn 0 0 1
vn 0 0 1
vn 0 0 1
vn 0 0 1
vn 0 0 1
vn 0 0 1
vn 0 0 1
vn 0 0 1
vn 0 0 1
vn 0 0 1
vn 0 0 1
vn 0 0 1
vn 0 0 1
vn 0 0 -1
vn 0 0 -1
vn 0 0 -1
vn 0 0 -1
vn 0 0 -1
vn 0 0 -1
vn 0 0 -1
vn 0 0 -1
vn 0 0 -1
vn 0 0 -1
vn 0 0 -1
vn 0 0 -1
vn 0 0 -1
vn 0 0 -1
vn 0 0 -1
vn 0 0 -1
vn 0 0 -1
vn 0 0 -1
vn 0 0 -1
vn 0 0 -1
vn 0 0 -1
vn 0 0 -1
vn 0 0 -1
vn 0 0 -1
vn 0 0 -1
vn 0 0 -1
vn 0 0 -1
vn 0 0 -1
vn 0 0 -1
vn 0 0 -1
vn -0.7071072 0.7071062 0
vn -0.7302466 0.6831837 0
vn -0.7302466 0.6831837 0
vn -0.7071072 0.7071062 0
vn -0.8028628 0.5961639 0
vn -0.6831844 0.730246 0
vn -0.8028628 0.5961639 0
vn -0.6831844 0.730246 0
vn -0.9203629 0.3910654 0
vn -0.5961643 0.8028625 0
vn -0.9203629 0.3910655 0
vn -0.5961643 0.8028625 0
vn -1 0 0
vn -0.391066 0.9203627 0
vn -1 0 0
vn -0.391066 0.9203626 0
vn -0.9203626 -0.3910661 0
vn 0 1 0
vn -0.9203626 -0.3910661 0
vn 0 1 0
vn -0.7968874 -0.6041279 0
vn 0.3910655 0.9203628 0
vn -0.7968874 -0.6041279 0
vn 0.3910655 0.9203628 0
vn -0.7234082 -0.6904205 0
vn 0.5961637 0.8028629 0
vn -0.7234082 -0.6904204 0
vn 0.5961637 0.8028629 0
vn -0.6862524 -0.7273635 0
vn 0.6831834 0.7302468 0
vn -0.6862525 -0.7273635 0
vn 0.6831834 0.7302468 0
vn -0.5995386 -0.8003458 0
vn 0.7071064 0.7071072 0
vn -0.5995386 -0.8003458 0
vn 0.7071064 0.7071072 0
vn -0.3910651 -0.920363 0
vn 0.7302461 0.6831843 0
vn -0.3910651 -0.920363 0
vn 0.730246 0.6831843 0
vn 0 -1 0
vn 0.8028625 0.5961643 0
vn 0 -1 0
vn 0.8028625 0.5961643 0
vn 0.3910661 -0.9203626 0
vn 0.9203626 0.391066 0
vn 0.3910661 -0.9203626 0
vn 0.9203626 0.391066 0
vn 0.5992073 -0.800594 0
vn 1 0 0
vn 0.5992073 -0.8005939 0
vn 1 0 0
vn 0.6859512 -0.7276476 0
vn 0.9203629 -0.3910654 0
vn 0.6859512 -0.7276476 0
vn 0.9203629 -0.3910653 0
vn 0.7232059 -0.6906324 0
vn 0.7967105 -0.6043611 0
vn 0.723206 -0.6906324 0
vn 0.7967105 -0.6043611 0
g RoundedSquare-Ground_0
f 3/3/3 2/2/2 1/1/1
f 2/2/2 4/4/4 1/1/1
f 4/4/4 5/5/5 1/1/1
f 6/6/6 4/4/4 2/2/2
f 7/7/7 6/6/6 2/2/2
f 8/8/8 4/4/4 6/6/6
f 9/9/9 5/5/5 4/4/4
f 10/10/10 9/9/9 4/4/4
f 11/11/11 10/10/10 4/4/4
f 12/12/12 9/9/9 10/10/10
f 13/13/13 5/5/5 9/9/9
f 14/14/14 13/13/13 9/9/9
f 15/15/15 5/5/5 13/13/13
f 5/5/5 16/16/16 1/1/1
f 16/16/16 17/17/17 1/1/1
f 17/17/17 18/18/18 1/1/1
f 18/18/18 19/19/19 1/1/1
f 20/20/20 18/18/18 17/17/17
f 21/21/21 17/17/17 16/16/16
f 22/22/22 17/17/17 21/21/21
f 23/23/23 21/21/21 16/16/16
f 24/24/24 16/16/16 5/5/5
f 25/25/25 24/24/24 5/5/5
f 26/26/26 25/25/25 5/5/5
f 27/27/27 24/24/24 25/25/25
f 28/28/28 16/16/16 24/24/24
f 29/29/29 28/28/28 24/24/24
f 30/30/30 16/16/16 28/28/28
f 33/33/33 32/32/32 31/31/31
f 32/32/32 34/34/34 31/31/31
f 35/35/35 34/34/34 32/32/32
f 34/34/34 36/36/36 31/31/31
f 36/36/36 37/37/37 31/31/31
f 38/38/38 36/36/36 34/34/34
f 39/39/39 34/34/34 35/35/35
f 40/40/40 34/34/34 39/39/39
f 41/41/41 34/34/34 40/40/40
f 42/42/42 40/40/40 39/39/39
f 43/43/43 39/39/39 35/35/35
f 44/44/44 39/39/39 43/43/43
f 45/45/45 43/43/43 35/35/35
f 46/46/46 35/35/35 32/32/32
f 47/47/47 46/46/46 32/32/32
f 48/48/48 47/47/47 32/32/32
f 49/49/49 48/48/48 32/32/32
f 50/50/50 47/47/47 48/48/48
f 51/51/51 46/46/46 47/47/47
f 52/52/52 51/51/51 47/47/47
f 53/53/53 46/46/46 51/51/51
f 54/54/54 35/35/35 46/46/46
f 55/55/55 54/54/54 46/46/46
f 56/56/56 55/55/55 46/46/46
f 57/57/57 54/54/54 55/55/55
f 58/58/58 35/35/35 54/54/54
f 59/59/59 58/58/58 54/54/54
f 60/60/60 35/35/35 58/58/58
f 63/63/63 62/62/62 61/61/61
f 64/64/64 61/61/61 62/62/62
f 62/62/62 63/63/63 65/65/65
f 61/61/61 64/64/64 66/66/66
f 67/67/67 65/65/65 63/63/63
f 68/68/68 66/66/66 64/64/64
f 65/65/65 67/67/67 69/69/69
f 66/66/66 68/68/68 70/70/70
f 71/71/71 69/69/69 67/67/67
f 72/72/72 70/70/70 68/68/68
f 69/69/69 71/71/71 73/73/73
f 70/70/70 72/72/72 74/74/74
f 75/75/75 73/73/73 71/71/71
f 76/76/76 74/74/74 72/72/72
f 73/73/73 75/75/75 77/77/77
f 74/74/74 76/76/76 78/78/78
f 79/79/79 77/77/77 75/75/75
f 80/80/80 78/78/78 76/76/76
f 77/77/77 79/79/79 81/81/81
f 78/78/78 80/80/80 82/82/82
f 83/83/83 81/81/81 79/79/79
f 84/84/84 82/82/82 80/80/80
f 81/81/81 83/83/83 85/85/85
f 82/82/82 84/84/84 86/86/86
f 87/87/87 85/85/85 83/83/83
f 88/88/88 86/86/86 84/84/84
f 85/85/85 87/87/87 89/89/89
f 86/86/86 88/88/88 90/90/90
f 91/91/91 89/89/89 87/87/87
f 92/92/92 90/90/90 88/88/88
f 89/89/89 91/91/91 93/93/93
f 90/90/90 92/92/92 94/94/94
f 95/95/95 93/93/93 91/91/91
f 96/96/96 94/94/94 92/92/92
f 93/93/93 95/95/95 97/97/97
f 94/94/94 96/96/96 98/98/98
f 99/99/99 97/97/97 95/95/95
f 100/100/100 98/98/98 96/96/96
f 97/97/97 99/99/99 101/101/101
f 98/98/98 100/100/100 102/102/102
f 103/103/103 101/101/101 99/99/99
f 104/104/104 102/102/102 100/100/100
f 101/101/101 103/103/103 105/105/105
f 102/102/102 104/104/104 106/106/106
f 107/107/107 105/105/105 103/103/103
f 108/108/108 106/106/106 104/104/104
f 105/105/105 107/107/107 109/109/109
f 106/106/106 108/108/108 110/110/110
f 111/111/111 109/109/109 107/107/107
f 112/112/112 110/110/110 108/108/108
f 109/109/109 111/111/111 113/113/113
f 110/110/110 112/112/112 114/114/114
f 115/115/115 113/113/113 111/111/111
f 116/116/116 114/114/114 112/112/112
f 113/113/113 115/115/115 117/117/117
f 114/114/114 116/116/116 118/118/118
f 119/119/119 117/117/117 115/115/115
f 120/120/120 118/118/118 116/116/116
f 117/117/117 119/119/119 120/120/120
f 118/118/118 120/120/120 119/119/119
