g RoundedSquare-Sill
v -10.69311 10.6931 0.2334587
v -10.81962 10.81961 0.2334587
v -8.128425 13.51081 0.2334587
v -8.006124 13.38008 0.2334587
v -13.38009 8.006112 0.2334587
v -5.43169 15.87045 0.2334587
v -13.51081 8.128411 0.2334587
v -5.324683 15.72635 0.2334587
v -15.72635 5.324668 0.2334587
v -2.724516 17.56244 0.2334587
v -15.87046 5.431675 0.2334587
v -2.653678 17.39572 0.2334587
v -17.39573 2.653662 0.2334587
v -8.792529E-06 18.24357 0.2334587
v -17.56244 2.724499 0.2334587
v -8.654039E-06 18.05914 0.2334587
v -18.05915 -9.043809E-06 0.2334587
v 2.7245 17.56244 0.2334587
v -18.24357 -8.392413E-06 0.2334587
v 2.653663 17.39573 0.2334587
v -17.39573 -2.65368 0.2334587
v 5.431673 15.87046 0.2334587
v -17.56244 -2.724516 0.2334587
v 5.324667 15.72635 0.2334587
v -15.72682 -5.323924 0.2334587
v 8.128411 13.51081 0.2334587
v -15.86998 -5.432451 0.2334587
v 8.006115 13.38009 0.2334587
v -12.30215 -9.084053 0.2334587
v 10.81961 10.81962 0.2334587
v -12.43162 -9.207612 0.2334587
v 10.6931 10.69311 0.2334587
v -8.371963 -13.01424 0.2334587
v 13.51081 8.128425 0.2334587
v -8.494796 -13.14443 0.2334587
v 13.38008 8.006126 0.2334587
v -5.324346 -15.72655 0.2334587
v 15.87045 5.43169 0.2334587
v -5.431993 -15.87026 0.2334587
v 15.72635 5.324684 0.2334587
v -2.65366 -17.39573 0.2334587
v 17.56244 2.724517 0.2334587
v -2.724499 -17.56244 0.2334587
v 17.39573 2.65368 0.2334587
v 1.054769E-05 -18.05914 0.2334587
v 18.24357 8.528262E-06 0.2334587
v 1.015924E-05 -18.24357 0.2334587
v 18.05914 8.90796E-06 0.2334587
v 2.653681 -17.39573 0.2334587
v 17.56244 -2.724499 0.2334587
v 2.724518 -17.56244 0.2334587
v 17.39573 -2.653661 0.2334587
v 5.324397 -15.72653 0.2334587
v 15.86997 -5.432457 0.2334587
v 5.431983 -15.87027 0.2334587
v 15.72684 -5.323883 0.2334587
v 8.331264 -13.05495 0.2334587
v 12.38556 -9.25367 0.2334587
v 8.454042 -13.18519 0.2334587
v 12.25613 -9.130073 0.2334587
v -10.81962 10.81961 0.2334587
v -10.81962 10.81961 -0.07122371
v -8.128425 13.51081 -0.07122371
v -8.128425 13.51081 0.2334587
v -13.51081 8.128411 0.2334587
v -5.43169 15.87045 -0.07122371
v -13.51081 8.128411 -0.07122371
v -5.43169 15.87045 0.2334587
v -15.87046 5.431675 0.2334587
v -2.724516 17.56244 -0.07122371
v -15.87046 5.431675 -0.07122371
v -2.724516 17.56244 0.2334587
v -17.56244 2.724499 0.2334587
v -8.782182E-06 18.24357 -0.07122371
v -17.56244 2.724499 -0.07122371
v -8.792529E-06 18.24357 0.2334587
v -18.24357 -8.392413E-06 0.2334587
v 2.7245 17.56244 -0.07122371
v -18.24357 -8.392413E-06 -0.07122371
v 2.7245 17.56244 0.2334587
v -17.56244 -2.724516 0.2334587
v 5.431673 15.87046 -0.07122371
v -17.56244 -2.724516 -0.07122371
v 5.431673 15.87046 0.2334587
v -15.86998 -5.432451 0.2334587
v 8.128411 13.51081 -0.07122371
v -15.86998 -5.432451 -0.07122371
v 8.128411 13.51081 0.2334587
v -12.43162 -9.207612 0.2334587
v 10.81961 10.81962 -0.07122371
v -12.43162 -9.207611 -0.07122371
v 10.81961 10.81962 0.2334587
v -8.494796 -13.14443 0.2334587
v 13.51081 8.128425 -0.07122371
v -8.494796 -13.14443 -0.07122371
v 13.51081 8.128425 0.2334587
v -5.431993 -15.87026 0.2334587
v 15.87045 5.43169 -0.07122371
v -5.431993 -15.87026 -0.07122371
v 15.87045 5.43169 0.2334587
v -2.724499 -17.56244 0.2334587
v 17.56244 2.724517 -0.07122371
v -2.724499 -17.56244 -0.07122371
v 17.56244 2.724517 0.2334587
v 1.015924E-05 -18.24357 0.2334587
v 18.24357 8.528262E-06 -0.07122371
v 1.014889E-05 -18.24357 -0.07122371
v 18.24357 8.528262E-06 0.2334587
v 2.724518 -17.56244 0.2334587
v 17.56244 -2.724499 -0.07122371
v 2.724518 -17.56244 -0.07122371
v 17.56244 -2.724499 0.2334587
v 5.431983 -15.87027 0.2334587
v 15.86997 -5.432457 -0.07122371
v 5.431983 -15.87027 -0.07122371
v 15.86997 -5.432457 0.2334587
v 8.454042 -13.18519 0.2334587
v 12.38556 -9.253668 -0.07122371
v 8.454042 -13.18519 -0.07122371
v 12.38556 -9.25367 0.2334587
v -10.81962 10.81961 -0.07122371
v -10.69311 10.6931 -0.07122371
v -8.006124 13.38008 -0.07122371
v -8.128425 13.51081 -0.07122371
v -13.51081 8.128411 -0.07122371
v -5.324683 15.72635 -0.07122371
v -13.38009 8.006112 -0.07122371
v -5.43169 15.87045 -0.07122371
v -15.87046 5.431675 -0.07122371
v -2.653678 17.39573 -0.07122371
v -15.72635 5.324668 -0.07122371
v -2.724516 17.56244 -0.07122371
v -17.56244 2.724499 -0.07122371
v -8.643692E-06 18.05914 -0.07122371
v -17.39573 2.653662 -0.07122371
v -8.782182E-06 18.24357 -0.07122371
v -18.24357 -8.392413E-06 -0.07122371
v 2.653663 17.39573 -0.07122371
v -18.05915 -9.043809E-06 -0.07122371
v 2.7245 17.56244 -0.07122371
v -17.56244 -2.724516 -0.07122371
v 5.324667 15.72635 -0.07122371
v -17.39573 -2.65368 -0.07122371
v 5.431673 15.87046 -0.07122371
v -15.86998 -5.432451 -0.07122371
v 8.006115 13.38009 -0.07122371
v -15.72682 -5.323924 -0.07122371
v 8.128411 13.51081 -0.07122371
v -12.43162 -9.207611 -0.07122371
v 10.6931 10.69311 -0.07122371
v -12.30215 -9.084053 -0.07122371
v 10.81961 10.81962 -0.07122371
v -8.494796 -13.14443 -0.07122371
v 13.38008 8.006126 -0.07122371
v -8.371963 -13.01424 -0.07122371
v 13.51081 8.128425 -0.07122371
v -5.431993 -15.87026 -0.07122371
v 15.72635 5.324684 -0.07122371
v -5.324346 -15.72655 -0.07122371
v 15.87045 5.43169 -0.07122371
v -2.724499 -17.56244 -0.07122371
v 17.39573 2.65368 -0.07122371
v -2.65366 -17.39573 -0.07122371
v 17.56244 2.724517 -0.07122371
v 1.014889E-05 -18.24357 -0.07122371
v 18.05914 8.90796E-06 -0.07122371
v 1.053735E-05 -18.05914 -0.07122371
v 18.24357 8.528262E-06 -0.07122371
v 2.724518 -17.56244 -0.07122371
v 17.39573 -2.653661 -0.07122371
v 2.653681 -17.39573 -0.07122371
v 17.56244 -2.724499 -0.07122371
v 5.431983 -15.87027 -0.07122371
v 15.72684 -5.323883 -0.07122371
v 5.324397 -15.72653 -0.07122371
v 15.86997 -5.432457 -0.07122371
v 8.454042 -13.18519 -0.07122371
v 12.25613 -9.130072 -0.07122371
v 8.331264 -13.05495 -0.07122371
v 12.38556 -9.253668 -0.07122371
v -10.69311 10.6931 -0.07122371
v -10.69311 10.6931 0.2334587
v -8.006124 13.38008 0.2334587
v -8.006124 13.38008 -0.07122371
v -13.38009 8.006112 -0.07122371
v -5.324683 15.72635 0.2334587
v -13.38009 8.006112 0.2334587
v -5.324683 15.72635 -0.07122371
v -15.72635 5.324668 -0.07122371
v -2.653678 17.39572 0.2334587
v -15.72635 5.324668 0.2334587
v -2.653678 17.39573 -0.07122371
v -17.39573 2.653662 -0.07122371
v -8.654039E-06 18.05914 0.2334587
v -17.39573 2.653662 0.2334587
v -8.643692E-06 18.05914 -0.07122371
v -18.05915 -9.043809E-06 -0.07122371
v 2.653663 17.39573 0.2334587
v -18.05915 -9.043809E-06 0.2334587
v 2.653663 17.39573 -0.07122371
v -17.39573 -2.65368 -0.07122371
v 5.324667 15.72635 0.2334587
v -17.39573 -2.65368 0.2334587
v 5.324667 15.72635 -0.07122371
v -15.72682 -5.323924 -0.07122371
v 8.006115 13.38009 0.2334587
v -15.72682 -5.323924 0.2334587
v 8.006115 13.38009 -0.07122371
v -12.30215 -9.084053 -0.07122371
v 10.6931 10.69311 0.2334587
v -12.30215 -9.084053 0.2334587
v 10.6931 10.69311 -0.07122371
v -8.371963 -13.01424 -0.07122371
v 13.38008 8.006126 0.2334587
v -8.371963 -13.01424 0.2334587
v 13.38008 8.006126 -0.07122371
v -5.324346 -15.72655 -0.07122371
v 15.72635 5.324684 0.2334587
v -5.324346 -15.72655 0.2334587
v 15.72635 5.324684 -0.07122371
v -2.65366 -17.39573 -0.07122371
v 17.39573 2.65368 0.2334587
v -2.65366 -17.39573 0.2334587
v 17.39573 2.65368 -0.07122371
v 1.053735E-05 -18.05914 -0.07122371
v 18.05914 8.90796E-06 0.2334587
v 1.054769E-05 -18.05914 0.2334587
v 18.05914 8.90796E-06 -0.07122371
v 2.653681 -17.39573 -0.07122371
v 17.39573 -2.653661 0.2334587
v 2.653681 -17.39573 0.2334587
v 17.39573 -2.653661 -0.07122371
v 5.324397 -15.72653 -0.07122371
v 15.72684 -5.323883 0.2334587
v 5.324397 -15.72653 0.2334587
v 15.72684 -5.323883 -0.07122371
v 8.331264 -13.05495 -0.07122371
v 12.25613 -9.130073 0.2334587
v 8.331264 -13.05495 0.2334587
v 12.25613 -9.130072 -0.07122371
vn 0 0 1
vn 0 0 1
vn 0 0 1
vn 0 0 1
vn 0 0 1
vn 0 0 1
vn 0 0 1
vn 0 0 1
vn 0 0 1
vn 0 0 1
vn 0 0 1
vn 0 0 1
vn 0 0 1
vn 0 0 1
vn 0 0 1
vn 0 0 1
vn 0 0 1
vn 0 0 1
vn 0 0 1
vn 0 0 1
vn 0 0 1
vn 0 0 1
vn 0 0 1
vn 0 0 1
vn 0 0 1
vn 0 0 1
vn 0 0 1
vn 0 0 1
vn 0 0 1
vn 0 0 1
vn 0 0 1
vn 0 0 1
vn 0 0 1
vn 0 0 1
vn 0 0 1
vn 0 0 1
vn 0 0 1
vn 0 0 1
vn 0 0 1
vn 0 0 1
vn 0 0 1
vn 0 0 1
vn 0 0 1
vn 0 0 1
vn 0 0 1
vn 0 0 1
vn 0 0 1
vn 0 0 1
vn 0 0 1
vn 0 0 1
vn 0 0 1
vn 0 0 1
vn 0 0 1
vn 0 0 1
vn 0 0 1
vn 0 0 1
vn 0 0 1
vn 0 0 1
vn 0 0 1
vn 0 0 1
vn -0.7071072 0.7071064 0
vn -0.7071072 0.7071064 0
vn -0.6831844 0.730246 0
vn -0.6831844 0.730246 0
vn -0.7302464 0.6831839 0
vn -0.596164 0.8028626 0
vn -0.7302464 0.6831839 0
vn -0.5961643 0.8028625 0
vn -0.8028628 0.5961637 0
vn -0.3910665 0.9203625 0
vn -0.8028628 0.5961637 0
vn -0.3910665 0.9203625 0
vn -0.9203629 0.3910655 0
vn 0 1 0
vn -0.9203629 0.3910655 0
vn 0 1 0
vn -1 0 0
vn 0.3910654 0.9203629 0
vn -1 0 0
vn 0.3910654 0.9203629 0
vn -0.9203625 -0.3910665 0
vn 0.5961636 0.8028629 0
vn -0.9203625 -0.3910665 0
vn 0.5961636 0.8028629 0
vn -0.7968873 -0.6041279 0
vn 0.6831834 0.7302467 0
vn -0.7968873 -0.6041279 0
vn 0.6831835 0.7302467 0
vn -0.7234085 -0.6904204 0
vn 0.7071064 0.7071071 0
vn -0.7234085 -0.6904204 0
vn 0.7071064 0.7071071 0
vn -0.6862522 -0.7273636 0
vn 0.7302461 0.6831842 0
vn -0.6862522 -0.7273636 0
vn 0.7302461 0.6831842 0
vn -0.5995387 -0.8003458 0
vn 0.8028623 0.5961645 0
vn -0.5995387 -0.8003458 0
vn 0.8028623 0.5961645 0
vn -0.3910651 -0.920363 0
vn 0.9203625 0.3910663 0
vn -0.3910655 -0.9203629 0
vn 0.9203625 0.3910663 0
vn 0 -1 0
vn 1 0 0
vn 0 -1 0
vn 1 0 0
vn 0.3910662 -0.9203626 0
vn 0.9203629 -0.3910654 0
vn 0.3910662 -0.9203626 0
vn 0.9203629 -0.3910654 0
vn 0.5992074 -0.8005938 0
vn 0.7967104 -0.6043612 0
vn 0.5992074 -0.8005938 0
vn 0.7967104 -0.6043612 0
vn 0.685951 -0.7276477 0
vn 0.7232061 -0.6906323 0
vn 0.685951 -0.7276477 0
vn 0.723206 -0.6906323 0
vn 0 0 -1
vn 0 0 -1
vn 0 0 -1
vn 0 0 -1
vn 0 0 -1
vn 0 0 -1
vn 0 0 -1
vn 0 0 -1
vn 0 0 -1
vn 0 0 -1
vn 0 0 -1
vn 0 0 -1
vn 0 0 -1
vn 0 0 -1
vn 0 0 -1
vn 0 0 -1
vn 0 0 -1
vn 0 0 -1
vn 0 0 -1
vn 0 0 -1
vn 0 0 -1
vn 0 0 -1
vn 0 0 -1
vn 0 0 -1
vn 0 0 -1
vn 0 0 -1
vn 0 0 -1
vn 0 0 -1
vn 0 0 -1
vn 0 0 -1
vn 0 0 -1
vn 0 0 -1
vn 0 0 -1
vn 0 0 -1
vn 0 0 -1
vn 0 0 -1
vn 0 0 -1
vn 0 0 -1
vn 0 0 -1
vn 0 0 -1
vn 0 0 -1
vn 0 0 -1
vn 0 0 -1
vn 0 0 -1
vn 0 0 -1
vn 0 0 -1
vn 0 0 -1
vn 0 0 -1
vn 0 0 -1
vn 0 0 -1
vn 0 0 -1
vn 0 0 -1
vn 0 0 -1
vn 0 0 -1
vn 0 0 -1
vn 0 0 -1
vn 0 0 -1
vn 0 0 -1
vn 0 0 -1
vn 0 0 -1
vn 0.7071071 -0.7071064 0
vn 0.7071071 -0.7071064 0
vn 0.6831844 -0.7302458 0
vn 0.6831844 -0.7302458 0
vn 0.7302462 -0.683184 0
vn 0.5961642 -0.8028625 0
vn 0.7302462 -0.683184 0
vn 0.5961642 -0.8028625 0
vn 0.8028628 -0.5961639 0
vn 0.3910661 -0.9203626 0
vn 0.8028628 -0.5961639 0
vn 0.3910657 -0.9203628 0
vn 0.920363 -0.3910651 0
vn 0 -1 0
vn 0.920363 -0.3910651 0
vn 0 -1 0
vn 1 0 0
vn -0.391065 -0.920363 0
vn 1 0 0
vn -0.391065 -0.920363 0
vn 0.9203625 0.3910662 0
vn -0.5961636 -0.802863 0
vn 0.9203625 0.3910662 0
vn -0.5961636 -0.802863 0
vn 0.7968875 0.6041278 0
vn -0.6831837 -0.7302465 0
vn 0.7968875 0.6041278 0
vn -0.6831836 -0.7302466 0
vn 0.7234083 0.6904204 0
vn -0.7071064 -0.7071071 0
vn 0.7234083 0.6904204 0
vn -0.7071064 -0.7071071 0
vn 0.6862524 0.7273635 0
vn -0.7302458 -0.6831844 0
vn 0.6862524 0.7273635 0
vn -0.7302458 -0.6831844 0
vn 0.5995388 0.8003457 0
vn -0.8028624 -0.5961644 0
vn 0.5995388 0.8003457 0
vn -0.8028624 -0.5961644 0
vn 0.3910651 0.920363 0
vn -0.9203627 -0.3910658 0
vn 0.3910647 0.9203632 0
vn -0.9203627 -0.3910658 0
vn 0 1 0
vn -1 0 0
vn 0 1 0
vn -1 0 0
vn -0.3910659 0.9203627 0
vn -0.9203632 0.3910646 0
vn -0.3910659 0.9203627 0
vn -0.9203632 0.3910646 0
vn -0.5992073 0.8005939 0
vn -0.7967107 0.6043609 0
vn -0.5992073 0.8005939 0
vn -0.7967107 0.6043609 0
vn -0.6859512 0.7276476 0
vn -0.723206 0.6906323 0
vn -0.6859512 0.7276476 0
vn -0.723206 0.6906323 0
g RoundedSquare-Sill_0
f 3/3/3 2/2/2 1/1/1
f 4/4/4 3/3/3 1/1/1
f 1/1/1 2/2/2 5/5/5
f 6/6/6 3/3/3 4/4/4
f 2/2/2 7/7/7 5/5/5
f 8/8/8 6/6/6 4/4/4
f 5/5/5 7/7/7 9/9/9
f 10/10/10 6/6/6 8/8/8
f 7/7/7 11/11/11 9/9/9
f 12/12/12 10/10/10 8/8/8
f 9/9/9 11/11/11 13/13/13
f 14/14/14 10/10/10 12/12/12
f 11/11/11 15/15/15 13/13/13
f 16/16/16 14/14/14 12/12/12
f 13/13/13 15/15/15 17/17/17
f 18/18/18 14/14/14 16/16/16
f 15/15/15 19/19/19 17/17/17
f 20/20/20 18/18/18 16/16/16
f 17/17/17 19/19/19 21/21/21
f 22/22/22 18/18/18 20/20/20
f 19/19/19 23/23/23 21/21/21
f 24/24/24 22/22/22 20/20/20
f 21/21/21 23/23/23 25/25/25
f 26/26/26 22/22/22 24/24/24
f 23/23/23 27/27/27 25/25/25
f 28/28/28 26/26/26 24/24/24
f 25/25/25 27/27/27 29/29/29
f 30/30/30 26/26/26 28/28/28
f 27/27/27 31/31/31 29/29/29
f 32/32/32 30/30/30 28/28/28
f 29/29/29 31/31/31 33/33/33
f 34/34/34 30/30/30 32/32/32
f 31/31/31 35/35/35 33/33/33
f 36/36/36 34/34/34 32/32/32
f 33/33/33 35/35/35 37/37/37
f 38/38/38 34/34/34 36/36/36
f 35/35/35 39/39/39 37/37/37
f 40/40/40 38/38/38 36/36/36
f 37/37/37 39/39/39 41/41/41
f 42/42/42 38/38/38 40/40/40
f 39/39/39 43/43/43 41/41/41
f 44/44/44 42/42/42 40/40/40
f 41/41/41 43/43/43 45/45/45
f 46/46/46 42/42/42 44/44/44
f 43/43/43 47/47/47 45/45/45
f 48/48/48 46/46/46 44/44/44
f 45/45/45 47/47/47 49/49/49
f 50/50/50 46/46/46 48/48/48
f 47/47/47 51/51/51 49/49/49
f 52/52/52 50/50/50 48/48/48
f 49/49/49 51/51/51 53/53/53
f 54/54/54 50/50/50 52/52/52
f 51/51/51 55/55/55 53/53/53
f 56/56/56 54/54/54 52/52/52
f 53/53/53 55/55/55 57/57/57
f 58/58/58 54/54/54 56/56/56
f 55/55/55 59/59/59 57/57/57
f 60/60/60 58/58/58 56/56/56
f 57/57/57 59/59/59 60/60/60
f 59/59/59 58/58/58 60/60/60
f 63/63/63 62/62/62 61/61/61
f 64/64/64 63/63/63 61/61/61
f 61/61/61 62/62/62 65/65/65
f 66/66/66 63/63/63 64/64/64
f 62/62/62 67/67/67 65/65/65
f 68/68/68 66/66/66 64/64/64
f 65/65/65 67/67/67 69/69/69
f 70/70/70 66/66/66 68/68/68
f 67/67/67 71/71/71 69/69/69
f 72/72/72 70/70/70 68/68/68
f 69/69/69 71/71/71 73/73/73
f 74/74/74 70/70/70 72/72/72
f 71/71/71 75/75/75 73/73/73
f 76/76/76 74/74/74 72/72/72
f 73/73/73 75/75/75 77/77/77
f 78/78/78 74/74/74 76/76/76
f 75/75/75 79/79/79 77/77/77
f 80/80/80 78/78/78 76/76/76
f 77/77/77 79/79/79 81/81/81
f 82/82/82 78/78/78 80/80/80
f 79/79/79 83/83/83 81/81/81
f 84/84/84 82/82/82 80/80/80
f 81/81/81 83/83/83 85/85/85
f 86/86/86 82/82/82 84/84/84
f 83/83/83 87/87/87 85/85/85
f 88/88/88 86/86/86 84/84/84
f 85/85/85 87/87/87 89/89/89
f 90/90/90 86/86/86 88/88/88
f 87/87/87 91/91/91 89/89/89
f 92/92/92 90/90/90 88/88/88
f 89/89/89 91/91/91 93/93/93
f 94/94/94 90/90/90 92/92/92
f 91/91/91 95/95/95 93/93/93
f 96/96/96 94/94/94 92/92/92
f 93/93/93 95/95/95 97/97/97
f 98/98/98 94/94/94 96/96/96
f 95/95/95 99/99/99 97/97/97
f 100/100/100 98/98/98 96/96/96
f 97/97/97 99/99/99 101/101/101
f 102/102/102 98/98/98 100/100/100
f 99/99/99 103/103/103 101/101/101
f 104/104/104 102/102/102 100/100/100
f 101/101/101 103/103/103 105/105/105
f 106/106/106 102/102/102 104/104/104
f 103/103/103 107/107/107 105/105/105
f 108/108/108 106/106/106 104/104/104
f 105/105/105 107/107/107 109/109/109
f 110/110/110 106/106/106 108/108/108
f 107/107/107 111/111/111 109/109/109
f 112/112/112 110/110/110 108/108/108
f 109/109/109 111/111/111 113/113/113
f 114/114/114 110/110/110 112/112/112
f 111/111/111 115/115/115 113/113/113
f 116/116/116 114/114/114 112/112/112
f 113/113/113 115/115/115 117/117/117
f 118/118/118 114/114/114 116/116/116
f 115/115/115 119/119/119 117/117/117
f 120/120/120 118/118/118 116/116/116
f 117/117/117 119/119/119 120/120/120
f 119/119/119 118/118/118 120/120/120
f 123/123/123 122/122/122 121/121/121
f 124/124/124 123/123/123 121/121/121
f 121/121/121 122/122/122 125/125/125
f 126/126/126 123/123/123 124/124/124
f 122/122/122 127/127/127 125/125/125
f 128/128/128 126/126/126 124/124/124
f 125/125/125 127/127/127 129/129/129
f 130/130/130 126/126/126 128/128/128
f 127/127/127 131/131/131 129/129/129
f 132/132/132 130/130/130 128/128/128
f 129/129/129 131/131/131 133/133/133
f 134/134/134 130/130/130 132/132/132
f 131/131/131 135/135/135 133/133/133
f 136/136/136 134/134/134 132/132/132
f 133/133/133 135/135/135 137/137/137
f 138/138/138 134/134/134 136/136/136
f 135/135/135 139/139/139 137/137/137
f 140/140/140 138/138/138 136/136/136
f 137/137/137 139/139/139 141/141/141
f 142/142/142 138/138/138 140/140/140
f 139/139/139 143/143/143 141/141/141
f 144/144/144 142/142/142 140/140/140
f 141/141/141 143/143/143 145/145/145
f 146/146/146 142/142/142 144/144/144
f 143/143/143 147/147/147 145/145/145
f 148/148/148 146/146/146 144/144/144
f 145/145/145 147/147/147 149/149/149
f 150/150/150 146/146/146 148/148/148
f 147/147/147 151/151/151 149/149/149
f 152/152/152 150/150/150 148/148/148
f 149/149/149 151/151/151 153/153/153
f 154/154/154 150/150/150 152/152/152
f 151/151/151 155/155/155 153/153/153
f 156/156/156 154/154/154 152/152/152
f 153/153/153 155/155/155 157/157/157
f 158/158/158 154/154/154 156/156/156
f 155/155/155 159/159/159 157/157/157
f 160/160/160 158/158/158 156/156/156
f 157/157/157 159/159/159 161/161/161
f 162/162/162 158/158/158 160/160/160
f 159/159/159 163/163/163 161/161/161
f 164/164/164 162/162/162 160/160/160
f 161/161/161 163/163/163 165/165/165
f 166/166/166 162/162/162 164/164/164
f 163/163/163 167/167/167 165/165/165
f 168/168/168 166/166/166 164/164/164
f 165/165/165 167/167/167 169/169/169
f 170/170/170 166/166/166 168/168/168
f 167/167/167 171/171/171 169/169/169
f 172/172/172 170/170/170 168/168/168
f 169/169/169 171/171/171 173/173/173
f 174/174/174 170/170/170 172/172/172
f 171/171/171 175/175/175 173/173/173
f 176/176/176 174/174/174 172/172/172
f 173/173/173 175/175/175 177/177/177
f 178/178/178 174/174/174 176/176/176
f 175/175/175 179/179/179 177/177/177
f 180/180/180 178/178/178 176/176/176
f 177/177/177 179/179/179 180/180/180
f 179/179/179 178/178/178 180/180/180
f 183/183/183 182/182/182 181/181/181
f 184/184/184 183/183/183 181/181/181
f 181/181/181 182/182/182 185/185/185
f 186/186/186 183/183/183 184/184/184
f 182/182/182 187/187/187 185/185/185
f 188/188/188 186/186/186 184/184/184
f 185/185/185 187/187/187 189/189/189
f 190/190/190 186/186/186 188/188/188
f 187/187/187 191/191/191 189/189/189
f 192/192/192 190/190/190 188/188/188
f 189/189/189 191/191/191 193/193/193
f 194/194/194 190/190/190 192/192/192
f 191/191/191 195/195/195 193/193/193
f 196/196/196 194/194/194 192/192/192
f 193/193/193 195/195/195 197/197/197
f 198/198/198 194/194/194 196/196/196
f 195/195/195 199/199/199 197/197/197
f 200/200/200 198/198/198 196/196/196
f 197/197/197 199/199/199 201/201/201
f 202/202/202 198/198/198 200/200/200
f 199/199/199 203/203/203 201/201/201
f 204/204/204 202/202/202 200/200/200
f 201/201/201 203/203/203 205/205/205
f 206/206/206 202/202/202 204/204/204
f 203/203/203 207/207/207 205/205/205
f 208/208/208 206/206/206 204/204/204
f 205/205/205 207/207/207 209/209/209
f 210/210/210 206/206/206 208/208/208
f 207/207/207 211/211/211 209/209/209
f 212/212/212 210/210/210 208/208/208
f 209/209/209 211/211/211 213/213/213
f 214/214/214 210/210/210 212/212/212
f 211/211/211 215/215/215 213/213/213
f 216/216/216 214/214/214 212/212/212
f 213/213/213 215/215/215 217/217/217
f 218/218/218 214/214/214 216/216/216
f 215/215/215 219/219/219 217/217/217
f 220/220/220 218/218/218 216/216/216
f 217/217/217 219/219/219 221/221/221
f 222/222/222 218/218/218 220/220/220
f 219/219/219 223/223/223 221/221/221
f 224/224/224 222/222/222 220/220/220
f 221/221/221 223/223/223 225/225/225
f 226/226/226 222/222/222 224/224/224
f 223/223/223 227/227/227 225/225/225
f 228/228/228 226/226/226 224/224/224
f 225/225/225 227/227/227 229/229/229
f 230/230/230 226/226/226 228/228/228
f 227/227/227 231/231/231 229/229/229
f 232/232/232 230/230/230 228/228/228
f 229/229/229 231/231/231 233/233/233
f 234/234/234 230/230/230 232/232/232
f 231/231/231 235/235/235 233/233/233
f 236/236/236 234/234/234 232/232/232
f 233/233/233 235/235/235 237/237/237
f 238/238/238 234/234/234 236/236/236
f 235/235/235 239/239/239 237/237/237
f 240/240/240 238/238/238 236/236/236
f 237/237/237 239/239/239 240/240/240
f 239/239/239 238/238/238 240/240/240
