g RoundedSquare-Stairs_Collision
v 12.3052 -9.193439 3.054304
v 10.43968 -0.7896263 0
v 15.57435 -5.92429 0
v 7.170533 -4.058776 3.054304
v 3.277504 -7.951808 3.054304
v 8.41217 -13.08647 3.054304
v 5.143024 -16.35562 6.191873
v -0.001109002 -11.22569 6.191873
v -0.001106364 -21.49975 6.191873
v -5.14524 -16.35562 6.191873
v -7.172757 -4.058779 3.054304
v -15.57657 -5.924299 0
v -10.44191 -0.7896311 0
v -12.30742 -9.193446 3.054304
v -3.279725 -7.951809 3.054304
v -8.414389 -13.08647 3.054304
v -0.001109002 -11.22569 6.191873
v -5.14524 -16.35562 6.191873
v 15.57435 -5.92429 0
v -0.001106364 -21.49975 -0.0005260052
v 12.3052 -9.193439 3.054304
v 8.41217 -13.08647 3.054304
v 5.143024 -16.35562 6.191873
v -0.001106364 -21.49975 6.191873
v 7.170533 -4.058776 3.054304
v -0.001109002 -11.22569 -0.0005260052
v 10.43968 -0.7896263 0
v 3.277504 -7.951808 3.054304
v -0.001109002 -11.22569 6.191873
v -10.44191 -0.7896311 0
v -0.001109002 -11.22569 -0.0005260052
v -7.172757 -4.058779 3.054304
v -3.279725 -7.951809 3.054304
v -0.001109002 -11.22569 6.191873
v -12.30742 -9.193446 3.054304
v -0.001106364 -21.49975 -0.0005260052
v -15.57657 -5.924299 0
v -8.414389 -13.08647 3.054304
v -5.14524 -16.35562 6.191873
v -0.001106364 -21.49975 6.191873
vt 0 6.836471
vt 9.806801 0
vt 0 0
vt 9.806801 6.836471
vt 9.806801 13.67294
vt 0 13.67294
vt 0 20.50941
vt 9.806801 20.51499
vt 0 26.5738
vt 0 20.50941
vt 9.806801 6.836471
vt 0 0
vt 9.806801 0
vt 0 6.836471
vt 9.806801 13.67294
vt 0 13.67294
vt 9.806801 20.51499
vt 0 20.50941
vt 0 0
vt 0 3.798039
vt 0 6.836471
vt 0 13.67294
vt 0 20.50941
vt 0 26.5738
vt 9.806801 6.836471
vt 9.806801 3.798039
vt 9.806801 0
vt 9.806801 13.67294
vt 9.806801 20.51499
vt 9.806801 0
vt 9.806801 20.51499
vt 9.806801 6.836471
vt 9.806801 13.67294
vt 9.806801 20.51499
vt 0 6.836471
vt 0 3.798039
vt 0 0
vt 0 13.67294
vt 0 20.50941
vt 0 26.5738
vn 0.2034913 0.2034913 0.9576965
vn 0.3897658 0.3897659 0.8343651
vn 0.3897657 0.3897659 0.8343651
vn 0.2034913 0.2034914 0.9576965
vn 0.2074231 0.2077102 0.9559457
vn 0.2073837 0.2076707 0.9559628
vn 0.2075504 0.2078376 0.9558904
vn 0 0.286224 0.9581627
vn 0 0 1
vn -0.2075505 0.2078376 0.9558904
vn -0.2034914 0.2034913 0.9576965
vn -0.3897661 0.3897657 0.8343651
vn -0.389766 0.3897657 0.8343651
vn -0.2034914 0.2034913 0.9576965
vn -0.2074233 0.2077102 0.9559457
vn -0.2073838 0.2076706 0.9559628
vn 0 0.286224 0.9581627
vn -0.2075505 0.2078376 0.9558904
vn 0.707107 -0.7071065 0
vn 0.7071069 -0.7071066 0
vn 0.7071069 -0.7071066 0
vn 0.7071069 -0.7071066 0
vn 0.7071071 -0.7071064 0
vn 0.7071069 -0.7071066 0
vn -0.7071066 0.707106 0.001095625
vn -0.7071066 0.707106 0.001095625
vn -0.7069467 0.7072667 0.0003430561
vn -0.7071066 0.707106 0.001095625
vn -0.7065962 0.7076171 0
vn 0.7069463 0.7072672 0.0003430561
vn 0.7071062 0.7071065 0.001095398
vn 0.7071062 0.7071065 0.001095398
vn 0.7071062 0.7071065 0.001095398
vn 0.7065958 0.7076175 0
vn -0.7071064 -0.7071071 0
vn -0.7071064 -0.7071071 0
vn -0.7071066 -0.7071069 0
vn -0.7071064 -0.7071071 0
vn -0.7071066 -0.7071069 0
vn -0.7071067 -0.7071068 0
g RoundedSquare-Stairs_Collision_0
f 3/3/3 2/2/2 1/1/1
f 2/2/2 4/4/4 1/1/1
f 4/4/4 5/5/5 1/1/1
f 5/5/5 6/6/6 1/1/1
f 6/6/6 5/5/5 7/7/7
f 5/5/5 8/8/8 7/7/7
f 9/9/9 7/7/7 8/8/8
f 10/10/10 9/9/9 8/8/8
f 13/13/13 12/12/12 11/11/11
f 12/12/12 14/14/14 11/11/11
f 15/15/15 11/11/11 14/14/14
f 16/16/16 15/15/15 14/14/14
f 15/15/15 16/16/16 17/17/17
f 16/16/16 18/18/18 17/17/17
f 21/21/21 20/20/20 19/19/19
f 22/22/22 20/20/20 21/21/21
f 23/23/23 20/20/20 22/22/22
f 24/24/24 20/20/20 23/23/23
f 27/27/27 26/26/26 25/25/25
f 25/25/25 26/26/26 28/28/28
f 28/28/28 26/26/26 29/29/29
f 32/32/32 31/31/31 30/30/30
f 33/33/33 31/31/31 32/32/32
f 34/34/34 31/31/31 33/33/33
f 37/37/37 36/36/36 35/35/35
f 35/35/35 36/36/36 38/38/38
f 38/38/38 36/36/36 39/39/39
f 39/39/39 36/36/36 40/40/40
