g RoundedSquare-WallStairs
v 7.486382 -4.374624 3.054304
v 7.170533 -4.058776 3.054304
v 7.290423 -3.938886 2.532399
v 7.606272 -4.254735 2.532399
v 7.606272 -4.254735 2.532399
v 7.290423 -3.938886 2.532399
v 7.897011 -3.332299 2.533159
v 8.212859 -3.648147 2.533159
v 8.212859 -3.648147 2.533159
v 7.897011 -3.332299 2.533159
v 8.016901 -3.212408 1.899299
v 8.332749 -3.528257 1.899299
v 8.332749 -3.528257 1.899299
v 8.016901 -3.212408 1.899299
v 8.623487 -2.605822 1.900059
v 8.939335 -2.921669 1.900059
v 0.3175671 -11.54344 6.191872
v -0.001109002 -11.22569 6.191873
v 0.1282477 -11.10107 5.586703
v 0.4440961 -11.41692 5.586703
v 0.4440961 -11.41692 5.586703
v 0.1282477 -11.10107 5.586703
v 0.7348342 -10.49448 5.587463
v 1.050682 -10.81033 5.587463
v 1.050682 -10.81033 5.587463
v 0.7348342 -10.49448 5.587463
v 0.8547244 -10.37459 4.953603
v 1.170573 -10.69044 4.953603
v 1.170573 -10.69044 4.953603
v 0.8547244 -10.37459 4.953603
v 1.461312 -9.768002 4.954363
v 1.77716 -10.08385 4.954363
v -7.306149 -3.925389 2.532399
v -7.172757 -4.058779 3.054304
v -7.488417 -4.37444 3.054304
v -7.621807 -4.241048 2.532399
v -7.899233 -3.332302 2.533159
v -7.306149 -3.925389 2.532399
v -7.621807 -4.241048 2.532399
v -8.214894 -3.647962 2.533159
v -8.032627 -3.198911 1.899299
v -7.899233 -3.332302 2.533159
v -8.214894 -3.647962 2.533159
v -8.348286 -3.514571 1.899299
v -8.625712 -2.605826 1.900059
v -8.032627 -3.198911 1.899299
v -8.348286 -3.514571 1.899299
v -8.941372 -2.921486 1.900059
v -0.1439676 -11.08757 5.586703
v -0.001109002 -11.22569 6.191873
v -0.3195959 -11.54325 6.191873
v -0.4596267 -11.40322 5.586703
v -0.7370524 -10.49448 5.587463
v -0.1439676 -11.08757 5.586703
v -0.4596267 -11.40322 5.586703
v -1.052712 -10.81014 5.587463
v -0.8704448 -10.36109 4.953603
v -0.7370524 -10.49448 5.587463
v -1.052712 -10.81014 5.587463
v -1.186104 -10.67675 4.953603
v -1.463531 -9.768002 4.954363
v -0.8704448 -10.36109 4.953603
v -1.186104 -10.67675 4.953603
v -1.779189 -10.08366 4.954363
v 10.07644 -1.152866 0.6338597
v 10.07644 -1.152865 5.433938E-07
v 10.19633 -1.032975 2.384186E-07
v 9.469855 -1.759453 0.6330998
v 9.469855 -1.759453 5.960464E-07
v 9.349965 -1.879344 1.26696
v 9.349965 -1.879344 5.433938E-07
v 8.743378 -2.48593 1.2662
v 8.743379 -2.48593 5.960464E-07
v 8.623487 -2.605822 1.900059
v 8.623487 -2.605822 5.433938E-07
v 8.016901 -3.212408 1.899299
v 8.016901 -3.212408 5.960464E-07
v 7.897011 -3.332299 2.533159
v 7.897011 -3.332299 5.433938E-07
v 7.290423 -3.938886 2.532399
v 7.290423 -3.938886 5.960464E-07
v 7.170533 -4.058776 3.054304
v 7.170533 -4.058776 5.433938E-07
v 3.034156 -8.195157 3.054304
v 3.034156 -8.195157 5.960464E-07
v 2.914266 -8.315046 3.688164
v 2.914266 -8.315046 5.433938E-07
v 2.307679 -8.921635 3.687403
v 2.307679 -8.921635 5.960464E-07
v 2.187789 -9.041525 4.321263
v 2.187789 -9.041525 5.433938E-07
v 1.581202 -9.648111 4.320503
v 1.581202 -9.648111 5.960464E-07
v 1.461312 -9.768002 4.954363
v 1.461312 -9.768002 5.433938E-07
v 0.8547244 -10.37459 4.953603
v 0.8547244 -10.37459 5.960464E-07
v 0.7348342 -10.49448 5.587463
v 0.7348342 -10.49448 5.433938E-07
v 0.1282477 -11.10107 5.586703
v 0.1282477 -11.10107 5.960464E-07
v -0.001109002 -11.22569 6.191873
v -0.001109002 -11.22569 5.433938E-07
v -10.07867 -1.152872 0.6338597
v -10.21206 -1.019478 2.384186E-07
v -10.07867 -1.152872 5.433938E-07
v -9.485582 -1.745956 5.960464E-07
v -9.485582 -1.745956 0.6330998
v -9.352188 -1.879347 5.433938E-07
v -9.352188 -1.879347 1.26696
v -8.759105 -2.472434 5.960464E-07
v -8.759105 -2.472434 1.2662
v -8.625712 -2.605826 5.433938E-07
v -8.625712 -2.605826 1.900059
v -8.032627 -3.198911 5.960464E-07
v -8.032627 -3.198911 1.899299
v -7.899233 -3.332302 5.433938E-07
v -7.899233 -3.332302 2.533159
v -7.306149 -3.925389 5.960464E-07
v -7.306149 -3.925389 2.532399
v -7.172757 -4.058779 5.433938E-07
v -7.172757 -4.058779 3.054304
v -3.049879 -8.181656 5.960464E-07
v -3.049879 -8.181656 3.054304
v -2.916487 -8.315048 5.433938E-07
v -2.916487 -8.315048 3.688164
v -2.323401 -8.908134 5.960464E-07
v -2.323401 -8.908134 3.687403
v -2.190008 -9.041525 5.433938E-07
v -2.190008 -9.041525 4.321263
v -1.596922 -9.634611 5.960464E-07
v -1.596922 -9.634611 4.320503
v -1.463531 -9.768002 5.433938E-07
v -1.463531 -9.768002 4.954363
v -0.8704448 -10.36109 5.960464E-07
v -0.8704448 -10.36109 4.953603
v -0.7370524 -10.49448 5.433938E-07
v -0.7370524 -10.49448 5.587463
v -0.1439676 -11.08757 5.960464E-07
v -0.1439676 -11.08757 5.586703
v -0.001109002 -11.22569 5.433938E-07
v -0.001109002 -11.22569 6.191873
v -0.001109002 -11.22569 6.191873
v 0.3175671 -11.54344 6.191872
v -0.001470263 -11.86193 6.191873
v -0.3195959 -11.54325 6.191873
v 8.743378 -2.48593 1.2662
v 9.059227 -2.80178 1.2662
v 8.939335 -2.921669 1.900059
v 8.623487 -2.605822 1.900059
v 7.170533 -4.058776 3.054304
v 7.486382 -4.374624 3.054304
v 3.350004 -8.511004 3.054304
v 3.034156 -8.195157 3.054304
v 1.581202 -9.648111 4.320503
v 1.89705 -9.96396 4.320503
v 1.77716 -10.08385 4.954363
v 1.461312 -9.768002 4.954363
v 10.19633 -1.032975 2.384186E-07
v 10.51218 -1.348824 2.384186E-07
v 10.39229 -1.468714 0.6338597
v 10.07644 -1.152866 0.6338597
v 10.07644 -1.152866 0.6338597
v 10.39229 -1.468714 0.6338597
v 9.785704 -2.075302 0.6330998
v 9.469855 -1.759453 0.6330998
v 9.469855 -1.759453 0.6330998
v 9.785704 -2.075302 0.6330998
v 9.665812 -2.195192 1.26696
v 9.349965 -1.879344 1.26696
v 9.349965 -1.879344 1.26696
v 9.665812 -2.195192 1.26696
v 9.059227 -2.80178 1.2662
v 8.743378 -2.48593 1.2662
v 3.034156 -8.195157 3.054304
v 3.350004 -8.511004 3.054304
v 3.230114 -8.630894 3.688164
v 2.914266 -8.315046 3.688164
v 2.914266 -8.315046 3.688164
v 3.230114 -8.630894 3.688164
v 2.623528 -9.237483 3.687403
v 2.307679 -8.921635 3.687403
v 2.307679 -8.921635 3.687403
v 2.623528 -9.237483 3.687403
v 2.503636 -9.357372 4.321263
v 2.187789 -9.041525 4.321263
v 2.187789 -9.041525 4.321263
v 2.503636 -9.357372 4.321263
v 1.89705 -9.96396 4.320503
v 1.581202 -9.648111 4.320503
v -8.625712 -2.605826 1.900059
v -8.941372 -2.921486 1.900059
v -9.074765 -2.788093 1.2662
v -8.759105 -2.472434 1.2662
v -3.049879 -8.181656 3.054304
v -3.365537 -8.497316 3.054304
v -7.488417 -4.37444 3.054304
v -7.172757 -4.058779 3.054304
v -1.463531 -9.768002 4.954363
v -1.779189 -10.08366 4.954363
v -1.912582 -9.95027 4.320503
v -1.596922 -9.634611 4.320503
v -10.07867 -1.152872 0.6338597
v -10.39432 -1.468532 0.6338597
v -10.52772 -1.335139 2.384186E-07
v -10.21206 -1.019478 2.384186E-07
v -9.485582 -1.745956 0.6330998
v -9.801241 -2.061617 0.6330998
v -10.39432 -1.468532 0.6338597
v -10.07867 -1.152872 0.6338597
v -9.352188 -1.879347 1.26696
v -9.667848 -2.195008 1.26696
v -9.801241 -2.061617 0.6330998
v -9.485582 -1.745956 0.6330998
v -8.759105 -2.472434 1.2662
v -9.074765 -2.788093 1.2662
v -9.667848 -2.195008 1.26696
v -9.352188 -1.879347 1.26696
v -2.916487 -8.315048 3.688164
v -3.232146 -8.630709 3.688164
v -3.365537 -8.497316 3.054304
v -3.049879 -8.181656 3.054304
v -2.323401 -8.908134 3.687403
v -2.63906 -9.223793 3.687403
v -3.232146 -8.630709 3.688164
v -2.916487 -8.315048 3.688164
v -2.190008 -9.041525 4.321263
v -2.505668 -9.357184 4.321263
v -2.63906 -9.223793 3.687403
v -2.323401 -8.908134 3.687403
v -1.596922 -9.634611 4.320503
v -1.912582 -9.95027 4.320503
v -2.505668 -9.357184 4.321263
v -2.190008 -9.041525 4.321263
vt 9.203555 6.836471
vt 9.806801 6.836471
vt 9.806801 6.076863
vt 9.203555 6.076863
vt 9.203555 6.076863
vt 9.806801 6.076863
vt 9.806801 5.317255
vt 9.203555 5.317255
vt 9.203555 5.317255
vt 9.806801 5.317255
vt 9.806801 4.557647
vt 9.203555 4.557647
vt 9.203555 4.557647
vt 9.806801 4.557647
vt 9.806801 3.798039
vt 9.203556 3.798039
vt 9.169311 20.51463
vt 9.806801 20.51499
vt 9.806801 19.7498
vt 9.183721 19.7498
vt 9.183721 19.7498
vt 9.806801 19.7498
vt 9.806801 18.9902
vt 9.186548 18.9902
vt 9.186548 18.9902
vt 9.806801 18.9902
vt 9.806801 18.23059
vt 9.189723 18.23059
vt 9.189723 18.23059
vt 9.806801 18.23059
vt 9.806801 17.47098
vt 9.192678 17.47098
vt 9.806801 6.076863
vt 9.806801 6.836471
vt 9.203916 6.836471
vt 9.203917 6.076863
vt 9.806801 5.317255
vt 9.806801 6.076863
vt 9.203917 6.076863
vt 9.203915 5.317255
vt 9.806801 4.557647
vt 9.806801 5.317255
vt 9.203915 5.317255
vt 9.203916 4.557647
vt 9.806801 3.798039
vt 9.806801 4.557647
vt 9.203916 4.557647
vt 9.203916 3.798039
vt 9.806801 19.7498
vt 9.806801 20.51499
vt 9.169833 20.51463
vt 9.183671 19.7498
vt 9.806801 18.9902
vt 9.806801 19.7498
vt 9.183671 19.7498
vt 9.187248 18.9902
vt 9.806801 18.23059
vt 9.806801 18.9902
vt 9.187248 18.9902
vt 9.190231 18.23059
vt 9.806801 17.47098
vt 9.806801 18.23059
vt 9.190231 18.23059
vt 9.193187 17.47098
vt 9.806801 0.7596078
vt 9.806801 0.7596078
vt 9.806801 0
vt 9.806801 1.519216
vt 9.806801 1.519216
vt 9.806801 2.278823
vt 9.806801 2.278823
vt 9.806801 3.038431
vt 9.806801 3.038431
vt 9.806801 3.798039
vt 9.806801 3.798039
vt 9.806801 4.557647
vt 9.806801 4.557647
vt 9.806801 5.317255
vt 9.806801 5.317255
vt 9.806801 6.076863
vt 9.806801 6.076863
vt 9.806801 6.836471
vt 9.806801 6.836471
vt 9.806801 13.67294
vt 9.806801 13.67294
vt 9.806801 14.43255
vt 9.806801 14.43255
vt 9.806801 15.19216
vt 9.806801 15.19216
vt 9.806801 15.95177
vt 9.806801 15.95177
vt 9.806801 16.71137
vt 9.806801 16.71137
vt 9.806801 17.47098
vt 9.806801 17.47098
vt 9.806801 18.23059
vt 9.806801 18.23059
vt 9.806801 18.9902
vt 9.806801 18.9902
vt 9.806801 19.7498
vt 9.806801 19.7498
vt 9.806801 20.51499
vt 9.806801 20.51499
vt 9.806801 0.7596078
vt 9.806801 0
vt 9.806801 0.7596078
vt 9.806801 1.519216
vt 9.806801 1.519216
vt 9.806801 2.278823
vt 9.806801 2.278823
vt 9.806801 3.038431
vt 9.806801 3.038431
vt 9.806801 3.798039
vt 9.806801 3.798039
vt 9.806801 4.557647
vt 9.806801 4.557647
vt 9.806801 5.317255
vt 9.806801 5.317255
vt 9.806801 6.076863
vt 9.806801 6.076863
vt 9.806801 6.836471
vt 9.806801 6.836471
vt 9.806801 13.67294
vt 9.806801 13.67294
vt 9.806801 14.43255
vt 9.806801 14.43255
vt 9.806801 15.19216
vt 9.806801 15.19216
vt 9.806801 15.95177
vt 9.806801 15.95177
vt 9.806801 16.71137
vt 9.806801 16.71137
vt 9.806801 17.47098
vt 9.806801 17.47098
vt 9.806801 18.23059
vt 9.806801 18.23059
vt 9.806801 18.9902
vt 9.806801 18.9902
vt 9.806801 19.7498
vt 9.806801 19.7498
vt 9.806801 20.51499
vt 9.806801 20.51499
vt 9.806801 20.51499
vt 9.169311 20.51463
vt 9.113341 20.68251
vt 9.169833 20.51463
vt 9.806801 3.038431
vt 9.203555 3.038431
vt 9.203556 3.798039
vt 9.806801 3.798039
vt 9.806801 6.836471
vt 9.203555 6.836471
vt 9.203556 13.67294
vt 9.806801 13.67294
vt 9.806801 16.71137
vt 9.195626 16.71137
vt 9.192678 17.47098
vt 9.806801 17.47098
vt 9.806801 0
vt 9.203555 0
vt 9.203556 0.7596078
vt 9.806801 0.7596078
vt 9.806801 0.7596078
vt 9.203556 0.7596078
vt 9.203555 1.519216
vt 9.806801 1.519216
vt 9.806801 1.519216
vt 9.203555 1.519216
vt 9.203556 2.278823
vt 9.806801 2.278823
vt 9.806801 2.278823
vt 9.203556 2.278823
vt 9.203555 3.038431
vt 9.806801 3.038431
vt 9.806801 13.67294
vt 9.203556 13.67294
vt 9.203556 14.43255
vt 9.806801 14.43255
vt 9.806801 14.43255
vt 9.203556 14.43255
vt 9.201403 15.19216
vt 9.806801 15.19216
vt 9.806801 15.19216
vt 9.201403 15.19216
vt 9.198528 15.95177
vt 9.806801 15.95177
vt 9.806801 15.95177
vt 9.198528 15.95177
vt 9.195626 16.71137
vt 9.806801 16.71137
vt 9.806801 3.798039
vt 9.203916 3.798039
vt 9.203917 3.038431
vt 9.806801 3.038431
vt 9.806801 13.67294
vt 9.203917 13.67294
vt 9.203916 6.836471
vt 9.806801 6.836471
vt 9.806801 17.47098
vt 9.193187 17.47098
vt 9.195599 16.71137
vt 9.806801 16.71137
vt 9.806801 0.7596078
vt 9.203917 0.7596078
vt 9.203915 0
vt 9.806801 0
vt 9.806801 1.519216
vt 9.203915 1.519216
vt 9.203917 0.7596078
vt 9.806801 0.7596078
vt 9.806801 2.278823
vt 9.203916 2.278823
vt 9.203915 1.519216
vt 9.806801 1.519216
vt 9.806801 3.038431
vt 9.203917 3.038431
vt 9.203916 2.278823
vt 9.806801 2.278823
vt 9.806801 14.43255
vt 9.203917 14.43255
vt 9.203917 13.67294
vt 9.806801 13.67294
vt 9.806801 15.19216
vt 9.201916 15.19216
vt 9.203917 14.43255
vt 9.806801 14.43255
vt 9.806801 15.95177
vt 9.198503 15.95177
vt 9.201916 15.19216
vt 9.806801 15.19216
vt 9.806801 16.71137
vt 9.195599 16.71137
vt 9.198503 15.95177
vt 9.806801 15.95177
vn 0.6725086 0.6725091 0.308972
vn 0.6725085 0.6725091 0.308972
vn 0.6725085 0.6725091 0.308972
vn 0.6725085 0.672509 0.308972
vn -0.000626324 -0.0006263222 0.9999996
vn -0.0006263241 -0.0006263223 0.9999996
vn -0.0006263242 -0.0006263223 0.9999996
vn -0.0006263241 -0.0006263223 0.9999996
vn 0.6830921 0.6830906 0.2584041
vn 0.6830921 0.6830905 0.258404
vn 0.6830921 0.6830904 0.258404
vn 0.6830921 0.6830906 0.258404
vn -0.0006263244 -0.0006263246 0.9999996
vn -0.0006263245 -0.0006263246 0.9999996
vn -0.0006263245 -0.0006263246 0.9999996
vn -0.0006263244 -0.0006263246 0.9999996
vn 0.6774938 0.6784788 0.284022
vn 0.6774938 0.6784789 0.284022
vn 0.6774938 0.6784788 0.284022
vn 0.6774938 0.6784788 0.284022
vn -0.0006265204 -0.0006265204 0.9999996
vn -0.0006265204 -0.0006265204 0.9999996
vn -0.0006265204 -0.0006265203 0.9999996
vn -0.0006265204 -0.0006265204 0.9999996
vn 0.6830909 0.6830918 0.2584037
vn 0.6830909 0.6830918 0.2584037
vn 0.6830909 0.6830918 0.2584037
vn 0.6830909 0.6830918 0.2584037
vn -0.0006261262 -0.0006261262 0.9999996
vn -0.0006261262 -0.0006261262 0.9999996
vn -0.0006261262 -0.0006261262 0.9999996
vn -0.0006261262 -0.0006261262 0.9999996
vn -0.6650011 0.6649984 0.3399275
vn -0.665001 0.6649984 0.3399274
vn -0.665001 0.6649984 0.3399274
vn -0.665001 0.6649984 0.3399274
vn 0.000640581 -0.0006405814 0.9999996
vn 0.000640581 -0.0006405814 0.9999996
vn 0.000640581 -0.0006405814 0.9999996
vn 0.000640581 -0.0006405814 0.9999996
vn -0.6777291 0.6777294 0.2852475
vn -0.6777291 0.6777294 0.2852475
vn -0.6777291 0.6777294 0.2852475
vn -0.6777291 0.6777294 0.2852475
vn 0.0006405831 -0.0006405809 0.9999996
vn 0.0006405831 -0.0006405809 0.9999996
vn 0.0006405831 -0.0006405808 0.9999996
vn 0.0006405832 -0.0006405809 0.9999996
vn -0.6714426 0.6724228 0.311468
vn -0.6714426 0.6724228 0.311468
vn -0.6714426 0.6724228 0.311468
vn -0.6714426 0.6724228 0.311468
vn 0.0006407831 -0.0006407847 0.9999996
vn 0.0006407831 -0.0006407846 0.9999996
vn 0.0006407831 -0.0006407846 0.9999996
vn 0.0006407831 -0.0006407847 0.9999996
vn -0.6777276 0.6777303 0.2852491
vn -0.6777276 0.6777303 0.2852491
vn -0.6777275 0.6777303 0.2852491
vn -0.6777276 0.6777303 0.2852491
vn 0.0006403801 -0.0006403807 0.9999996
vn 0.0006403801 -0.0006403806 0.9999996
vn 0.0006403801 -0.0006403806 0.9999996
vn 0.0006403801 -0.0006403806 0.9999996
vn -0.7071074 0.7071062 0
vn -0.7071053 0.7071081 0
vn -0.7071025 0.7071109 0
vn -0.7071072 0.7071063 0
vn -0.7071074 0.7071061 0
vn -0.7071068 0.7071068 0
vn -0.7071068 0.7071068 0
vn -0.7071063 0.7071072 0
vn -0.7071065 0.7071071 0
vn -0.7071071 0.7071064 0
vn -0.7071066 0.7071069 0
vn -0.7071083 0.7071052 0
vn -0.7071081 0.7071054 0
vn -0.7071066 0.7071068 0
vn -0.7071076 0.7071059 0
vn -0.7071057 0.7071078 0
vn -0.7071059 0.7071077 0
vn -0.7071068 0.7071067 0
vn -0.7071062 0.7071073 0
vn -0.7071055 0.707108 0
vn -0.7071059 0.7071077 0
vn -0.7071072 0.7071063 0
vn -0.7071062 0.7071074 0
vn -0.7071071 0.7071064 0
vn -0.7071072 0.7071063 0
vn -0.7071065 0.7071069 0
vn -0.7071066 0.7071069 0
vn -0.7071069 0.7071066 0
vn -0.7071068 0.7071067 0
vn -0.7071072 0.7071062 0
vn -0.7071072 0.7071063 0
vn -0.7071069 0.7071066 0
vn -0.707107 0.7071065 0
vn -0.7071068 0.7071068 0
vn -0.7071068 0.7071068 0
vn -0.6985612 0.7155502 0
vn -0.7004891 0.713663 0
vn -0.6938106 0.7201574 0
vn -0.6938106 0.7201574 0
vn 0.7071066 0.7071069 0
vn 0.7071036 0.7071099 0
vn 0.7071055 0.7071081 0
vn 0.7071034 0.7071102 0
vn 0.7071022 0.7071113 0
vn 0.707104 0.7071095 0
vn 0.7071072 0.7071063 0
vn 0.7071071 0.7071065 0
vn 0.7071066 0.7071069 0
vn 0.7071061 0.7071074 0
vn 0.7071066 0.7071069 0
vn 0.7071021 0.7071115 0
vn 0.7071006 0.7071128 0
vn 0.7071028 0.7071108 0
vn 0.7071065 0.707107 0
vn 0.7071059 0.7071076 0
vn 0.7071053 0.7071083 0
vn 0.7071051 0.7071084 0
vn 0.7071061 0.7071074 0
vn 0.7071076 0.7071059 0
vn 0.707108 0.7071056 0
vn 0.7071075 0.707106 0
vn 0.7071066 0.7071068 0
vn 0.7071046 0.7071089 0
vn 0.7071041 0.7071093 0
vn 0.7071049 0.7071086 0
vn 0.7071062 0.7071074 0
vn 0.7071059 0.7071075 0
vn 0.7071058 0.7071078 0
vn 0.7071065 0.707107 0
vn 0.7071075 0.7071061 0
vn 0.707106 0.7071075 0
vn 0.7071055 0.7071081 0
vn 0.7071056 0.707108 0
vn 0.7071065 0.7071069 0
vn 0.7011256 0.7130378 0
vn 0.699412 0.7147186 0
vn 0.6950943 0.7189185 0
vn 0.6950944 0.7189184 0
vn 0 0 1
vn 0 0 1
vn 0 0 1
vn 0 0 1
vn 0.6830906 0.6830913 0.2584057
vn 0.6830907 0.6830913 0.2584057
vn 0.6830907 0.6830913 0.2584057
vn 0.6830906 0.6830913 0.2584057
vn 0 0 1
vn 0 0 1
vn 0 0 1
vn 0 0 1
vn 0.6830916 0.683091 0.2584037
vn 0.6830916 0.683091 0.2584037
vn 0.6830915 0.683091 0.2584037
vn 0.6830916 0.683091 0.2584037
vn 0.6830897 0.6830924 0.2584054
vn 0.6830897 0.6830922 0.2584054
vn 0.6830897 0.6830922 0.2584054
vn 0.6830897 0.6830924 0.2584054
vn -0.0006263726 -0.0006263735 0.9999996
vn -0.0006263726 -0.0006263735 0.9999996
vn -0.0006263726 -0.0006263735 0.9999996
vn -0.0006263726 -0.0006263735 0.9999996
vn 0.6830919 0.6830906 0.2584042
vn 0.6830919 0.6830906 0.2584042
vn 0.6830919 0.6830906 0.2584042
vn 0.6830919 0.6830906 0.2584041
vn -0.0006264224 -0.0006264217 0.9999996
vn -0.0006264224 -0.0006264216 0.9999996
vn -0.0006264224 -0.0006264216 0.9999996
vn -0.0006264224 -0.0006264216 0.9999996
vn 0.6830907 0.6830924 0.2584025
vn 0.6830907 0.6830922 0.2584024
vn 0.6830907 0.6830923 0.2584025
vn 0.6830907 0.6830922 0.2584025
vn -0.0006268215 -0.0006271999 0.9999996
vn -0.0006268216 -0.0006271999 0.9999996
vn -0.0006268216 -0.0006272 0.9999996
vn -0.0006268216 -0.0006271999 0.9999996
vn 0.6830913 0.6830913 0.258404
vn 0.6830913 0.6830912 0.2584039
vn 0.6830913 0.6830913 0.258404
vn 0.6830913 0.6830913 0.258404
vn -0.0006265207 -0.0006265203 0.9999996
vn -0.0006265207 -0.0006265202 0.9999996
vn -0.0006265208 -0.0006265203 0.9999996
vn -0.0006265207 -0.0006265203 0.9999996
vn -0.6777285 0.6777292 0.2852494
vn -0.6777284 0.6777292 0.2852494
vn -0.6777285 0.6777292 0.2852494
vn -0.6777285 0.6777292 0.2852494
vn 0 0 1
vn 0 0 1
vn 0 0 1
vn 0 0 1
vn -0.6777295 0.677729 0.2852473
vn -0.6777295 0.677729 0.2852473
vn -0.6777295 0.677729 0.2852473
vn -0.6777295 0.6777291 0.2852473
vn -0.6777282 0.6777274 0.2852541
vn -0.6777282 0.6777274 0.2852542
vn -0.6777282 0.6777274 0.2852541
vn -0.6777282 0.6777274 0.2852542
vn 0.0006406356 -0.0006406319 0.9999996
vn 0.0006406356 -0.000640632 0.9999996
vn 0.0006406356 -0.0006406319 0.9999996
vn 0.0006406356 -0.0006406319 0.9999996
vn -0.6777307 0.6777272 0.2852491
vn -0.6777307 0.6777272 0.2852491
vn -0.6777307 0.6777272 0.2852491
vn -0.6777307 0.6777272 0.2852491
vn 0.0006406833 -0.000640684 0.9999996
vn 0.0006406833 -0.0006406839 0.9999996
vn 0.0006406833 -0.0006406839 0.9999996
vn 0.0006406834 -0.000640684 0.9999996
vn -0.6777312 0.6777271 0.2852479
vn -0.6777312 0.6777271 0.2852479
vn -0.6777312 0.6777271 0.2852479
vn -0.6777312 0.6777271 0.2852479
vn 0.0006411862 -0.0006411843 0.9999996
vn 0.0006411863 -0.0006411843 0.9999996
vn 0.0006411863 -0.0006411843 0.9999996
vn 0.0006411863 -0.0006411843 0.9999996
vn -0.677729 0.6777292 0.2852481
vn -0.677729 0.6777292 0.2852481
vn -0.677729 0.6777292 0.2852481
vn -0.677729 0.6777292 0.2852481
vn 0.0006407815 -0.0006407833 0.9999996
vn 0.0006407816 -0.0006407833 0.9999996
vn 0.0006407816 -0.0006407833 0.9999996
vn 0.0006407815 -0.0006407833 0.9999996
g RoundedSquare-WallStairs_0
f 3/3/3 2/2/2 1/1/1
f 4/4/4 3/3/3 1/1/1
f 7/7/7 6/6/6 5/5/5
f 8/8/8 7/7/7 5/5/5
f 11/11/11 10/10/10 9/9/9
f 12/12/12 11/11/11 9/9/9
f 15/15/15 14/14/14 13/13/13
f 16/16/16 15/15/15 13/13/13
f 19/19/19 18/18/18 17/17/17
f 20/20/20 19/19/19 17/17/17
f 23/23/23 22/22/22 21/21/21
f 24/24/24 23/23/23 21/21/21
f 27/27/27 26/26/26 25/25/25
f 28/28/28 27/27/27 25/25/25
f 31/31/31 30/30/30 29/29/29
f 32/32/32 31/31/31 29/29/29
f 35/35/35 34/34/34 33/33/33
f 36/36/36 35/35/35 33/33/33
f 39/39/39 38/38/38 37/37/37
f 40/40/40 39/39/39 37/37/37
f 43/43/43 42/42/42 41/41/41
f 44/44/44 43/43/43 41/41/41
f 47/47/47 46/46/46 45/45/45
f 48/48/48 47/47/47 45/45/45
f 51/51/51 50/50/50 49/49/49
f 52/52/52 51/51/51 49/49/49
f 55/55/55 54/54/54 53/53/53
f 56/56/56 55/55/55 53/53/53
f 59/59/59 58/58/58 57/57/57
f 60/60/60 59/59/59 57/57/57
f 63/63/63 62/62/62 61/61/61
f 64/64/64 63/63/63 61/61/61
f 67/67/67 66/66/66 65/65/65
f 65/65/65 66/66/66 68/68/68
f 66/66/66 69/69/69 68/68/68
f 68/68/68 69/69/69 70/70/70
f 69/69/69 71/71/71 70/70/70
f 70/70/70 71/71/71 72/72/72
f 71/71/71 73/73/73 72/72/72
f 72/72/72 73/73/73 74/74/74
f 73/73/73 75/75/75 74/74/74
f 74/74/74 75/75/75 76/76/76
f 75/75/75 77/77/77 76/76/76
f 76/76/76 77/77/77 78/78/78
f 77/77/77 79/79/79 78/78/78
f 78/78/78 79/79/79 80/80/80
f 79/79/79 81/81/81 80/80/80
f 80/80/80 81/81/81 82/82/82
f 81/81/81 83/83/83 82/82/82
f 82/82/82 83/83/83 84/84/84
f 83/83/83 85/85/85 84/84/84
f 84/84/84 85/85/85 86/86/86
f 85/85/85 87/87/87 86/86/86
f 86/86/86 87/87/87 88/88/88
f 87/87/87 89/89/89 88/88/88
f 88/88/88 89/89/89 90/90/90
f 89/89/89 91/91/91 90/90/90
f 90/90/90 91/91/91 92/92/92
f 91/91/91 93/93/93 92/92/92
f 92/92/92 93/93/93 94/94/94
f 93/93/93 95/95/95 94/94/94
f 94/94/94 95/95/95 96/96/96
f 95/95/95 97/97/97 96/96/96
f 96/96/96 97/97/97 98/98/98
f 97/97/97 99/99/99 98/98/98
f 98/98/98 99/99/99 100/100/100
f 99/99/99 101/101/101 100/100/100
f 100/100/100 101/101/101 102/102/102
f 101/101/101 103/103/103 102/102/102
f 106/106/106 105/105/105 104/104/104
f 107/107/107 106/106/106 104/104/104
f 108/108/108 107/107/107 104/104/104
f 109/109/109 107/107/107 108/108/108
f 110/110/110 109/109/109 108/108/108
f 111/111/111 109/109/109 110/110/110
f 112/112/112 111/111/111 110/110/110
f 113/113/113 111/111/111 112/112/112
f 114/114/114 113/113/113 112/112/112
f 115/115/115 113/113/113 114/114/114
f 116/116/116 115/115/115 114/114/114
f 117/117/117 115/115/115 116/116/116
f 118/118/118 117/117/117 116/116/116
f 119/119/119 117/117/117 118/118/118
f 120/120/120 119/119/119 118/118/118
f 121/121/121 119/119/119 120/120/120
f 122/122/122 121/121/121 120/120/120
f 123/123/123 121/121/121 122/122/122
f 124/124/124 123/123/123 122/122/122
f 125/125/125 123/123/123 124/124/124
f 126/126/126 125/125/125 124/124/124
f 127/127/127 125/125/125 126/126/126
f 128/128/128 127/127/127 126/126/126
f 129/129/129 127/127/127 128/128/128
f 130/130/130 129/129/129 128/128/128
f 131/131/131 129/129/129 130/130/130
f 132/132/132 131/131/131 130/130/130
f 133/133/133 131/131/131 132/132/132
f 134/134/134 133/133/133 132/132/132
f 135/135/135 133/133/133 134/134/134
f 136/136/136 135/135/135 134/134/134
f 137/137/137 135/135/135 136/136/136
f 138/138/138 137/137/137 136/136/136
f 139/139/139 137/137/137 138/138/138
f 140/140/140 139/139/139 138/138/138
f 141/141/141 139/139/139 140/140/140
f 142/142/142 141/141/141 140/140/140
f 145/145/145 144/144/144 143/143/143
f 146/146/146 145/145/145 143/143/143
f 149/149/149 148/148/148 147/147/147
f 150/150/150 149/149/149 147/147/147
f 153/153/153 152/152/152 151/151/151
f 154/154/154 153/153/153 151/151/151
f 157/157/157 156/156/156 155/155/155
f 158/158/158 157/157/157 155/155/155
f 161/161/161 160/160/160 159/159/159
f 162/162/162 161/161/161 159/159/159
f 165/165/165 164/164/164 163/163/163
f 166/166/166 165/165/165 163/163/163
f 169/169/169 168/168/168 167/167/167
f 170/170/170 169/169/169 167/167/167
f 173/173/173 172/172/172 171/171/171
f 174/174/174 173/173/173 171/171/171
f 177/177/177 176/176/176 175/175/175
f 178/178/178 177/177/177 175/175/175
f 181/181/181 180/180/180 179/179/179
f 182/182/182 181/181/181 179/179/179
f 185/185/185 184/184/184 183/183/183
f 186/186/186 185/185/185 183/183/183
f 189/189/189 188/188/188 187/187/187
f 190/190/190 189/189/189 187/187/187
f 193/193/193 192/192/192 191/191/191
f 194/194/194 193/193/193 191/191/191
f 197/197/197 196/196/196 195/195/195
f 198/198/198 197/197/197 195/195/195
f 201/201/201 200/200/200 199/199/199
f 202/202/202 201/201/201 199/199/199
f 205/205/205 204/204/204 203/203/203
f 206/206/206 205/205/205 203/203/203
f 209/209/209 208/208/208 207/207/207
f 210/210/210 209/209/209 207/207/207
f 213/213/213 212/212/212 211/211/211
f 214/214/214 213/213/213 211/211/211
f 217/217/217 216/216/216 215/215/215
f 218/218/218 217/217/217 215/215/215
f 221/221/221 220/220/220 219/219/219
f 222/222/222 221/221/221 219/219/219
f 225/225/225 224/224/224 223/223/223
f 226/226/226 225/225/225 223/223/223
f 229/229/229 228/228/228 227/227/227
f 230/230/230 229/229/229 227/227/227
f 233/233/233 232/232/232 231/231/231
f 234/234/234 233/233/233 231/231/231
