g Side Radial Walls
v 7.188185 8.969332 3
v 5.053494 10.32726 0
v 5.053494 10.32726 3
v 7.188185 8.969332 0
v 8.96933 7.188186 3
v 8.96933 7.188186 0
v 10.32726 5.053496 3
v 10.32726 5.053496 0
v 11.19271 2.634739 3
v 11.19271 2.634739 0
v 11.4967 -6.556708E-08 3
v 11.4967 6.556708E-08 0
v 11.19271 -2.634737 3
v 11.19271 -2.634737 0
v 10.32726 -5.053494 3
v 10.32726 -5.053494 0
v 5.053494 10.32726 3
v 5.053494 10.32726 0
v 2.634737 11.19271 0
v 2.634737 11.19271 3
v -5.781574E-07 11.4967 0
v -4.470232E-07 11.4967 3
v 5.26314 10.75567 0
v 2.743157 11.65735 3
v 2.743157 11.65735 0
v 5.26314 10.75567 3
v 7.486534 9.34132 0
v 7.486534 9.34132 3
v 9.341318 7.486535 0
v 9.341318 7.486535 3
v 10.75567 5.263142 0
v 10.75567 5.263142 3
v 11.65735 2.743159 0
v 11.65735 2.743159 3
v 11.97385 6.556708E-08 0
v 11.97385 -6.556708E-08 3
v 11.65735 -2.743157 0
v 11.65735 -2.743157 3
v 10.75567 -5.26314 0
v 2.743157 11.65735 0
v 2.743157 11.65735 3
v -4.477729E-07 11.97385 3
v -5.789071E-07 11.97385 0
v -4.470232E-07 11.4967 3
v -5.781574E-07 11.4967 0
v -2.634739 11.19271 0
v -2.634739 11.19271 3
v -5.053496 10.32726 0
v -5.053496 10.32726 3
v -7.188186 8.96933 0
v -7.188186 8.96933 3
v -8.969332 7.188185 0
v -8.969332 7.188185 3
v -10.32726 5.053493 0
v -10.32726 5.053493 3
v -5.789071E-07 11.97385 0
v -4.477729E-07 11.97385 3
v -2.743159 11.65735 3
v -2.743159 11.65735 0
v -5.263143 10.75567 3
v -5.263143 10.75567 0
v -7.486535 9.341318 3
v -7.486535 9.341318 0
v -9.34132 7.486534 3
v -9.34132 7.486534 0
v -10.75567 5.26314 3
v -10.75567 5.26314 0
v -10.32726 5.053493 3
v -10.32726 5.053493 0
v -11.19271 2.634737 0
v -11.19271 2.634737 3
v -11.4967 -1.045095E-06 0
v -11.4967 -9.139608E-07 3
v -11.19271 -2.63474 0
v -11.19271 -2.63474 3
v -10.32726 -5.053497 0
v -10.32726 -5.053497 3
v -8.96933 -7.188186 0
v -8.96933 -7.188186 3
v -10.75567 5.26314 0
v -10.75567 5.26314 3
v -11.65735 2.743156 3
v -11.65735 2.743156 0
v -11.97385 -1.006766E-06 3
v -11.97385 -1.1379E-06 0
v -11.65735 -2.74316 3
v -11.65735 -2.74316 0
v -10.75567 -5.263143 3
v -10.75567 -5.263143 0
v -9.341318 -7.486535 3
v -9.341318 -7.486535 0
v -7.486534 -9.34132 3
v -7.486534 -9.34132 0
v -5.26314 -10.75567 3
v -8.96933 -7.188186 3
v -8.96933 -7.188186 0
v -7.188185 -8.969332 0
v -7.188185 -8.969332 3
v -5.053494 -10.32726 0
v -5.053494 -10.32726 3
v -2.634737 -11.19271 0
v -2.634737 -11.19271 3
v 3.202061E-07 -11.4967 0
v 1.890719E-07 -11.4967 3
v -7.486534 -9.34132 0
v -5.26314 -10.75567 3
v -5.26314 -10.75567 0
v -2.743157 -11.65735 3
v -2.743157 -11.65735 0
v -4.032256E-08 -11.97385 3
v 9.08116E-08 -11.97385 0
v 1.890719E-07 -11.4967 3
v 3.202061E-07 -11.4967 0
v 2.634739 -11.19271 0
v 2.634739 -11.19271 3
v 9.08116E-08 -11.97385 0
v -4.032256E-08 -11.97385 3
v 2.743159 -11.65735 3
v 2.743159 -11.65735 0
v 5.263142 -10.75567 3
v 5.263142 -10.75567 0
v 7.486535 -9.341318 3
v 7.486535 -9.341318 0
v 9.34132 -7.486534 3
v 9.34132 -7.486534 0
v 10.75567 -5.26314 3
v 10.75567 -5.26314 0
v 11.65735 -2.743157 3
v 2.634739 -11.19271 3
v 2.634739 -11.19271 0
v 5.053496 -10.32726 0
v 5.053496 -10.32726 3
v 7.188186 -8.96933 0
v 7.188186 -8.96933 3
v 8.969332 -7.188185 0
v 8.969332 -7.188185 3
v 10.32726 -5.053494 0
v 10.32726 -5.053494 3
v 11.97385 -6.556708E-08 3
v 11.4967 -6.556708E-08 3
v 11.19271 2.634739 3
v 11.65735 2.743159 3
v 11.65735 -2.743157 3
v 10.32726 5.053496 3
v 11.19271 -2.634737 3
v 10.75567 5.263142 3
v 10.75567 -5.26314 3
v 8.96933 7.188186 3
v 10.32726 -5.053494 3
v 9.341318 7.486535 3
v 9.34132 -7.486534 3
v 7.188185 8.969332 3
v 8.969332 -7.188185 3
v 7.486534 9.34132 3
v 7.486535 -9.341318 3
v 5.053494 10.32726 3
v 7.188186 -8.96933 3
v 5.26314 10.75567 3
v 5.263142 -10.75567 3
v 2.634737 11.19271 3
v 5.053496 -10.32726 3
v 2.743157 11.65735 3
v 2.743159 -11.65735 3
v -4.470232E-07 11.4967 3
v 2.634739 -11.19271 3
v -4.477729E-07 11.97385 3
v -4.032256E-08 -11.97385 3
v -2.634739 11.19271 3
v 1.890719E-07 -11.4967 3
v -2.743159 11.65735 3
v -2.743157 -11.65735 3
v -5.053496 10.32726 3
v -2.634737 -11.19271 3
v -5.263143 10.75567 3
v -5.26314 -10.75567 3
v -7.188186 8.96933 3
v -5.053494 -10.32726 3
v -7.486535 9.341318 3
v -7.486534 -9.34132 3
v -8.969332 7.188185 3
v -7.188185 -8.969332 3
v -9.34132 7.486534 3
v -9.341318 -7.486535 3
v -10.32726 5.053493 3
v -8.96933 -7.188186 3
v -10.75567 5.26314 3
v -10.75567 -5.263143 3
v -11.19271 2.634737 3
v -10.32726 -5.053497 3
v -11.65735 2.743156 3
v -11.65735 -2.74316 3
v -11.4967 -9.139608E-07 3
v -11.19271 -2.63474 3
v -11.97385 -1.006766E-06 3
v 11.4967 6.556708E-08 0
v 11.97385 6.556708E-08 0
v 11.65735 2.743159 0
v 11.19271 2.634739 0
v 11.19271 -2.634737 0
v 10.75567 5.263142 0
v 11.65735 -2.743157 0
v 10.32726 5.053496 0
v 10.32726 -5.053494 0
v 9.341318 7.486535 0
v 10.75567 -5.26314 0
v 8.96933 7.188186 0
v 8.969332 -7.188185 0
v 7.486534 9.34132 0
v 9.34132 -7.486534 0
v 7.188185 8.969332 0
v 7.188186 -8.96933 0
v 5.26314 10.75567 0
v 7.486535 -9.341318 0
v 5.053494 10.32726 0
v 5.053496 -10.32726 0
v 2.743157 11.65735 0
v 5.263142 -10.75567 0
v 2.634737 11.19271 0
v 2.634739 -11.19271 0
v -5.789071E-07 11.97385 0
v 2.743159 -11.65735 0
v -5.781574E-07 11.4967 0
v 3.202061E-07 -11.4967 0
v -2.743159 11.65735 0
v 9.08116E-08 -11.97385 0
v -2.634739 11.19271 0
v -2.634737 -11.19271 0
v -5.263143 10.75567 0
v -2.743157 -11.65735 0
v -5.053496 10.32726 0
v -5.053494 -10.32726 0
v -7.486535 9.341318 0
v -5.26314 -10.75567 0
v -7.188186 8.96933 0
v -7.188185 -8.969332 0
v -9.34132 7.486534 0
v -7.486534 -9.34132 0
v -8.969332 7.188185 0
v -8.96933 -7.188186 0
v -10.75567 5.26314 0
v -9.341318 -7.486535 0
v -10.32726 5.053493 0
v -10.32726 -5.053497 0
v -11.65735 2.743156 0
v -10.75567 -5.263143 0
v -11.19271 2.634737 0
v -11.19271 -2.63474 0
v -11.97385 -1.1379E-06 0
v -11.65735 -2.74316 0
v -11.4967 -1.045095E-06 0
vt 0.6273079 0.9999725
vt 0.3437889 2.679229E-05
vt 0.3437889 0.9999726
vt 0.6273079 2.667308E-05
vt 0.9991905 0.9999725
vt 0.9991905 2.658367E-05
vt 1.444889 0.9999724
vt 1.444889 2.649426E-05
vt 1.949897 0.9999723
vt 1.949897 2.646446E-05
vt 2.5 0.9999723
vt 2.5 2.643466E-05
vt 3.050103 0.9999723
vt 3.050103 2.646446E-05
vt 3.555111 0.9999724
vt 3.555111 2.649426E-05
vt 0.3437889 0.9999726
vt 0.3437889 2.679229E-05
vt 0.1630916 2.69115E-05
vt 0.1630916 0.9999728
vt 0.09962216 2.706051E-05
vt 0.09962216 0.9999729
vt 0.2543408 2.676249E-05
vt 0.06608099 0.9999728
vt 0.06608099 2.69115E-05
vt 0.2543408 0.9999726
vt 0.5496411 2.664328E-05
vt 0.5496411 0.9999725
vt 0.9368989 2.655387E-05
vt 0.9368989 0.9999724
vt 1.401117 2.646446E-05
vt 1.401117 0.9999723
vt 1.92726 2.643466E-05
vt 1.92726 0.9999723
vt 2.5 2.640486E-05
vt 2.5 0.9999723
vt 3.07274 2.643466E-05
vt 3.07274 0.9999723
vt 3.598883 2.646446E-05
vt 0.06608099 2.69115E-05
vt 0.06608099 0.9999728
vt 0 0.9999729
vt 0 2.706051E-05
vt 0.09962216 0.9999729
vt 0.09962216 2.706051E-05
vt 0.1630916 2.720952E-05
vt 0.1630916 0.9999731
vt 0.3437889 2.732873E-05
vt 0.3437889 0.9999732
vt 0.6273084 2.744794E-05
vt 0.6273084 0.9999734
vt 0.9991903 2.753735E-05
vt 0.9991903 0.9999734
vt 1.444889 2.762675E-05
vt 1.444889 0.9999735
vt 0 2.706051E-05
vt 0 0.9999729
vt 0.06608099 0.9999731
vt 0.06608099 2.720952E-05
vt 0.2543408 0.9999732
vt 0.2543408 2.735853E-05
vt 0.5496414 0.9999734
vt 0.5496414 2.747774E-05
vt 0.9368987 0.9999735
vt 0.9368987 2.756715E-05
vt 1.401118 0.9999735
vt 1.401118 2.765656E-05
vt 1.444889 0.9999735
vt 1.444889 2.762675E-05
vt 1.949898 2.765656E-05
vt 1.949898 0.9999735
vt 2.5 2.768636E-05
vt 2.5 0.9999735
vt 3.050103 2.765656E-05
vt 3.050103 0.9999735
vt 3.555111 2.762675E-05
vt 3.555111 0.9999735
vt 4.00081 2.753735E-05
vt 4.00081 0.9999734
vt 1.401118 2.765656E-05
vt 1.401118 0.9999735
vt 1.927261 0.9999736
vt 1.927261 2.768636E-05
vt 2.5 0.9999736
vt 2.5 2.771616E-05
vt 3.07274 0.9999736
vt 3.07274 2.768636E-05
vt 3.598883 0.9999735
vt 3.598883 2.765656E-05
vt 4.063101 0.9999735
vt 4.063101 2.756715E-05
vt 4.450359 0.9999734
vt 4.450359 2.747774E-05
vt 4.745659 0.9999732
vt 4.00081 0.9999734
vt 4.00081 2.753735E-05
vt 4.372692 2.744794E-05
vt 4.372692 0.9999734
vt 4.656211 2.732873E-05
vt 4.656211 0.9999732
vt 4.836908 2.720952E-05
vt 4.836908 0.9999731
vt 4.900378 2.706051E-05
vt 4.900378 0.9999729
vt 4.450359 2.747774E-05
vt 4.745659 0.9999732
vt 4.745659 2.735853E-05
vt 4.933919 0.9999731
vt 4.933919 2.720952E-05
vt 5 0.9999729
vt 5 2.706051E-05
vt 4.900378 0.9999729
vt 4.900378 2.706051E-05
vt 4.836908 2.69115E-05
vt 4.836908 0.9999728
vt 5 2.706051E-05
vt 5 0.9999729
vt 4.933919 0.9999728
vt 4.933919 2.69115E-05
vt 4.745659 0.9999726
vt 4.745659 2.676249E-05
vt 4.450359 0.9999725
vt 4.450359 2.664328E-05
vt 4.063101 0.9999724
vt 4.063101 2.655387E-05
vt 3.598883 0.9999723
vt 3.598883 2.646446E-05
vt 3.07274 0.9999723
vt 4.836908 0.9999728
vt 4.836908 2.69115E-05
vt 4.656211 2.679229E-05
vt 4.656211 0.9999726
vt 4.372692 2.667308E-05
vt 4.372692 0.9999725
vt 4.00081 2.658367E-05
vt 4.00081 0.9999725
vt 3.555111 2.649426E-05
vt 3.555111 0.9999724
vt 2.5 0.9999723
vt 2.5 0.9999723
vt 1.949897 0.9999723
vt 1.92726 0.9999723
vt 3.07274 0.9999723
vt 1.444889 0.9999724
vt 3.050103 0.9999723
vt 1.401117 0.9999723
vt 3.598883 0.9999723
vt 0.9991905 0.9999725
vt 3.555111 0.9999724
vt 0.9368989 0.9999724
vt 4.063101 0.9999724
vt 0.6273079 0.9999725
vt 4.00081 0.9999725
vt 0.5496411 0.9999725
vt 4.450359 0.9999725
vt 0.3437889 0.9999726
vt 4.372692 0.9999725
vt 0.2543408 0.9999726
vt 4.745659 0.9999726
vt 0.1630916 0.9999728
vt 4.656211 0.9999726
vt 0.06608099 0.9999728
vt 4.933919 0.9999728
vt 0.09962216 0.9999729
vt 4.836908 0.9999728
vt 0 0.9999729
vt 5 0.9999729
vt 0.1630916 0.9999731
vt 4.900378 0.9999729
vt 0.06608099 0.9999731
vt 4.933919 0.9999731
vt 0.3437889 0.9999732
vt 4.836908 0.9999731
vt 0.2543408 0.9999732
vt 4.745659 0.9999732
vt 0.6273084 0.9999734
vt 4.656211 0.9999732
vt 0.5496414 0.9999734
vt 4.450359 0.9999734
vt 0.9991903 0.9999734
vt 4.372692 0.9999734
vt 0.9368987 0.9999735
vt 4.063101 0.9999735
vt 1.444889 0.9999735
vt 4.00081 0.9999734
vt 1.401118 0.9999735
vt 3.598883 0.9999735
vt 1.949898 0.9999735
vt 3.555111 0.9999735
vt 1.927261 0.9999736
vt 3.07274 0.9999736
vt 2.5 0.9999735
vt 3.050103 0.9999735
vt 2.5 0.9999736
vt 2.5 2.643466E-05
vt 2.5 2.640486E-05
vt 1.92726 2.643466E-05
vt 1.949897 2.646446E-05
vt 3.050103 2.646446E-05
vt 1.401117 2.646446E-05
vt 3.07274 2.643466E-05
vt 1.444889 2.649426E-05
vt 3.555111 2.649426E-05
vt 0.9368989 2.655387E-05
vt 3.598883 2.646446E-05
vt 0.9991905 2.658367E-05
vt 4.00081 2.658367E-05
vt 0.5496411 2.664328E-05
vt 4.063101 2.655387E-05
vt 0.6273079 2.667308E-05
vt 4.372692 2.667308E-05
vt 0.2543408 2.676249E-05
vt 4.450359 2.664328E-05
vt 0.3437889 2.679229E-05
vt 4.656211 2.679229E-05
vt 0.06608099 2.69115E-05
vt 4.745659 2.676249E-05
vt 0.1630916 2.69115E-05
vt 4.836908 2.69115E-05
vt 0 2.706051E-05
vt 4.933919 2.69115E-05
vt 0.09962216 2.706051E-05
vt 4.900378 2.706051E-05
vt 0.06608099 2.720952E-05
vt 5 2.706051E-05
vt 0.1630916 2.720952E-05
vt 4.836908 2.720952E-05
vt 0.2543408 2.735853E-05
vt 4.933919 2.720952E-05
vt 0.3437889 2.732873E-05
vt 4.656211 2.732873E-05
vt 0.5496414 2.747774E-05
vt 4.745659 2.735853E-05
vt 0.6273084 2.744794E-05
vt 4.372692 2.744794E-05
vt 0.9368987 2.756715E-05
vt 4.450359 2.747774E-05
vt 0.9991903 2.753735E-05
vt 4.00081 2.753735E-05
vt 1.401118 2.765656E-05
vt 4.063101 2.756715E-05
vt 1.444889 2.762675E-05
vt 3.555111 2.762675E-05
vt 1.927261 2.768636E-05
vt 3.598883 2.765656E-05
vt 1.949898 2.765656E-05
vt 3.050103 2.765656E-05
vt 2.5 2.771616E-05
vt 3.07274 2.768636E-05
vt 2.5 2.768636E-05
vn -0.6256605 -0.7800953 0
vn -0.4395403 -0.8982229 0
vn -0.4395403 -0.8982229 0
vn -0.6256605 -0.7800953 0
vn -0.7800953 -0.6256607 0
vn -0.7800953 -0.6256607 0
vn -0.8982227 -0.4395407 0
vn -0.8982227 -0.4395407 0
vn -0.9738387 -0.2272401 0
vn -0.9738387 -0.2272401 0
vn -1 0 0
vn -1 0 0
vn -0.9738387 0.2272402 0
vn -0.9738387 0.2272402 0
vn -0.8982229 0.4395403 0
vn -0.8982229 0.4395403 0
vn -0.4395403 -0.8982229 0
vn -0.4395403 -0.8982229 0
vn -0.2272401 -0.9738387 0
vn -0.2272401 -0.9738387 0
vn 0 -1 0
vn 0 -1 0
vn 0.4395406 0.8982227 0
vn 0.2272401 0.9738387 0
vn 0.2272401 0.9738387 0
vn 0.4395406 0.8982227 0
vn 0.6256607 0.7800953 0
vn 0.6256607 0.7800953 0
vn 0.7800952 0.6256608 0
vn 0.7800952 0.6256608 0
vn 0.8982225 0.439541 0
vn 0.8982225 0.439541 0
vn 0.9738387 0.2272401 0
vn 0.9738387 0.2272401 0
vn 1 0 0
vn 1 0 0
vn 0.9738387 -0.2272402 0
vn 0.9738387 -0.2272402 0
vn 0.8982227 -0.4395407 0
vn 0.2272401 0.9738387 0
vn 0.2272401 0.9738387 0
vn 0 1 0
vn 0 1 0
vn 0 -1 0
vn 0 -1 0
vn 0.2272401 -0.9738387 0
vn 0.2272401 -0.9738387 0
vn 0.4395407 -0.8982227 0
vn 0.4395407 -0.8982227 0
vn 0.6256607 -0.7800953 0
vn 0.6256607 -0.7800953 0
vn 0.7800953 -0.6256607 0
vn 0.7800953 -0.6256607 0
vn 0.8982229 -0.4395402 0
vn 0.8982229 -0.4395402 0
vn 0 1 0
vn 0 1 0
vn -0.2272401 0.9738387 0
vn -0.2272401 0.9738387 0
vn -0.439541 0.8982225 0
vn -0.439541 0.8982225 0
vn -0.6256609 0.780095 0
vn -0.6256609 0.780095 0
vn -0.7800952 0.6256609 0
vn -0.7800952 0.6256609 0
vn -0.8982227 0.4395406 0
vn -0.8982227 0.4395406 0
vn 0.8982229 -0.4395402 0
vn 0.8982229 -0.4395402 0
vn 0.9738387 -0.22724 0
vn 0.9738387 -0.22724 0
vn 1 0 0
vn 1 0 0
vn 0.9738387 0.2272401 0
vn 0.9738387 0.2272401 0
vn 0.8982227 0.4395408 0
vn 0.8982227 0.4395408 0
vn 0.7800952 0.6256608 0
vn 0.7800952 0.6256608 0
vn -0.8982227 0.4395406 0
vn -0.8982227 0.4395406 0
vn -0.9738387 0.2272399 0
vn -0.9738387 0.2272399 0
vn -1 0 0
vn -1 0 0
vn -0.9738387 -0.2272401 0
vn -0.9738387 -0.2272401 0
vn -0.8982225 -0.439541 0
vn -0.8982225 -0.439541 0
vn -0.780095 -0.6256609 0
vn -0.780095 -0.6256609 0
vn -0.6256607 -0.7800953 0
vn -0.6256607 -0.7800953 0
vn -0.4395407 -0.8982227 0
vn 0.7800952 0.6256608 0
vn 0.7800952 0.6256608 0
vn 0.6256605 0.7800953 0
vn 0.6256605 0.7800953 0
vn 0.4395403 0.8982229 0
vn 0.4395403 0.8982229 0
vn 0.2272402 0.9738387 0
vn 0.2272402 0.9738387 0
vn 0 1 0
vn 0 1 0
vn -0.6256607 -0.7800953 0
vn -0.4395407 -0.8982227 0
vn -0.4395407 -0.8982227 0
vn -0.2272402 -0.9738387 0
vn -0.2272402 -0.9738387 0
vn 0 -1 0
vn 0 -1 0
vn 0 1 0
vn 0 1 0
vn -0.2272401 0.9738387 0
vn -0.2272401 0.9738387 0
vn 0 -1 0
vn 0 -1 0
vn 0.2272401 -0.9738387 0
vn 0.2272401 -0.9738387 0
vn 0.439541 -0.8982225 0
vn 0.439541 -0.8982225 0
vn 0.6256608 -0.7800952 0
vn 0.6256608 -0.7800952 0
vn 0.7800953 -0.6256607 0
vn 0.7800953 -0.6256607 0
vn 0.8982227 -0.4395407 0
vn 0.8982227 -0.4395407 0
vn 0.9738387 -0.2272402 0
vn -0.2272401 0.9738387 0
vn -0.2272401 0.9738387 0
vn -0.4395407 0.8982227 0
vn -0.4395407 0.8982227 0
vn -0.6256607 0.7800953 0
vn -0.6256607 0.7800953 0
vn -0.7800953 0.6256605 0
vn -0.7800953 0.6256605 0
vn -0.8982229 0.4395403 0
vn -0.8982229 0.4395403 0
vn 0 0 1
vn 0 0 1
vn 0 0 1
vn 0 0 1
vn 0 0 1
vn 0 0 1
vn 0 0 1
vn 0 0 1
vn 0 0 1
vn 0 0 1
vn 0 0 1
vn 0 0 1
vn 0 0 1
vn 0 0 1
vn 0 0 1
vn 0 0 1
vn 0 0 1
vn 0 0 1
vn 0 0 1
vn 0 0 1
vn 0 0 1
vn 0 0 1
vn 0 0 1
vn 0 0 1
vn 0 0 1
vn 0 0 1
vn 0 0 1
vn 0 0 1
vn 0 0 1
vn 0 0 1
vn 0 0 1
vn 0 0 1
vn 0 0 1
vn 0 0 1
vn 0 0 1
vn 0 0 1
vn 0 0 1
vn 0 0 1
vn 0 0 1
vn 0 0 1
vn 0 0 1
vn 0 0 1
vn 0 0 1
vn 0 0 1
vn 0 0 1
vn 0 0 1
vn 0 0 1
vn 0 0 1
vn 0 0 1
vn 0 0 1
vn 0 0 1
vn 0 0 1
vn 0 0 1
vn 0 0 1
vn 0 0 1
vn 0 0 1
vn 0 0 -1
vn 0 0 -1
vn 0 0 -1
vn 0 0 -1
vn 0 0 -1
vn 0 0 -1
vn 0 0 -1
vn 0 0 -1
vn 0 0 -1
vn 0 0 -1
vn 0 0 -1
vn 0 0 -1
vn 0 0 -1
vn 0 0 -1
vn 0 0 -1
vn 0 0 -1
vn 0 0 -1
vn 0 0 -1
vn 0 0 -1
vn 0 0 -1
vn 0 0 -1
vn 0 0 -1
vn 0 0 -1
vn 0 0 -1
vn 0 0 -1
vn 0 0 -1
vn 0 0 -1
vn 0 0 -1
vn 0 0 -1
vn 0 0 -1
vn 0 0 -1
vn 0 0 -1
vn 0 0 -1
vn 0 0 -1
vn 0 0 -1
vn 0 0 -1
vn 0 0 -1
vn 0 0 -1
vn 0 0 -1
vn 0 0 -1
vn 0 0 -1
vn 0 0 -1
vn 0 0 -1
vn 0 0 -1
vn 0 0 -1
vn 0 0 -1
vn 0 0 -1
vn 0 0 -1
vn 0 0 -1
vn 0 0 -1
vn 0 0 -1
vn 0 0 -1
vn 0 0 -1
vn 0 0 -1
vn 0 0 -1
vn 0 0 -1
g Side Radial Walls_0
f 3/3/3 2/2/2 1/1/1
f 2/2/2 4/4/4 1/1/1
f 1/1/1 4/4/4 5/5/5
f 4/4/4 6/6/6 5/5/5
f 5/5/5 6/6/6 7/7/7
f 6/6/6 8/8/8 7/7/7
f 7/7/7 8/8/8 9/9/9
f 8/8/8 10/10/10 9/9/9
f 9/9/9 10/10/10 11/11/11
f 10/10/10 12/12/12 11/11/11
f 11/11/11 12/12/12 13/13/13
f 12/12/12 14/14/14 13/13/13
f 13/13/13 14/14/14 15/15/15
f 14/14/14 16/16/16 15/15/15
f 19/19/19 18/18/18 17/17/17
f 20/20/20 19/19/19 17/17/17
f 21/21/21 19/19/19 20/20/20
f 22/22/22 21/21/21 20/20/20
f 25/25/25 24/24/24 23/23/23
f 24/24/24 26/26/26 23/23/23
f 23/23/23 26/26/26 27/27/27
f 26/26/26 28/28/28 27/27/27
f 27/27/27 28/28/28 29/29/29
f 28/28/28 30/30/30 29/29/29
f 29/29/29 30/30/30 31/31/31
f 30/30/30 32/32/32 31/31/31
f 31/31/31 32/32/32 33/33/33
f 32/32/32 34/34/34 33/33/33
f 33/33/33 34/34/34 35/35/35
f 34/34/34 36/36/36 35/35/35
f 35/35/35 36/36/36 37/37/37
f 36/36/36 38/38/38 37/37/37
f 37/37/37 38/38/38 39/39/39
f 42/42/42 41/41/41 40/40/40
f 43/43/43 42/42/42 40/40/40
f 46/46/46 45/45/45 44/44/44
f 47/47/47 46/46/46 44/44/44
f 48/48/48 46/46/46 47/47/47
f 49/49/49 48/48/48 47/47/47
f 50/50/50 48/48/48 49/49/49
f 51/51/51 50/50/50 49/49/49
f 52/52/52 50/50/50 51/51/51
f 53/53/53 52/52/52 51/51/51
f 54/54/54 52/52/52 53/53/53
f 55/55/55 54/54/54 53/53/53
f 58/58/58 57/57/57 56/56/56
f 59/59/59 58/58/58 56/56/56
f 60/60/60 58/58/58 59/59/59
f 61/61/61 60/60/60 59/59/59
f 62/62/62 60/60/60 61/61/61
f 63/63/63 62/62/62 61/61/61
f 64/64/64 62/62/62 63/63/63
f 65/65/65 64/64/64 63/63/63
f 66/66/66 64/64/64 65/65/65
f 67/67/67 66/66/66 65/65/65
f 70/70/70 69/69/69 68/68/68
f 71/71/71 70/70/70 68/68/68
f 72/72/72 70/70/70 71/71/71
f 73/73/73 72/72/72 71/71/71
f 74/74/74 72/72/72 73/73/73
f 75/75/75 74/74/74 73/73/73
f 76/76/76 74/74/74 75/75/75
f 77/77/77 76/76/76 75/75/75
f 78/78/78 76/76/76 77/77/77
f 79/79/79 78/78/78 77/77/77
f 82/82/82 81/81/81 80/80/80
f 83/83/83 82/82/82 80/80/80
f 84/84/84 82/82/82 83/83/83
f 85/85/85 84/84/84 83/83/83
f 86/86/86 84/84/84 85/85/85
f 87/87/87 86/86/86 85/85/85
f 88/88/88 86/86/86 87/87/87
f 89/89/89 88/88/88 87/87/87
f 90/90/90 88/88/88 89/89/89
f 91/91/91 90/90/90 89/89/89
f 92/92/92 90/90/90 91/91/91
f 93/93/93 92/92/92 91/91/91
f 94/94/94 92/92/92 93/93/93
f 97/97/97 96/96/96 95/95/95
f 98/98/98 97/97/97 95/95/95
f 99/99/99 97/97/97 98/98/98
f 100/100/100 99/99/99 98/98/98
f 101/101/101 99/99/99 100/100/100
f 102/102/102 101/101/101 100/100/100
f 103/103/103 101/101/101 102/102/102
f 104/104/104 103/103/103 102/102/102
f 107/107/107 106/106/106 105/105/105
f 108/108/108 106/106/106 107/107/107
f 109/109/109 108/108/108 107/107/107
f 110/110/110 108/108/108 109/109/109
f 111/111/111 110/110/110 109/109/109
f 114/114/114 113/113/113 112/112/112
f 115/115/115 114/114/114 112/112/112
f 118/118/118 117/117/117 116/116/116
f 119/119/119 118/118/118 116/116/116
f 120/120/120 118/118/118 119/119/119
f 121/121/121 120/120/120 119/119/119
f 122/122/122 120/120/120 121/121/121
f 123/123/123 122/122/122 121/121/121
f 124/124/124 122/122/122 123/123/123
f 125/125/125 124/124/124 123/123/123
f 126/126/126 124/124/124 125/125/125
f 127/127/127 126/126/126 125/125/125
f 128/128/128 126/126/126 127/127/127
f 131/131/131 130/130/130 129/129/129
f 132/132/132 131/131/131 129/129/129
f 133/133/133 131/131/131 132/132/132
f 134/134/134 133/133/133 132/132/132
f 135/135/135 133/133/133 134/134/134
f 136/136/136 135/135/135 134/134/134
f 137/137/137 135/135/135 136/136/136
f 138/138/138 137/137/137 136/136/136
f 141/141/141 140/140/140 139/139/139
f 142/142/142 141/141/141 139/139/139
f 139/139/139 140/140/140 143/143/143
f 144/144/144 141/141/141 142/142/142
f 140/140/140 145/145/145 143/143/143
f 146/146/146 144/144/144 142/142/142
f 143/143/143 145/145/145 147/147/147
f 148/148/148 144/144/144 146/146/146
f 145/145/145 149/149/149 147/147/147
f 150/150/150 148/148/148 146/146/146
f 147/147/147 149/149/149 151/151/151
f 152/152/152 148/148/148 150/150/150
f 149/149/149 153/153/153 151/151/151
f 154/154/154 152/152/152 150/150/150
f 151/151/151 153/153/153 155/155/155
f 156/156/156 152/152/152 154/154/154
f 153/153/153 157/157/157 155/155/155
f 158/158/158 156/156/156 154/154/154
f 155/155/155 157/157/157 159/159/159
f 160/160/160 156/156/156 158/158/158
f 157/157/157 161/161/161 159/159/159
f 162/162/162 160/160/160 158/158/158
f 159/159/159 161/161/161 163/163/163
f 164/164/164 160/160/160 162/162/162
f 161/161/161 165/165/165 163/163/163
f 166/166/166 164/164/164 162/162/162
f 163/163/163 165/165/165 167/167/167
f 168/168/168 164/164/164 166/166/166
f 165/165/165 169/169/169 167/167/167
f 170/170/170 168/168/168 166/166/166
f 167/167/167 169/169/169 171/171/171
f 172/172/172 168/168/168 170/170/170
f 169/169/169 173/173/173 171/171/171
f 174/174/174 172/172/172 170/170/170
f 171/171/171 173/173/173 175/175/175
f 176/176/176 172/172/172 174/174/174
f 173/173/173 177/177/177 175/175/175
f 178/178/178 176/176/176 174/174/174
f 175/175/175 177/177/177 179/179/179
f 180/180/180 176/176/176 178/178/178
f 177/177/177 181/181/181 179/179/179
f 182/182/182 180/180/180 178/178/178
f 179/179/179 181/181/181 183/183/183
f 184/184/184 180/180/180 182/182/182
f 181/181/181 185/185/185 183/183/183
f 186/186/186 184/184/184 182/182/182
f 183/183/183 185/185/185 187/187/187
f 188/188/188 184/184/184 186/186/186
f 185/185/185 189/189/189 187/187/187
f 190/190/190 188/188/188 186/186/186
f 187/187/187 189/189/189 191/191/191
f 192/192/192 188/188/188 190/190/190
f 189/189/189 193/193/193 191/191/191
f 194/194/194 192/192/192 190/190/190
f 191/191/191 193/193/193 194/194/194
f 193/193/193 192/192/192 194/194/194
f 197/197/197 196/196/196 195/195/195
f 198/198/198 197/197/197 195/195/195
f 195/195/195 196/196/196 199/199/199
f 200/200/200 197/197/197 198/198/198
f 196/196/196 201/201/201 199/199/199
f 202/202/202 200/200/200 198/198/198
f 199/199/199 201/201/201 203/203/203
f 204/204/204 200/200/200 202/202/202
f 201/201/201 205/205/205 203/203/203
f 206/206/206 204/204/204 202/202/202
f 203/203/203 205/205/205 207/207/207
f 208/208/208 204/204/204 206/206/206
f 205/205/205 209/209/209 207/207/207
f 210/210/210 208/208/208 206/206/206
f 207/207/207 209/209/209 211/211/211
f 212/212/212 208/208/208 210/210/210
f 209/209/209 213/213/213 211/211/211
f 214/214/214 212/212/212 210/210/210
f 211/211/211 213/213/213 215/215/215
f 216/216/216 212/212/212 214/214/214
f 213/213/213 217/217/217 215/215/215
f 218/218/218 216/216/216 214/214/214
f 215/215/215 217/217/217 219/219/219
f 220/220/220 216/216/216 218/218/218
f 217/217/217 221/221/221 219/219/219
f 222/222/222 220/220/220 218/218/218
f 219/219/219 221/221/221 223/223/223
f 224/224/224 220/220/220 222/222/222
f 221/221/221 225/225/225 223/223/223
f 226/226/226 224/224/224 222/222/222
f 223/223/223 225/225/225 227/227/227
f 228/228/228 224/224/224 226/226/226
f 225/225/225 229/229/229 227/227/227
f 230/230/230 228/228/228 226/226/226
f 227/227/227 229/229/229 231/231/231
f 232/232/232 228/228/228 230/230/230
f 229/229/229 233/233/233 231/231/231
f 234/234/234 232/232/232 230/230/230
f 231/231/231 233/233/233 235/235/235
f 236/236/236 232/232/232 234/234/234
f 233/233/233 237/237/237 235/235/235
f 238/238/238 236/236/236 234/234/234
f 235/235/235 237/237/237 239/239/239
f 240/240/240 236/236/236 238/238/238
f 237/237/237 241/241/241 239/239/239
f 242/242/242 240/240/240 238/238/238
f 239/239/239 241/241/241 243/243/243
f 244/244/244 240/240/240 242/242/242
f 241/241/241 245/245/245 243/243/243
f 246/246/246 244/244/244 242/242/242
f 243/243/243 245/245/245 247/247/247
f 248/248/248 244/244/244 246/246/246
f 245/245/245 249/249/249 247/247/247
f 250/250/250 248/248/248 246/246/246
f 247/247/247 249/249/249 250/250/250
f 249/249/249 248/248/248 250/250/250
