g Splat_M_029
v -0.03116456 -0.0141928 0.1312934
v -0.01605171 -0.002268225 0.1105133
v -0.1606342 0.01133208 0.08786909
v 0.05905436 0.007466003 0.09128331
v -0.172132 -0.04126789 0.1175739
v -0.1167956 -0.03283282 0.1374377
v -0.2056526 0.02560394 0.1039736
v -0.1256073 0.03182982 0.1195697
v -0.2002803 0.04066029 0.09045486
v -0.01431951 0.005827948 0.1082852
v 0.0849307 0.007679403 0.162222
v 0.1303383 0.0391854 0.1237433
v 0.1211501 0.04603891 0.1249357
v 0.1122631 0.04615815 0.04759537
v 0.1028992 0.05706601 0.03539464
v 0.06175935 0.03176706 0.05003051
v 0.09589504 0.03046791 0.01448269
v 0.09033442 0.05043845 -0.04684734
v 0.1183321 0.04632132 -0.02139777
v 0.09156454 -0.007521316 -0.1209241
v 0.0957507 0.04349081 -0.09128211
v 0.1308655 -0.006956458 -0.06902707
v 0.2056514 -0.00754641 -0.0740605
v 0.09409381 -0.003705442 -0.1468444
v 0.08656877 -0.03121985 -0.1541686
v 0.1138823 -0.03737672 -0.1622209
v 0.1241375 -0.0570711 -0.1379888
v 0.198823 -0.02294168 -0.06737646
v 0.2006055 -0.02554627 -0.09809796
vn 0.2300993 -0.6578562 0.7171328
vn -0.01100022 -0.8600687 -0.5100597
vn 0.04344165 -0.02010942 -0.9988535
vn 0.1834348 -0.9456201 -0.2686156
vn -0.5087538 -0.8522913 0.1215283
vn 0.05121905 -0.6423014 0.7647389
vn -0.9831752 0.04988712 0.1757207
vn 0.05121905 0.9365109 0.3468775
vn -0.6020826 0.6565244 -0.4543923
vn -0.1898804 0.8742916 0.446721
vn 0.2223218 -0.3000959 0.9276397
vn 0.9689523 -0.04344165 0.2434014
vn 0.2378767 0.8665143 0.4388254
vn 0.9922845 -0.1212156 -0.02604362
vn 0.128993 0.9909527 0.03706196
vn -0.7731854 -0.0356642 -0.6331764
vn 0.1678801 -0.9845071 -0.05061725
vn -0.9752821 0.2209638 0
vn 0.828959 0.5009764 0.2486957
vn -0.9442882 -0.2612088 0.2002243
vn -0.454312 0.7731854 -0.4424758
vn -0.1665482 -0.7822946 0.6002306
vn 0.8600687 0.4465346 0.2467564
vn -0.3998702 0.6331922 -0.6627001
vn -0.843182 -0.3078732 -0.4407473
vn 0.1445478 -0.1989896 -0.9692827
vn -0.04988712 -0.9922845 -0.1135023
vn 0.4556438 -0.4478664 0.7692882
vn 0.828959 -0.2300993 -0.5097854
g Splat_M_029_0
f 3/3/3 2/2/2 1/1/1
f 2/2/2 4/4/4 1/1/1
f 5/5/5 3/3/3 1/1/1
f 1/1/1 6/6/6 5/5/5
f 6/6/6 7/7/7 5/5/5
f 7/7/7 3/3/3 5/5/5
f 8/8/8 7/7/7 6/6/6
f 1/1/1 8/8/8 6/6/6
f 9/9/9 3/3/3 7/7/7
f 8/8/8 9/9/9 7/7/7
f 9/9/9 8/8/8 3/3/3
f 10/10/10 3/3/3 8/8/8
f 10/10/10 8/8/8 1/1/1
f 11/11/11 1/1/1 4/4/4
f 1/1/1 11/11/11 10/10/10
f 12/12/12 11/11/11 4/4/4
f 12/12/12 13/13/13 11/11/11
f 11/11/11 13/13/13 10/10/10
f 12/12/12 14/14/14 13/13/13
f 14/14/14 12/12/12 4/4/4
f 13/13/13 15/15/15 10/10/10
f 15/15/15 13/13/13 14/14/14
f 16/16/16 4/4/4 10/10/10
f 15/15/15 16/16/16 10/10/10
f 17/17/17 14/14/14 4/4/4
f 4/4/4 16/16/16 17/17/17
f 18/18/18 16/16/16 15/15/15
f 18/18/18 17/17/17 16/16/16
f 14/14/14 19/19/19 15/15/15
f 19/19/19 18/18/18 15/15/15
f 17/17/17 19/19/19 14/14/14
f 17/17/17 18/18/18 20/20/20
f 18/18/18 21/21/21 20/20/20
f 17/17/17 22/22/22 19/19/19
f 22/22/22 17/17/17 20/20/20
f 21/21/21 19/19/19 23/23/23
f 19/19/19 22/22/22 23/23/23
f 21/21/21 24/24/24 20/20/20
f 24/24/24 21/21/21 23/23/23
f 24/24/24 25/25/25 20/20/20
f 20/20/20 25/25/25 22/22/22
f 24/24/24 26/26/26 25/25/25
f 26/26/26 24/24/24 23/23/23
f 27/27/27 22/22/22 25/25/25
f 25/25/25 26/26/26 27/27/27
f 28/28/28 23/23/23 22/22/22
f 22/22/22 27/27/27 28/28/28
f 29/29/29 26/26/26 23/23/23
f 29/29/29 23/23/23 28/28/28
f 28/28/28 27/27/27 29/29/29
f 27/27/27 26/26/26 29/29/29
