g TechSquare-Stairs_Collision
v -3.885754 7.771508 0
v -7.771508 3.885754 0
v -7.771508 7.771508 2.313982
v 7.771508 3.885754 0
v 3.885754 7.771508 0
v 7.771508 7.771508 2.313982
v 3.885754 -7.771508 0
v 7.771508 -3.885754 0
v 7.771508 -7.771508 2.313982
v -7.771508 -3.885754 0
v -3.885754 -7.771508 0
v -7.771508 -7.771508 2.313982
v -7.771508 -15.54302 2.313982
v -15.54302 -15.54302 8.940697E-07
v -15.54302 -15.54302 2.313982
v -3.885754 -15.54302 0
v -7.771508 -15.54302 2.313982
v -15.54302 -15.54302 2.313982
v -15.54302 -15.54302 8.940697E-07
v -15.54302 -7.771508 2.313982
v -15.54302 -7.771508 2.313982
v -15.54302 -3.885754 0
v 15.54302 -15.54302 2.313982
v 15.54302 -15.54302 8.940697E-07
v 7.771508 -15.54302 2.313982
v 7.771508 -15.54302 2.313982
v 3.885754 -15.54302 0
v 15.54302 -7.771508 2.313982
v 15.54302 -15.54302 8.940697E-07
v 15.54302 -15.54302 2.313982
v 15.54302 -3.885754 0
v 15.54302 -7.771508 2.313982
v -15.54302 15.54302 2.313982
v -15.54302 15.54302 8.940697E-07
v -7.771508 15.54302 2.313982
v -7.771508 15.54302 2.313982
v -3.885754 15.54302 0
v -15.54302 7.771508 2.313982
v -15.54302 15.54302 8.940697E-07
v -15.54302 15.54302 2.313982
v -15.54302 3.885754 0
v -15.54302 7.771508 2.313982
v 15.54302 15.54302 2.313982
v 15.54302 15.54302 8.940697E-07
v 15.54302 7.771508 2.313982
v 15.54302 7.771508 2.313982
v 15.54302 3.885754 0
v 7.771508 15.54302 2.313982
v 15.54302 15.54302 8.940697E-07
v 15.54302 15.54302 2.313982
v 3.885754 15.54302 0
v 7.771508 15.54302 2.313982
v -15.54302 -15.54302 2.313982
v -15.54302 -7.771508 2.313982
v -7.771508 -7.771508 2.313982
v -7.771508 -15.54302 2.313982
v 7.771508 -15.54302 2.313982
v 7.771508 -7.771508 2.313982
v 15.54302 -7.771508 2.313982
v 15.54302 -15.54302 2.313982
v -15.54302 7.771508 2.313982
v -15.54302 15.54302 2.313982
v -7.771508 15.54302 2.313982
v -7.771508 7.771508 2.313982
v 7.771508 7.771508 2.313982
v 7.771508 15.54302 2.313982
v 15.54302 15.54302 2.313982
v 15.54302 7.771508 2.313982
v 7.771508 -15.54302 2.313982
v 3.885754 -15.54302 0
v 3.885754 -7.771508 0
v 7.771508 -7.771508 2.313982
v -7.771508 -7.771508 2.313982
v -3.885754 -7.771508 0
v -3.885754 -15.54302 0
v -7.771508 -15.54302 2.313982
v -7.771508 7.771508 2.313982
v -7.771508 3.885754 0
v -15.54302 3.885754 0
v -15.54302 7.771508 2.313982
v -15.54302 -7.771508 2.313982
v -15.54302 -3.885754 0
v -7.771508 -3.885754 0
v -7.771508 -7.771508 2.313982
v 15.54302 7.771508 2.313982
v 15.54302 3.885754 0
v 7.771508 3.885754 0
v 7.771508 7.771508 2.313982
v 7.771508 -7.771508 2.313982
v 7.771508 -3.885754 0
v 15.54302 -3.885754 0
v 15.54302 -7.771508 2.313982
v 7.771508 7.771508 2.313982
v 3.885754 7.771508 0
v 3.885754 15.54302 0
v 7.771508 15.54302 2.313982
v -7.771508 15.54302 2.313982
v -3.885754 15.54302 0
v -3.885754 7.771508 0
v -7.771508 7.771508 2.313982
vt 12.26869 24.53738
vt 8.179127 20.44782
vt 8.179127 24.53738
vt 24.53738 20.44782
vt 20.44782 24.53738
vt 24.53738 24.53738
vt 20.44782 8.179127
vt 24.53738 12.26869
vt 24.53738 8.179127
vt 8.179127 12.26869
vt 12.26869 8.179127
vt 8.179127 8.179127
vt 8.179127 0
vt 10.22391 0
vt 10.22391 0
vt 10.22391 0
vt 10.22391 0
vt 0 0
vt 10.22391 0
vt 0 0
vt 0 10.22391
vt 0 10.22391
vt 32.71651 0
vt 32.71651 10.22391
vt 32.71651 0
vt 22.4926 0
vt 22.4926 0
vt 32.71651 8.179127
vt 32.71651 10.22391
vt 32.71651 10.22391
vt 32.71651 10.22391
vt 32.71651 10.22391
vt 0 32.71651
vt 0 22.4926
vt 0 32.71651
vt 10.22391 32.71651
vt 10.22391 32.71651
vt 0 24.53738
vt 0 22.4926
vt 0 22.4926
vt 0 22.4926
vt 0 22.4926
vt 32.71651 32.71651
vt 22.4926 32.71651
vt 32.71651 32.71651
vt 32.71651 22.4926
vt 32.71651 22.4926
vt 24.53738 32.71651
vt 22.4926 32.71651
vt 22.4926 32.71651
vt 22.4926 32.71651
vt 22.4926 32.71651
vt 0 0
vt 0 10.22391
vt 8.179127 8.179127
vt 8.179127 0
vt 22.4926 0
vt 24.53738 8.179127
vt 32.71651 8.179127
vt 32.71651 0
vt 0 24.53738
vt 0 32.71651
vt 10.22391 32.71651
vt 8.179127 24.53738
vt 24.53738 24.53738
vt 24.53738 32.71651
vt 32.71651 32.71651
vt 32.71651 22.4926
vt 22.4926 0
vt 20.44782 0
vt 20.44782 8.179127
vt 24.53738 8.179127
vt 8.179127 8.179127
vt 12.26869 8.179127
vt 10.22391 0
vt 8.179127 0
vt 8.179127 24.53738
vt 8.179127 20.44782
vt 0 22.4926
vt 0 24.53738
vt 0 10.22391
vt 0 12.26869
vt 8.179127 12.26869
vt 8.179127 8.179127
vt 32.71651 22.4926
vt 32.71651 20.44782
vt 24.53738 20.44782
vt 24.53738 24.53738
vt 24.53738 8.179127
vt 24.53738 12.26869
vt 32.71651 10.22391
vt 32.71651 8.179127
vt 24.53738 24.53738
vt 20.44782 24.53738
vt 22.4926 32.71651
vt 24.53738 32.71651
vt 10.22391 32.71651
vt 12.26869 32.71651
vt 12.26869 24.53738
vt 8.179127 24.53738
vn 0.4554932 -0.4554932 0.7648867
vn 0.4554932 -0.4554932 0.7648867
vn 0.4554932 -0.4554932 0.7648867
vn -0.4554932 -0.4554932 0.7648867
vn -0.4554932 -0.4554932 0.7648867
vn -0.4554932 -0.4554932 0.7648867
vn -0.4554932 0.4554932 0.7648867
vn -0.4554932 0.4554932 0.7648867
vn -0.4554932 0.4554932 0.7648867
vn 0.4554932 0.4554932 0.7648867
vn 0.4554932 0.4554932 0.7648867
vn 0.4554932 0.4554932 0.7648867
vn 0 -1 0
vn 0 -1 0
vn 0 -1 0
vn 0 -1 0
vn 0 -1 0
vn -1 0 0
vn -1 0 0
vn -1 0 0
vn -1 0 0
vn -1 0 0
vn 0 -1 0
vn 0 -1 0
vn 0 -1 0
vn 0 -1 0
vn 0 -1 0
vn 1 0 0
vn 1 0 0
vn 1 0 0
vn 1 0 0
vn 1 0 0
vn 0 1 0
vn 0 1 0
vn 0 1 0
vn 0 1 0
vn 0 1 0
vn -1 0 0
vn -1 0 0
vn -1 0 0
vn -1 0 0
vn -1 0 0
vn 1 0 0
vn 1 0 0
vn 1 0 0
vn 1 0 0
vn 1 0 0
vn 0 1 0
vn 0 1 0
vn 0 1 0
vn 0 1 0
vn 0 1 0
vn 0 0 1
vn 0 0 1
vn 0 0 1
vn 0 0 1
vn 0 0 1
vn 0 0 1
vn 0 0 1
vn 0 0 1
vn 0 0 1
vn 0 0 1
vn 0 0 1
vn 0 0 1
vn 0 0 1
vn 0 0 1
vn 0 0 1
vn 0 0 1
vn -0.5116525 0 0.8591924
vn -0.5116525 0 0.8591924
vn -0.5116525 0 0.8591924
vn -0.5116525 0 0.8591924
vn 0.5116525 0 0.8591924
vn 0.5116525 0 0.8591924
vn 0.5116525 0 0.8591924
vn 0.5116525 0 0.8591924
vn 0 -0.5116525 0.8591924
vn 0 -0.5116525 0.8591924
vn 0 -0.5116525 0.8591924
vn 0 -0.5116525 0.8591924
vn 0 0.5116525 0.8591924
vn 0 0.5116525 0.8591924
vn 0 0.5116525 0.8591924
vn 0 0.5116525 0.8591924
vn 0 -0.5116525 0.8591924
vn 0 -0.5116525 0.8591924
vn 0 -0.5116525 0.8591924
vn 0 -0.5116525 0.8591924
vn 0 0.5116525 0.8591924
vn 0 0.5116525 0.8591924
vn 0 0.5116525 0.8591924
vn 0 0.5116525 0.8591924
vn -0.5116525 0 0.8591924
vn -0.5116525 0 0.8591924
vn -0.5116525 0 0.8591924
vn -0.5116525 0 0.8591924
vn 0.5116525 0 0.8591924
vn 0.5116525 0 0.8591924
vn 0.5116525 0 0.8591924
vn 0.5116525 0 0.8591924
g TechSquare-Stairs_Collision_0
f 3/3/3 2/2/2 1/1/1
f 6/6/6 5/5/5 4/4/4
f 9/9/9 8/8/8 7/7/7
f 12/12/12 11/11/11 10/10/10
f 15/15/15 14/14/14 13/13/13
f 17/17/17 14/14/14 16/16/16
f 20/20/20 19/19/19 18/18/18
f 22/22/22 19/19/19 21/21/21
f 25/25/25 24/24/24 23/23/23
f 27/27/27 24/24/24 26/26/26
f 30/30/30 29/29/29 28/28/28
f 32/32/32 29/29/29 31/31/31
f 35/35/35 34/34/34 33/33/33
f 37/37/37 34/34/34 36/36/36
f 40/40/40 39/39/39 38/38/38
f 42/42/42 39/39/39 41/41/41
f 45/45/45 44/44/44 43/43/43
f 47/47/47 44/44/44 46/46/46
f 50/50/50 49/49/49 48/48/48
f 52/52/52 49/49/49 51/51/51
f 55/55/55 54/54/54 53/53/53
f 56/56/56 55/55/55 53/53/53
f 59/59/59 58/58/58 57/57/57
f 60/60/60 59/59/59 57/57/57
f 63/63/63 62/62/62 61/61/61
f 64/64/64 63/63/63 61/61/61
f 67/67/67 66/66/66 65/65/65
f 68/68/68 67/67/67 65/65/65
f 71/71/71 70/70/70 69/69/69
f 72/72/72 71/71/71 69/69/69
f 75/75/75 74/74/74 73/73/73
f 76/76/76 75/75/75 73/73/73
f 79/79/79 78/78/78 77/77/77
f 80/80/80 79/79/79 77/77/77
f 83/83/83 82/82/82 81/81/81
f 84/84/84 83/83/83 81/81/81
f 87/87/87 86/86/86 85/85/85
f 88/88/88 87/87/87 85/85/85
f 91/91/91 90/90/90 89/89/89
f 92/92/92 91/91/91 89/89/89
f 95/95/95 94/94/94 93/93/93
f 96/96/96 95/95/95 93/93/93
f 99/99/99 98/98/98 97/97/97
f 100/100/100 99/99/99 97/97/97
