g TechSquare-Wall
v -15.54302 -15.54302 2.716969E-07
v -15.54302 -15.54302 5.68208
v -15.54302 -12.19689 5.682081
v -15.8492 12.19689 5.682081
v -15.8492 15.8492 2.716969E-07
v -15.8492 15.8492 5.682081
v -15.8492 6.098447 8.451013
v -15.8492 -6.098447 8.451013
v -15.8492 -12.19689 5.682081
v -15.8492 15.8492 2.716969E-07
v -15.8492 -15.8492 2.716969E-07
v -15.8492 -15.8492 5.68208
v -15.54302 -15.54302 2.716969E-07
v -12.80755 -15.54302 5.68208
v -15.54302 -15.54302 5.68208
v 15.54302 -15.54302 2.716969E-07
v 12.80755 -15.54302 5.68208
v 15.54302 -15.54302 5.68208
v -6.403776 -15.54302 8.451013
v 6.403776 -15.54302 8.451013
v -15.54302 15.54302 2.716969E-07
v -15.54302 12.19689 5.682081
v -15.54302 15.54302 5.682081
v -15.54302 -15.54302 2.716969E-07
v -15.54302 -12.19689 5.682081
v -15.54302 6.098447 8.451013
v -15.54302 -6.098447 8.451013
v -15.54302 15.54302 2.716969E-07
v -15.54302 15.54302 5.682081
v 15.54302 15.54302 5.682081
v 15.54302 15.54302 2.716969E-07
v 15.54302 15.54302 2.716969E-07
v 15.54302 15.54302 5.682081
v 15.54302 -15.54302 5.68208
v 15.54302 -15.54302 2.716969E-07
v -12.80755 -15.8492 5.68208
v -15.8492 -15.8492 2.716969E-07
v -15.8492 -15.8492 5.68208
v 12.80755 -15.8492 5.68208
v 15.8492 -15.8492 2.716969E-07
v 15.8492 -15.8492 5.68208
v 6.403776 -15.8492 8.451013
v -6.403776 -15.8492 8.451013
v 15.8492 15.8492 5.682081
v -15.8492 15.8492 5.682081
v -15.8492 15.8492 2.716969E-07
v 15.8492 15.8492 2.716969E-07
v 15.8492 -15.8492 5.68208
v 15.8492 15.8492 5.682081
v 15.8492 15.8492 2.716969E-07
v 15.8492 -15.8492 2.716969E-07
v -6.403776 -15.54302 8.451013
v -6.403776 -15.8492 8.451013
v -12.80755 -15.8492 5.68208
v -12.80755 -15.54302 5.68208
v 6.403776 -15.54302 8.451013
v -15.8492 -15.8492 5.68208
v 6.403776 -15.8492 8.451013
v -15.54302 -15.54302 5.68208
v 12.80755 -15.54302 5.68208
v -15.8492 -12.19689 5.682081
v 12.80755 -15.8492 5.68208
v -15.54302 -12.19689 5.682081
v 15.54302 -15.54302 5.68208
v -15.8492 -6.098447 8.451013
v 15.8492 -15.8492 5.68208
v -15.54302 -6.098447 8.451013
v 15.54302 15.54302 5.682081
v -15.8492 6.098447 8.451013
v 15.8492 15.8492 5.682081
v -15.54302 6.098447 8.451013
v -15.54302 15.54302 5.682081
v -15.8492 12.19689 5.682081
v -15.8492 15.8492 5.682081
v -15.54302 12.19689 5.682081
v -15.54302 -15.54302 2.716969E-07
v -15.8492 -15.8492 2.716969E-07
v 15.8492 -15.8492 2.716969E-07
v 15.54302 -15.54302 2.716969E-07
v -15.54302 15.54302 2.716969E-07
v 15.8492 15.8492 2.716969E-07
v -15.8492 15.8492 2.716969E-07
v 15.54302 15.54302 2.716969E-07
vt 12.26869 0
vt 0 0
vt 0 8.179127
vt 0 24.53738
vt 0 20.44782
vt 0 32.71651
vt 0 20.44782
vt 0 12.26869
vt 0 8.179127
vt 0 20.44782
vt 12.26869 0
vt 0 0
vt 12.26869 0
vt 8.179127 0
vt 0 0
vt 32.71651 12.26869
vt 24.53738 0
vt 32.71651 0
vt 12.26869 0
vt 20.44782 0
vt 0 20.44782
vt 0 24.53738
vt 0 32.71651
vt 12.26869 0
vt 0 8.179127
vt 0 20.44782
vt 0 12.26869
vt 0 20.44782
vt 0 32.71651
vt 32.71651 32.71651
vt 20.44782 32.71651
vt 20.44782 32.71651
vt 32.71651 32.71651
vt 32.71651 0
vt 32.71651 12.26869
vt 8.179127 0
vt 12.26869 0
vt 0 0
vt 24.53738 0
vt 32.71651 12.26869
vt 32.71651 0
vt 20.44782 0
vt 12.26869 0
vt 32.71651 32.71651
vt 0 32.71651
vt 0 20.44782
vt 20.44782 32.71651
vt 32.71651 0
vt 32.71651 32.71651
vt 20.44782 32.71651
vt 32.71651 12.26869
vt 12.26869 0
vt 12.26869 0
vt 8.179127 0
vt 8.179127 0
vt 20.44782 0
vt 0 0
vt 20.44782 0
vt 0 0
vt 24.53738 0
vt 0 8.179127
vt 24.53738 0
vt 0 8.179127
vt 32.71651 0
vt 0 12.26869
vt 32.71651 0
vt 0 12.26869
vt 32.71651 32.71651
vt 0 20.44782
vt 32.71651 32.71651
vt 0 20.44782
vt 0 32.71651
vt 0 24.53738
vt 0 32.71651
vt 0 24.53738
vt 12.26869 0
vt 12.26869 0
vt 32.71651 12.26869
vt 32.71651 12.26869
vt 0 20.44782
vt 20.44782 32.71651
vt 0 20.44782
vt 20.44782 32.71651
vn 1 0 0
vn 1 0 0
vn 1 0 0
vn -1 0 0
vn -1 0 0
vn -1 0 0
vn -1 0 0
vn -1 0 0
vn -1 0 0
vn -1 0 0
vn -1 0 0
vn -1 0 0
vn 0 1 0
vn 0 1 0
vn 0 1 0
vn 0 1 0
vn 0 1 0
vn 0 1 0
vn 0 1 0
vn 0 1 0
vn 1 0 0
vn 1 0 0
vn 1 0 0
vn 1 0 0
vn 1 0 0
vn 1 0 0
vn 1 0 0
vn 0 -1 0
vn 0 -1 0
vn 0 -1 0
vn 0 -1 0
vn -1 0 0
vn -1 0 0
vn -1 0 0
vn -1 0 0
vn 0 -1 0
vn 0 -1 0
vn 0 -1 0
vn 0 -1 0
vn 0 -1 0
vn 0 -1 0
vn 0 -1 0
vn 0 -1 0
vn 0 1 0
vn 0 1 0
vn 0 1 0
vn 0 1 0
vn 1 0 0
vn 1 0 0
vn 1 0 0
vn 1 0 0
vn -0.2026438 0 0.9792525
vn -0.2026438 0 0.9792525
vn -0.2026438 0 0.9792525
vn -0.2026438 0 0.9792525
vn 0.2026438 0 0.9792525
vn 0 0 1
vn 0.2026438 0 0.9792525
vn 0 0 1
vn 0.2026438 0 0.9792525
vn 0 -0.2114946 0.9773792
vn 0.2026438 0 0.9792525
vn 0 -0.2114946 0.9773792
vn 0 0 1
vn 0 -0.2114945 0.9773792
vn 0 0 1
vn 0 -0.2114945 0.9773792
vn 0 0 1
vn 0 0.2114945 0.9773792
vn 0 0 1
vn 0 0.2114945 0.9773792
vn 0 0 1
vn 0 0.2114944 0.9773792
vn 0 0 1
vn 0 0.2114944 0.9773792
vn 0 0 -1
vn 0 0 -1
vn 0 0 -1
vn 0 0 -1
vn 0 0 -1
vn 0 0 -1
vn 0 0 -1
vn 0 0 -1
g TechSquare-Wall_0
f 3/3/3 2/2/2 1/1/1
f 6/6/6 5/5/5 4/4/4
f 8/8/8 7/7/7 4/4/4
f 9/9/9 8/8/8 4/4/4
f 9/9/9 4/4/4 10/10/10
f 11/11/11 9/9/9 10/10/10
f 9/9/9 11/11/11 12/12/12
f 15/15/15 14/14/14 13/13/13
f 16/16/16 13/13/13 14/14/14
f 17/17/17 16/16/16 14/14/14
f 17/17/17 18/18/18 16/16/16
f 17/17/17 14/14/14 19/19/19
f 20/20/20 17/17/17 19/19/19
f 23/23/23 22/22/22 21/21/21
f 24/24/24 21/21/21 22/22/22
f 25/25/25 24/24/24 22/22/22
f 25/25/25 22/22/22 26/26/26
f 27/27/27 25/25/25 26/26/26
f 30/30/30 29/29/29 28/28/28
f 31/31/31 30/30/30 28/28/28
f 34/34/34 33/33/33 32/32/32
f 35/35/35 34/34/34 32/32/32
f 38/38/38 37/37/37 36/36/36
f 39/39/39 36/36/36 37/37/37
f 40/40/40 39/39/39 37/37/37
f 39/39/39 40/40/40 41/41/41
f 39/39/39 42/42/42 36/36/36
f 42/42/42 43/43/43 36/36/36
f 46/46/46 45/45/45 44/44/44
f 47/47/47 46/46/46 44/44/44
f 50/50/50 49/49/49 48/48/48
f 51/51/51 50/50/50 48/48/48
f 54/54/54 53/53/53 52/52/52
f 55/55/55 54/54/54 52/52/52
f 52/52/52 53/53/53 56/56/56
f 57/57/57 54/54/54 55/55/55
f 53/53/53 58/58/58 56/56/56
f 59/59/59 57/57/57 55/55/55
f 56/56/56 58/58/58 60/60/60
f 61/61/61 57/57/57 59/59/59
f 58/58/58 62/62/62 60/60/60
f 63/63/63 61/61/61 59/59/59
f 60/60/60 62/62/62 64/64/64
f 65/65/65 61/61/61 63/63/63
f 62/62/62 66/66/66 64/64/64
f 67/67/67 65/65/65 63/63/63
f 64/64/64 66/66/66 68/68/68
f 69/69/69 65/65/65 67/67/67
f 66/66/66 70/70/70 68/68/68
f 71/71/71 69/69/69 67/67/67
f 68/68/68 70/70/70 72/72/72
f 73/73/73 69/69/69 71/71/71
f 70/70/70 74/74/74 72/72/72
f 75/75/75 73/73/73 71/71/71
f 72/72/72 74/74/74 75/75/75
f 74/74/74 73/73/73 75/75/75
f 78/78/78 77/77/77 76/76/76
f 79/79/79 78/78/78 76/76/76
f 76/76/76 77/77/77 80/80/80
f 81/81/81 78/78/78 79/79/79
f 77/77/77 82/82/82 80/80/80
f 83/83/83 81/81/81 79/79/79
f 80/80/80 82/82/82 83/83/83
f 82/82/82 81/81/81 83/83/83
