g TeleportPlatform
v -0.1516193 0.5658659 8.881092E-06
v -8.881092E-06 0.5858364 8.881092E-06
v -8.881092E-06 0.5173792 0.1062434
v -0.1339015 0.4997509 0.1062434
v -0.2929137 0.5073493 8.881092E-06
v -0.129414 0.4829629 0.1242471
v -8.881092E-06 0.5000013 0.1242471
v -0.2586941 0.448064 0.1062434
v -0.4142556 0.4142556 8.881092E-06
v -0.1233889 0.4604717 0.1242471
v -8.881092E-06 0.4767234 0.1242471
v -8.881092E-06 8.881092E-06 0.01520568
v -0.2500051 0.4330102 0.1242471
v -0.2383661 0.412861 0.1242471
v -0.3658404 0.3658404 0.1062434
v -0.5073493 0.2929137 8.881092E-06
v -0.3370916 0.3370916 0.1242471
v -0.3535578 0.3535578 0.1242471
v -0.448064 0.2586941 0.1062434
v -0.5658659 0.1516193 8.881092E-06
v -0.412861 0.2383661 0.1242471
v -0.4330102 0.2500051 0.1242471
v -0.4997509 0.1339015 0.1062434
v -0.5858364 8.881092E-06 8.881092E-06
v -0.4604717 0.1233889 0.1242471
v -0.4829629 0.129414 0.1242471
v -0.5173792 8.881092E-06 0.1062434
v -0.5658659 -0.1516194 8.881092E-06
v -0.4767234 8.881092E-06 0.1242471
v -0.5000013 8.881092E-06 0.1242471
v -0.4604717 -0.1233891 0.1242471
v -0.412861 -0.2383662 0.1242471
v -0.3370916 -0.3370918 0.1242471
v -0.4829629 -0.1294142 0.1242471
v -0.4997509 -0.1339017 0.1062434
v -0.5073493 -0.2929138 8.881092E-06
v -0.4330102 -0.2500052 0.1242471
v -0.448064 -0.2586942 0.1062434
v -0.4142556 -0.4142557 8.881092E-06
v -0.3535578 -0.3535579 0.1242471
v -0.3658404 -0.3658406 0.1062434
v -0.2929137 -0.5073495 8.881092E-06
v -0.2383661 -0.4128612 0.1242471
v -0.2586941 -0.4480641 0.1062434
v -0.1516193 -0.5658661 8.881092E-06
v -0.2500051 -0.4330104 0.1242471
v -0.1339015 -0.4997511 0.1062434
v -8.881092E-06 -0.5858365 8.881092E-06
v -0.1233889 -0.4604719 0.1242471
v -0.129414 -0.4829631 0.1242471
v -8.881092E-06 -0.5173794 0.1062434
v 0.1516194 -0.5658661 8.881092E-06
v -8.881092E-06 -0.4767235 0.1242471
v -8.881092E-06 -0.5000014 0.1242471
v 0.1339017 -0.4997511 0.1062434
v 0.2929138 -0.5073495 8.881092E-06
v 0.1233891 -0.4604719 0.1242471
v 0.1294142 -0.4829631 0.1242471
v 0.2586942 -0.4480641 0.1062434
v 0.4142557 -0.4142557 8.881092E-06
v 0.2383662 -0.4128612 0.1242471
v 0.2500052 -0.4330104 0.1242471
v 0.3370918 -0.3370918 0.1242471
v 0.4128612 -0.2383662 0.1242471
v 0.4604719 -0.1233891 0.1242471
v 0.3535579 -0.3535579 0.1242471
v 0.3658406 -0.3658406 0.1062434
v 0.5073495 -0.2929138 8.881092E-06
v 0.4330104 -0.2500052 0.1242471
v 0.4480641 -0.2586942 0.1062434
v 0.5658661 -0.1516194 8.881092E-06
v 0.4829631 -0.1294142 0.1242471
v 0.4997511 -0.1339017 0.1062434
v 0.5858365 8.881092E-06 8.881092E-06
v 0.4767235 8.881092E-06 0.1242471
v 0.5173794 8.881092E-06 0.1062434
v 0.5658661 0.1516193 8.881092E-06
v 0.5000014 8.881092E-06 0.1242471
v 0.4997511 0.1339015 0.1062434
v 0.5073495 0.2929137 8.881092E-06
v 0.4604719 0.1233889 0.1242471
v 0.4829631 0.129414 0.1242471
v 0.4480641 0.2586941 0.1062434
v 0.4142557 0.4142556 8.881092E-06
v 0.4128612 0.2383661 0.1242471
v 0.4330104 0.2500051 0.1242471
v 0.3658406 0.3658404 0.1062434
v 0.2929138 0.5073493 8.881092E-06
v 0.3370918 0.3370916 0.1242471
v 0.3535579 0.3535578 0.1242471
v 0.2586942 0.448064 0.1062434
v 0.1516194 0.5658659 8.881092E-06
v 0.2383662 0.412861 0.1242471
v 0.2500052 0.4330102 0.1242471
v 0.1233891 0.4604717 0.1242471
v -8.881092E-06 0.4767234 0.1242471
v 0.1294142 0.4829629 0.1242471
v -8.881092E-06 0.5000013 0.1242471
v 0.1339017 0.4997509 0.1062434
v -8.881092E-06 0.5858364 8.881092E-06
v -8.881092E-06 0.5173792 0.1062434
vt 0.04203324 0
vt 0 0
vt 0 0.8553275
vt 0.04203324 0.8553275
vt 0.08308896 0
vt 0.04203324 1
vt 0 1
vt 0.08308896 0.8553275
vt 0.1251222 0
vt 0.04203324 1
vt 0 1
vt 0.5004888 1
vt 0.08308896 1
vt 0.08308896 1
vt 0.1251222 0.8553275
vt 0.1661779 0
vt 0.1251222 1
vt 0.1251222 1
vt 0.1661779 0.8553275
vt 0.2082111 0
vt 0.1661779 1
vt 0.1661779 1
vt 0.2082111 0.8553275
vt 0.2502444 0
vt 0.2082111 1
vt 0.2082111 1
vt 0.2502444 0.8553275
vt 0.2913001 0
vt 0.2502444 1
vt 0.2502444 1
vt 0.2913001 1
vt 0.3333333 1
vt 0.3753666 1
vt 0.2913001 1
vt 0.2913001 0.8553275
vt 0.3333333 0
vt 0.3333333 1
vt 0.3333333 0.8553275
vt 0.3753666 0
vt 0.3753666 1
vt 0.3753666 0.8553275
vt 0.4164223 0
vt 0.4164223 1
vt 0.4164223 0.8553275
vt 0.4584555 0
vt 0.4164223 1
vt 0.4584555 0.8553275
vt 0.4995112 0
vt 0.4584555 1
vt 0.4584555 1
vt 0.4995112 0.8553275
vt 0.5415445 0
vt 0.4995112 1
vt 0.4995112 1
vt 0.5415445 0.8553275
vt 0.5835777 0
vt 0.5415445 1
vt 0.5415445 1
vt 0.5835777 0.8553275
vt 0.6246334 0
vt 0.5835777 1
vt 0.5835777 1
vt 0.6246334 1
vt 0.6666667 1
vt 0.7086999 1
vt 0.6246334 1
vt 0.6246334 0.8553275
vt 0.6666667 0
vt 0.6666667 1
vt 0.6666667 0.8553275
vt 0.7086999 0
vt 0.7086999 1
vt 0.7086999 0.8553275
vt 0.7497556 0
vt 0.7497556 1
vt 0.7497556 0.8553275
vt 0.7917889 0
vt 0.7497556 1
vt 0.7917889 0.8553275
vt 0.8338221 0
vt 0.7917889 1
vt 0.7917889 1
vt 0.8338221 0.8553275
vt 0.8748778 0
vt 0.8338221 1
vt 0.8338221 1
vt 0.8748778 0.8553275
vt 0.9169111 0
vt 0.8748778 1
vt 0.8748778 1
vt 0.9169111 0.8553275
vt 0.9579667 0
vt 0.9169111 1
vt 0.9169111 1
vt 0.9579667 1
vt 1 1
vt 0.9579667 1
vt 1 1
vt 0.9579667 0.8553275
vt 1 0
vt 1 0.8553275
vn -0.2142688 0.8142215 0.5395667
vn 0.003296375 0.840593 0.5416573
vn 0.003296375 0.7878499 0.6158585
vn -0.2010831 0.7614783 0.6162113
vn -0.4186484 0.728514 0.5422186
vn -0.1087826 0.4054625 0.9076158
vn 0.003296375 0.4186484 0.9081424
vn -0.3922768 0.6823637 0.6168457
vn -0.5966562 0.5966562 0.5366589
vn 0.02966791 -0.1021897 0.9943224
vn 0.003296375 -0.1021897 0.9947595
vn 0.003296375 -0.003296375 0.9999892
vn -0.2076759 0.3593123 0.9098161
vn 0.04944658 -0.08900392 0.9948031
vn -0.5570989 0.5570989 0.6158586
vn -0.728514 0.4186484 0.5422186
vn 0.07581812 -0.07581812 0.994235
vn -0.2933835 0.2933835 0.9098639
vn -0.6823637 0.3922768 0.6168457
vn -0.8142215 0.2142688 0.5395667
vn 0.08900392 -0.04944658 0.9948031
vn -0.3593123 0.2076759 0.9098161
vn -0.7614783 0.2010831 0.6162114
vn -0.840593 -0.003296375 0.5416573
vn 0.1021897 -0.02966791 0.9943224
vn -0.4054625 0.1087826 0.9076158
vn -0.7878499 -0.003296375 0.6158585
vn -0.8142215 -0.2142687 0.5395667
vn 0.1021897 -0.003296375 0.9947595
vn -0.4186484 -0.003296375 0.9081424
vn 0.1021897 0.02966803 0.9943224
vn 0.08900392 0.0494467 0.9948031
vn 0.07581812 0.07581824 0.994235
vn -0.4054625 -0.1087825 0.9076158
vn -0.7614783 -0.2010829 0.6162114
vn -0.728514 -0.4186482 0.5422187
vn -0.3593123 -0.2076758 0.9098161
vn -0.6823637 -0.3922766 0.6168458
vn -0.5966562 -0.5966561 0.536659
vn -0.2933835 -0.2933834 0.9098639
vn -0.5570989 -0.5570987 0.6158587
vn -0.4186484 -0.7285138 0.5422187
vn 0.04944658 0.08900404 0.9948031
vn -0.3922768 -0.6823636 0.6168458
vn -0.2142688 -0.8142213 0.539567
vn -0.2076759 -0.3593122 0.9098161
vn -0.2010831 -0.7614782 0.6162114
vn 0.003296375 -0.8405929 0.5416574
vn 0.02966791 0.1021898 0.9943224
vn -0.1087826 -0.4054624 0.9076159
vn 0.003296375 -0.7878498 0.6158587
vn 0.2142687 -0.8142213 0.539567
vn 0.003296375 0.1021898 0.9947595
vn 0.003296375 -0.4186482 0.9081426
vn 0.2010829 -0.7614782 0.6162114
vn 0.4186482 -0.7285138 0.5422189
vn -0.02966803 0.1021898 0.9943224
vn 0.1087825 -0.4054624 0.9076159
vn 0.3922766 -0.6823636 0.616846
vn 0.5966561 -0.5966561 0.5366591
vn -0.0494467 0.08900404 0.9948031
vn 0.2076758 -0.3593122 0.9098161
vn -0.07581824 0.07581824 0.994235
vn -0.08900404 0.0494467 0.9948031
vn -0.1021898 0.02966803 0.9943224
vn 0.2933834 -0.2933834 0.9098639
vn 0.5570987 -0.5570987 0.6158587
vn 0.7285138 -0.4186482 0.5422189
vn 0.3593122 -0.2076758 0.9098161
vn 0.6823636 -0.3922766 0.6168459
vn 0.8142213 -0.2142687 0.539567
vn 0.4054624 -0.1087825 0.9076159
vn 0.7614782 -0.2010829 0.6162114
vn 0.8405929 -0.003296375 0.5416574
vn -0.1021898 -0.003296375 0.9947595
vn 0.7878498 -0.003296375 0.6158586
vn 0.8142213 0.2142688 0.539567
vn 0.4186482 -0.003296375 0.9081426
vn 0.7614782 0.2010831 0.6162114
vn 0.7285138 0.4186484 0.5422187
vn -0.1021898 -0.02966791 0.9943224
vn 0.4054624 0.1087826 0.9076159
vn 0.6823636 0.3922768 0.6168458
vn 0.5966561 0.5966562 0.5366589
vn -0.08900404 -0.04944658 0.9948031
vn 0.3593122 0.2076759 0.9098161
vn 0.5570987 0.5570989 0.6158586
vn 0.4186482 0.728514 0.5422187
vn -0.07581824 -0.07581812 0.994235
vn 0.2933834 0.2933835 0.9098639
vn 0.3922766 0.6823637 0.6168458
vn 0.2142687 0.8142215 0.5395668
vn -0.0494467 -0.08900392 0.9948031
vn 0.2076758 0.3593123 0.9098161
vn -0.02966803 -0.1021897 0.9943224
vn 0.003296375 -0.1021897 0.9947595
vn 0.1087825 0.4054625 0.9076158
vn 0.003296375 0.4186484 0.9081424
vn 0.2010829 0.7614783 0.6162114
vn 0.003296375 0.840593 0.5416573
vn 0.003296375 0.7878499 0.6158585
g TeleportPlatform_0
f 3/3/3 2/2/2 1/1/1
f 4/4/4 3/3/3 1/1/1
f 4/4/4 1/1/1 5/5/5
f 3/3/3 4/4/4 6/6/6
f 7/7/7 3/3/3 6/6/6
f 8/8/8 4/4/4 5/5/5
f 8/8/8 5/5/5 9/9/9
f 6/6/6 10/10/10 7/7/7
f 10/10/10 11/11/11 7/7/7
f 10/10/10 12/12/12 11/11/11
f 6/6/6 4/4/4 13/13/13
f 4/4/4 8/8/8 13/13/13
f 14/14/14 10/10/10 6/6/6
f 14/14/14 12/12/12 10/10/10
f 13/13/13 14/14/14 6/6/6
f 15/15/15 8/8/8 9/9/9
f 15/15/15 9/9/9 16/16/16
f 17/17/17 14/14/14 13/13/13
f 17/17/17 12/12/12 14/14/14
f 13/13/13 8/8/8 18/18/18
f 18/18/18 17/17/17 13/13/13
f 8/8/8 15/15/15 18/18/18
f 19/19/19 15/15/15 16/16/16
f 19/19/19 16/16/16 20/20/20
f 21/21/21 17/17/17 18/18/18
f 21/21/21 12/12/12 17/17/17
f 18/18/18 15/15/15 22/22/22
f 22/22/22 21/21/21 18/18/18
f 15/15/15 19/19/19 22/22/22
f 23/23/23 19/19/19 20/20/20
f 23/23/23 20/20/20 24/24/24
f 25/25/25 21/21/21 22/22/22
f 25/25/25 12/12/12 21/21/21
f 22/22/22 19/19/19 26/26/26
f 26/26/26 25/25/25 22/22/22
f 19/19/19 23/23/23 26/26/26
f 27/27/27 23/23/23 24/24/24
f 27/27/27 24/24/24 28/28/28
f 29/29/29 12/12/12 25/25/25
f 29/29/29 25/25/25 26/26/26
f 26/26/26 23/23/23 30/30/30
f 30/30/30 29/29/29 26/26/26
f 23/23/23 27/27/27 30/30/30
f 31/31/31 12/12/12 29/29/29
f 31/31/31 29/29/29 30/30/30
f 32/32/32 12/12/12 31/31/31
f 33/33/33 12/12/12 32/32/32
f 34/34/34 31/31/31 30/30/30
f 30/30/30 27/27/27 34/34/34
f 32/32/32 31/31/31 34/34/34
f 35/35/35 27/27/27 28/28/28
f 27/27/27 35/35/35 34/34/34
f 35/35/35 28/28/28 36/36/36
f 37/37/37 32/32/32 34/34/34
f 34/34/34 35/35/35 37/37/37
f 33/33/33 32/32/32 37/37/37
f 38/38/38 35/35/35 36/36/36
f 35/35/35 38/38/38 37/37/37
f 38/38/38 36/36/36 39/39/39
f 40/40/40 33/33/33 37/37/37
f 37/37/37 38/38/38 40/40/40
f 41/41/41 38/38/38 39/39/39
f 38/38/38 41/41/41 40/40/40
f 41/41/41 39/39/39 42/42/42
f 43/43/43 33/33/33 40/40/40
f 43/43/43 12/12/12 33/33/33
f 44/44/44 41/41/41 42/42/42
f 44/44/44 42/42/42 45/45/45
f 40/40/40 41/41/41 46/46/46
f 46/46/46 43/43/43 40/40/40
f 41/41/41 44/44/44 46/46/46
f 47/47/47 44/44/44 45/45/45
f 47/47/47 45/45/45 48/48/48
f 49/49/49 43/43/43 46/46/46
f 49/49/49 12/12/12 43/43/43
f 46/46/46 44/44/44 50/50/50
f 50/50/50 49/49/49 46/46/46
f 44/44/44 47/47/47 50/50/50
f 51/51/51 47/47/47 48/48/48
f 51/51/51 48/48/48 52/52/52
f 53/53/53 49/49/49 50/50/50
f 53/53/53 12/12/12 49/49/49
f 50/50/50 47/47/47 54/54/54
f 54/54/54 53/53/53 50/50/50
f 47/47/47 51/51/51 54/54/54
f 55/55/55 51/51/51 52/52/52
f 55/55/55 52/52/52 56/56/56
f 57/57/57 53/53/53 54/54/54
f 57/57/57 12/12/12 53/53/53
f 54/54/54 51/51/51 58/58/58
f 58/58/58 57/57/57 54/54/54
f 51/51/51 55/55/55 58/58/58
f 59/59/59 55/55/55 56/56/56
f 59/59/59 56/56/56 60/60/60
f 61/61/61 12/12/12 57/57/57
f 61/61/61 57/57/57 58/58/58
f 58/58/58 55/55/55 62/62/62
f 62/62/62 61/61/61 58/58/58
f 55/55/55 59/59/59 62/62/62
f 63/63/63 12/12/12 61/61/61
f 63/63/63 61/61/61 62/62/62
f 64/64/64 12/12/12 63/63/63
f 65/65/65 12/12/12 64/64/64
f 66/66/66 63/63/63 62/62/62
f 62/62/62 59/59/59 66/66/66
f 64/64/64 63/63/63 66/66/66
f 67/67/67 59/59/59 60/60/60
f 59/59/59 67/67/67 66/66/66
f 67/67/67 60/60/60 68/68/68
f 69/69/69 64/64/64 66/66/66
f 66/66/66 67/67/67 69/69/69
f 65/65/65 64/64/64 69/69/69
f 70/70/70 67/67/67 68/68/68
f 67/67/67 70/70/70 69/69/69
f 70/70/70 68/68/68 71/71/71
f 72/72/72 65/65/65 69/69/69
f 69/69/69 70/70/70 72/72/72
f 73/73/73 70/70/70 71/71/71
f 70/70/70 73/73/73 72/72/72
f 73/73/73 71/71/71 74/74/74
f 75/75/75 65/65/65 72/72/72
f 75/75/75 12/12/12 65/65/65
f 76/76/76 73/73/73 74/74/74
f 76/76/76 74/74/74 77/77/77
f 72/72/72 73/73/73 78/78/78
f 78/78/78 75/75/75 72/72/72
f 73/73/73 76/76/76 78/78/78
f 79/79/79 76/76/76 77/77/77
f 79/79/79 77/77/77 80/80/80
f 81/81/81 75/75/75 78/78/78
f 81/81/81 12/12/12 75/75/75
f 78/78/78 76/76/76 82/82/82
f 82/82/82 81/81/81 78/78/78
f 76/76/76 79/79/79 82/82/82
f 83/83/83 79/79/79 80/80/80
f 83/83/83 80/80/80 84/84/84
f 85/85/85 81/81/81 82/82/82
f 85/85/85 12/12/12 81/81/81
f 82/82/82 79/79/79 86/86/86
f 86/86/86 85/85/85 82/82/82
f 79/79/79 83/83/83 86/86/86
f 87/87/87 83/83/83 84/84/84
f 87/87/87 84/84/84 88/88/88
f 89/89/89 85/85/85 86/86/86
f 89/89/89 12/12/12 85/85/85
f 86/86/86 83/83/83 90/90/90
f 90/90/90 89/89/89 86/86/86
f 83/83/83 87/87/87 90/90/90
f 91/91/91 87/87/87 88/88/88
f 91/91/91 88/88/88 92/92/92
f 93/93/93 12/12/12 89/89/89
f 93/93/93 89/89/89 90/90/90
f 90/90/90 87/87/87 94/94/94
f 94/94/94 93/93/93 90/90/90
f 87/87/87 91/91/91 94/94/94
f 95/95/95 12/12/12 93/93/93
f 95/95/95 93/93/93 94/94/94
f 96/96/96 12/12/12 95/95/95
f 97/97/97 95/95/95 94/94/94
f 96/96/96 95/95/95 97/97/97
f 94/94/94 91/91/91 97/97/97
f 98/98/98 96/96/96 97/97/97
f 99/99/99 91/91/91 92/92/92
f 91/91/91 99/99/99 97/97/97
f 97/97/97 99/99/99 98/98/98
f 99/99/99 92/92/92 100/100/100
f 99/99/99 101/101/101 98/98/98
f 101/101/101 99/99/99 100/100/100
